<svg width="759" height="194" viewBox="0 0 759 194" fill="none" xmlns="http://www.w3.org/2000/svg">
<path d="M256.988 48.4168C256.666 48.4235 256.41 48.6901 256.417 49.0122C256.424 49.3342 256.69 49.5899 257.012 49.5832L256.988 48.4168ZM305.421 48.4038C305.644 48.1713 305.636 47.802 305.404 47.579L301.615 43.9448C301.382 43.7218 301.013 43.7295 300.79 43.962C300.567 44.1945 300.575 44.5638 300.807 44.7868L304.175 48.0172L300.945 51.385C300.722 51.6175 300.73 51.9868 300.962 52.2098C301.195 52.4328 301.564 52.4251 301.787 52.1926L305.421 48.4038ZM257.012 49.5832L305.012 48.5832L304.988 47.4168L256.988 48.4168L257.012 49.5832Z" fill="black"/>
<path d="M256.988 158.417C256.666 158.424 256.41 158.69 256.417 159.012C256.424 159.334 256.69 159.59 257.012 159.583L256.988 158.417ZM305.421 158.404C305.644 158.171 305.636 157.802 305.404 157.579L301.615 153.945C301.382 153.722 301.013 153.73 300.79 153.962C300.567 154.195 300.575 154.564 300.807 154.787L304.175 158.017L300.945 161.385C300.722 161.618 300.73 161.987 300.962 162.21C301.195 162.433 301.564 162.425 301.787 162.193L305.421 158.404ZM257.012 159.583L305.012 158.583L304.988 157.417L256.988 158.417L257.012 159.583Z" fill="black"/>
<rect x="0.5" y="0.5" width="230" height="83" rx="15.5" stroke="black"/>
<rect x="0.5" y="110.5" width="230" height="83" rx="15.5" stroke="black"/>
<path d="M95.784 52C95.624 52 95.496 51.952 95.4 51.856C95.304 51.76 95.256 51.632 95.256 51.472V35.752C95.256 35.576 95.304 35.44 95.4 35.344C95.496 35.248 95.624 35.2 95.784 35.2H102.048C103.168 35.2 104.08 35.4 104.784 35.8C105.504 36.2 106.032 36.728 106.368 37.384C106.704 38.024 106.872 38.728 106.872 39.496C106.872 40.184 106.76 40.776 106.536 41.272C106.328 41.752 106.056 42.144 105.72 42.448C105.4 42.752 105.08 42.984 104.76 43.144C105.4 43.464 105.968 43.976 106.464 44.68C106.96 45.384 107.208 46.24 107.208 47.248C107.208 48.048 107.016 48.816 106.632 49.552C106.264 50.272 105.704 50.864 104.952 51.328C104.216 51.776 103.304 52 102.216 52H95.784ZM96.768 50.56H101.976C103.16 50.56 104.072 50.248 104.712 49.624C105.368 49 105.696 48.208 105.696 47.248C105.696 46.272 105.368 45.48 104.712 44.872C104.072 44.248 103.16 43.936 101.976 43.936H96.768V50.56ZM96.768 42.496H101.736C102.92 42.496 103.816 42.232 104.424 41.704C105.048 41.176 105.36 40.44 105.36 39.496C105.36 38.552 105.048 37.84 104.424 37.36C103.816 36.88 102.92 36.64 101.736 36.64H96.768V42.496ZM109.904 52C109.744 52 109.616 51.952 109.52 51.856C109.424 51.76 109.376 51.632 109.376 51.472V51.112C109.376 50.952 109.416 50.8 109.496 50.656C109.592 50.496 109.752 50.312 109.976 50.104L116.192 43.888C116.8 43.328 117.264 42.84 117.584 42.424C117.904 42.008 118.12 41.6 118.232 41.2C118.36 40.784 118.424 40.328 118.424 39.832C118.424 38.76 118.112 37.92 117.488 37.312C116.88 36.704 116.008 36.4 114.872 36.4C114.152 36.4 113.528 36.544 113 36.832C112.472 37.12 112.056 37.528 111.752 38.056C111.448 38.568 111.248 39.168 111.152 39.856C111.136 40.048 111.064 40.192 110.936 40.288C110.808 40.368 110.696 40.408 110.6 40.408H110.12C109.96 40.408 109.832 40.368 109.736 40.288C109.656 40.192 109.616 40.08 109.616 39.952C109.632 39.408 109.744 38.848 109.952 38.272C110.16 37.68 110.472 37.136 110.888 36.64C111.32 36.144 111.864 35.744 112.52 35.44C113.176 35.12 113.96 34.96 114.872 34.96C116.088 34.96 117.064 35.192 117.8 35.656C118.552 36.12 119.096 36.72 119.432 37.456C119.768 38.192 119.936 38.984 119.936 39.832C119.936 40.488 119.84 41.096 119.648 41.656C119.456 42.2 119.168 42.736 118.784 43.264C118.4 43.776 117.912 44.304 117.32 44.848L111.704 50.56H119.744C119.92 50.56 120.056 50.608 120.152 50.704C120.248 50.8 120.296 50.936 120.296 51.112V51.472C120.296 51.632 120.248 51.76 120.152 51.856C120.056 51.952 119.92 52 119.744 52H109.904ZM123.789 52C123.629 52 123.501 51.952 123.405 51.856C123.309 51.76 123.261 51.632 123.261 51.472V35.752C123.261 35.576 123.309 35.44 123.405 35.344C123.501 35.248 123.629 35.2 123.789 35.2H130.053C131.173 35.2 132.085 35.4 132.789 35.8C133.509 36.2 134.037 36.728 134.373 37.384C134.709 38.024 134.877 38.728 134.877 39.496C134.877 40.184 134.765 40.776 134.541 41.272C134.333 41.752 134.061 42.144 133.725 42.448C133.405 42.752 133.085 42.984 132.765 43.144C133.405 43.464 133.973 43.976 134.469 44.68C134.965 45.384 135.213 46.24 135.213 47.248C135.213 48.048 135.021 48.816 134.637 49.552C134.269 50.272 133.709 50.864 132.957 51.328C132.221 51.776 131.309 52 130.221 52H123.789ZM124.773 50.56H129.981C131.165 50.56 132.077 50.248 132.717 49.624C133.373 49 133.701 48.208 133.701 47.248C133.701 46.272 133.373 45.48 132.717 44.872C132.077 44.248 131.165 43.936 129.981 43.936H124.773V50.56ZM124.773 42.496H129.741C130.925 42.496 131.821 42.232 132.429 41.704C133.053 41.176 133.365 40.44 133.365 39.496C133.365 38.552 133.053 37.84 132.429 37.36C131.821 36.88 130.925 36.64 129.741 36.64H124.773V42.496Z" fill="black"/>
<path d="M95.784 162C95.624 162 95.496 161.952 95.4 161.856C95.304 161.76 95.256 161.632 95.256 161.472V145.752C95.256 145.576 95.304 145.44 95.4 145.344C95.496 145.248 95.624 145.2 95.784 145.2H102.048C103.168 145.2 104.08 145.4 104.784 145.8C105.504 146.2 106.032 146.728 106.368 147.384C106.704 148.024 106.872 148.728 106.872 149.496C106.872 150.184 106.76 150.776 106.536 151.272C106.328 151.752 106.056 152.144 105.72 152.448C105.4 152.752 105.08 152.984 104.76 153.144C105.4 153.464 105.968 153.976 106.464 154.68C106.96 155.384 107.208 156.24 107.208 157.248C107.208 158.048 107.016 158.816 106.632 159.552C106.264 160.272 105.704 160.864 104.952 161.328C104.216 161.776 103.304 162 102.216 162H95.784ZM96.768 160.56H101.976C103.16 160.56 104.072 160.248 104.712 159.624C105.368 159 105.696 158.208 105.696 157.248C105.696 156.272 105.368 155.48 104.712 154.872C104.072 154.248 103.16 153.936 101.976 153.936H96.768V160.56ZM96.768 152.496H101.736C102.92 152.496 103.816 152.232 104.424 151.704C105.048 151.176 105.36 150.44 105.36 149.496C105.36 148.552 105.048 147.84 104.424 147.36C103.816 146.88 102.92 146.64 101.736 146.64H96.768V152.496ZM109.904 162C109.744 162 109.616 161.952 109.52 161.856C109.424 161.76 109.376 161.632 109.376 161.472V161.112C109.376 160.952 109.416 160.8 109.496 160.656C109.592 160.496 109.752 160.312 109.976 160.104L116.192 153.888C116.8 153.328 117.264 152.84 117.584 152.424C117.904 152.008 118.12 151.6 118.232 151.2C118.36 150.784 118.424 150.328 118.424 149.832C118.424 148.76 118.112 147.92 117.488 147.312C116.88 146.704 116.008 146.4 114.872 146.4C114.152 146.4 113.528 146.544 113 146.832C112.472 147.12 112.056 147.528 111.752 148.056C111.448 148.568 111.248 149.168 111.152 149.856C111.136 150.048 111.064 150.192 110.936 150.288C110.808 150.368 110.696 150.408 110.6 150.408H110.12C109.96 150.408 109.832 150.368 109.736 150.288C109.656 150.192 109.616 150.08 109.616 149.952C109.632 149.408 109.744 148.848 109.952 148.272C110.16 147.68 110.472 147.136 110.888 146.64C111.32 146.144 111.864 145.744 112.52 145.44C113.176 145.12 113.96 144.96 114.872 144.96C116.088 144.96 117.064 145.192 117.8 145.656C118.552 146.12 119.096 146.72 119.432 147.456C119.768 148.192 119.936 148.984 119.936 149.832C119.936 150.488 119.84 151.096 119.648 151.656C119.456 152.2 119.168 152.736 118.784 153.264C118.4 153.776 117.912 154.304 117.32 154.848L111.704 160.56H119.744C119.92 160.56 120.056 160.608 120.152 160.704C120.248 160.8 120.296 160.936 120.296 161.112V161.472C120.296 161.632 120.248 161.76 120.152 161.856C120.056 161.952 119.92 162 119.744 162H109.904ZM128.949 162.24C127.493 162.24 126.301 161.96 125.373 161.4C124.461 160.824 123.781 160.048 123.333 159.072C122.885 158.096 122.637 156.984 122.589 155.736C122.573 155.08 122.565 154.376 122.565 153.624C122.565 152.872 122.573 152.152 122.589 151.464C122.637 150.216 122.885 149.104 123.333 148.128C123.781 147.136 124.461 146.36 125.373 145.8C126.301 145.24 127.493 144.96 128.949 144.96C130.085 144.96 131.053 145.12 131.853 145.44C132.653 145.76 133.301 146.184 133.797 146.712C134.309 147.224 134.685 147.784 134.925 148.392C135.181 148.984 135.325 149.568 135.357 150.144C135.373 150.288 135.325 150.408 135.213 150.504C135.117 150.584 134.997 150.624 134.853 150.624H134.373C134.245 150.624 134.133 150.592 134.037 150.528C133.941 150.448 133.877 150.312 133.845 150.12C133.541 148.696 132.965 147.72 132.117 147.192C131.285 146.664 130.229 146.4 128.949 146.4C127.493 146.4 126.333 146.816 125.469 147.648C124.621 148.464 124.165 149.776 124.101 151.584C124.053 152.896 124.053 154.24 124.101 155.616C124.165 157.424 124.621 158.744 125.469 159.576C126.333 160.392 127.493 160.8 128.949 160.8C130.229 160.8 131.285 160.536 132.117 160.008C132.965 159.48 133.541 158.504 133.845 157.08C133.877 156.888 133.941 156.76 134.037 156.696C134.133 156.616 134.245 156.576 134.373 156.576H134.853C134.997 156.576 135.117 156.624 135.213 156.72C135.325 156.8 135.373 156.912 135.357 157.056C135.325 157.632 135.181 158.224 134.925 158.832C134.685 159.424 134.309 159.984 133.797 160.512C133.301 161.024 132.653 161.44 131.853 161.76C131.053 162.08 130.085 162.24 128.949 162.24Z" fill="black"/>
<path d="M345.296 38.24C344 38.24 342.896 38.032 341.984 37.616C341.088 37.2 340.4 36.664 339.92 36.008C339.44 35.352 339.184 34.656 339.152 33.92C339.152 33.792 339.2 33.68 339.296 33.584C339.392 33.488 339.512 33.44 339.656 33.44H340.136C340.296 33.44 340.416 33.488 340.496 33.584C340.592 33.68 340.648 33.792 340.664 33.92C340.728 34.368 340.928 34.816 341.264 35.264C341.6 35.696 342.096 36.064 342.752 36.368C343.408 36.656 344.256 36.8 345.296 36.8C346.864 36.8 348.008 36.52 348.728 35.96C349.448 35.384 349.808 34.616 349.808 33.656C349.808 33.016 349.616 32.504 349.232 32.12C348.864 31.72 348.296 31.368 347.528 31.064C346.76 30.744 345.776 30.392 344.576 30.008C343.44 29.64 342.504 29.264 341.768 28.88C341.032 28.48 340.488 28 340.136 27.44C339.8 26.88 339.632 26.16 339.632 25.28C339.632 24.464 339.848 23.736 340.28 23.096C340.712 22.44 341.336 21.92 342.152 21.536C342.984 21.152 343.992 20.96 345.176 20.96C346.12 20.96 346.944 21.088 347.648 21.344C348.352 21.6 348.936 21.944 349.4 22.376C349.864 22.792 350.216 23.248 350.456 23.744C350.696 24.224 350.824 24.696 350.84 25.16C350.84 25.272 350.8 25.384 350.72 25.496C350.64 25.592 350.512 25.64 350.336 25.64H349.856C349.776 25.64 349.672 25.608 349.544 25.544C349.432 25.48 349.36 25.352 349.328 25.16C349.232 24.36 348.808 23.704 348.056 23.192C347.32 22.664 346.36 22.4 345.176 22.4C343.992 22.4 343.024 22.632 342.272 23.096C341.52 23.56 341.144 24.288 341.144 25.28C341.144 25.92 341.312 26.448 341.648 26.864C341.984 27.264 342.512 27.624 343.232 27.944C343.952 28.248 344.88 28.584 346.016 28.952C347.216 29.336 348.208 29.72 348.992 30.104C349.776 30.488 350.36 30.96 350.744 31.52C351.128 32.064 351.32 32.776 351.32 33.656C351.32 34.632 351.072 35.464 350.576 36.152C350.096 36.824 349.408 37.344 348.512 37.712C347.616 38.064 346.544 38.24 345.296 38.24ZM358.603 38.24C357.515 38.24 356.611 38.008 355.891 37.544C355.187 37.064 354.659 36.416 354.307 35.6C353.971 34.784 353.803 33.872 353.803 32.864V26.048C353.803 25.888 353.851 25.76 353.947 25.664C354.043 25.568 354.171 25.52 354.331 25.52H354.739C354.899 25.52 355.027 25.568 355.123 25.664C355.219 25.76 355.267 25.888 355.267 26.048V32.744C355.267 35.48 356.459 36.848 358.843 36.848C359.979 36.848 360.891 36.488 361.579 35.768C362.267 35.032 362.611 34.024 362.611 32.744V26.048C362.611 25.888 362.659 25.76 362.755 25.664C362.851 25.568 362.979 25.52 363.139 25.52H363.547C363.707 25.52 363.835 25.568 363.931 25.664C364.027 25.76 364.075 25.888 364.075 26.048V37.472C364.075 37.632 364.027 37.76 363.931 37.856C363.835 37.952 363.707 38 363.547 38H363.139C362.979 38 362.851 37.952 362.755 37.856C362.659 37.76 362.611 37.632 362.611 37.472V36.344C362.179 36.904 361.659 37.36 361.051 37.712C360.459 38.064 359.643 38.24 358.603 38.24ZM372.93 38.24C371.938 38.24 371.114 38.064 370.458 37.712C369.818 37.344 369.298 36.888 368.898 36.344V37.472C368.898 37.632 368.85 37.76 368.754 37.856C368.658 37.952 368.53 38 368.37 38H367.962C367.802 38 367.674 37.952 367.578 37.856C367.482 37.76 367.434 37.632 367.434 37.472V21.488C367.434 21.328 367.482 21.2 367.578 21.104C367.674 21.008 367.802 20.96 367.962 20.96H368.37C368.53 20.96 368.658 21.008 368.754 21.104C368.85 21.2 368.898 21.328 368.898 21.488V27.176C369.298 26.648 369.818 26.2 370.458 25.832C371.114 25.464 371.938 25.28 372.93 25.28C373.874 25.28 374.666 25.448 375.306 25.784C375.946 26.12 376.466 26.568 376.866 27.128C377.266 27.688 377.562 28.312 377.754 29C377.946 29.688 378.05 30.384 378.066 31.088C378.082 31.328 378.09 31.552 378.09 31.76C378.09 31.968 378.082 32.192 378.066 32.432C378.05 33.136 377.946 33.832 377.754 34.52C377.562 35.208 377.266 35.832 376.866 36.392C376.466 36.952 375.946 37.4 375.306 37.736C374.666 38.072 373.874 38.24 372.93 38.24ZM372.786 36.848C373.73 36.848 374.474 36.64 375.018 36.224C375.562 35.808 375.954 35.264 376.194 34.592C376.434 33.92 376.57 33.2 376.602 32.432C376.618 31.984 376.618 31.536 376.602 31.088C376.57 30.32 376.434 29.6 376.194 28.928C375.954 28.256 375.562 27.712 375.018 27.296C374.474 26.88 373.73 26.672 372.786 26.672C371.906 26.672 371.178 26.88 370.602 27.296C370.042 27.712 369.618 28.232 369.33 28.856C369.058 29.48 368.914 30.112 368.898 30.752C368.882 30.992 368.874 31.304 368.874 31.688C368.874 32.072 368.882 32.384 368.898 32.624C368.93 33.28 369.074 33.936 369.33 34.592C369.602 35.232 370.018 35.768 370.578 36.2C371.138 36.632 371.874 36.848 372.786 36.848ZM384.74 38.24C383.908 38.24 383.188 38.128 382.58 37.904C381.988 37.68 381.5 37.416 381.116 37.112C380.732 36.792 380.444 36.48 380.252 36.176C380.076 35.872 379.98 35.64 379.964 35.48C379.948 35.304 380.004 35.176 380.132 35.096C380.26 35 380.38 34.952 380.492 34.952H380.852C380.948 34.952 381.028 34.968 381.092 35C381.172 35.032 381.268 35.12 381.38 35.264C381.588 35.536 381.828 35.8 382.1 36.056C382.372 36.296 382.716 36.488 383.132 36.632C383.564 36.776 384.1 36.848 384.74 36.848C385.7 36.848 386.492 36.664 387.116 36.296C387.74 35.928 388.052 35.384 388.052 34.664C388.052 34.216 387.924 33.856 387.668 33.584C387.428 33.312 387.012 33.072 386.42 32.864C385.828 32.656 385.028 32.44 384.02 32.216C383.012 31.976 382.236 31.688 381.692 31.352C381.164 31.016 380.804 30.632 380.612 30.2C380.42 29.752 380.324 29.272 380.324 28.76C380.324 28.2 380.484 27.656 380.804 27.128C381.124 26.584 381.596 26.144 382.22 25.808C382.86 25.456 383.66 25.28 384.62 25.28C385.404 25.28 386.068 25.384 386.612 25.592C387.172 25.8 387.628 26.056 387.98 26.36C388.332 26.648 388.588 26.936 388.748 27.224C388.924 27.512 389.02 27.744 389.036 27.92C389.052 28.08 389.004 28.208 388.892 28.304C388.78 28.4 388.652 28.448 388.508 28.448H388.148C388.02 28.448 387.916 28.424 387.836 28.376C387.756 28.312 387.684 28.232 387.62 28.136C387.46 27.88 387.268 27.64 387.044 27.416C386.82 27.192 386.516 27.016 386.132 26.888C385.764 26.744 385.26 26.672 384.62 26.672C383.66 26.672 382.948 26.872 382.484 27.272C382.02 27.656 381.788 28.152 381.788 28.76C381.788 29.112 381.884 29.424 382.076 29.696C382.268 29.952 382.628 30.192 383.156 30.416C383.684 30.624 384.452 30.848 385.46 31.088C386.484 31.312 387.292 31.592 387.884 31.928C388.476 32.248 388.892 32.632 389.132 33.08C389.388 33.528 389.516 34.056 389.516 34.664C389.516 35.304 389.332 35.896 388.964 36.44C388.612 36.984 388.076 37.424 387.356 37.76C386.652 38.08 385.78 38.24 384.74 38.24ZM396.769 38.24C395.649 38.24 394.697 38.024 393.913 37.592C393.129 37.144 392.529 36.504 392.113 35.672C391.713 34.84 391.497 33.856 391.465 32.72C391.449 32.48 391.441 32.16 391.441 31.76C391.441 31.36 391.449 31.04 391.465 30.8C391.497 29.648 391.713 28.664 392.113 27.848C392.529 27.016 393.129 26.384 393.913 25.952C394.697 25.504 395.649 25.28 396.769 25.28C397.617 25.28 398.345 25.4 398.953 25.64C399.577 25.864 400.089 26.168 400.489 26.552C400.889 26.92 401.193 27.328 401.401 27.776C401.609 28.224 401.721 28.664 401.737 29.096C401.753 29.256 401.705 29.384 401.593 29.48C401.481 29.576 401.353 29.624 401.209 29.624H400.873C400.713 29.624 400.593 29.592 400.513 29.528C400.449 29.448 400.377 29.312 400.297 29.12C399.961 28.208 399.497 27.576 398.905 27.224C398.329 26.856 397.617 26.672 396.769 26.672C395.681 26.672 394.777 27.008 394.057 27.68C393.353 28.336 392.977 29.416 392.929 30.92C392.897 31.48 392.897 32.04 392.929 32.6C392.977 34.104 393.353 35.192 394.057 35.864C394.777 36.52 395.681 36.848 396.769 36.848C397.617 36.848 398.329 36.672 398.905 36.32C399.497 35.952 399.961 35.312 400.297 34.4C400.377 34.208 400.449 34.08 400.513 34.016C400.593 33.936 400.713 33.896 400.873 33.896H401.209C401.353 33.896 401.481 33.944 401.593 34.04C401.705 34.136 401.753 34.264 401.737 34.424C401.721 34.776 401.649 35.128 401.521 35.48C401.393 35.832 401.193 36.176 400.921 36.512C400.665 36.848 400.345 37.144 399.961 37.4C399.577 37.656 399.113 37.856 398.569 38C398.041 38.16 397.441 38.24 396.769 38.24ZM404.884 38C404.724 38 404.596 37.952 404.5 37.856C404.404 37.76 404.356 37.632 404.356 37.472V26.072C404.356 25.912 404.404 25.784 404.5 25.688C404.596 25.576 404.724 25.52 404.884 25.52H405.268C405.428 25.52 405.556 25.576 405.652 25.688C405.764 25.784 405.82 25.912 405.82 26.072V27.176C406.108 26.616 406.524 26.2 407.068 25.928C407.612 25.656 408.284 25.52 409.084 25.52H409.972C410.132 25.52 410.26 25.568 410.356 25.664C410.452 25.76 410.5 25.888 410.5 26.048V26.384C410.5 26.544 410.452 26.672 410.356 26.768C410.26 26.864 410.132 26.912 409.972 26.912H408.94C407.98 26.912 407.22 27.192 406.66 27.752C406.1 28.312 405.82 29.072 405.82 30.032V37.472C405.82 37.632 405.764 37.76 405.652 37.856C405.556 37.952 405.428 38 405.268 38H404.884ZM412.676 38C412.516 38 412.388 37.952 412.292 37.856C412.196 37.76 412.148 37.632 412.148 37.472V26.048C412.148 25.888 412.196 25.76 412.292 25.664C412.388 25.568 412.516 25.52 412.676 25.52H413.084C413.244 25.52 413.372 25.568 413.468 25.664C413.564 25.76 413.612 25.888 413.612 26.048V37.472C413.612 37.632 413.564 37.76 413.468 37.856C413.372 37.952 413.244 38 413.084 38H412.676ZM412.412 22.952C412.252 22.952 412.124 22.904 412.028 22.808C411.932 22.712 411.884 22.584 411.884 22.424V21.512C411.884 21.352 411.932 21.224 412.028 21.128C412.124 21.016 412.252 20.96 412.412 20.96H413.324C413.484 20.96 413.612 21.016 413.708 21.128C413.82 21.224 413.876 21.352 413.876 21.512V22.424C413.876 22.584 413.82 22.712 413.708 22.808C413.612 22.904 413.484 22.952 413.324 22.952H412.412ZM417.491 42.56C417.331 42.56 417.203 42.512 417.107 42.416C417.011 42.32 416.963 42.192 416.963 42.032V26.048C416.963 25.888 417.011 25.76 417.107 25.664C417.203 25.568 417.331 25.52 417.491 25.52H417.899C418.059 25.52 418.187 25.568 418.283 25.664C418.379 25.76 418.427 25.888 418.427 26.048V27.176C418.827 26.632 419.347 26.184 419.987 25.832C420.643 25.464 421.467 25.28 422.459 25.28C423.403 25.28 424.195 25.448 424.835 25.784C425.475 26.104 425.995 26.536 426.395 27.08C426.795 27.624 427.091 28.232 427.283 28.904C427.475 29.576 427.579 30.264 427.595 30.968C427.611 31.208 427.619 31.472 427.619 31.76C427.619 32.048 427.611 32.312 427.595 32.552C427.579 33.256 427.475 33.944 427.283 34.616C427.091 35.288 426.795 35.896 426.395 36.44C425.995 36.984 425.475 37.424 424.835 37.76C424.195 38.08 423.403 38.24 422.459 38.24C421.467 38.24 420.643 38.056 419.987 37.688C419.347 37.32 418.827 36.872 418.427 36.344V42.032C418.427 42.192 418.379 42.32 418.283 42.416C418.187 42.512 418.059 42.56 417.899 42.56H417.491ZM422.315 36.848C423.259 36.848 424.003 36.64 424.547 36.224C425.091 35.808 425.483 35.264 425.723 34.592C425.963 33.92 426.099 33.2 426.131 32.432C426.147 31.984 426.147 31.536 426.131 31.088C426.099 30.32 425.963 29.6 425.723 28.928C425.483 28.256 425.091 27.712 424.547 27.296C424.003 26.88 423.259 26.672 422.315 26.672C421.403 26.672 420.667 26.888 420.107 27.32C419.547 27.752 419.131 28.296 418.859 28.952C418.603 29.592 418.459 30.24 418.427 30.896C418.411 31.136 418.403 31.448 418.403 31.832C418.403 32.216 418.411 32.528 418.427 32.768C418.443 33.408 418.587 34.04 418.859 34.664C419.147 35.288 419.571 35.808 420.131 36.224C420.707 36.64 421.435 36.848 422.315 36.848ZM434.369 38C433.537 38 432.881 37.824 432.401 37.472C431.921 37.12 431.585 36.64 431.393 36.032C431.201 35.424 431.105 34.744 431.105 33.992V26.912H429.233C429.073 26.912 428.945 26.864 428.849 26.768C428.753 26.672 428.705 26.544 428.705 26.384V26.048C428.705 25.888 428.753 25.76 428.849 25.664C428.945 25.568 429.073 25.52 429.233 25.52H431.105V21.488C431.105 21.328 431.153 21.2 431.249 21.104C431.345 21.008 431.473 20.96 431.633 20.96H432.041C432.201 20.96 432.329 21.008 432.425 21.104C432.521 21.2 432.569 21.328 432.569 21.488V25.52H435.545C435.705 25.52 435.833 25.568 435.929 25.664C436.025 25.76 436.073 25.888 436.073 26.048V26.384C436.073 26.544 436.025 26.672 435.929 26.768C435.833 26.864 435.705 26.912 435.545 26.912H432.569V33.896C432.569 34.744 432.705 35.408 432.977 35.888C433.265 36.368 433.769 36.608 434.489 36.608H435.785C435.945 36.608 436.073 36.656 436.169 36.752C436.265 36.848 436.313 36.976 436.313 37.136V37.472C436.313 37.632 436.265 37.76 436.169 37.856C436.073 37.952 435.945 38 435.785 38H434.369ZM438.77 38C438.61 38 438.482 37.952 438.386 37.856C438.29 37.76 438.242 37.632 438.242 37.472V26.048C438.242 25.888 438.29 25.76 438.386 25.664C438.482 25.568 438.61 25.52 438.77 25.52H439.178C439.338 25.52 439.466 25.568 439.562 25.664C439.658 25.76 439.706 25.888 439.706 26.048V37.472C439.706 37.632 439.658 37.76 439.562 37.856C439.466 37.952 439.338 38 439.178 38H438.77ZM438.506 22.952C438.346 22.952 438.218 22.904 438.122 22.808C438.026 22.712 437.978 22.584 437.978 22.424V21.512C437.978 21.352 438.026 21.224 438.122 21.128C438.218 21.016 438.346 20.96 438.506 20.96H439.418C439.578 20.96 439.706 21.016 439.802 21.128C439.914 21.224 439.97 21.352 439.97 21.512V22.424C439.97 22.584 439.914 22.712 439.802 22.808C439.706 22.904 439.578 22.952 439.418 22.952H438.506ZM447.785 38.24C446.633 38.24 445.665 38 444.881 37.52C444.113 37.04 443.521 36.384 443.105 35.552C442.705 34.72 442.489 33.792 442.457 32.768C442.441 32.528 442.433 32.192 442.433 31.76C442.433 31.328 442.441 30.992 442.457 30.752C442.489 29.712 442.705 28.784 443.105 27.968C443.521 27.136 444.113 26.48 444.881 26C445.665 25.52 446.633 25.28 447.785 25.28C448.937 25.28 449.897 25.52 450.665 26C451.449 26.48 452.041 27.136 452.441 27.968C452.857 28.784 453.081 29.712 453.113 30.752C453.129 30.992 453.137 31.328 453.137 31.76C453.137 32.192 453.129 32.528 453.113 32.768C453.081 33.792 452.857 34.72 452.441 35.552C452.041 36.384 451.449 37.04 450.665 37.52C449.897 38 448.937 38.24 447.785 38.24ZM447.785 36.848C448.905 36.848 449.817 36.488 450.521 35.768C451.225 35.048 451.601 34.008 451.649 32.648C451.665 32.408 451.673 32.112 451.673 31.76C451.673 31.408 451.665 31.112 451.649 30.872C451.601 29.496 451.225 28.456 450.521 27.752C449.817 27.032 448.905 26.672 447.785 26.672C446.665 26.672 445.753 27.032 445.049 27.752C444.345 28.456 443.969 29.496 443.921 30.872C443.905 31.112 443.897 31.408 443.897 31.76C443.897 32.112 443.905 32.408 443.921 32.648C443.969 34.008 444.345 35.048 445.049 35.768C445.753 36.488 446.665 36.848 447.785 36.848ZM456.392 38C456.232 38 456.104 37.952 456.008 37.856C455.912 37.76 455.864 37.632 455.864 37.472V26.048C455.864 25.888 455.912 25.76 456.008 25.664C456.104 25.568 456.232 25.52 456.392 25.52H456.8C456.96 25.52 457.088 25.568 457.184 25.664C457.28 25.76 457.328 25.888 457.328 26.048V27.176C457.76 26.616 458.28 26.16 458.888 25.808C459.512 25.456 460.336 25.28 461.36 25.28C462.448 25.28 463.352 25.52 464.072 26C464.808 26.464 465.352 27.104 465.704 27.92C466.072 28.72 466.256 29.632 466.256 30.656V37.472C466.256 37.632 466.208 37.76 466.112 37.856C466.016 37.952 465.888 38 465.728 38H465.32C465.16 38 465.032 37.952 464.936 37.856C464.84 37.76 464.792 37.632 464.792 37.472V30.776C464.792 29.496 464.48 28.496 463.856 27.776C463.232 27.04 462.32 26.672 461.12 26.672C459.984 26.672 459.064 27.04 458.36 27.776C457.672 28.496 457.328 29.496 457.328 30.776V37.472C457.328 37.632 457.28 37.76 457.184 37.856C457.088 37.952 456.96 38 456.8 38H456.392ZM340.496 78.56C340.336 78.56 340.208 78.512 340.112 78.416C340.016 78.32 339.968 78.192 339.968 78.032V62.048C339.968 61.888 340.016 61.76 340.112 61.664C340.208 61.568 340.336 61.52 340.496 61.52H340.904C341.064 61.52 341.192 61.568 341.288 61.664C341.384 61.76 341.432 61.888 341.432 62.048V63.176C341.832 62.632 342.352 62.184 342.992 61.832C343.648 61.464 344.472 61.28 345.464 61.28C346.408 61.28 347.2 61.448 347.84 61.784C348.48 62.104 349 62.536 349.4 63.08C349.8 63.624 350.096 64.232 350.288 64.904C350.48 65.576 350.584 66.264 350.6 66.968C350.616 67.208 350.624 67.472 350.624 67.76C350.624 68.048 350.616 68.312 350.6 68.552C350.584 69.256 350.48 69.944 350.288 70.616C350.096 71.288 349.8 71.896 349.4 72.44C349 72.984 348.48 73.424 347.84 73.76C347.2 74.08 346.408 74.24 345.464 74.24C344.472 74.24 343.648 74.056 342.992 73.688C342.352 73.32 341.832 72.872 341.432 72.344V78.032C341.432 78.192 341.384 78.32 341.288 78.416C341.192 78.512 341.064 78.56 340.904 78.56H340.496ZM345.32 72.848C346.264 72.848 347.008 72.64 347.552 72.224C348.096 71.808 348.488 71.264 348.728 70.592C348.968 69.92 349.104 69.2 349.136 68.432C349.152 67.984 349.152 67.536 349.136 67.088C349.104 66.32 348.968 65.6 348.728 64.928C348.488 64.256 348.096 63.712 347.552 63.296C347.008 62.88 346.264 62.672 345.32 62.672C344.408 62.672 343.672 62.888 343.112 63.32C342.552 63.752 342.136 64.296 341.864 64.952C341.608 65.592 341.464 66.24 341.432 66.896C341.416 67.136 341.408 67.448 341.408 67.832C341.408 68.216 341.416 68.528 341.432 68.768C341.448 69.408 341.592 70.04 341.864 70.664C342.152 71.288 342.576 71.808 343.136 72.224C343.712 72.64 344.44 72.848 345.32 72.848ZM356.697 74.24C355.929 74.24 355.217 74.08 354.561 73.76C353.921 73.44 353.401 73.016 353.001 72.488C352.601 71.944 352.401 71.336 352.401 70.664C352.401 69.576 352.841 68.704 353.721 68.048C354.601 67.392 355.745 66.968 357.153 66.776L360.945 66.248V65.408C360.945 64.56 360.681 63.896 360.153 63.416C359.641 62.92 358.817 62.672 357.681 62.672C356.849 62.672 356.177 62.84 355.665 63.176C355.153 63.496 354.801 63.92 354.609 64.448C354.529 64.688 354.377 64.808 354.153 64.808H353.769C353.577 64.808 353.441 64.76 353.361 64.664C353.281 64.552 353.241 64.424 353.241 64.28C353.241 64.056 353.321 63.776 353.481 63.44C353.657 63.104 353.921 62.776 354.273 62.456C354.625 62.12 355.081 61.84 355.641 61.616C356.201 61.392 356.881 61.28 357.681 61.28C358.625 61.28 359.401 61.408 360.009 61.664C360.633 61.92 361.113 62.256 361.449 62.672C361.801 63.072 362.049 63.52 362.193 64.016C362.337 64.512 362.409 65 362.409 65.48V73.472C362.409 73.632 362.361 73.76 362.265 73.856C362.169 73.952 362.041 74 361.881 74H361.473C361.313 74 361.185 73.952 361.089 73.856C360.993 73.76 360.945 73.632 360.945 73.472V72.344C360.753 72.632 360.481 72.92 360.129 73.208C359.777 73.496 359.321 73.744 358.761 73.952C358.217 74.144 357.529 74.24 356.697 74.24ZM356.937 72.848C357.673 72.848 358.345 72.688 358.953 72.368C359.561 72.048 360.041 71.56 360.393 70.904C360.761 70.232 360.945 69.392 360.945 68.384V67.568L357.849 68C356.537 68.176 355.545 68.48 354.873 68.912C354.201 69.344 353.865 69.888 353.865 70.544C353.865 71.072 354.017 71.504 354.321 71.84C354.625 72.176 355.009 72.432 355.473 72.608C355.953 72.768 356.441 72.848 356.937 72.848ZM366.181 74C366.021 74 365.892 73.952 365.797 73.856C365.7 73.76 365.652 73.632 365.652 73.472V62.048C365.652 61.888 365.7 61.76 365.797 61.664C365.892 61.568 366.021 61.52 366.181 61.52H366.589C366.749 61.52 366.877 61.568 366.973 61.664C367.069 61.76 367.117 61.888 367.117 62.048V73.472C367.117 73.632 367.069 73.76 366.973 73.856C366.877 73.952 366.749 74 366.589 74H366.181ZM365.917 58.952C365.757 58.952 365.628 58.904 365.533 58.808C365.436 58.712 365.388 58.584 365.388 58.424V57.512C365.388 57.352 365.436 57.224 365.533 57.128C365.628 57.016 365.757 56.96 365.917 56.96H366.829C366.988 56.96 367.117 57.016 367.213 57.128C367.325 57.224 367.381 57.352 367.381 57.512V58.424C367.381 58.584 367.325 58.712 367.213 58.808C367.117 58.904 366.988 58.952 366.829 58.952H365.917ZM374.956 74.24C374.028 74.24 373.236 74.072 372.58 73.736C371.94 73.4 371.42 72.952 371.02 72.392C370.62 71.832 370.324 71.208 370.132 70.52C369.956 69.832 369.852 69.136 369.82 68.432C369.804 68.192 369.796 67.968 369.796 67.76C369.796 67.552 369.804 67.328 369.82 67.088C369.852 66.384 369.956 65.688 370.132 65C370.324 64.312 370.62 63.688 371.02 63.128C371.42 62.568 371.94 62.12 372.58 61.784C373.236 61.448 374.028 61.28 374.956 61.28C375.948 61.28 376.764 61.464 377.404 61.832C378.06 62.2 378.588 62.648 378.988 63.176V57.488C378.988 57.328 379.036 57.2 379.132 57.104C379.228 57.008 379.356 56.96 379.516 56.96H379.924C380.084 56.96 380.212 57.008 380.308 57.104C380.404 57.2 380.452 57.328 380.452 57.488V73.472C380.452 73.632 380.404 73.76 380.308 73.856C380.212 73.952 380.084 74 379.924 74H379.516C379.356 74 379.228 73.952 379.132 73.856C379.036 73.76 378.988 73.632 378.988 73.472V72.344C378.588 72.888 378.06 73.344 377.404 73.712C376.764 74.064 375.948 74.24 374.956 74.24ZM375.1 72.848C376.012 72.848 376.748 72.632 377.308 72.2C377.868 71.768 378.284 71.232 378.556 70.592C378.828 69.936 378.972 69.28 378.988 68.624C379.004 68.384 379.012 68.072 379.012 67.688C379.012 67.304 379.004 66.992 378.988 66.752C378.972 66.112 378.82 65.48 378.532 64.856C378.26 64.232 377.844 63.712 377.284 63.296C376.724 62.88 375.996 62.672 375.1 62.672C374.172 62.672 373.428 62.88 372.868 63.296C372.324 63.712 371.932 64.256 371.692 64.928C371.452 65.6 371.316 66.32 371.284 67.088C371.268 67.536 371.268 67.984 371.284 68.432C371.316 69.2 371.452 69.92 371.692 70.592C371.932 71.264 372.324 71.808 372.868 72.224C373.428 72.64 374.172 72.848 375.1 72.848ZM390.685 74C390.525 74 390.397 73.952 390.301 73.856C390.205 73.76 390.157 73.632 390.157 73.472V62.912H388.021C387.861 62.912 387.733 62.864 387.637 62.768C387.541 62.672 387.493 62.544 387.493 62.384V62.048C387.493 61.888 387.541 61.76 387.637 61.664C387.733 61.568 387.861 61.52 388.021 61.52H390.157V60.152C390.157 59.432 390.253 58.776 390.445 58.184C390.653 57.592 391.013 57.12 391.525 56.768C392.053 56.416 392.805 56.24 393.781 56.24H395.029C395.189 56.24 395.317 56.288 395.413 56.384C395.509 56.48 395.557 56.608 395.557 56.768V57.104C395.557 57.264 395.509 57.392 395.413 57.488C395.317 57.584 395.189 57.632 395.029 57.632H393.781C392.933 57.632 392.357 57.864 392.053 58.328C391.765 58.776 391.621 59.424 391.621 60.272V61.52H394.789C394.949 61.52 395.077 61.568 395.173 61.664C395.269 61.76 395.317 61.888 395.317 62.048V62.384C395.317 62.544 395.269 62.672 395.173 62.768C395.077 62.864 394.949 62.912 394.789 62.912H391.621V73.472C391.621 73.632 391.573 73.76 391.477 73.856C391.381 73.952 391.253 74 391.093 74H390.685ZM401.572 74.24C400.42 74.24 399.452 74 398.667 73.52C397.899 73.04 397.307 72.384 396.891 71.552C396.491 70.72 396.275 69.792 396.243 68.768C396.227 68.528 396.219 68.192 396.219 67.76C396.219 67.328 396.227 66.992 396.243 66.752C396.275 65.712 396.491 64.784 396.891 63.968C397.307 63.136 397.899 62.48 398.667 62C399.452 61.52 400.42 61.28 401.572 61.28C402.724 61.28 403.684 61.52 404.452 62C405.236 62.48 405.828 63.136 406.228 63.968C406.644 64.784 406.868 65.712 406.9 66.752C406.916 66.992 406.924 67.328 406.924 67.76C406.924 68.192 406.916 68.528 406.9 68.768C406.868 69.792 406.644 70.72 406.228 71.552C405.828 72.384 405.236 73.04 404.452 73.52C403.684 74 402.724 74.24 401.572 74.24ZM401.572 72.848C402.691 72.848 403.603 72.488 404.307 71.768C405.011 71.048 405.388 70.008 405.436 68.648C405.452 68.408 405.46 68.112 405.46 67.76C405.46 67.408 405.452 67.112 405.436 66.872C405.388 65.496 405.011 64.456 404.307 63.752C403.603 63.032 402.691 62.672 401.572 62.672C400.451 62.672 399.539 63.032 398.835 63.752C398.131 64.456 397.755 65.496 397.707 66.872C397.691 67.112 397.683 67.408 397.683 67.76C397.683 68.112 397.691 68.408 397.707 68.648C397.755 70.008 398.131 71.048 398.835 71.768C399.539 72.488 400.451 72.848 401.572 72.848ZM410.178 74C410.018 74 409.89 73.952 409.794 73.856C409.698 73.76 409.65 73.632 409.65 73.472V62.072C409.65 61.912 409.698 61.784 409.794 61.688C409.89 61.576 410.018 61.52 410.178 61.52H410.562C410.722 61.52 410.85 61.576 410.946 61.688C411.058 61.784 411.114 61.912 411.114 62.072V63.176C411.402 62.616 411.818 62.2 412.362 61.928C412.906 61.656 413.578 61.52 414.378 61.52H415.266C415.426 61.52 415.554 61.568 415.65 61.664C415.746 61.76 415.794 61.888 415.794 62.048V62.384C415.794 62.544 415.746 62.672 415.65 62.768C415.554 62.864 415.426 62.912 415.266 62.912H414.234C413.274 62.912 412.514 63.192 411.954 63.752C411.394 64.312 411.114 65.072 411.114 66.032V73.472C411.114 73.632 411.058 73.76 410.946 73.856C410.85 73.952 410.722 74 410.562 74H410.178ZM428.012 74.24C427.02 74.24 426.196 74.064 425.54 73.712C424.9 73.344 424.38 72.888 423.98 72.344V73.472C423.98 73.632 423.932 73.76 423.836 73.856C423.74 73.952 423.612 74 423.452 74H423.044C422.884 74 422.756 73.952 422.66 73.856C422.564 73.76 422.516 73.632 422.516 73.472V57.488C422.516 57.328 422.564 57.2 422.66 57.104C422.756 57.008 422.884 56.96 423.044 56.96H423.452C423.612 56.96 423.74 57.008 423.836 57.104C423.932 57.2 423.98 57.328 423.98 57.488V63.176C424.38 62.648 424.9 62.2 425.54 61.832C426.196 61.464 427.02 61.28 428.012 61.28C428.956 61.28 429.748 61.448 430.388 61.784C431.028 62.12 431.548 62.568 431.948 63.128C432.348 63.688 432.644 64.312 432.836 65C433.028 65.688 433.132 66.384 433.148 67.088C433.164 67.328 433.172 67.552 433.172 67.76C433.172 67.968 433.164 68.192 433.148 68.432C433.132 69.136 433.028 69.832 432.836 70.52C432.644 71.208 432.348 71.832 431.948 72.392C431.548 72.952 431.028 73.4 430.388 73.736C429.748 74.072 428.956 74.24 428.012 74.24ZM427.868 72.848C428.812 72.848 429.556 72.64 430.1 72.224C430.644 71.808 431.036 71.264 431.276 70.592C431.516 69.92 431.652 69.2 431.684 68.432C431.7 67.984 431.7 67.536 431.684 67.088C431.652 66.32 431.516 65.6 431.276 64.928C431.036 64.256 430.644 63.712 430.1 63.296C429.556 62.88 428.812 62.672 427.868 62.672C426.988 62.672 426.26 62.88 425.684 63.296C425.124 63.712 424.7 64.232 424.412 64.856C424.14 65.48 423.996 66.112 423.98 66.752C423.964 66.992 423.956 67.304 423.956 67.688C423.956 68.072 423.964 68.384 423.98 68.624C424.012 69.28 424.156 69.936 424.412 70.592C424.684 71.232 425.1 71.768 425.66 72.2C426.22 72.632 426.956 72.848 427.868 72.848ZM437.528 78.56C437.4 78.56 437.288 78.512 437.192 78.416C437.096 78.32 437.048 78.208 437.048 78.08C437.048 78.016 437.056 77.944 437.072 77.864C437.104 77.8 437.144 77.712 437.192 77.6L439.04 73.28L434.456 62.48C434.36 62.24 434.312 62.08 434.312 62C434.312 61.872 434.36 61.76 434.456 61.664C434.552 61.568 434.664 61.52 434.792 61.52H435.296C435.456 61.52 435.576 61.56 435.656 61.64C435.752 61.704 435.816 61.784 435.848 61.88L439.88 71.384L444.008 61.88C444.056 61.784 444.12 61.704 444.2 61.64C444.28 61.56 444.4 61.52 444.56 61.52H445.04C445.168 61.52 445.28 61.568 445.376 61.664C445.472 61.76 445.52 61.872 445.52 62C445.52 62.08 445.472 62.24 445.376 62.48L438.56 78.2C438.512 78.296 438.448 78.376 438.368 78.44C438.288 78.52 438.168 78.56 438.008 78.56H437.528ZM456.278 74C455.446 74 454.79 73.824 454.31 73.472C453.83 73.12 453.494 72.64 453.302 72.032C453.11 71.424 453.014 70.744 453.014 69.992V62.912H451.142C450.982 62.912 450.854 62.864 450.758 62.768C450.662 62.672 450.614 62.544 450.614 62.384V62.048C450.614 61.888 450.662 61.76 450.758 61.664C450.854 61.568 450.982 61.52 451.142 61.52H453.014V57.488C453.014 57.328 453.062 57.2 453.158 57.104C453.254 57.008 453.382 56.96 453.542 56.96H453.95C454.11 56.96 454.238 57.008 454.334 57.104C454.43 57.2 454.478 57.328 454.478 57.488V61.52H457.454C457.614 61.52 457.742 61.568 457.838 61.664C457.934 61.76 457.982 61.888 457.982 62.048V62.384C457.982 62.544 457.934 62.672 457.838 62.768C457.742 62.864 457.614 62.912 457.454 62.912H454.478V69.896C454.478 70.744 454.614 71.408 454.886 71.888C455.174 72.368 455.678 72.608 456.398 72.608H457.694C457.854 72.608 457.982 72.656 458.078 72.752C458.174 72.848 458.222 72.976 458.222 73.136V73.472C458.222 73.632 458.174 73.76 458.078 73.856C457.982 73.952 457.854 74 457.694 74H456.278ZM460.703 74C460.543 74 460.415 73.952 460.319 73.856C460.223 73.76 460.175 73.632 460.175 73.472V57.488C460.175 57.328 460.223 57.2 460.319 57.104C460.415 57.008 460.543 56.96 460.703 56.96H461.111C461.271 56.96 461.399 57.008 461.495 57.104C461.591 57.2 461.639 57.328 461.639 57.488V63.176C462.071 62.616 462.591 62.16 463.199 61.808C463.823 61.456 464.647 61.28 465.671 61.28C466.759 61.28 467.663 61.52 468.383 62C469.119 62.464 469.663 63.104 470.015 63.92C470.383 64.72 470.567 65.632 470.567 66.656V73.472C470.567 73.632 470.519 73.76 470.423 73.856C470.327 73.952 470.199 74 470.039 74H469.631C469.471 74 469.343 73.952 469.247 73.856C469.151 73.76 469.103 73.632 469.103 73.472V66.776C469.103 65.496 468.791 64.496 468.167 63.776C467.543 63.04 466.631 62.672 465.431 62.672C464.295 62.672 463.375 63.04 462.671 63.776C461.983 64.496 461.639 65.496 461.639 66.776V73.472C461.639 73.632 461.591 73.76 461.495 73.856C461.399 73.952 461.271 74 461.111 74H460.703ZM478.411 74.24C476.859 74.24 475.627 73.736 474.715 72.728C473.803 71.704 473.283 70.368 473.155 68.72C473.139 68.48 473.131 68.16 473.131 67.76C473.131 67.36 473.139 67.04 473.155 66.8C473.235 65.712 473.491 64.752 473.923 63.92C474.355 63.088 474.947 62.44 475.699 61.976C476.467 61.512 477.371 61.28 478.411 61.28C479.531 61.28 480.483 61.528 481.267 62.024C482.051 62.52 482.651 63.232 483.067 64.16C483.499 65.088 483.715 66.192 483.715 67.472V67.832C483.715 67.992 483.659 68.12 483.547 68.216C483.451 68.312 483.323 68.36 483.163 68.36H474.619C474.619 68.36 474.619 68.392 474.619 68.456C474.619 68.52 474.619 68.568 474.619 68.6C474.651 69.32 474.819 70.008 475.123 70.664C475.427 71.304 475.859 71.832 476.419 72.248C476.979 72.648 477.643 72.848 478.411 72.848C479.099 72.848 479.667 72.744 480.115 72.536C480.579 72.328 480.947 72.104 481.219 71.864C481.491 71.608 481.667 71.416 481.747 71.288C481.891 71.08 482.003 70.96 482.083 70.928C482.163 70.88 482.291 70.856 482.467 70.856H482.851C482.995 70.856 483.115 70.904 483.211 71C483.323 71.08 483.371 71.192 483.355 71.336C483.339 71.56 483.211 71.84 482.971 72.176C482.747 72.496 482.419 72.816 481.987 73.136C481.571 73.456 481.059 73.72 480.451 73.928C479.843 74.136 479.163 74.24 478.411 74.24ZM474.619 67.016H482.251V66.92C482.251 66.12 482.099 65.4 481.795 64.76C481.491 64.12 481.051 63.616 480.475 63.248C479.899 62.864 479.211 62.672 478.411 62.672C477.611 62.672 476.923 62.864 476.347 63.248C475.787 63.616 475.355 64.12 475.051 64.76C474.763 65.4 474.619 66.12 474.619 66.92V67.016ZM495.924 74.24C495.092 74.24 494.372 74.128 493.764 73.904C493.172 73.68 492.684 73.416 492.3 73.112C491.916 72.792 491.628 72.48 491.436 72.176C491.26 71.872 491.164 71.64 491.148 71.48C491.132 71.304 491.188 71.176 491.316 71.096C491.444 71 491.564 70.952 491.676 70.952H492.036C492.132 70.952 492.212 70.968 492.276 71C492.356 71.032 492.452 71.12 492.564 71.264C492.772 71.536 493.012 71.8 493.284 72.056C493.556 72.296 493.9 72.488 494.316 72.632C494.748 72.776 495.284 72.848 495.924 72.848C496.884 72.848 497.676 72.664 498.3 72.296C498.924 71.928 499.236 71.384 499.236 70.664C499.236 70.216 499.108 69.856 498.852 69.584C498.612 69.312 498.196 69.072 497.604 68.864C497.012 68.656 496.212 68.44 495.204 68.216C494.196 67.976 493.42 67.688 492.876 67.352C492.348 67.016 491.988 66.632 491.796 66.2C491.604 65.752 491.508 65.272 491.508 64.76C491.508 64.2 491.668 63.656 491.988 63.128C492.308 62.584 492.78 62.144 493.404 61.808C494.044 61.456 494.844 61.28 495.804 61.28C496.588 61.28 497.252 61.384 497.796 61.592C498.356 61.8 498.812 62.056 499.164 62.36C499.516 62.648 499.772 62.936 499.932 63.224C500.108 63.512 500.204 63.744 500.22 63.92C500.236 64.08 500.188 64.208 500.076 64.304C499.964 64.4 499.836 64.448 499.692 64.448H499.332C499.204 64.448 499.1 64.424 499.02 64.376C498.94 64.312 498.868 64.232 498.804 64.136C498.644 63.88 498.452 63.64 498.228 63.416C498.004 63.192 497.7 63.016 497.316 62.888C496.948 62.744 496.444 62.672 495.804 62.672C494.844 62.672 494.132 62.872 493.668 63.272C493.204 63.656 492.972 64.152 492.972 64.76C492.972 65.112 493.068 65.424 493.26 65.696C493.452 65.952 493.812 66.192 494.34 66.416C494.868 66.624 495.636 66.848 496.644 67.088C497.668 67.312 498.476 67.592 499.068 67.928C499.66 68.248 500.076 68.632 500.316 69.08C500.572 69.528 500.7 70.056 500.7 70.664C500.7 71.304 500.516 71.896 500.148 72.44C499.796 72.984 499.26 73.424 498.54 73.76C497.836 74.08 496.964 74.24 495.924 74.24ZM507.952 74.24C506.832 74.24 505.88 74.024 505.096 73.592C504.312 73.144 503.712 72.504 503.296 71.672C502.896 70.84 502.68 69.856 502.648 68.72C502.632 68.48 502.624 68.16 502.624 67.76C502.624 67.36 502.632 67.04 502.648 66.8C502.68 65.648 502.896 64.664 503.296 63.848C503.712 63.016 504.312 62.384 505.096 61.952C505.88 61.504 506.832 61.28 507.952 61.28C508.8 61.28 509.528 61.4 510.136 61.64C510.76 61.864 511.272 62.168 511.672 62.552C512.072 62.92 512.376 63.328 512.584 63.776C512.792 64.224 512.904 64.664 512.92 65.096C512.936 65.256 512.888 65.384 512.776 65.48C512.664 65.576 512.536 65.624 512.392 65.624H512.056C511.896 65.624 511.776 65.592 511.696 65.528C511.632 65.448 511.56 65.312 511.48 65.12C511.144 64.208 510.68 63.576 510.088 63.224C509.512 62.856 508.8 62.672 507.952 62.672C506.864 62.672 505.96 63.008 505.24 63.68C504.536 64.336 504.16 65.416 504.112 66.92C504.08 67.48 504.08 68.04 504.112 68.6C504.16 70.104 504.536 71.192 505.24 71.864C505.96 72.52 506.864 72.848 507.952 72.848C508.8 72.848 509.512 72.672 510.088 72.32C510.68 71.952 511.144 71.312 511.48 70.4C511.56 70.208 511.632 70.08 511.696 70.016C511.776 69.936 511.896 69.896 512.056 69.896H512.392C512.536 69.896 512.664 69.944 512.776 70.04C512.888 70.136 512.936 70.264 512.92 70.424C512.904 70.776 512.832 71.128 512.704 71.48C512.576 71.832 512.376 72.176 512.104 72.512C511.848 72.848 511.528 73.144 511.144 73.4C510.76 73.656 510.296 73.856 509.752 74C509.224 74.16 508.624 74.24 507.952 74.24ZM516.091 74C515.931 74 515.803 73.952 515.707 73.856C515.611 73.76 515.563 73.632 515.563 73.472V57.488C515.563 57.328 515.611 57.2 515.707 57.104C515.803 57.008 515.931 56.96 516.091 56.96H516.499C516.659 56.96 516.787 57.008 516.883 57.104C516.979 57.2 517.027 57.328 517.027 57.488V63.176C517.459 62.616 517.979 62.16 518.587 61.808C519.211 61.456 520.035 61.28 521.059 61.28C522.147 61.28 523.051 61.52 523.771 62C524.507 62.464 525.051 63.104 525.403 63.92C525.771 64.72 525.955 65.632 525.955 66.656V73.472C525.955 73.632 525.907 73.76 525.811 73.856C525.715 73.952 525.587 74 525.427 74H525.019C524.859 74 524.731 73.952 524.635 73.856C524.539 73.76 524.491 73.632 524.491 73.472V66.776C524.491 65.496 524.179 64.496 523.555 63.776C522.931 63.04 522.019 62.672 520.819 62.672C519.683 62.672 518.763 63.04 518.059 63.776C517.371 64.496 517.027 65.496 517.027 66.776V73.472C517.027 73.632 516.979 73.76 516.883 73.856C516.787 73.952 516.659 74 516.499 74H516.091ZM533.919 74.24C532.767 74.24 531.799 74 531.015 73.52C530.247 73.04 529.655 72.384 529.239 71.552C528.839 70.72 528.623 69.792 528.591 68.768C528.575 68.528 528.567 68.192 528.567 67.76C528.567 67.328 528.575 66.992 528.591 66.752C528.623 65.712 528.839 64.784 529.239 63.968C529.655 63.136 530.247 62.48 531.015 62C531.799 61.52 532.767 61.28 533.919 61.28C535.071 61.28 536.031 61.52 536.799 62C537.583 62.48 538.175 63.136 538.575 63.968C538.991 64.784 539.215 65.712 539.247 66.752C539.263 66.992 539.271 67.328 539.271 67.76C539.271 68.192 539.263 68.528 539.247 68.768C539.215 69.792 538.991 70.72 538.575 71.552C538.175 72.384 537.583 73.04 536.799 73.52C536.031 74 535.071 74.24 533.919 74.24ZM533.919 72.848C535.039 72.848 535.951 72.488 536.655 71.768C537.359 71.048 537.735 70.008 537.783 68.648C537.799 68.408 537.807 68.112 537.807 67.76C537.807 67.408 537.799 67.112 537.783 66.872C537.735 65.496 537.359 64.456 536.655 63.752C535.951 63.032 535.039 62.672 533.919 62.672C532.799 62.672 531.887 63.032 531.183 63.752C530.479 64.456 530.103 65.496 530.055 66.872C530.039 67.112 530.031 67.408 530.031 67.76C530.031 68.112 530.039 68.408 530.055 68.648C530.103 70.008 530.479 71.048 531.183 71.768C531.887 72.488 532.799 72.848 533.919 72.848ZM546.75 74.24C545.598 74.24 544.63 74 543.846 73.52C543.078 73.04 542.486 72.384 542.07 71.552C541.67 70.72 541.454 69.792 541.422 68.768C541.406 68.528 541.398 68.192 541.398 67.76C541.398 67.328 541.406 66.992 541.422 66.752C541.454 65.712 541.67 64.784 542.07 63.968C542.486 63.136 543.078 62.48 543.846 62C544.63 61.52 545.598 61.28 546.75 61.28C547.902 61.28 548.862 61.52 549.63 62C550.414 62.48 551.006 63.136 551.406 63.968C551.822 64.784 552.046 65.712 552.078 66.752C552.094 66.992 552.102 67.328 552.102 67.76C552.102 68.192 552.094 68.528 552.078 68.768C552.046 69.792 551.822 70.72 551.406 71.552C551.006 72.384 550.414 73.04 549.63 73.52C548.862 74 547.902 74.24 546.75 74.24ZM546.75 72.848C547.87 72.848 548.782 72.488 549.486 71.768C550.19 71.048 550.566 70.008 550.614 68.648C550.63 68.408 550.638 68.112 550.638 67.76C550.638 67.408 550.63 67.112 550.614 66.872C550.566 65.496 550.19 64.456 549.486 63.752C548.782 63.032 547.87 62.672 546.75 62.672C545.63 62.672 544.718 63.032 544.014 63.752C543.31 64.456 542.934 65.496 542.886 66.872C542.87 67.112 542.862 67.408 542.862 67.76C542.862 68.112 542.87 68.408 542.886 68.648C542.934 70.008 543.31 71.048 544.014 71.768C544.718 72.488 545.63 72.848 546.75 72.848ZM555.381 74C555.221 74 555.093 73.952 554.997 73.856C554.901 73.76 554.853 73.632 554.853 73.472V57.488C554.853 57.328 554.901 57.2 554.997 57.104C555.093 57.008 555.221 56.96 555.381 56.96H555.789C555.949 56.96 556.077 57.008 556.173 57.104C556.269 57.2 556.317 57.328 556.317 57.488V73.472C556.317 73.632 556.269 73.76 556.173 73.856C556.077 73.952 555.949 74 555.789 74H555.381Z" fill="black"/>
<path d="M340.784 165C340.624 165 340.496 164.952 340.4 164.856C340.304 164.76 340.256 164.632 340.256 164.472V148.752C340.256 148.576 340.304 148.44 340.4 148.344C340.496 148.248 340.624 148.2 340.784 148.2H350.048C350.224 148.2 350.36 148.248 350.456 148.344C350.552 148.44 350.6 148.576 350.6 148.752V149.112C350.6 149.272 350.552 149.4 350.456 149.496C350.36 149.592 350.224 149.64 350.048 149.64H341.768V156.096H349.568C349.744 156.096 349.88 156.144 349.976 156.24C350.072 156.336 350.12 156.472 350.12 156.648V157.008C350.12 157.168 350.072 157.296 349.976 157.392C349.88 157.488 349.744 157.536 349.568 157.536H341.768V164.472C341.768 164.632 341.72 164.76 341.624 164.856C341.528 164.952 341.392 165 341.216 165H340.784ZM353.233 165C353.073 165 352.945 164.952 352.849 164.856C352.752 164.76 352.704 164.632 352.704 164.472V153.072C352.704 152.912 352.752 152.784 352.849 152.688C352.945 152.576 353.073 152.52 353.233 152.52H353.617C353.777 152.52 353.905 152.576 354.001 152.688C354.113 152.784 354.169 152.912 354.169 153.072V154.176C354.457 153.616 354.873 153.2 355.417 152.928C355.961 152.656 356.633 152.52 357.433 152.52H358.321C358.481 152.52 358.609 152.568 358.705 152.664C358.801 152.76 358.849 152.888 358.849 153.048V153.384C358.849 153.544 358.801 153.672 358.705 153.768C358.609 153.864 358.481 153.912 358.321 153.912H357.289C356.329 153.912 355.569 154.192 355.008 154.752C354.449 155.312 354.169 156.072 354.169 157.032V164.472C354.169 164.632 354.113 164.76 354.001 164.856C353.905 164.952 353.777 165 353.617 165H353.233ZM364.847 165.24C363.295 165.24 362.063 164.736 361.151 163.728C360.239 162.704 359.719 161.368 359.591 159.72C359.575 159.48 359.567 159.16 359.567 158.76C359.567 158.36 359.575 158.04 359.591 157.8C359.671 156.712 359.927 155.752 360.359 154.92C360.791 154.088 361.383 153.44 362.135 152.976C362.903 152.512 363.807 152.28 364.847 152.28C365.967 152.28 366.919 152.528 367.703 153.024C368.487 153.52 369.087 154.232 369.503 155.16C369.935 156.088 370.151 157.192 370.151 158.472V158.832C370.151 158.992 370.095 159.12 369.983 159.216C369.887 159.312 369.759 159.36 369.599 159.36H361.055C361.055 159.36 361.055 159.392 361.055 159.456C361.055 159.52 361.055 159.568 361.055 159.6C361.087 160.32 361.255 161.008 361.559 161.664C361.863 162.304 362.295 162.832 362.855 163.248C363.415 163.648 364.079 163.848 364.847 163.848C365.535 163.848 366.103 163.744 366.551 163.536C367.015 163.328 367.383 163.104 367.655 162.864C367.927 162.608 368.103 162.416 368.183 162.288C368.327 162.08 368.439 161.96 368.519 161.928C368.599 161.88 368.727 161.856 368.903 161.856H369.287C369.431 161.856 369.551 161.904 369.647 162C369.759 162.08 369.807 162.192 369.791 162.336C369.775 162.56 369.647 162.84 369.407 163.176C369.183 163.496 368.855 163.816 368.423 164.136C368.007 164.456 367.495 164.72 366.887 164.928C366.279 165.136 365.599 165.24 364.847 165.24ZM361.055 158.016H368.687V157.92C368.687 157.12 368.535 156.4 368.231 155.76C367.927 155.12 367.487 154.616 366.911 154.248C366.335 153.864 365.647 153.672 364.847 153.672C364.047 153.672 363.359 153.864 362.783 154.248C362.223 154.616 361.791 155.12 361.487 155.76C361.199 156.4 361.055 157.12 361.055 157.92V158.016ZM377.397 165.24C375.845 165.24 374.613 164.736 373.701 163.728C372.789 162.704 372.269 161.368 372.141 159.72C372.125 159.48 372.117 159.16 372.117 158.76C372.117 158.36 372.125 158.04 372.141 157.8C372.221 156.712 372.477 155.752 372.909 154.92C373.341 154.088 373.933 153.44 374.685 152.976C375.453 152.512 376.357 152.28 377.397 152.28C378.517 152.28 379.469 152.528 380.253 153.024C381.037 153.52 381.637 154.232 382.053 155.16C382.485 156.088 382.701 157.192 382.701 158.472V158.832C382.701 158.992 382.645 159.12 382.533 159.216C382.437 159.312 382.309 159.36 382.149 159.36H373.605C373.605 159.36 373.605 159.392 373.605 159.456C373.605 159.52 373.605 159.568 373.605 159.6C373.637 160.32 373.805 161.008 374.109 161.664C374.413 162.304 374.845 162.832 375.405 163.248C375.965 163.648 376.629 163.848 377.397 163.848C378.085 163.848 378.653 163.744 379.101 163.536C379.565 163.328 379.933 163.104 380.205 162.864C380.477 162.608 380.653 162.416 380.733 162.288C380.877 162.08 380.989 161.96 381.069 161.928C381.149 161.88 381.277 161.856 381.453 161.856H381.837C381.981 161.856 382.101 161.904 382.197 162C382.309 162.08 382.357 162.192 382.341 162.336C382.325 162.56 382.197 162.84 381.957 163.176C381.733 163.496 381.405 163.816 380.973 164.136C380.557 164.456 380.045 164.72 379.437 164.928C378.829 165.136 378.149 165.24 377.397 165.24ZM373.605 158.016H381.237V157.92C381.237 157.12 381.085 156.4 380.781 155.76C380.477 155.12 380.037 154.616 379.461 154.248C378.885 153.864 378.197 153.672 377.397 153.672C376.597 153.672 375.909 153.864 375.333 154.248C374.773 154.616 374.341 155.12 374.037 155.76C373.749 156.4 373.605 157.12 373.605 157.92V158.016ZM385.842 165C385.682 165 385.554 164.952 385.458 164.856C385.362 164.76 385.314 164.632 385.314 164.472V153.048C385.314 152.888 385.362 152.76 385.458 152.664C385.554 152.568 385.682 152.52 385.842 152.52H386.25C386.41 152.52 386.538 152.568 386.634 152.664C386.73 152.76 386.778 152.888 386.778 153.048V153.888C387.178 153.376 387.65 152.984 388.194 152.712C388.754 152.424 389.426 152.28 390.21 152.28C392.002 152.28 393.282 153.032 394.05 154.536C394.418 153.848 394.954 153.304 395.658 152.904C396.378 152.488 397.202 152.28 398.13 152.28C398.978 152.28 399.738 152.48 400.41 152.88C401.098 153.264 401.634 153.84 402.018 154.608C402.418 155.376 402.618 156.336 402.618 157.488V164.472C402.618 164.632 402.57 164.76 402.474 164.856C402.378 164.952 402.25 165 402.09 165H401.682C401.522 165 401.394 164.952 401.298 164.856C401.202 164.76 401.154 164.632 401.154 164.472V157.728C401.154 156.672 401.002 155.856 400.698 155.28C400.394 154.688 399.994 154.272 399.498 154.032C399.002 153.792 398.466 153.672 397.89 153.672C397.41 153.672 396.922 153.792 396.426 154.032C395.93 154.272 395.514 154.688 395.178 155.28C394.858 155.856 394.698 156.672 394.698 157.728V164.472C394.698 164.632 394.65 164.76 394.554 164.856C394.458 164.952 394.33 165 394.17 165H393.762C393.602 165 393.474 164.952 393.378 164.856C393.282 164.76 393.234 164.632 393.234 164.472V157.728C393.234 156.672 393.074 155.856 392.754 155.28C392.434 154.688 392.026 154.272 391.53 154.032C391.034 153.792 390.514 153.672 389.97 153.672C389.49 153.672 389.002 153.792 388.506 154.032C388.01 154.272 387.594 154.688 387.258 155.28C386.938 155.856 386.778 156.664 386.778 157.704V164.472C386.778 164.632 386.73 164.76 386.634 164.856C386.538 164.952 386.41 165 386.25 165H385.842ZM406.36 165C406.2 165 406.072 164.952 405.976 164.856C405.88 164.76 405.832 164.632 405.832 164.472V153.048C405.832 152.888 405.88 152.76 405.976 152.664C406.072 152.568 406.2 152.52 406.36 152.52H406.768C406.928 152.52 407.056 152.568 407.152 152.664C407.248 152.76 407.296 152.888 407.296 153.048V164.472C407.296 164.632 407.248 164.76 407.152 164.856C407.056 164.952 406.928 165 406.768 165H406.36ZM406.096 149.952C405.936 149.952 405.808 149.904 405.712 149.808C405.616 149.712 405.568 149.584 405.568 149.424V148.512C405.568 148.352 405.616 148.224 405.712 148.128C405.808 148.016 405.936 147.96 406.096 147.96H407.008C407.168 147.96 407.296 148.016 407.392 148.128C407.504 148.224 407.56 148.352 407.56 148.512V149.424C407.56 149.584 407.504 149.712 407.392 149.808C407.296 149.904 407.168 149.952 407.008 149.952H406.096ZM415.304 165.24C414.216 165.24 413.312 165.008 412.592 164.544C411.888 164.064 411.36 163.416 411.008 162.6C410.672 161.784 410.504 160.872 410.504 159.864V153.048C410.504 152.888 410.552 152.76 410.648 152.664C410.744 152.568 410.872 152.52 411.032 152.52H411.44C411.6 152.52 411.728 152.568 411.824 152.664C411.92 152.76 411.968 152.888 411.968 153.048V159.744C411.968 162.48 413.16 163.848 415.544 163.848C416.68 163.848 417.592 163.488 418.28 162.768C418.968 162.032 419.312 161.024 419.312 159.744V153.048C419.312 152.888 419.36 152.76 419.456 152.664C419.552 152.568 419.68 152.52 419.84 152.52H420.248C420.408 152.52 420.536 152.568 420.632 152.664C420.728 152.76 420.776 152.888 420.776 153.048V164.472C420.776 164.632 420.728 164.76 420.632 164.856C420.536 164.952 420.408 165 420.248 165H419.84C419.68 165 419.552 164.952 419.456 164.856C419.36 164.76 419.312 164.632 419.312 164.472V163.344C418.88 163.904 418.36 164.36 417.752 164.712C417.16 165.064 416.344 165.24 415.304 165.24ZM424.639 165C424.479 165 424.351 164.952 424.255 164.856C424.159 164.76 424.111 164.632 424.111 164.472V153.048C424.111 152.888 424.159 152.76 424.255 152.664C424.351 152.568 424.479 152.52 424.639 152.52H425.047C425.207 152.52 425.335 152.568 425.431 152.664C425.527 152.76 425.575 152.888 425.575 153.048V153.888C425.975 153.376 426.447 152.984 426.991 152.712C427.551 152.424 428.223 152.28 429.007 152.28C430.799 152.28 432.079 153.032 432.847 154.536C433.215 153.848 433.751 153.304 434.455 152.904C435.175 152.488 435.999 152.28 436.927 152.28C437.775 152.28 438.535 152.48 439.207 152.88C439.895 153.264 440.431 153.84 440.815 154.608C441.215 155.376 441.415 156.336 441.415 157.488V164.472C441.415 164.632 441.367 164.76 441.271 164.856C441.175 164.952 441.047 165 440.887 165H440.479C440.319 165 440.191 164.952 440.095 164.856C439.999 164.76 439.951 164.632 439.951 164.472V157.728C439.951 156.672 439.799 155.856 439.495 155.28C439.191 154.688 438.791 154.272 438.295 154.032C437.799 153.792 437.263 153.672 436.687 153.672C436.207 153.672 435.719 153.792 435.223 154.032C434.727 154.272 434.311 154.688 433.975 155.28C433.655 155.856 433.495 156.672 433.495 157.728V164.472C433.495 164.632 433.447 164.76 433.351 164.856C433.255 164.952 433.127 165 432.967 165H432.559C432.399 165 432.271 164.952 432.175 164.856C432.079 164.76 432.031 164.632 432.031 164.472V157.728C432.031 156.672 431.871 155.856 431.551 155.28C431.231 154.688 430.823 154.272 430.327 154.032C429.831 153.792 429.311 153.672 428.767 153.672C428.287 153.672 427.799 153.792 427.303 154.032C426.807 154.272 426.391 154.688 426.055 155.28C425.735 155.856 425.575 156.664 425.575 157.704V164.472C425.575 164.632 425.527 164.76 425.431 164.856C425.335 164.952 425.207 165 425.047 165H424.639Z" fill="black"/>
</svg>
