<svg width="24" height="24" viewBox="0 0 24 24" fill="none" xmlns="http://www.w3.org/2000/svg">
<path d="M6.76937 18.9738C6.39339 18.9738 6.04091 18.8093 5.71193 18.4804C5.38295 18.1514 5.21846 17.7989 5.21846 17.4229C5.21846 17.0234 5.40645 16.624 5.75893 16.2715C6.2759 15.7545 6.95736 15.3785 7.77982 14.9556C8.50828 14.5796 9.28373 14.1331 10.1767 13.4516C9.98869 13.1932 9.8477 12.8642 9.77721 12.5117C8.67277 12.6762 7.82681 12.8877 7.02786 13.1462C6.13491 13.4281 5.40645 13.6396 4.67799 13.6396C3.66755 13.6396 3.08008 13.0522 3.08008 12.1122C3.08008 11.1723 3.66755 10.5848 4.67799 10.5848C5.40645 10.5848 6.13491 10.7963 7.02786 11.0783C7.82681 11.3368 8.67277 11.5717 9.8007 11.7362C9.8477 11.3838 9.98869 11.0548 10.2002 10.7728C9.28373 10.0913 8.50828 9.64485 7.77982 9.26887C6.95736 8.84589 6.2759 8.46991 5.75893 7.95294C5.40645 7.60046 5.21846 7.20098 5.21846 6.80151C5.21846 6.42553 5.38295 6.07305 5.71193 5.74407C6.04091 5.41508 6.39339 5.25059 6.76937 5.25059C7.16885 5.25059 7.56833 5.43858 7.92081 5.79106C8.43778 6.30804 8.81376 6.9895 9.23674 7.81195C9.61271 8.54041 10.0592 9.31587 10.7407 10.2323C11.0226 10.0208 11.3516 9.87984 11.7041 9.83284C11.5396 8.7049 11.3046 7.85895 11.0461 7.05999C10.7642 6.16704 10.5527 5.43858 10.5527 4.71012C10.5527 3.69968 11.1401 3.11221 12.0801 3.11221C13.02 3.11221 13.6075 3.69968 13.6075 4.71012C13.6075 5.43858 13.396 6.16704 13.114 7.05999C12.8555 7.85895 12.644 8.7049 12.4796 9.80934C12.832 9.87984 13.161 10.0208 13.4195 10.2088C14.101 9.31587 14.5474 8.54041 14.9234 7.81195C15.3464 6.9895 15.7224 6.30804 16.2393 5.79106C16.5918 5.43858 16.9913 5.25059 17.3908 5.25059C17.7668 5.25059 18.1192 5.41508 18.4482 5.74407C18.7772 6.07305 18.9417 6.42553 18.9417 6.80151C18.9417 7.20098 18.7537 7.60046 18.4012 7.95294C17.8843 8.46991 17.2028 8.84589 16.3803 9.26887C15.6519 9.64485 14.8764 10.0913 13.9835 10.7728C14.1715 11.0548 14.3125 11.3603 14.3829 11.7362C15.4874 11.5717 16.3333 11.3368 17.1323 11.0783C18.0252 10.7963 18.7537 10.5848 19.4822 10.5848C20.4926 10.5848 21.0801 11.1723 21.0801 12.1122C21.0801 13.0522 20.4926 13.6396 19.4822 13.6396C18.7537 13.6396 18.0252 13.4281 17.1323 13.1462C16.3333 12.8877 15.4874 12.6762 14.3829 12.5117C14.3125 12.8642 14.195 13.1932 13.9835 13.4751C14.8999 14.1331 15.6519 14.5796 16.3803 14.9556C17.2028 15.3785 17.8843 15.7545 18.4012 16.2715C18.7537 16.624 18.9417 17.0234 18.9417 17.4229C18.9417 17.7989 18.7772 18.1514 18.4482 18.4804C18.1192 18.8093 17.7668 18.9738 17.3908 18.9738C16.9913 18.9738 16.5918 18.7858 16.2393 18.4334C15.7224 17.9164 15.3464 17.2349 14.9234 16.4125C14.5474 15.684 14.101 14.9321 13.443 14.0156C13.161 14.2271 12.832 14.3681 12.4796 14.4151C12.644 15.5195 12.8555 16.3655 13.114 17.1644C13.396 18.0574 13.6075 18.7858 13.6075 19.5143C13.6075 20.5247 13.02 21.1122 12.0801 21.1122C11.1401 21.1122 10.5527 20.5247 10.5527 19.5143C10.5527 18.7858 10.7642 18.0574 11.0461 17.1644C11.3046 16.3655 11.5396 15.5195 11.7041 14.4151C11.3516 14.3446 11.0226 14.2036 10.7407 14.0156C10.0592 14.9086 9.61271 15.684 9.23674 16.4125C8.81376 17.2349 8.43778 17.9164 7.92081 18.4334C7.56833 18.7858 7.16885 18.9738 6.76937 18.9738Z" fill="black"/>
</svg>
