<svg width="24" height="24" viewBox="0 0 24 24" fill="none" xmlns="http://www.w3.org/2000/svg">
<path fill-rule="evenodd" clip-rule="evenodd" d="M21 12C21 10.2383 18.9753 8.713 16.0258 7.9742C15.287 5.02475 13.7617 3 12 3C10.2383 3 8.713 5.02475 7.9742 7.9742C5.02475 8.713 3 10.2383 3 12C3 13.7617 5.02475 15.287 7.9742 16.0258C8.713 18.9753 10.2383 21 12 21C13.7617 21 15.287 18.9753 16.0258 16.0258C18.9753 15.287 21 13.7617 21 12ZM16 8C12.8754 7.64333 11.1245 7.63646 8 8C7.58506 10.6609 7.61203 12.4427 8 16C11.1232 16.3457 12.876 16.3436 16 16C16.494 12.5706 16.545 10.7875 16 8Z" fill="black"/>
</svg>
