<svg width="24" height="24" viewBox="0 0 24 24" fill="none" xmlns="http://www.w3.org/2000/svg">
<g id="Shape 42">
<path id="Shape 42_2" d="M6.65047 21C5.98318 21 5.37196 20.8374 4.81682 20.5121C4.26168 20.1813 3.81869 19.7383 3.48785 19.1832C3.16262 18.628 3 18.0168 3 17.3495C3 16.6766 3.16262 16.0626 3.48785 15.5075C3.81869 14.9523 4.26168 14.5093 4.81682 14.1785C5.37196 13.8477 5.98318 13.6822 6.65047 13.6822H8.60187V10.3009H6.65047C5.98318 10.3009 5.37196 10.1383 4.81682 9.81308C4.26168 9.48224 3.81869 9.04206 3.48785 8.49252C3.16262 7.93738 3 7.32337 3 6.65047C3 5.97757 3.16262 5.36636 3.48785 4.81682C3.81869 4.26168 4.26168 3.8215 4.81682 3.49626C5.37196 3.16542 5.98318 3 6.65047 3C7.32336 3 7.93738 3.16542 8.49252 3.49626C9.04766 3.8215 9.49065 4.26168 9.8215 4.81682C10.1523 5.36636 10.3178 5.97757 10.3178 6.65047V8.58505H13.6991V6.65047C13.6991 5.97757 13.8617 5.36636 14.1869 4.81682C14.5178 4.26168 14.9579 3.8215 15.5075 3.49626C16.0626 3.16542 16.6766 3 17.3495 3C18.0224 3 18.6336 3.16542 19.1832 3.49626C19.7383 3.8215 20.1785 4.26168 20.5037 4.81682C20.8346 5.36636 21 5.97757 21 6.65047C21 7.32337 20.8346 7.93738 20.5037 8.49252C20.1785 9.04206 19.7383 9.48224 19.1832 9.81308C18.6336 10.1383 18.0224 10.3009 17.3495 10.3009H15.415V13.6822H17.3495C18.0224 13.6822 18.6336 13.8477 19.1832 14.1785C19.7383 14.5093 20.1785 14.9523 20.5037 15.5075C20.8346 16.0626 21 16.6766 21 17.3495C21 18.0168 20.8346 18.628 20.5037 19.1832C20.1785 19.7383 19.7383 20.1813 19.1832 20.5121C18.6336 20.8374 18.0224 21 17.3495 21C16.6766 21 16.0626 20.8374 15.5075 20.5121C14.9579 20.1813 14.5178 19.7383 14.1869 19.1832C13.8617 18.628 13.6991 18.0168 13.6991 17.3495V15.3981H10.3178V17.3495C10.3178 18.0168 10.1523 18.628 9.8215 19.1832C9.49065 19.7383 9.04766 20.1813 8.49252 20.5121C7.93738 20.8374 7.32336 21 6.65047 21ZM6.65047 19.2841C7.00935 19.2841 7.33458 19.1972 7.62617 19.0234C7.92336 18.8495 8.15888 18.6168 8.33271 18.3252C8.51215 18.028 8.60187 17.7028 8.60187 17.3495V15.3981H6.65047C6.2972 15.3981 5.97196 15.4879 5.67477 15.6673C5.38318 15.8411 5.15047 16.0766 4.97664 16.3738C4.8028 16.6654 4.71589 16.9907 4.71589 17.3495C4.71589 17.7028 4.8028 18.028 4.97664 18.3252C5.15047 18.6168 5.38318 18.8495 5.67477 19.0234C5.97196 19.1972 6.2972 19.2841 6.65047 19.2841ZM6.65047 8.58505H8.60187V6.65047C8.60187 6.29159 8.51215 5.96636 8.33271 5.67477C8.15888 5.38318 7.92336 5.15047 7.62617 4.97664C7.33458 4.8028 7.00935 4.71589 6.65047 4.71589C6.2972 4.71589 5.97196 4.8028 5.67477 4.97664C5.38318 5.15047 5.15047 5.38318 4.97664 5.67477C4.8028 5.96636 4.71589 6.29159 4.71589 6.65047C4.71589 7.00935 4.8028 7.33738 4.97664 7.63458C5.15047 7.92617 5.38318 8.15888 5.67477 8.33271C5.97196 8.50094 6.2972 8.58505 6.65047 8.58505ZM15.415 8.58505H17.3495C17.7084 8.58505 18.0336 8.50094 18.3252 8.33271C18.6168 8.15888 18.8495 7.92617 19.0234 7.63458C19.1972 7.33738 19.2841 7.00935 19.2841 6.65047C19.2841 6.29159 19.1972 5.96636 19.0234 5.67477C18.8495 5.38318 18.6168 5.15047 18.3252 4.97664C18.0336 4.8028 17.7084 4.71589 17.3495 4.71589C16.9907 4.71589 16.6626 4.8028 16.3654 4.97664C16.0738 5.15047 15.8411 5.38318 15.6673 5.67477C15.4991 5.96636 15.415 6.29159 15.415 6.65047V8.58505ZM17.3495 19.2841C17.7084 19.2841 18.0336 19.1972 18.3252 19.0234C18.6168 18.8495 18.8495 18.6168 19.0234 18.3252C19.1972 18.028 19.2841 17.7028 19.2841 17.3495C19.2841 16.9907 19.1972 16.6654 19.0234 16.3738C18.8495 16.0766 18.6168 15.8411 18.3252 15.6673C18.0336 15.4879 17.7084 15.3981 17.3495 15.3981H15.415V17.3495C15.415 17.7028 15.4991 18.028 15.6673 18.3252C15.8411 18.6168 16.0738 18.8495 16.3654 19.0234C16.6626 19.1972 16.9907 19.2841 17.3495 19.2841ZM10.3178 13.6822H13.6991V10.3009H10.3178V13.6822Z" fill="black"/>
</g>
</svg>
