<svg width="797" height="344" viewBox="0 0 797 344" fill="none" xmlns="http://www.w3.org/2000/svg">
<path d="M603.64 133C603.373 133 603.16 132.92 603 132.76C602.84 132.6 602.76 132.387 602.76 132.12V105.92C602.76 105.627 602.84 105.4 603 105.24C603.16 105.08 603.373 105 603.64 105H619.08C619.373 105 619.6 105.08 619.76 105.24C619.92 105.4 620 105.627 620 105.92V106.52C620 106.787 619.92 107 619.76 107.16C619.6 107.32 619.373 107.4 619.08 107.4H605.28V118.16H618.28C618.573 118.16 618.8 118.24 618.96 118.4C619.12 118.56 619.2 118.787 619.2 119.08V119.68C619.2 119.947 619.12 120.16 618.96 120.32C618.8 120.48 618.573 120.56 618.28 120.56H605.28V132.12C605.28 132.387 605.2 132.6 605.04 132.76C604.88 132.92 604.653 133 604.36 133H603.64ZM632.064 133.4C630.144 133.4 628.53 133 627.224 132.2C625.944 131.4 624.957 130.307 624.264 128.92C623.597 127.533 623.237 125.987 623.184 124.28C623.157 123.88 623.144 123.32 623.144 122.6C623.144 121.88 623.157 121.32 623.184 120.92C623.237 119.187 623.597 117.64 624.264 116.28C624.957 114.893 625.944 113.8 627.224 113C628.53 112.2 630.144 111.8 632.064 111.8C633.984 111.8 635.584 112.2 636.864 113C638.17 113.8 639.157 114.893 639.824 116.28C640.517 117.64 640.89 119.187 640.944 120.92C640.97 121.32 640.984 121.88 640.984 122.6C640.984 123.32 640.97 123.88 640.944 124.28C640.89 125.987 640.517 127.533 639.824 128.92C639.157 130.307 638.17 131.4 636.864 132.2C635.584 133 633.984 133.4 632.064 133.4ZM632.064 131.08C633.93 131.08 635.45 130.48 636.624 129.28C637.797 128.08 638.424 126.347 638.504 124.08C638.53 123.68 638.544 123.187 638.544 122.6C638.544 122.013 638.53 121.52 638.504 121.12C638.424 118.827 637.797 117.093 636.624 115.92C635.45 114.72 633.93 114.12 632.064 114.12C630.197 114.12 628.677 114.72 627.504 115.92C626.33 117.093 625.704 118.827 625.624 121.12C625.597 121.52 625.584 122.013 625.584 122.6C625.584 123.187 625.597 123.68 625.624 124.08C625.704 126.347 626.33 128.08 627.504 129.28C628.677 130.48 630.197 131.08 632.064 131.08ZM646.888 133C646.622 133 646.408 132.92 646.248 132.76C646.088 132.6 646.008 132.387 646.008 132.12V113.12C646.008 112.853 646.088 112.64 646.248 112.48C646.408 112.293 646.622 112.2 646.888 112.2H647.528C647.795 112.2 648.008 112.293 648.168 112.48C648.355 112.64 648.448 112.853 648.448 113.12V114.96C648.928 114.027 649.622 113.333 650.528 112.88C651.435 112.427 652.555 112.2 653.888 112.2H655.368C655.635 112.2 655.848 112.28 656.008 112.44C656.168 112.6 656.248 112.813 656.248 113.08V113.64C656.248 113.907 656.168 114.12 656.008 114.28C655.848 114.44 655.635 114.52 655.368 114.52H653.648C652.048 114.52 650.782 114.987 649.848 115.92C648.915 116.853 648.448 118.12 648.448 119.72V132.12C648.448 132.387 648.355 132.6 648.168 132.76C648.008 132.92 647.795 133 647.528 133H646.888ZM667.275 133.4C665.461 133.4 663.955 133.013 662.755 132.24C661.581 131.44 660.701 130.36 660.115 129C659.555 127.64 659.275 126.12 659.275 124.44V113.08C659.275 112.813 659.355 112.6 659.515 112.44C659.675 112.28 659.888 112.2 660.155 112.2H660.835C661.101 112.2 661.315 112.28 661.475 112.44C661.635 112.6 661.715 112.813 661.715 113.08V124.24C661.715 128.8 663.701 131.08 667.675 131.08C669.568 131.08 671.088 130.48 672.235 129.28C673.381 128.053 673.955 126.373 673.955 124.24V113.08C673.955 112.813 674.035 112.6 674.195 112.44C674.355 112.28 674.568 112.2 674.835 112.2H675.515C675.781 112.2 675.995 112.28 676.155 112.44C676.315 112.6 676.395 112.813 676.395 113.08V132.12C676.395 132.387 676.315 132.6 676.155 132.76C675.995 132.92 675.781 133 675.515 133H674.835C674.568 133 674.355 132.92 674.195 132.76C674.035 132.6 673.955 132.387 673.955 132.12V130.24C673.235 131.173 672.368 131.933 671.355 132.52C670.368 133.107 669.008 133.4 667.275 133.4ZM683.313 133C683.046 133 682.833 132.92 682.673 132.76C682.513 132.6 682.433 132.387 682.433 132.12V113.08C682.433 112.813 682.513 112.6 682.673 112.44C682.833 112.28 683.046 112.2 683.313 112.2H683.993C684.26 112.2 684.473 112.28 684.633 112.44C684.793 112.6 684.873 112.813 684.873 113.08V114.48C685.54 113.627 686.326 112.973 687.233 112.52C688.166 112.04 689.286 111.8 690.593 111.8C693.58 111.8 695.713 113.053 696.993 115.56C697.606 114.413 698.5 113.507 699.673 112.84C700.873 112.147 702.246 111.8 703.793 111.8C705.206 111.8 706.473 112.133 707.593 112.8C708.74 113.44 709.633 114.4 710.273 115.68C710.94 116.96 711.273 118.56 711.273 120.48V132.12C711.273 132.387 711.193 132.6 711.033 132.76C710.873 132.92 710.66 133 710.393 133H709.713C709.446 133 709.233 132.92 709.073 132.76C708.913 132.6 708.833 132.387 708.833 132.12V120.88C708.833 119.12 708.58 117.76 708.073 116.8C707.566 115.813 706.9 115.12 706.073 114.72C705.246 114.32 704.353 114.12 703.393 114.12C702.593 114.12 701.78 114.32 700.953 114.72C700.126 115.12 699.433 115.813 698.873 116.8C698.34 117.76 698.073 119.12 698.073 120.88V132.12C698.073 132.387 697.993 132.6 697.833 132.76C697.673 132.92 697.46 133 697.193 133H696.513C696.246 133 696.033 132.92 695.873 132.76C695.713 132.6 695.633 132.387 695.633 132.12V120.88C695.633 119.12 695.366 117.76 694.833 116.8C694.3 115.813 693.62 115.12 692.793 114.72C691.966 114.32 691.1 114.12 690.193 114.12C689.393 114.12 688.58 114.32 687.753 114.72C686.926 115.12 686.233 115.813 685.673 116.8C685.14 117.76 684.873 119.107 684.873 120.84V132.12C684.873 132.387 684.793 132.6 684.633 132.76C684.473 132.92 684.26 133 683.993 133H683.313ZM603.64 193C603.373 193 603.16 192.92 603 192.76C602.84 192.6 602.76 192.387 602.76 192.12V165.92C602.76 165.627 602.84 165.4 603 165.24C603.16 165.08 603.373 165 603.64 165H614.08C615.947 165 617.467 165.333 618.64 166C619.84 166.667 620.72 167.547 621.28 168.64C621.84 169.707 622.12 170.88 622.12 172.16C622.12 173.307 621.933 174.293 621.56 175.12C621.213 175.92 620.76 176.573 620.2 177.08C619.667 177.587 619.133 177.973 618.6 178.24C619.667 178.773 620.613 179.627 621.44 180.8C622.267 181.973 622.68 183.4 622.68 185.08C622.68 186.413 622.36 187.693 621.72 188.92C621.107 190.12 620.173 191.107 618.92 191.88C617.693 192.627 616.173 193 614.36 193H603.64ZM605.28 190.6H613.96C615.933 190.6 617.453 190.08 618.52 189.04C619.613 188 620.16 186.68 620.16 185.08C620.16 183.453 619.613 182.133 618.52 181.12C617.453 180.08 615.933 179.56 613.96 179.56H605.28V190.6ZM605.28 177.16H613.56C615.533 177.16 617.027 176.72 618.04 175.84C619.08 174.96 619.6 173.733 619.6 172.16C619.6 170.587 619.08 169.4 618.04 168.6C617.027 167.8 615.533 167.4 613.56 167.4H605.28V177.16ZM631.453 200.6C631.239 200.6 631.053 200.52 630.893 200.36C630.733 200.2 630.653 200.013 630.653 199.8C630.653 199.693 630.666 199.573 630.693 199.44C630.746 199.333 630.813 199.187 630.893 199L633.973 191.8L626.333 173.8C626.173 173.4 626.093 173.133 626.093 173C626.093 172.787 626.173 172.6 626.333 172.44C626.493 172.28 626.679 172.2 626.893 172.2H627.733C627.999 172.2 628.199 172.267 628.333 172.4C628.493 172.507 628.599 172.64 628.653 172.8L635.373 188.64L642.253 172.8C642.333 172.64 642.439 172.507 642.573 172.4C642.706 172.267 642.906 172.2 643.173 172.2H643.973C644.186 172.2 644.373 172.28 644.533 172.44C644.693 172.6 644.773 172.787 644.773 173C644.773 173.133 644.693 173.4 644.533 173.8L633.173 200C633.093 200.16 632.986 200.293 632.853 200.4C632.719 200.533 632.519 200.6 632.253 200.6H631.453ZM645.382 200.6C645.115 200.6 644.902 200.52 644.742 200.36C644.582 200.2 644.502 199.987 644.502 199.72V199.16C644.502 198.893 644.582 198.68 644.742 198.52C644.902 198.36 645.115 198.28 645.382 198.28H645.542C646.635 198.28 647.435 198.08 647.942 197.68C648.449 197.28 648.769 196.747 648.902 196.08C649.062 195.413 649.142 194.68 649.142 193.88V173.08C649.142 172.813 649.222 172.6 649.382 172.44C649.542 172.28 649.755 172.2 650.022 172.2H650.702C650.969 172.2 651.182 172.28 651.342 172.44C651.502 172.6 651.582 172.813 651.582 173.08V193.88C651.582 195.133 651.409 196.267 651.062 197.28C650.742 198.293 650.142 199.093 649.262 199.68C648.409 200.293 647.169 200.6 645.542 200.6H645.382ZM649.582 167.92C649.315 167.92 649.102 167.84 648.942 167.68C648.782 167.52 648.702 167.307 648.702 167.04V165.52C648.702 165.253 648.782 165.04 648.942 164.88C649.102 164.693 649.315 164.6 649.582 164.6H651.102C651.369 164.6 651.582 164.693 651.742 164.88C651.929 165.04 652.022 165.253 652.022 165.52V167.04C652.022 167.307 651.929 167.52 651.742 167.68C651.582 167.84 651.369 167.92 651.102 167.92H649.582ZM665.478 193.4C663.664 193.4 662.158 193.013 660.958 192.24C659.784 191.44 658.904 190.36 658.318 189C657.758 187.64 657.478 186.12 657.478 184.44V173.08C657.478 172.813 657.558 172.6 657.718 172.44C657.878 172.28 658.091 172.2 658.358 172.2H659.038C659.304 172.2 659.518 172.28 659.678 172.44C659.838 172.6 659.918 172.813 659.918 173.08V184.24C659.918 188.8 661.904 191.08 665.878 191.08C667.771 191.08 669.291 190.48 670.438 189.28C671.584 188.053 672.158 186.373 672.158 184.24V173.08C672.158 172.813 672.238 172.6 672.398 172.44C672.558 172.28 672.771 172.2 673.038 172.2H673.718C673.984 172.2 674.198 172.28 674.358 172.44C674.518 172.6 674.598 172.813 674.598 173.08V192.12C674.598 192.387 674.518 192.6 674.358 192.76C674.198 192.92 673.984 193 673.718 193H673.038C672.771 193 672.558 192.92 672.398 192.76C672.238 192.6 672.158 192.387 672.158 192.12V190.24C671.438 191.173 670.571 191.933 669.558 192.52C668.571 193.107 667.211 193.4 665.478 193.4ZM680.126 171.32C679.912 171.32 679.752 171.24 679.646 171.08C679.566 170.92 679.539 170.72 679.566 170.48L680.326 165.68C680.379 165.36 680.472 165.107 680.606 164.92C680.766 164.707 681.006 164.6 681.326 164.6H683.126C683.312 164.6 683.459 164.667 683.566 164.8C683.672 164.933 683.726 165.08 683.726 165.24C683.726 165.48 683.672 165.72 683.566 165.96L681.846 170.48C681.739 170.747 681.606 170.96 681.446 171.12C681.312 171.253 681.099 171.32 680.806 171.32H680.126ZM693.437 193.4C692.05 193.4 690.85 193.213 689.837 192.84C688.85 192.467 688.037 192.027 687.397 191.52C686.757 190.987 686.277 190.467 685.957 189.96C685.664 189.453 685.504 189.067 685.477 188.8C685.45 188.507 685.544 188.293 685.757 188.16C685.97 188 686.17 187.92 686.357 187.92H686.957C687.117 187.92 687.25 187.947 687.357 188C687.49 188.053 687.65 188.2 687.837 188.44C688.184 188.893 688.584 189.333 689.037 189.76C689.49 190.16 690.064 190.48 690.757 190.72C691.477 190.96 692.37 191.08 693.437 191.08C695.037 191.08 696.357 190.773 697.397 190.16C698.437 189.547 698.957 188.64 698.957 187.44C698.957 186.693 698.744 186.093 698.317 185.64C697.917 185.187 697.224 184.787 696.237 184.44C695.25 184.093 693.917 183.733 692.237 183.36C690.557 182.96 689.264 182.48 688.357 181.92C687.477 181.36 686.877 180.72 686.557 180C686.237 179.253 686.077 178.453 686.077 177.6C686.077 176.667 686.344 175.76 686.877 174.88C687.41 173.973 688.197 173.24 689.237 172.68C690.304 172.093 691.637 171.8 693.237 171.8C694.544 171.8 695.65 171.973 696.557 172.32C697.49 172.667 698.25 173.093 698.837 173.6C699.424 174.08 699.85 174.56 700.117 175.04C700.41 175.52 700.57 175.907 700.597 176.2C700.624 176.467 700.544 176.68 700.357 176.84C700.17 177 699.957 177.08 699.717 177.08H699.117C698.904 177.08 698.73 177.04 698.597 176.96C698.464 176.853 698.344 176.72 698.237 176.56C697.97 176.133 697.65 175.733 697.277 175.36C696.904 174.987 696.397 174.693 695.757 174.48C695.144 174.24 694.304 174.12 693.237 174.12C691.637 174.12 690.45 174.453 689.677 175.12C688.904 175.76 688.517 176.587 688.517 177.6C688.517 178.187 688.677 178.707 688.997 179.16C689.317 179.587 689.917 179.987 690.797 180.36C691.677 180.707 692.957 181.08 694.637 181.48C696.344 181.853 697.69 182.32 698.677 182.88C699.664 183.413 700.357 184.053 700.757 184.8C701.184 185.547 701.397 186.427 701.397 187.44C701.397 188.507 701.09 189.493 700.477 190.4C699.89 191.307 698.997 192.04 697.797 192.6C696.624 193.133 695.17 193.4 693.437 193.4ZM611.2 253C610.853 253 610.573 252.92 610.36 252.76C610.147 252.6 609.973 252.36 609.84 252.04L600.56 226.24C600.507 226.08 600.48 225.933 600.48 225.8C600.48 225.587 600.56 225.4 600.72 225.24C600.88 225.08 601.067 225 601.28 225H602.12C602.387 225 602.587 225.08 602.72 225.24C602.88 225.373 602.973 225.493 603 225.6L611.76 250.08L620.52 225.6C620.573 225.493 620.667 225.373 620.8 225.24C620.933 225.08 621.133 225 621.4 225H622.24C622.453 225 622.64 225.08 622.8 225.24C622.96 225.4 623.04 225.587 623.04 225.8C623.04 225.933 623.013 226.08 622.96 226.24L613.68 252.04C613.573 252.36 613.413 252.6 613.2 252.76C612.987 252.92 612.693 253 612.32 253H611.2ZM632.997 253.4C630.41 253.4 628.357 252.56 626.837 250.88C625.317 249.173 624.45 246.947 624.237 244.2C624.21 243.8 624.197 243.267 624.197 242.6C624.197 241.933 624.21 241.4 624.237 241C624.37 239.187 624.797 237.587 625.517 236.2C626.237 234.813 627.223 233.733 628.477 232.96C629.757 232.187 631.263 231.8 632.997 231.8C634.863 231.8 636.45 232.213 637.757 233.04C639.063 233.867 640.063 235.053 640.757 236.6C641.477 238.147 641.837 239.987 641.837 242.12V242.72C641.837 242.987 641.743 243.2 641.557 243.36C641.397 243.52 641.183 243.6 640.917 243.6H626.677C626.677 243.6 626.677 243.653 626.677 243.76C626.677 243.867 626.677 243.947 626.677 244C626.73 245.2 627.01 246.347 627.517 247.44C628.023 248.507 628.743 249.387 629.677 250.08C630.61 250.747 631.717 251.08 632.997 251.08C634.143 251.08 635.09 250.907 635.837 250.56C636.61 250.213 637.223 249.84 637.677 249.44C638.13 249.013 638.423 248.693 638.557 248.48C638.797 248.133 638.983 247.933 639.117 247.88C639.25 247.8 639.463 247.76 639.757 247.76H640.397C640.637 247.76 640.837 247.84 640.997 248C641.183 248.133 641.263 248.32 641.237 248.56C641.21 248.933 640.997 249.4 640.597 249.96C640.223 250.493 639.677 251.027 638.957 251.56C638.263 252.093 637.41 252.533 636.397 252.88C635.383 253.227 634.25 253.4 632.997 253.4ZM626.677 241.36H639.397V241.2C639.397 239.867 639.143 238.667 638.637 237.6C638.13 236.533 637.397 235.693 636.437 235.08C635.477 234.44 634.33 234.12 632.997 234.12C631.663 234.12 630.517 234.44 629.557 235.08C628.623 235.693 627.903 236.533 627.397 237.6C626.917 238.667 626.677 239.867 626.677 241.2V241.36ZM647.552 253C647.286 253 647.072 252.92 646.912 252.76C646.752 252.6 646.672 252.387 646.672 252.12V233.12C646.672 232.853 646.752 232.64 646.912 232.48C647.072 232.293 647.286 232.2 647.552 232.2H648.192C648.459 232.2 648.672 232.293 648.832 232.48C649.019 232.64 649.112 232.853 649.112 233.12V234.96C649.592 234.027 650.286 233.333 651.192 232.88C652.099 232.427 653.219 232.2 654.553 232.2H656.033C656.299 232.2 656.512 232.28 656.673 232.44C656.832 232.6 656.912 232.813 656.912 233.08V233.64C656.912 233.907 656.832 234.12 656.673 234.28C656.512 234.44 656.299 234.52 656.033 234.52H654.312C652.712 234.52 651.446 234.987 650.512 235.92C649.579 236.853 649.112 238.12 649.112 239.72V252.12C649.112 252.387 649.019 252.6 648.832 252.76C648.672 252.92 648.459 253 648.192 253H647.552ZM666.739 253.4C665.352 253.4 664.152 253.213 663.139 252.84C662.152 252.467 661.339 252.027 660.699 251.52C660.059 250.987 659.579 250.467 659.259 249.96C658.965 249.453 658.805 249.067 658.779 248.8C658.752 248.507 658.845 248.293 659.059 248.16C659.272 248 659.472 247.92 659.659 247.92H660.259C660.419 247.92 660.552 247.947 660.659 248C660.792 248.053 660.952 248.2 661.139 248.44C661.485 248.893 661.885 249.333 662.339 249.76C662.792 250.16 663.365 250.48 664.059 250.72C664.779 250.96 665.672 251.08 666.739 251.08C668.339 251.08 669.659 250.773 670.699 250.16C671.739 249.547 672.259 248.64 672.259 247.44C672.259 246.693 672.045 246.093 671.619 245.64C671.219 245.187 670.525 244.787 669.539 244.44C668.552 244.093 667.219 243.733 665.539 243.36C663.859 242.96 662.565 242.48 661.659 241.92C660.779 241.36 660.179 240.72 659.859 240C659.539 239.253 659.379 238.453 659.379 237.6C659.379 236.667 659.645 235.76 660.179 234.88C660.712 233.973 661.499 233.24 662.539 232.68C663.605 232.093 664.939 231.8 666.539 231.8C667.845 231.8 668.952 231.973 669.859 232.32C670.792 232.667 671.552 233.093 672.139 233.6C672.725 234.08 673.152 234.56 673.419 235.04C673.712 235.52 673.872 235.907 673.899 236.2C673.925 236.467 673.845 236.68 673.659 236.84C673.472 237 673.259 237.08 673.019 237.08H672.419C672.205 237.08 672.032 237.04 671.899 236.96C671.765 236.853 671.645 236.72 671.539 236.56C671.272 236.133 670.952 235.733 670.579 235.36C670.205 234.987 669.699 234.693 669.059 234.48C668.445 234.24 667.605 234.12 666.539 234.12C664.939 234.12 663.752 234.453 662.979 235.12C662.205 235.76 661.819 236.587 661.819 237.6C661.819 238.187 661.979 238.707 662.299 239.16C662.619 239.587 663.219 239.987 664.099 240.36C664.979 240.707 666.259 241.08 667.939 241.48C669.645 241.853 670.992 242.32 671.979 242.88C672.965 243.413 673.659 244.053 674.059 244.8C674.485 245.547 674.699 246.427 674.699 247.44C674.699 248.507 674.392 249.493 673.779 250.4C673.192 251.307 672.299 252.04 671.099 252.6C669.925 253.133 668.472 253.4 666.739 253.4ZM680.266 253C680 253 679.786 252.92 679.626 252.76C679.466 252.6 679.386 252.387 679.386 252.12V233.08C679.386 232.813 679.466 232.6 679.626 232.44C679.786 232.28 680 232.2 680.266 232.2H680.946C681.213 232.2 681.426 232.28 681.586 232.44C681.746 232.6 681.826 232.813 681.826 233.08V252.12C681.826 252.387 681.746 252.6 681.586 252.76C681.426 252.92 681.213 253 680.946 253H680.266ZM679.826 227.92C679.56 227.92 679.346 227.84 679.186 227.68C679.026 227.52 678.946 227.307 678.946 227.04V225.52C678.946 225.253 679.026 225.04 679.186 224.88C679.346 224.693 679.56 224.6 679.826 224.6H681.346C681.613 224.6 681.826 224.693 681.986 224.88C682.173 225.04 682.266 225.253 682.266 225.52V227.04C682.266 227.307 682.173 227.52 681.986 227.68C681.826 227.84 681.613 227.92 681.346 227.92H679.826ZM695.773 253.4C693.853 253.4 692.239 253 690.933 252.2C689.653 251.4 688.666 250.307 687.973 248.92C687.306 247.533 686.946 245.987 686.893 244.28C686.866 243.88 686.853 243.32 686.853 242.6C686.853 241.88 686.866 241.32 686.893 240.92C686.946 239.187 687.306 237.64 687.973 236.28C688.666 234.893 689.653 233.8 690.933 233C692.239 232.2 693.853 231.8 695.773 231.8C697.693 231.8 699.293 232.2 700.573 233C701.879 233.8 702.866 234.893 703.533 236.28C704.226 237.64 704.599 239.187 704.653 240.92C704.679 241.32 704.693 241.88 704.693 242.6C704.693 243.32 704.679 243.88 704.653 244.28C704.599 245.987 704.226 247.533 703.533 248.92C702.866 250.307 701.879 251.4 700.573 252.2C699.293 253 697.693 253.4 695.773 253.4ZM695.773 251.08C697.639 251.08 699.159 250.48 700.333 249.28C701.506 248.08 702.133 246.347 702.213 244.08C702.239 243.68 702.253 243.187 702.253 242.6C702.253 242.013 702.239 241.52 702.213 241.12C702.133 238.827 701.506 237.093 700.333 235.92C699.159 234.72 697.639 234.12 695.773 234.12C693.906 234.12 692.386 234.72 691.213 235.92C690.039 237.093 689.413 238.827 689.333 241.12C689.306 241.52 689.293 242.013 689.293 242.6C689.293 243.187 689.306 243.68 689.333 244.08C689.413 246.347 690.039 248.08 691.213 249.28C692.386 250.48 693.906 251.08 695.773 251.08ZM710.597 253C710.331 253 710.117 252.92 709.957 252.76C709.797 252.6 709.717 252.387 709.717 252.12V233.08C709.717 232.813 709.797 232.6 709.957 232.44C710.117 232.28 710.331 232.2 710.597 232.2H711.277C711.544 232.2 711.757 232.28 711.917 232.44C712.077 232.6 712.157 232.813 712.157 233.08V234.96C712.877 234.027 713.744 233.267 714.757 232.68C715.797 232.093 717.171 231.8 718.877 231.8C720.691 231.8 722.197 232.2 723.397 233C724.624 233.773 725.531 234.84 726.117 236.2C726.731 237.533 727.037 239.053 727.037 240.76V252.12C727.037 252.387 726.957 252.6 726.797 252.76C726.637 252.92 726.424 253 726.157 253H725.477C725.211 253 724.997 252.92 724.837 252.76C724.677 252.6 724.597 252.387 724.597 252.12V240.96C724.597 238.827 724.077 237.16 723.037 235.96C721.997 234.733 720.477 234.12 718.477 234.12C716.584 234.12 715.051 234.733 713.877 235.96C712.731 237.16 712.157 238.827 712.157 240.96V252.12C712.157 252.387 712.077 252.6 711.917 252.76C711.757 252.92 711.544 253 711.277 253H710.597Z" fill="#7E41FF"/>
<path d="M2.48371 101.312C2.34096 101.312 2.22677 101.269 2.14113 101.183C2.05548 101.098 2.01266 100.983 2.01266 100.841V86.8163C2.01266 86.6593 2.05548 86.538 2.14113 86.4524C2.22677 86.3667 2.34096 86.3239 2.48371 86.3239H7.0443C8.55736 86.3239 9.74212 86.5451 10.5986 86.9876C11.455 87.4301 12.0617 88.0868 12.4185 88.9575C12.7897 89.8139 12.9824 90.8631 12.9966 92.1049C13.0109 92.7473 13.018 93.3182 13.018 93.8178C13.018 94.3032 13.0109 94.867 12.9966 95.5093C12.9681 96.8225 12.7754 97.9074 12.4185 98.7638C12.0617 99.6203 11.4622 100.263 10.62 100.691C9.7778 101.105 8.6216 101.312 7.15136 101.312H2.48371ZM3.36157 100.027H7.0443C8.18624 100.027 9.08551 99.8772 9.74212 99.5775C10.413 99.2634 10.8912 98.771 11.1767 98.1001C11.4764 97.4149 11.6334 96.5156 11.6477 95.4023C11.662 94.974 11.6691 94.6029 11.6691 94.2889C11.6691 93.9606 11.6691 93.6394 11.6691 93.3254C11.6691 93.0113 11.662 92.6402 11.6477 92.212C11.6192 90.6418 11.2552 89.4856 10.5557 88.7434C9.85631 87.9868 8.65015 87.6086 6.93725 87.6086H3.36157V100.027ZM19.8645 101.526C18.4799 101.526 17.3808 101.076 16.5671 100.177C15.7535 99.2634 15.2896 98.0715 15.1754 96.6013C15.1611 96.3872 15.154 96.1017 15.154 95.7448C15.154 95.388 15.1611 95.1025 15.1754 94.8884C15.2468 93.9177 15.4751 93.0613 15.8606 92.319C16.246 91.5768 16.7741 90.9987 17.445 90.5847C18.1301 90.1708 18.9366 89.9638 19.8645 89.9638C20.8636 89.9638 21.713 90.1851 22.4124 90.6276C23.1118 91.0701 23.6471 91.7053 24.0182 92.5332C24.4036 93.3611 24.5963 94.346 24.5963 95.4879V95.8091C24.5963 95.9518 24.5464 96.066 24.4465 96.1517C24.3608 96.2373 24.2466 96.2801 24.1039 96.2801H16.4815C16.4815 96.2801 16.4815 96.3087 16.4815 96.3658C16.4815 96.4229 16.4815 96.4657 16.4815 96.4942C16.51 97.1366 16.6599 97.7504 16.9311 98.3356C17.2023 98.9066 17.5877 99.3776 18.0873 99.7487C18.5869 100.106 19.1793 100.284 19.8645 100.284C20.4782 100.284 20.985 100.191 21.3847 100.006C21.7986 99.8201 22.1269 99.6203 22.3696 99.4062C22.6122 99.1778 22.7692 99.0065 22.8406 98.8923C22.9691 98.7067 23.069 98.5997 23.1404 98.5711C23.2117 98.5283 23.3259 98.5069 23.483 98.5069H23.8255C23.954 98.5069 24.0611 98.5497 24.1467 98.6354C24.2466 98.7067 24.2894 98.8067 24.2752 98.9351C24.2609 99.135 24.1467 99.3848 23.9326 99.6845C23.7328 99.97 23.4401 100.255 23.0547 100.541C22.6836 100.826 22.2268 101.062 21.6844 101.248C21.142 101.433 20.5353 101.526 19.8645 101.526ZM16.4815 95.0811H23.2903V94.9954C23.2903 94.2817 23.1547 93.6394 22.8834 93.0684C22.6122 92.4975 22.2197 92.0478 21.7058 91.7195C21.192 91.3769 20.5782 91.2057 19.8645 91.2057C19.1507 91.2057 18.537 91.3769 18.0231 91.7195C17.5235 92.0478 17.1381 92.4975 16.8669 93.0684C16.6099 93.6394 16.4815 94.2817 16.4815 94.9954V95.0811ZM30.4609 101.526C29.7186 101.526 29.0763 101.426 28.5338 101.226C28.0057 101.026 27.5703 100.791 27.2278 100.52C26.8852 100.234 26.6282 99.9557 26.4569 99.6845C26.2999 99.4133 26.2143 99.2063 26.2 99.0636C26.1857 98.9066 26.2357 98.7924 26.3499 98.721C26.4641 98.6354 26.5711 98.5925 26.6711 98.5925H26.9922C27.0779 98.5925 27.1492 98.6068 27.2063 98.6354C27.2777 98.6639 27.3634 98.7424 27.4633 98.8709C27.6488 99.1135 27.863 99.3491 28.1056 99.5775C28.3483 99.7916 28.6552 99.9629 29.0263 100.091C29.4117 100.22 29.8899 100.284 30.4609 100.284C31.3173 100.284 32.0239 100.12 32.5806 99.7916C33.1373 99.4633 33.4156 98.9779 33.4156 98.3356C33.4156 97.9359 33.3014 97.6148 33.073 97.3721C32.8589 97.1294 32.4878 96.9153 31.9596 96.7298C31.4315 96.5442 30.7178 96.3515 29.8185 96.1517C28.9192 95.9375 28.2269 95.6806 27.7416 95.3809C27.2706 95.0811 26.9494 94.7385 26.7781 94.3531C26.6068 93.9534 26.5212 93.5252 26.5212 93.0684C26.5212 92.5688 26.6639 92.0835 26.9494 91.6125C27.2349 91.1271 27.656 90.7346 28.2127 90.4349C28.7836 90.1208 29.4973 89.9638 30.3538 89.9638C31.0532 89.9638 31.6456 90.0566 32.1309 90.2422C32.6305 90.4277 33.0373 90.6561 33.3514 90.9273C33.6654 91.1842 33.8938 91.4412 34.0365 91.6981C34.1935 91.9551 34.2792 92.162 34.2935 92.319C34.3077 92.4618 34.2649 92.576 34.165 92.6616C34.0651 92.7473 33.9509 92.7901 33.8224 92.7901H33.5012C33.3871 92.7901 33.2943 92.7687 33.2229 92.7259C33.1515 92.6688 33.0873 92.5974 33.0302 92.5117C32.8875 92.2834 32.7162 92.0692 32.5163 91.8694C32.3165 91.6696 32.0453 91.5126 31.7027 91.3984C31.3744 91.2699 30.9248 91.2057 30.3538 91.2057C29.4973 91.2057 28.8621 91.3841 28.4482 91.7409C28.0342 92.0835 27.8273 92.526 27.8273 93.0684C27.8273 93.3825 27.9129 93.6608 28.0842 93.9035C28.2555 94.1319 28.5767 94.346 29.0477 94.5458C29.5188 94.7314 30.2039 94.9312 31.1032 95.1453C32.0167 95.3452 32.7376 95.595 33.2657 95.8947C33.7939 96.1802 34.165 96.5228 34.3791 96.9225C34.6075 97.3221 34.7217 97.7932 34.7217 98.3356C34.7217 98.9066 34.5575 99.4347 34.2292 99.92C33.9152 100.405 33.437 100.798 32.7947 101.098C32.1666 101.383 31.3887 101.526 30.4609 101.526ZM37.4449 101.312C37.3022 101.312 37.188 101.269 37.1024 101.183C37.0167 101.098 36.9739 100.983 36.9739 100.841V90.649C36.9739 90.5062 37.0167 90.392 37.1024 90.3064C37.188 90.2207 37.3022 90.1779 37.4449 90.1779H37.8089C37.9517 90.1779 38.0659 90.2207 38.1515 90.3064C38.2371 90.392 38.28 90.5062 38.28 90.649V100.841C38.28 100.983 38.2371 101.098 38.1515 101.183C38.0659 101.269 37.9517 101.312 37.8089 101.312H37.4449ZM37.2094 87.8869C37.0667 87.8869 36.9525 87.8441 36.8668 87.7584C36.7812 87.6728 36.7384 87.5586 36.7384 87.4159V86.6022C36.7384 86.4595 36.7812 86.3453 36.8668 86.2597C36.9525 86.1597 37.0667 86.1098 37.2094 86.1098H38.023C38.1658 86.1098 38.28 86.1597 38.3656 86.2597C38.4655 86.3453 38.5155 86.4595 38.5155 86.6022V87.4159C38.5155 87.5586 38.4655 87.6728 38.3656 87.7584C38.28 87.8441 38.1658 87.8869 38.023 87.8869H37.2094ZM41.7198 101.312C41.5771 101.312 41.4629 101.269 41.3772 101.183C41.2916 101.098 41.2488 100.983 41.2488 100.841V90.6704C41.2488 90.5276 41.2916 90.4134 41.3772 90.3278C41.4629 90.2279 41.5771 90.1779 41.7198 90.1779H42.0624C42.2051 90.1779 42.3193 90.2279 42.405 90.3278C42.5049 90.4134 42.5549 90.5276 42.5549 90.6704V91.6553C42.8118 91.1557 43.1829 90.7846 43.6682 90.5419C44.1536 90.2992 44.7531 90.1779 45.4668 90.1779H46.259C46.4018 90.1779 46.5159 90.2207 46.6016 90.3064C46.6872 90.392 46.7301 90.5062 46.7301 90.649V90.9487C46.7301 91.0915 46.6872 91.2057 46.6016 91.2913C46.5159 91.3769 46.4018 91.4198 46.259 91.4198H45.3383C44.4819 91.4198 43.8039 91.6696 43.3043 92.1692C42.8047 92.6688 42.5549 93.3468 42.5549 94.2032V100.841C42.5549 100.983 42.5049 101.098 42.405 101.183C42.3193 101.269 42.2051 101.312 42.0624 101.312H41.7198ZM51.0304 101.526C50.3452 101.526 49.71 101.383 49.1248 101.098C48.5538 100.812 48.0899 100.434 47.733 99.9629C47.3762 99.4775 47.1978 98.9351 47.1978 98.3356C47.1978 97.365 47.5903 96.587 48.3754 96.0018C49.1605 95.4165 50.1811 95.0383 51.4372 94.867L54.8202 94.3959V93.6465C54.8202 92.89 54.5846 92.2976 54.1136 91.8694C53.6568 91.4269 52.9217 91.2057 51.9082 91.2057C51.166 91.2057 50.5665 91.3555 50.1097 91.6553C49.6529 91.9408 49.3389 92.319 49.1676 92.7901C49.0962 93.0042 48.9606 93.1113 48.7608 93.1113H48.4182C48.2469 93.1113 48.1256 93.0684 48.0542 92.9828C47.9828 92.8829 47.9472 92.7687 47.9472 92.6402C47.9472 92.4404 48.0185 92.1906 48.1613 91.8908C48.3183 91.5911 48.5538 91.2984 48.8678 91.013C49.1819 90.7132 49.5887 90.4634 50.0883 90.2636C50.5879 90.0637 51.1945 89.9638 51.9082 89.9638C52.7504 89.9638 53.4427 90.078 53.9851 90.3064C54.5418 90.5348 54.97 90.8345 55.2698 91.2057C55.5838 91.5625 55.8051 91.9622 55.9335 92.4047C56.062 92.8472 56.1262 93.2825 56.1262 93.7108V100.841C56.1262 100.983 56.0834 101.098 55.9978 101.183C55.9121 101.269 55.7979 101.312 55.6552 101.312H55.2912C55.1485 101.312 55.0343 101.269 54.9486 101.183C54.863 101.098 54.8202 100.983 54.8202 100.841V99.8344C54.6489 100.091 54.4062 100.348 54.0922 100.605C53.7781 100.862 53.3713 101.083 52.8717 101.269C52.3864 101.44 51.7726 101.526 51.0304 101.526ZM51.2445 100.284C51.9011 100.284 52.5006 100.141 53.043 99.8558C53.5854 99.5703 54.0137 99.135 54.3277 98.5497C54.656 97.9502 54.8202 97.2008 54.8202 96.3015V95.5736L52.0581 95.959C50.8876 96.116 50.0026 96.3872 49.4031 96.7726C48.8036 97.158 48.5038 97.6433 48.5038 98.2285C48.5038 98.6996 48.6394 99.085 48.9107 99.3848C49.1819 99.6845 49.5244 99.9129 49.9384 100.07C50.3666 100.213 50.802 100.284 51.2445 100.284ZM63.9442 101.526C63.0592 101.526 62.3241 101.369 61.7388 101.055C61.1679 100.727 60.704 100.32 60.3471 99.8344V100.841C60.3471 100.983 60.3043 101.098 60.2186 101.183C60.133 101.269 60.0188 101.312 59.8761 101.312H59.5121C59.3693 101.312 59.2551 101.269 59.1695 101.183C59.0838 101.098 59.041 100.983 59.041 100.841V86.5808C59.041 86.4381 59.0838 86.3239 59.1695 86.2382C59.2551 86.1526 59.3693 86.1098 59.5121 86.1098H59.8761C60.0188 86.1098 60.133 86.1526 60.2186 86.2382C60.3043 86.3239 60.3471 86.4381 60.3471 86.5808V91.6553C60.704 91.1842 61.1679 90.7846 61.7388 90.4563C62.3241 90.128 63.0592 89.9638 63.9442 89.9638C64.7864 89.9638 65.4929 90.1137 66.0639 90.4134C66.6349 90.7132 67.0988 91.1129 67.4556 91.6125C67.8125 92.1121 68.0766 92.6688 68.2479 93.2825C68.4192 93.8963 68.5119 94.5173 68.5262 95.1453C68.5405 95.3594 68.5476 95.5593 68.5476 95.7448C68.5476 95.9304 68.5405 96.1302 68.5262 96.3444C68.5119 96.9724 68.4192 97.5933 68.2479 98.2071C68.0766 98.8209 67.8125 99.3776 67.4556 99.8772C67.0988 100.377 66.6349 100.776 66.0639 101.076C65.4929 101.376 64.7864 101.526 63.9442 101.526ZM63.8157 100.284C64.6579 100.284 65.3217 100.098 65.807 99.7273C66.2923 99.3562 66.642 98.8709 66.8561 98.2714C67.0702 97.6719 67.1916 97.0295 67.2201 96.3444C67.2344 95.9447 67.2344 95.545 67.2201 95.1453C67.1916 94.4602 67.0702 93.8178 66.8561 93.2183C66.642 92.6188 66.2923 92.1335 65.807 91.7623C65.3217 91.3912 64.6579 91.2057 63.8157 91.2057C63.0307 91.2057 62.3812 91.3912 61.8673 91.7623C61.3677 92.1335 60.9894 92.5974 60.7325 93.1541C60.4899 93.7108 60.3614 94.2746 60.3471 94.8456C60.3328 95.0597 60.3257 95.338 60.3257 95.6806C60.3257 96.0232 60.3328 96.3015 60.3471 96.5156C60.3757 97.1009 60.5041 97.6861 60.7325 98.2714C60.9752 98.8423 61.3463 99.3205 61.8459 99.7059C62.3455 100.091 63.0021 100.284 63.8157 100.284ZM71.4184 101.312C71.2757 101.312 71.1615 101.269 71.0758 101.183C70.9902 101.098 70.9474 100.983 70.9474 100.841V90.649C70.9474 90.5062 70.9902 90.392 71.0758 90.3064C71.1615 90.2207 71.2757 90.1779 71.4184 90.1779H71.7824C71.9251 90.1779 72.0393 90.2207 72.125 90.3064C72.2106 90.392 72.2534 90.5062 72.2534 90.649V100.841C72.2534 100.983 72.2106 101.098 72.125 101.183C72.0393 101.269 71.9251 101.312 71.7824 101.312H71.4184ZM71.1829 87.8869C71.0401 87.8869 70.9259 87.8441 70.8403 87.7584C70.7547 87.6728 70.7118 87.5586 70.7118 87.4159V86.6022C70.7118 86.4595 70.7547 86.3453 70.8403 86.2597C70.9259 86.1597 71.0401 86.1098 71.1829 86.1098H71.9965C72.1392 86.1098 72.2534 86.1597 72.3391 86.2597C72.439 86.3453 72.489 86.4595 72.489 86.6022V87.4159C72.489 87.5586 72.439 87.6728 72.3391 87.7584C72.2534 87.8441 72.1392 87.8869 71.9965 87.8869H71.1829ZM75.7147 101.312C75.572 101.312 75.4578 101.269 75.3721 101.183C75.2865 101.098 75.2437 100.983 75.2437 100.841V86.5808C75.2437 86.4381 75.2865 86.3239 75.3721 86.2382C75.4578 86.1526 75.572 86.1098 75.7147 86.1098H76.0787C76.2214 86.1098 76.3356 86.1526 76.4213 86.2382C76.5069 86.3239 76.5497 86.4381 76.5497 86.5808V100.841C76.5497 100.983 76.5069 101.098 76.4213 101.183C76.3356 101.269 76.2214 101.312 76.0787 101.312H75.7147ZM80.01 101.312C79.8673 101.312 79.7531 101.269 79.6674 101.183C79.5818 101.098 79.539 100.983 79.539 100.841V90.649C79.539 90.5062 79.5818 90.392 79.6674 90.3064C79.7531 90.2207 79.8673 90.1779 80.01 90.1779H80.374C80.5167 90.1779 80.6309 90.2207 80.7166 90.3064C80.8022 90.392 80.845 90.5062 80.845 90.649V100.841C80.845 100.983 80.8022 101.098 80.7166 101.183C80.6309 101.269 80.5167 101.312 80.374 101.312H80.01ZM79.7745 87.8869C79.6317 87.8869 79.5175 87.8441 79.4319 87.7584C79.3463 87.6728 79.3034 87.5586 79.3034 87.4159V86.6022C79.3034 86.4595 79.3463 86.3453 79.4319 86.2597C79.5175 86.1597 79.6317 86.1098 79.7745 86.1098H80.5881C80.7308 86.1098 80.845 86.1597 80.9307 86.2597C81.0306 86.3453 81.0806 86.4595 81.0806 86.6022V87.4159C81.0806 87.5586 81.0306 87.6728 80.9307 87.7584C80.845 87.8441 80.7308 87.8869 80.5881 87.8869H79.7745ZM87.5608 101.312C86.8186 101.312 86.2333 101.155 85.8051 100.841C85.3769 100.527 85.0771 100.098 84.9058 99.556C84.7345 99.0136 84.6489 98.407 84.6489 97.7361V91.4198H82.9788C82.8361 91.4198 82.7219 91.3769 82.6362 91.2913C82.5506 91.2057 82.5078 91.0915 82.5078 90.9487V90.649C82.5078 90.5062 82.5506 90.392 82.6362 90.3064C82.7219 90.2207 82.8361 90.1779 82.9788 90.1779H84.6489V86.5808C84.6489 86.4381 84.6917 86.3239 84.7773 86.2382C84.863 86.1526 84.9772 86.1098 85.1199 86.1098H85.4839C85.6267 86.1098 85.7409 86.1526 85.8265 86.2382C85.9121 86.3239 85.955 86.4381 85.955 86.5808V90.1779H88.61C88.7527 90.1779 88.8669 90.2207 88.9525 90.3064C89.0382 90.392 89.081 90.5062 89.081 90.649V90.9487C89.081 91.0915 89.0382 91.2057 88.9525 91.2913C88.8669 91.3769 88.7527 91.4198 88.61 91.4198H85.955V97.6504C85.955 98.407 86.0763 98.9994 86.319 99.4276C86.5759 99.8558 87.0255 100.07 87.6679 100.07H88.8241C88.9668 100.07 89.081 100.113 89.1667 100.198C89.2523 100.284 89.2951 100.398 89.2951 100.541V100.841C89.2951 100.983 89.2523 101.098 89.1667 101.183C89.081 101.269 88.9668 101.312 88.8241 101.312H87.5608ZM92.9002 105.38C92.786 105.38 92.6861 105.337 92.6005 105.251C92.5148 105.166 92.472 105.066 92.472 104.952C92.472 104.895 92.4792 104.83 92.4934 104.759C92.522 104.702 92.5577 104.623 92.6005 104.523L94.2491 100.669L90.1596 91.0344C90.074 90.8203 90.0311 90.6775 90.0311 90.6061C90.0311 90.4919 90.074 90.392 90.1596 90.3064C90.2452 90.2207 90.3452 90.1779 90.4594 90.1779H90.909C91.0517 90.1779 91.1588 90.2136 91.2302 90.285C91.3158 90.3421 91.3729 90.4134 91.4015 90.4991L94.9985 98.9779L98.6813 90.4991C98.7241 90.4134 98.7812 90.3421 98.8526 90.285C98.9239 90.2136 99.031 90.1779 99.1737 90.1779H99.602C99.7162 90.1779 99.8161 90.2207 99.9017 90.3064C99.9874 90.392 100.03 90.4919 100.03 90.6061C100.03 90.6775 99.9874 90.8203 99.9017 91.0344L93.8209 105.059C93.7781 105.144 93.721 105.216 93.6496 105.273C93.5783 105.344 93.4712 105.38 93.3285 105.38H92.9002Z" fill="#7E41FF"/>
<path d="M275.477 334.159C275.334 334.159 275.22 334.116 275.134 334.031C275.049 333.945 275.006 333.831 275.006 333.688V319.664C275.006 319.507 275.049 319.386 275.134 319.3C275.22 319.214 275.334 319.171 275.477 319.171H283.742C283.899 319.171 284.02 319.214 284.106 319.3C284.191 319.386 284.234 319.507 284.234 319.664V319.985C284.234 320.128 284.191 320.242 284.106 320.328C284.02 320.413 283.899 320.456 283.742 320.456H276.355V326.216H283.313C283.47 326.216 283.592 326.259 283.677 326.344C283.763 326.43 283.806 326.551 283.806 326.708V327.029C283.806 327.172 283.763 327.286 283.677 327.372C283.592 327.458 283.47 327.5 283.313 327.5H276.355V333.688C276.355 333.831 276.312 333.945 276.226 334.031C276.141 334.116 276.019 334.159 275.862 334.159H275.477ZM290.328 334.373C288.943 334.373 287.844 333.924 287.03 333.025C286.217 332.111 285.753 330.919 285.639 329.449C285.624 329.235 285.617 328.949 285.617 328.592C285.617 328.236 285.624 327.95 285.639 327.736C285.71 326.765 285.938 325.909 286.324 325.167C286.709 324.424 287.237 323.846 287.908 323.432C288.593 323.018 289.4 322.811 290.328 322.811C291.327 322.811 292.176 323.033 292.876 323.475C293.575 323.918 294.11 324.553 294.481 325.381C294.867 326.209 295.059 327.194 295.059 328.335V328.657C295.059 328.799 295.01 328.914 294.91 328.999C294.824 329.085 294.71 329.128 294.567 329.128H286.945C286.945 329.128 286.945 329.156 286.945 329.213C286.945 329.27 286.945 329.313 286.945 329.342C286.973 329.984 287.123 330.598 287.394 331.183C287.665 331.754 288.051 332.225 288.55 332.596C289.05 332.953 289.642 333.132 290.328 333.132C290.941 333.132 291.448 333.039 291.848 332.853C292.262 332.668 292.59 332.468 292.833 332.254C293.075 332.025 293.232 331.854 293.304 331.74C293.432 331.554 293.532 331.447 293.604 331.419C293.675 331.376 293.789 331.354 293.946 331.354H294.289C294.417 331.354 294.524 331.397 294.61 331.483C294.71 331.554 294.753 331.654 294.738 331.783C294.724 331.982 294.61 332.232 294.396 332.532C294.196 332.818 293.903 333.103 293.518 333.388C293.147 333.674 292.69 333.91 292.148 334.095C291.605 334.281 290.998 334.373 290.328 334.373ZM286.945 327.929H293.753V327.843C293.753 327.129 293.618 326.487 293.347 325.916C293.075 325.345 292.683 324.895 292.169 324.567C291.655 324.224 291.041 324.053 290.328 324.053C289.614 324.053 289 324.224 288.486 324.567C287.987 324.895 287.601 325.345 287.33 325.916C287.073 326.487 286.945 327.129 286.945 327.843V327.929ZM300.389 334.373C299.704 334.373 299.068 334.231 298.483 333.945C297.912 333.66 297.448 333.281 297.091 332.81C296.735 332.325 296.556 331.783 296.556 331.183C296.556 330.212 296.949 329.435 297.734 328.849C298.519 328.264 299.539 327.886 300.796 327.715L304.178 327.243V326.494C304.178 325.738 303.943 325.145 303.472 324.717C303.015 324.274 302.28 324.053 301.267 324.053C300.524 324.053 299.925 324.203 299.468 324.503C299.011 324.788 298.697 325.167 298.526 325.638C298.455 325.852 298.319 325.959 298.119 325.959H297.777C297.605 325.959 297.484 325.916 297.413 325.83C297.341 325.73 297.305 325.616 297.305 325.488C297.305 325.288 297.377 325.038 297.52 324.738C297.677 324.439 297.912 324.146 298.226 323.86C298.54 323.561 298.947 323.311 299.447 323.111C299.946 322.911 300.553 322.811 301.267 322.811C302.109 322.811 302.801 322.926 303.343 323.154C303.9 323.382 304.328 323.682 304.628 324.053C304.942 324.41 305.163 324.81 305.292 325.252C305.42 325.695 305.485 326.13 305.485 326.558V333.688C305.485 333.831 305.442 333.945 305.356 334.031C305.27 334.116 305.156 334.159 305.014 334.159H304.65C304.507 334.159 304.393 334.116 304.307 334.031C304.221 333.945 304.178 333.831 304.178 333.688V332.682C304.007 332.939 303.765 333.196 303.451 333.453C303.136 333.71 302.73 333.931 302.23 334.116C301.745 334.288 301.131 334.373 300.389 334.373ZM300.603 333.132C301.259 333.132 301.859 332.989 302.401 332.703C302.944 332.418 303.372 331.982 303.686 331.397C304.014 330.798 304.178 330.048 304.178 329.149V328.421L301.416 328.806C300.246 328.964 299.361 329.235 298.761 329.62C298.162 330.006 297.862 330.491 297.862 331.076C297.862 331.547 297.998 331.933 298.269 332.232C298.54 332.532 298.883 332.76 299.297 332.917C299.725 333.06 300.16 333.132 300.603 333.132ZM311.911 334.373C311.169 334.373 310.526 334.273 309.984 334.074C309.456 333.874 309.02 333.638 308.678 333.367C308.335 333.082 308.078 332.803 307.907 332.532C307.75 332.261 307.664 332.054 307.65 331.911C307.636 331.754 307.686 331.64 307.8 331.569C307.914 331.483 308.021 331.44 308.121 331.44H308.442C308.528 331.44 308.599 331.454 308.656 331.483C308.728 331.511 308.813 331.59 308.913 331.718C309.099 331.961 309.313 332.197 309.556 332.425C309.798 332.639 310.105 332.81 310.476 332.939C310.862 333.067 311.34 333.132 311.911 333.132C312.767 333.132 313.474 332.967 314.031 332.639C314.587 332.311 314.866 331.825 314.866 331.183C314.866 330.783 314.751 330.462 314.523 330.22C314.309 329.977 313.938 329.763 313.41 329.577C312.881 329.392 312.168 329.199 311.268 328.999C310.369 328.785 309.677 328.528 309.192 328.228C308.721 327.929 308.399 327.586 308.228 327.201C308.057 326.801 307.971 326.373 307.971 325.916C307.971 325.416 308.114 324.931 308.399 324.46C308.685 323.975 309.106 323.582 309.663 323.282C310.234 322.968 310.947 322.811 311.804 322.811C312.503 322.811 313.096 322.904 313.581 323.09C314.08 323.275 314.487 323.504 314.801 323.775C315.115 324.032 315.344 324.289 315.486 324.546C315.643 324.803 315.729 325.01 315.743 325.167C315.758 325.309 315.715 325.424 315.615 325.509C315.515 325.595 315.401 325.638 315.272 325.638H314.951C314.837 325.638 314.744 325.616 314.673 325.573C314.601 325.516 314.537 325.445 314.48 325.359C314.337 325.131 314.166 324.917 313.966 324.717C313.766 324.517 313.495 324.36 313.153 324.246C312.824 324.117 312.375 324.053 311.804 324.053C310.947 324.053 310.312 324.232 309.898 324.588C309.484 324.931 309.277 325.374 309.277 325.916C309.277 326.23 309.363 326.508 309.534 326.751C309.705 326.979 310.027 327.194 310.498 327.393C310.969 327.579 311.654 327.779 312.553 327.993C313.467 328.193 314.188 328.442 314.716 328.742C315.244 329.028 315.615 329.37 315.829 329.77C316.057 330.17 316.172 330.641 316.172 331.183C316.172 331.754 316.007 332.282 315.679 332.768C315.365 333.253 314.887 333.645 314.245 333.945C313.617 334.231 312.839 334.373 311.911 334.373ZM318.895 334.159C318.752 334.159 318.638 334.116 318.552 334.031C318.467 333.945 318.424 333.831 318.424 333.688V323.496C318.424 323.354 318.467 323.24 318.552 323.154C318.638 323.068 318.752 323.025 318.895 323.025H319.259C319.402 323.025 319.516 323.068 319.601 323.154C319.687 323.24 319.73 323.354 319.73 323.496V333.688C319.73 333.831 319.687 333.945 319.601 334.031C319.516 334.116 319.402 334.159 319.259 334.159H318.895ZM318.659 320.734C318.517 320.734 318.402 320.692 318.317 320.606C318.231 320.52 318.188 320.406 318.188 320.263V319.45C318.188 319.307 318.231 319.193 318.317 319.107C318.402 319.007 318.517 318.957 318.659 318.957H319.473C319.616 318.957 319.73 319.007 319.816 319.107C319.915 319.193 319.965 319.307 319.965 319.45V320.263C319.965 320.406 319.915 320.52 319.816 320.606C319.73 320.692 319.616 320.734 319.473 320.734H318.659ZM327.623 334.373C326.738 334.373 326.003 334.216 325.418 333.902C324.847 333.574 324.383 333.167 324.026 332.682V333.688C324.026 333.831 323.983 333.945 323.898 334.031C323.812 334.116 323.698 334.159 323.555 334.159H323.191C323.048 334.159 322.934 334.116 322.849 334.031C322.763 333.945 322.72 333.831 322.72 333.688V319.428C322.72 319.286 322.763 319.171 322.849 319.086C322.934 319 323.048 318.957 323.191 318.957H323.555C323.698 318.957 323.812 319 323.898 319.086C323.983 319.171 324.026 319.286 324.026 319.428V324.503C324.383 324.032 324.847 323.632 325.418 323.304C326.003 322.975 326.738 322.811 327.623 322.811C328.465 322.811 329.172 322.961 329.743 323.261C330.314 323.561 330.778 323.96 331.135 324.46C331.492 324.96 331.756 325.516 331.927 326.13C332.098 326.744 332.191 327.365 332.205 327.993C332.22 328.207 332.227 328.407 332.227 328.592C332.227 328.778 332.22 328.978 332.205 329.192C332.191 329.82 332.098 330.441 331.927 331.055C331.756 331.668 331.492 332.225 331.135 332.725C330.778 333.224 330.314 333.624 329.743 333.924C329.172 334.224 328.465 334.373 327.623 334.373ZM327.495 333.132C328.337 333.132 329.001 332.946 329.486 332.575C329.971 332.204 330.321 331.718 330.535 331.119C330.749 330.519 330.871 329.877 330.899 329.192C330.913 328.792 330.913 328.393 330.899 327.993C330.871 327.308 330.749 326.665 330.535 326.066C330.321 325.466 329.971 324.981 329.486 324.61C329.001 324.239 328.337 324.053 327.495 324.053C326.71 324.053 326.06 324.239 325.546 324.61C325.047 324.981 324.669 325.445 324.412 326.002C324.169 326.558 324.04 327.122 324.026 327.693C324.012 327.907 324.005 328.186 324.005 328.528C324.005 328.871 324.012 329.149 324.026 329.363C324.055 329.948 324.183 330.534 324.412 331.119C324.654 331.69 325.025 332.168 325.525 332.553C326.025 332.939 326.681 333.132 327.495 333.132ZM335.098 334.159C334.955 334.159 334.841 334.116 334.755 334.031C334.669 333.945 334.626 333.831 334.626 333.688V323.496C334.626 323.354 334.669 323.24 334.755 323.154C334.841 323.068 334.955 323.025 335.098 323.025H335.461C335.604 323.025 335.718 323.068 335.804 323.154C335.89 323.24 335.933 323.354 335.933 323.496V333.688C335.933 333.831 335.89 333.945 335.804 334.031C335.718 334.116 335.604 334.159 335.461 334.159H335.098ZM334.862 320.734C334.719 320.734 334.605 320.692 334.519 320.606C334.434 320.52 334.391 320.406 334.391 320.263V319.45C334.391 319.307 334.434 319.193 334.519 319.107C334.605 319.007 334.719 318.957 334.862 318.957H335.676C335.818 318.957 335.933 319.007 336.018 319.107C336.118 319.193 336.168 319.307 336.168 319.45V320.263C336.168 320.406 336.118 320.52 336.018 320.606C335.933 320.692 335.818 320.734 335.676 320.734H334.862ZM339.394 334.159C339.251 334.159 339.137 334.116 339.051 334.031C338.966 333.945 338.923 333.831 338.923 333.688V319.428C338.923 319.286 338.966 319.171 339.051 319.086C339.137 319 339.251 318.957 339.394 318.957H339.758C339.901 318.957 340.015 319 340.1 319.086C340.186 319.171 340.229 319.286 340.229 319.428V333.688C340.229 333.831 340.186 333.945 340.1 334.031C340.015 334.116 339.901 334.159 339.758 334.159H339.394ZM343.689 334.159C343.546 334.159 343.432 334.116 343.347 334.031C343.261 333.945 343.218 333.831 343.218 333.688V323.496C343.218 323.354 343.261 323.24 343.347 323.154C343.432 323.068 343.546 323.025 343.689 323.025H344.053C344.196 323.025 344.31 323.068 344.396 323.154C344.481 323.24 344.524 323.354 344.524 323.496V333.688C344.524 333.831 344.481 333.945 344.396 334.031C344.31 334.116 344.196 334.159 344.053 334.159H343.689ZM343.454 320.734C343.311 320.734 343.197 320.692 343.111 320.606C343.025 320.52 342.983 320.406 342.983 320.263V319.45C342.983 319.307 343.025 319.193 343.111 319.107C343.197 319.007 343.311 318.957 343.454 318.957H344.267C344.41 318.957 344.524 319.007 344.61 319.107C344.71 319.193 344.76 319.307 344.76 319.45V320.263C344.76 320.406 344.71 320.52 344.61 320.606C344.524 320.692 344.41 320.734 344.267 320.734H343.454ZM351.24 334.159C350.498 334.159 349.912 334.002 349.484 333.688C349.056 333.374 348.756 332.946 348.585 332.404C348.414 331.861 348.328 331.255 348.328 330.584V324.267H346.658C346.515 324.267 346.401 324.224 346.315 324.139C346.23 324.053 346.187 323.939 346.187 323.796V323.496C346.187 323.354 346.23 323.24 346.315 323.154C346.401 323.068 346.515 323.025 346.658 323.025H348.328V319.428C348.328 319.286 348.371 319.171 348.456 319.086C348.542 319 348.656 318.957 348.799 318.957H349.163C349.306 318.957 349.42 319 349.506 319.086C349.591 319.171 349.634 319.286 349.634 319.428V323.025H352.289C352.432 323.025 352.546 323.068 352.632 323.154C352.717 323.24 352.76 323.354 352.76 323.496V323.796C352.76 323.939 352.717 324.053 352.632 324.139C352.546 324.224 352.432 324.267 352.289 324.267H349.634V330.498C349.634 331.255 349.755 331.847 349.998 332.275C350.255 332.703 350.705 332.917 351.347 332.917H352.503C352.646 332.917 352.76 332.96 352.846 333.046C352.931 333.132 352.974 333.246 352.974 333.388V333.688C352.974 333.831 352.931 333.945 352.846 334.031C352.76 334.116 352.646 334.159 352.503 334.159H351.24ZM356.579 338.227C356.465 338.227 356.365 338.185 356.28 338.099C356.194 338.013 356.151 337.913 356.151 337.799C356.151 337.742 356.158 337.678 356.173 337.607C356.201 337.549 356.237 337.471 356.28 337.371L357.928 333.517L353.839 323.882C353.753 323.668 353.71 323.525 353.71 323.454C353.71 323.339 353.753 323.24 353.839 323.154C353.924 323.068 354.024 323.025 354.138 323.025H354.588C354.731 323.025 354.838 323.061 354.909 323.133C354.995 323.19 355.052 323.261 355.081 323.347L358.678 331.825L362.36 323.347C362.403 323.261 362.46 323.19 362.532 323.133C362.603 323.061 362.71 323.025 362.853 323.025H363.281C363.395 323.025 363.495 323.068 363.581 323.154C363.666 323.24 363.709 323.339 363.709 323.454C363.709 323.525 363.666 323.668 363.581 323.882L357.5 337.906C357.457 337.992 357.4 338.063 357.329 338.12C357.257 338.192 357.15 338.227 357.008 338.227H356.579Z" fill="#7E41FF"/>
<path d="M4.01398 178.343C3.45968 178.343 3.01033 177.893 3.01033 177.339C3.01033 176.785 3.45968 176.335 4.01398 176.335L4.01398 178.343ZM103.751 176.629C104.143 177.021 104.143 177.657 103.751 178.049L97.3635 184.436C96.9716 184.828 96.3361 184.828 95.9441 184.436C95.5522 184.044 95.5522 183.408 95.9441 183.016L101.622 177.339L95.9441 171.661C95.5522 171.269 95.5522 170.634 95.9441 170.242C96.3361 169.85 96.9715 169.85 97.3635 170.242L103.751 176.629ZM4.01398 176.335L103.041 176.335L103.041 178.343L4.01398 178.343L4.01398 176.335Z" fill="#7E41FF"/>
<path d="M424.5 70.5036C423.946 70.5036 423.496 70.0543 423.496 69.5C423.496 68.9457 423.946 68.4963 424.5 68.4963L424.5 70.5036ZM534.737 176.629C535.128 177.021 535.128 177.657 534.737 178.049L528.349 184.436C527.957 184.828 527.322 184.828 526.93 184.436C526.538 184.044 526.538 183.408 526.93 183.016L532.607 177.339L526.93 171.661C526.538 171.269 526.538 170.634 526.93 170.242C527.322 169.85 527.957 169.85 528.349 170.242L534.737 176.629ZM472.5 176.335L534.027 176.335L534.027 178.342L472.5 178.342L472.5 176.335ZM424.5 68.4963L440.5 68.4963L440.5 70.5036L424.5 70.5036L424.5 68.4963ZM457.504 85.5L457.504 161.339L455.496 161.339L455.496 85.5L457.504 85.5ZM440.5 68.4963C449.891 68.4963 457.504 76.1091 457.504 85.5L455.496 85.5C455.496 77.2177 448.782 70.5036 440.5 70.5036L440.5 68.4963ZM472.5 178.342C463.109 178.342 455.496 170.73 455.496 161.339L457.504 161.339C457.504 169.621 464.218 176.335 472.5 176.335L472.5 178.342Z" fill="#7E41FF"/>
<path d="M424.473 283.996C423.919 283.996 423.469 284.446 423.469 285C423.469 285.554 423.919 286.004 424.473 286.004L424.473 283.996ZM534.71 177.871C535.102 177.479 535.102 176.843 534.71 176.451L528.322 170.064C527.931 169.672 527.295 169.672 526.903 170.064C526.511 170.456 526.511 171.092 526.903 171.484L532.581 177.161L526.903 182.839C526.511 183.231 526.511 183.866 526.903 184.258C527.295 184.65 527.931 184.65 528.322 184.258L534.71 177.871ZM472.473 178.165L534 178.165L534 176.158L472.473 176.158L472.473 178.165ZM424.473 286.004L440.473 286.004L440.473 283.996L424.473 283.996L424.473 286.004ZM457.477 269L457.477 193.161L455.469 193.161L455.469 269L457.477 269ZM440.473 286.004C449.864 286.004 457.477 278.391 457.477 269L455.469 269C455.469 277.282 448.755 283.996 440.473 283.996L440.473 286.004ZM472.473 176.158C463.082 176.158 455.469 183.77 455.469 193.161L457.477 193.161C457.477 184.879 464.191 178.165 472.473 178.165L472.473 176.158Z" fill="#7E41FF"/>
<g style="mix-blend-mode:multiply">
<ellipse cx="252.251" cy="121.134" rx="88.9905" ry="89.6596" fill="#F7F4FF"/>
</g>
<g style="mix-blend-mode:multiply">
<ellipse cx="260.95" cy="222.169" rx="89.6596" ry="88.9905" fill="#F7F4FF"/>
</g>
<path d="M317.422 23C317.236 23 317.087 22.9572 316.972 22.8715C316.858 22.7859 316.765 22.6574 316.694 22.4861L311.727 8.67587C311.698 8.59023 311.684 8.51172 311.684 8.44035C311.684 8.32616 311.727 8.22624 311.812 8.14059C311.898 8.05495 311.998 8.01212 312.112 8.01212H312.562C312.704 8.01212 312.811 8.05495 312.883 8.14059C312.968 8.21196 313.018 8.2762 313.033 8.33329L317.722 21.437L322.411 8.33329C322.439 8.2762 322.489 8.21196 322.561 8.14059C322.632 8.05495 322.739 8.01212 322.882 8.01212H323.332C323.446 8.01212 323.546 8.05495 323.631 8.14059C323.717 8.22624 323.76 8.32616 323.76 8.44035C323.76 8.51172 323.745 8.59023 323.717 8.67587L318.75 22.4861C318.692 22.6574 318.607 22.7859 318.493 22.8715C318.378 22.9572 318.221 23 318.022 23H317.422ZM326.007 23C325.865 23 325.751 22.9572 325.665 22.8715C325.579 22.7859 325.536 22.6717 325.536 22.529V12.3372C325.536 12.1945 325.579 12.0803 325.665 11.9946C325.751 11.909 325.865 11.8661 326.007 11.8661H326.371C326.514 11.8661 326.628 11.909 326.714 11.9946C326.8 12.0803 326.842 12.1945 326.842 12.3372V22.529C326.842 22.6717 326.8 22.7859 326.714 22.8715C326.628 22.9572 326.514 23 326.371 23H326.007ZM325.772 9.57514C325.629 9.57514 325.515 9.53232 325.429 9.44668C325.344 9.36103 325.301 9.24684 325.301 9.1041V8.29047C325.301 8.14773 325.344 8.03354 325.429 7.94789C325.515 7.84797 325.629 7.79801 325.772 7.79801H326.586C326.728 7.79801 326.842 7.84797 326.928 7.94789C327.028 8.03354 327.078 8.14773 327.078 8.29047V9.1041C327.078 9.24684 327.028 9.36103 326.928 9.44668C326.842 9.53232 326.728 9.57514 326.586 9.57514H325.772ZM332.809 23.2141C332.124 23.2141 331.489 23.0714 330.903 22.7859C330.332 22.5004 329.868 22.1221 329.512 21.6511C329.155 21.1658 328.976 20.6234 328.976 20.0238C328.976 19.0532 329.369 18.2753 330.154 17.69C330.939 17.1048 331.96 16.7265 333.216 16.5552L336.599 16.0842V15.3348C336.599 14.5782 336.363 13.9859 335.892 13.5576C335.435 13.1151 334.7 12.8939 333.687 12.8939C332.944 12.8939 332.345 13.0438 331.888 13.3435C331.431 13.629 331.117 14.0073 330.946 14.4783C330.875 14.6924 330.739 14.7995 330.539 14.7995H330.197C330.025 14.7995 329.904 14.7567 329.833 14.671C329.761 14.5711 329.726 14.4569 329.726 14.3284C329.726 14.1286 329.797 13.8788 329.94 13.579C330.097 13.2793 330.332 12.9867 330.646 12.7012C330.96 12.4014 331.367 12.1516 331.867 11.9518C332.366 11.752 332.973 11.652 333.687 11.652C334.529 11.652 335.221 11.7662 335.764 11.9946C336.32 12.223 336.749 12.5228 337.048 12.8939C337.362 13.2507 337.584 13.6504 337.712 14.0929C337.841 14.5354 337.905 14.9708 337.905 15.399V22.529C337.905 22.6717 337.862 22.7859 337.776 22.8715C337.691 22.9572 337.576 23 337.434 23H337.07C336.927 23 336.813 22.9572 336.727 22.8715C336.641 22.7859 336.599 22.6717 336.599 22.529V21.5226C336.427 21.7796 336.185 22.0365 335.871 22.2934C335.557 22.5504 335.15 22.7716 334.65 22.9572C334.165 23.1285 333.551 23.2141 332.809 23.2141ZM333.023 21.9723C333.68 21.9723 334.279 21.8295 334.822 21.544C335.364 21.2586 335.792 20.8232 336.106 20.2379C336.435 19.6384 336.599 18.889 336.599 17.9898V17.2618L333.837 17.6472C332.666 17.8042 331.781 18.0754 331.182 18.4608C330.582 18.8462 330.282 19.3315 330.282 19.9168C330.282 20.3878 330.418 20.7732 330.689 21.073C330.96 21.3727 331.303 21.6011 331.717 21.7581C332.145 21.9009 332.58 21.9723 333.023 21.9723ZM345.723 23.2141C344.838 23.2141 344.103 23.0571 343.517 22.7431C342.946 22.4148 342.482 22.0079 342.126 21.5226V22.529C342.126 22.6717 342.083 22.7859 341.997 22.8715C341.911 22.9572 341.797 23 341.655 23H341.291C341.148 23 341.034 22.9572 340.948 22.8715C340.862 22.7859 340.82 22.6717 340.82 22.529V8.26906C340.82 8.12632 340.862 8.01212 340.948 7.92648C341.034 7.84083 341.148 7.79801 341.291 7.79801H341.655C341.797 7.79801 341.911 7.84083 341.997 7.92648C342.083 8.01212 342.126 8.12632 342.126 8.26906V13.3435C342.482 12.8725 342.946 12.4728 343.517 12.1445C344.103 11.8162 344.838 11.652 345.723 11.652C346.565 11.652 347.271 11.8019 347.842 12.1017C348.413 12.4014 348.877 12.8011 349.234 13.3007C349.591 13.8003 349.855 14.357 350.026 14.9708C350.198 15.5846 350.29 16.2055 350.305 16.8336C350.319 17.0477 350.326 17.2475 350.326 17.4331C350.326 17.6186 350.319 17.8185 350.305 18.0326C350.29 18.6607 350.198 19.2816 350.026 19.8954C349.855 20.5092 349.591 21.0659 349.234 21.5654C348.877 22.065 348.413 22.4647 347.842 22.7645C347.271 23.0642 346.565 23.2141 345.723 23.2141ZM345.594 21.9723C346.436 21.9723 347.1 21.7867 347.585 21.4156C348.071 21.0444 348.421 20.5591 348.635 19.9596C348.849 19.3601 348.97 18.7177 348.999 18.0326C349.013 17.6329 349.013 17.2332 348.999 16.8336C348.97 16.1484 348.849 15.5061 348.635 14.9065C348.421 14.307 348.071 13.8217 347.585 13.4506C347.1 13.0795 346.436 12.8939 345.594 12.8939C344.809 12.8939 344.16 13.0795 343.646 13.4506C343.146 13.8217 342.768 14.2856 342.511 14.8423C342.268 15.399 342.14 15.9628 342.126 16.5338C342.111 16.7479 342.104 17.0263 342.104 17.3688C342.104 17.7114 342.111 17.9898 342.126 18.2039C342.154 18.7891 342.283 19.3744 342.511 19.9596C342.754 20.5306 343.125 21.0088 343.624 21.3942C344.124 21.7796 344.781 21.9723 345.594 21.9723ZM353.197 23C353.054 23 352.94 22.9572 352.854 22.8715C352.769 22.7859 352.726 22.6717 352.726 22.529V12.3372C352.726 12.1945 352.769 12.0803 352.854 11.9946C352.94 11.909 353.054 11.8661 353.197 11.8661H353.561C353.704 11.8661 353.818 11.909 353.903 11.9946C353.989 12.0803 354.032 12.1945 354.032 12.3372V22.529C354.032 22.6717 353.989 22.7859 353.903 22.8715C353.818 22.9572 353.704 23 353.561 23H353.197ZM352.961 9.57514C352.819 9.57514 352.704 9.53232 352.619 9.44668C352.533 9.36103 352.49 9.24684 352.49 9.1041V8.29047C352.49 8.14773 352.533 8.03354 352.619 7.94789C352.704 7.84797 352.819 7.79801 352.961 7.79801H353.775C353.918 7.79801 354.032 7.84797 354.118 7.94789C354.217 8.03354 354.267 8.14773 354.267 8.29047V9.1041C354.267 9.24684 354.217 9.36103 354.118 9.44668C354.032 9.53232 353.918 9.57514 353.775 9.57514H352.961ZM357.493 23C357.35 23 357.236 22.9572 357.151 22.8715C357.065 22.7859 357.022 22.6717 357.022 22.529V8.26906C357.022 8.12632 357.065 8.01212 357.151 7.92648C357.236 7.84083 357.35 7.79801 357.493 7.79801H357.857C358 7.79801 358.114 7.84083 358.2 7.92648C358.285 8.01212 358.328 8.12632 358.328 8.26906V22.529C358.328 22.6717 358.285 22.7859 358.2 22.8715C358.114 22.9572 358 23 357.857 23H357.493ZM361.788 23C361.646 23 361.532 22.9572 361.446 22.8715C361.36 22.7859 361.317 22.6717 361.317 22.529V12.3372C361.317 12.1945 361.36 12.0803 361.446 11.9946C361.532 11.909 361.646 11.8661 361.788 11.8661H362.152C362.295 11.8661 362.409 11.909 362.495 11.9946C362.581 12.0803 362.624 12.1945 362.624 12.3372V22.529C362.624 22.6717 362.581 22.7859 362.495 22.8715C362.409 22.9572 362.295 23 362.152 23H361.788ZM361.553 9.57514C361.41 9.57514 361.296 9.53232 361.21 9.44668C361.125 9.36103 361.082 9.24684 361.082 9.1041V8.29047C361.082 8.14773 361.125 8.03354 361.21 7.94789C361.296 7.84797 361.41 7.79801 361.553 7.79801H362.367C362.509 7.79801 362.624 7.84797 362.709 7.94789C362.809 8.03354 362.859 8.14773 362.859 8.29047V9.1041C362.859 9.24684 362.809 9.36103 362.709 9.44668C362.624 9.53232 362.509 9.57514 362.367 9.57514H361.553ZM369.339 23C368.597 23 368.012 22.843 367.584 22.529C367.155 22.2149 366.856 21.7867 366.684 21.2443C366.513 20.7019 366.427 20.0952 366.427 19.4243V13.108H364.757C364.615 13.108 364.5 13.0652 364.415 12.9795C364.329 12.8939 364.286 12.7797 364.286 12.637V12.3372C364.286 12.1945 364.329 12.0803 364.415 11.9946C364.5 11.909 364.615 11.8661 364.757 11.8661H366.427V8.26906C366.427 8.12632 366.47 8.01212 366.556 7.92648C366.641 7.84083 366.756 7.79801 366.898 7.79801H367.262C367.405 7.79801 367.519 7.84083 367.605 7.92648C367.691 8.01212 367.733 8.12632 367.733 8.26906V11.8661H370.388C370.531 11.8661 370.645 11.909 370.731 11.9946C370.817 12.0803 370.859 12.1945 370.859 12.3372V12.637C370.859 12.7797 370.817 12.8939 370.731 12.9795C370.645 13.0652 370.531 13.108 370.388 13.108H367.733V19.3387C367.733 20.0952 367.855 20.6876 368.097 21.1158C368.354 21.544 368.804 21.7581 369.446 21.7581H370.603C370.745 21.7581 370.859 21.801 370.945 21.8866C371.031 21.9723 371.074 22.0865 371.074 22.2292V22.529C371.074 22.6717 371.031 22.7859 370.945 22.8715C370.859 22.9572 370.745 23 370.603 23H369.339ZM374.679 27.0681C374.565 27.0681 374.465 27.0253 374.379 26.9397C374.293 26.854 374.251 26.7541 374.251 26.6399C374.251 26.5828 374.258 26.5186 374.272 26.4472C374.3 26.3901 374.336 26.3116 374.379 26.2117L376.028 22.3577L371.938 12.7226C371.852 12.5085 371.81 12.3657 371.81 12.2944C371.81 12.1802 371.852 12.0803 371.938 11.9946C372.024 11.909 372.124 11.8661 372.238 11.8661H372.687C372.83 11.8661 372.937 11.9018 373.009 11.9732C373.094 12.0303 373.151 12.1017 373.18 12.1873L376.777 20.6662L380.46 12.1873C380.503 12.1017 380.56 12.0303 380.631 11.9732C380.702 11.9018 380.809 11.8661 380.952 11.8661H381.38C381.495 11.8661 381.595 11.909 381.68 11.9946C381.766 12.0803 381.809 12.1802 381.809 12.2944C381.809 12.3657 381.766 12.5085 381.68 12.7226L375.599 26.747C375.557 26.8326 375.499 26.904 375.428 26.9611C375.357 27.0325 375.25 27.0681 375.107 27.0681H374.679Z" fill="#7E41FF"/>
<g style="mix-blend-mode:multiply">
<circle cx="161.923" cy="178.677" r="89.6596" fill="#F7F4FF"/>
</g>
</svg>
