<svg width="244" height="151" viewBox="0 0 244 151" fill="none" xmlns="http://www.w3.org/2000/svg">
<path d="M149.293 14C149.293 14.6908 148.921 15.4593 148 16.2994C147.081 17.1381 145.684 17.9804 143.821 18.8029C140.098 20.4457 134.668 21.942 127.903 23.2048C114.385 25.7281 95.6809 27.2933 75 27.2933C54.3191 27.2933 35.6146 25.7281 22.0967 23.2048C15.3319 21.942 9.90158 20.4457 6.17922 18.8029C4.31556 17.9804 2.91943 17.1381 2.00003 16.2994C1.07907 15.4593 0.706731 14.6908 0.706731 14C0.706731 13.3092 1.07907 12.5407 2.00003 11.7006C2.91943 10.8619 4.31556 10.0196 6.17922 9.19713C9.90158 7.55435 15.3319 6.05799 22.0967 4.79524C35.6146 2.27189 54.3191 0.706731 75 0.706731C95.6809 0.706731 114.385 2.27189 127.903 4.79524C134.668 6.05799 140.098 7.55435 143.821 9.19713C145.684 10.0196 147.081 10.8619 148 11.7006C148.921 12.5407 149.293 13.3092 149.293 14Z" stroke="black" stroke-width="1.41346"/>
<path d="M149.133 14.9076L74.9722 146.056" stroke="black" stroke-width="1.41346" stroke-dasharray="2.26 3.02"/>
<path d="M1.00014 14.3416L74.7832 147" stroke="black" stroke-width="1.41346" stroke-dasharray="2.26 3.02"/>
<path d="M167.44 40C167.312 40 167.211 39.9733 167.136 39.92C167.072 39.856 167.024 39.7547 166.992 39.616L164.8 29.312C164.789 29.2693 164.779 29.232 164.768 29.2C164.768 29.1573 164.768 29.1307 164.768 29.12C164.768 29.0347 164.8 28.96 164.864 28.896C164.928 28.832 165.003 28.8 165.088 28.8H165.424C165.627 28.8 165.744 28.88 165.776 29.04L167.648 38.16L169.632 31.648C169.664 31.552 169.717 31.4667 169.792 31.392C169.877 31.3173 169.989 31.28 170.128 31.28H170.48C170.629 31.28 170.741 31.3173 170.816 31.392C170.891 31.4667 170.944 31.552 170.976 31.648L172.96 38.16L174.832 29.04C174.864 28.88 174.981 28.8 175.184 28.8H175.52C175.605 28.8 175.68 28.832 175.744 28.896C175.808 28.96 175.84 29.0347 175.84 29.12C175.84 29.1307 175.835 29.1573 175.824 29.2C175.824 29.232 175.819 29.2693 175.808 29.312L173.616 39.616C173.584 39.7547 173.531 39.856 173.456 39.92C173.392 39.9733 173.296 40 173.168 40H172.928C172.8 40 172.693 39.968 172.608 39.904C172.533 39.84 172.475 39.744 172.432 39.616L170.304 32.864L168.176 39.616C168.133 39.744 168.069 39.84 167.984 39.904C167.909 39.968 167.808 40 167.68 40H167.44ZM180.266 40.16C179.231 40.16 178.41 39.824 177.802 39.152C177.194 38.4693 176.847 37.5787 176.762 36.48C176.751 36.32 176.746 36.1067 176.746 35.84C176.746 35.5733 176.751 35.36 176.762 35.2C176.815 34.4747 176.986 33.8347 177.274 33.28C177.562 32.7253 177.957 32.2933 178.458 31.984C178.97 31.6747 179.573 31.52 180.266 31.52C181.013 31.52 181.647 31.6853 182.17 32.016C182.693 32.3467 183.093 32.8213 183.37 33.44C183.658 34.0587 183.802 34.7947 183.802 35.648V35.888C183.802 35.9947 183.765 36.08 183.69 36.144C183.626 36.208 183.541 36.24 183.434 36.24H177.738C177.738 36.24 177.738 36.2613 177.738 36.304C177.738 36.3467 177.738 36.3787 177.738 36.4C177.759 36.88 177.871 37.3387 178.074 37.776C178.277 38.2027 178.565 38.5547 178.938 38.832C179.311 39.0987 179.754 39.232 180.266 39.232C180.725 39.232 181.103 39.1627 181.402 39.024C181.711 38.8853 181.957 38.736 182.138 38.576C182.319 38.4053 182.437 38.2773 182.49 38.192C182.586 38.0533 182.661 37.9733 182.714 37.952C182.767 37.92 182.853 37.904 182.97 37.904H183.226C183.322 37.904 183.402 37.936 183.466 38C183.541 38.0533 183.573 38.128 183.562 38.224C183.551 38.3733 183.466 38.56 183.306 38.784C183.157 38.9973 182.938 39.2107 182.65 39.424C182.373 39.6373 182.031 39.8133 181.626 39.952C181.221 40.0907 180.767 40.16 180.266 40.16ZM177.738 35.344H182.826V35.28C182.826 34.7467 182.725 34.2667 182.522 33.84C182.319 33.4133 182.026 33.0773 181.642 32.832C181.258 32.576 180.799 32.448 180.266 32.448C179.733 32.448 179.274 32.576 178.89 32.832C178.517 33.0773 178.229 33.4133 178.026 33.84C177.834 34.2667 177.738 34.7467 177.738 35.28V35.344ZM189.224 40.16C188.563 40.16 188.014 40.0427 187.576 39.808C187.15 39.5627 186.803 39.2587 186.536 38.896V39.648C186.536 39.7547 186.504 39.84 186.44 39.904C186.376 39.968 186.291 40 186.184 40H185.912C185.806 40 185.72 39.968 185.656 39.904C185.592 39.84 185.56 39.7547 185.56 39.648V28.992C185.56 28.8853 185.592 28.8 185.656 28.736C185.72 28.672 185.806 28.64 185.912 28.64H186.184C186.291 28.64 186.376 28.672 186.44 28.736C186.504 28.8 186.536 28.8853 186.536 28.992V32.784C186.803 32.432 187.15 32.1333 187.576 31.888C188.014 31.6427 188.563 31.52 189.224 31.52C189.854 31.52 190.382 31.632 190.808 31.856C191.235 32.08 191.582 32.3787 191.848 32.752C192.115 33.1253 192.312 33.5413 192.44 34C192.568 34.4587 192.638 34.9227 192.648 35.392C192.659 35.552 192.664 35.7013 192.664 35.84C192.664 35.9787 192.659 36.128 192.648 36.288C192.638 36.7573 192.568 37.2213 192.44 37.68C192.312 38.1387 192.115 38.5547 191.848 38.928C191.582 39.3013 191.235 39.6 190.808 39.824C190.382 40.048 189.854 40.16 189.224 40.16ZM189.128 39.232C189.758 39.232 190.254 39.0933 190.616 38.816C190.979 38.5387 191.24 38.176 191.4 37.728C191.56 37.28 191.651 36.8 191.672 36.288C191.683 35.9893 191.683 35.6907 191.672 35.392C191.651 34.88 191.56 34.4 191.4 33.952C191.24 33.504 190.979 33.1413 190.616 32.864C190.254 32.5867 189.758 32.448 189.128 32.448C188.542 32.448 188.056 32.5867 187.672 32.864C187.299 33.1413 187.016 33.488 186.824 33.904C186.643 34.32 186.547 34.7413 186.536 35.168C186.526 35.328 186.52 35.536 186.52 35.792C186.52 36.048 186.526 36.256 186.536 36.416C186.558 36.8533 186.654 37.2907 186.824 37.728C187.006 38.1547 187.283 38.512 187.656 38.8C188.03 39.088 188.52 39.232 189.128 39.232ZM200.855 40.16C200.3 40.16 199.82 40.0853 199.415 39.936C199.02 39.7867 198.695 39.6107 198.439 39.408C198.183 39.1947 197.991 38.9867 197.863 38.784C197.745 38.5813 197.681 38.4267 197.671 38.32C197.66 38.2027 197.697 38.1173 197.783 38.064C197.868 38 197.948 37.968 198.023 37.968H198.263C198.327 37.968 198.38 37.9787 198.423 38C198.476 38.0213 198.54 38.08 198.615 38.176C198.753 38.3573 198.913 38.5333 199.095 38.704C199.276 38.864 199.505 38.992 199.783 39.088C200.071 39.184 200.428 39.232 200.855 39.232C201.495 39.232 202.023 39.1093 202.439 38.864C202.855 38.6187 203.063 38.256 203.063 37.776C203.063 37.4773 202.977 37.2373 202.807 37.056C202.647 36.8747 202.369 36.7147 201.975 36.576C201.58 36.4373 201.047 36.2933 200.375 36.144C199.703 35.984 199.185 35.792 198.823 35.568C198.471 35.344 198.231 35.088 198.103 34.8C197.975 34.5013 197.911 34.1813 197.911 33.84C197.911 33.4667 198.017 33.104 198.231 32.752C198.444 32.3893 198.759 32.096 199.175 31.872C199.601 31.6373 200.135 31.52 200.775 31.52C201.297 31.52 201.74 31.5893 202.103 31.728C202.476 31.8667 202.78 32.0373 203.015 32.24C203.249 32.432 203.42 32.624 203.527 32.816C203.644 33.008 203.708 33.1627 203.719 33.28C203.729 33.3867 203.697 33.472 203.623 33.536C203.548 33.6 203.463 33.632 203.367 33.632H203.127C203.041 33.632 202.972 33.616 202.919 33.584C202.865 33.5413 202.817 33.488 202.775 33.424C202.668 33.2533 202.54 33.0933 202.391 32.944C202.241 32.7947 202.039 32.6773 201.783 32.592C201.537 32.496 201.201 32.448 200.775 32.448C200.135 32.448 199.66 32.5813 199.351 32.848C199.041 33.104 198.887 33.4347 198.887 33.84C198.887 34.0747 198.951 34.2827 199.079 34.464C199.207 34.6347 199.447 34.7947 199.799 34.944C200.151 35.0827 200.663 35.232 201.335 35.392C202.017 35.5413 202.556 35.728 202.951 35.952C203.345 36.1653 203.623 36.4213 203.783 36.72C203.953 37.0187 204.039 37.3707 204.039 37.776C204.039 38.2027 203.916 38.5973 203.671 38.96C203.436 39.3227 203.079 39.616 202.599 39.84C202.129 40.0533 201.548 40.16 200.855 40.16ZM208.81 40.16C207.775 40.16 206.954 39.824 206.346 39.152C205.738 38.4693 205.391 37.5787 205.306 36.48C205.295 36.32 205.29 36.1067 205.29 35.84C205.29 35.5733 205.295 35.36 205.306 35.2C205.359 34.4747 205.53 33.8347 205.818 33.28C206.106 32.7253 206.5 32.2933 207.002 31.984C207.514 31.6747 208.116 31.52 208.81 31.52C209.556 31.52 210.191 31.6853 210.714 32.016C211.236 32.3467 211.636 32.8213 211.914 33.44C212.202 34.0587 212.346 34.7947 212.346 35.648V35.888C212.346 35.9947 212.308 36.08 212.234 36.144C212.17 36.208 212.084 36.24 211.978 36.24H206.282C206.282 36.24 206.282 36.2613 206.282 36.304C206.282 36.3467 206.282 36.3787 206.282 36.4C206.303 36.88 206.415 37.3387 206.618 37.776C206.82 38.2027 207.108 38.5547 207.482 38.832C207.855 39.0987 208.298 39.232 208.81 39.232C209.268 39.232 209.647 39.1627 209.946 39.024C210.255 38.8853 210.5 38.736 210.682 38.576C210.863 38.4053 210.98 38.2773 211.034 38.192C211.13 38.0533 211.204 37.9733 211.258 37.952C211.311 37.92 211.396 37.904 211.514 37.904H211.77C211.866 37.904 211.946 37.936 212.01 38C212.084 38.0533 212.116 38.128 212.106 38.224C212.095 38.3733 212.01 38.56 211.85 38.784C211.7 38.9973 211.482 39.2107 211.194 39.424C210.916 39.6373 210.575 39.8133 210.17 39.952C209.764 40.0907 209.311 40.16 208.81 40.16ZM206.282 35.344H211.37V35.28C211.37 34.7467 211.268 34.2667 211.066 33.84C210.863 33.4133 210.57 33.0773 210.186 32.832C209.802 32.576 209.343 32.448 208.81 32.448C208.276 32.448 207.818 32.576 207.434 32.832C207.06 33.0773 206.772 33.4133 206.57 33.84C206.378 34.2667 206.282 34.7467 206.282 35.28V35.344ZM216.328 40.16C215.816 40.16 215.341 40.0533 214.904 39.84C214.477 39.6267 214.131 39.344 213.864 38.992C213.597 38.6293 213.464 38.224 213.464 37.776C213.464 37.0507 213.757 36.4693 214.344 36.032C214.931 35.5947 215.693 35.312 216.632 35.184L219.16 34.832V34.272C219.16 33.7067 218.984 33.264 218.632 32.944C218.291 32.6133 217.741 32.448 216.984 32.448C216.429 32.448 215.981 32.56 215.64 32.784C215.299 32.9973 215.064 33.28 214.936 33.632C214.883 33.792 214.781 33.872 214.632 33.872H214.376C214.248 33.872 214.157 33.84 214.104 33.776C214.051 33.7013 214.024 33.616 214.024 33.52C214.024 33.3707 214.077 33.184 214.184 32.96C214.301 32.736 214.477 32.5173 214.712 32.304C214.947 32.08 215.251 31.8933 215.624 31.744C215.997 31.5947 216.451 31.52 216.984 31.52C217.613 31.52 218.131 31.6053 218.536 31.776C218.952 31.9467 219.272 32.1707 219.496 32.448C219.731 32.7147 219.896 33.0133 219.992 33.344C220.088 33.6747 220.136 34 220.136 34.32V39.648C220.136 39.7547 220.104 39.84 220.04 39.904C219.976 39.968 219.891 40 219.784 40H219.512C219.405 40 219.32 39.968 219.256 39.904C219.192 39.84 219.16 39.7547 219.16 39.648V38.896C219.032 39.088 218.851 39.28 218.616 39.472C218.381 39.664 218.077 39.8293 217.704 39.968C217.341 40.096 216.883 40.16 216.328 40.16ZM216.488 39.232C216.979 39.232 217.427 39.1253 217.832 38.912C218.237 38.6987 218.557 38.3733 218.792 37.936C219.037 37.488 219.16 36.928 219.16 36.256V35.712L217.096 36C216.221 36.1173 215.56 36.32 215.112 36.608C214.664 36.896 214.44 37.2587 214.44 37.696C214.44 38.048 214.541 38.336 214.744 38.56C214.947 38.784 215.203 38.9547 215.512 39.072C215.832 39.1787 216.157 39.232 216.488 39.232ZM222.65 40C222.543 40 222.458 39.968 222.394 39.904C222.33 39.84 222.298 39.7547 222.298 39.648V32.048C222.298 31.9413 222.33 31.856 222.394 31.792C222.458 31.7173 222.543 31.68 222.65 31.68H222.906C223.013 31.68 223.098 31.7173 223.162 31.792C223.237 31.856 223.274 31.9413 223.274 32.048V32.784C223.466 32.4107 223.743 32.1333 224.106 31.952C224.469 31.7707 224.917 31.68 225.45 31.68H226.042C226.149 31.68 226.234 31.712 226.298 31.776C226.362 31.84 226.394 31.9253 226.394 32.032V32.256C226.394 32.3627 226.362 32.448 226.298 32.512C226.234 32.576 226.149 32.608 226.042 32.608H225.354C224.714 32.608 224.207 32.7947 223.834 33.168C223.461 33.5413 223.274 34.048 223.274 34.688V39.648C223.274 39.7547 223.237 39.84 223.162 39.904C223.098 39.968 223.013 40 222.906 40H222.65ZM230.457 40.16C229.71 40.16 229.076 40.016 228.553 39.728C228.03 39.4293 227.63 39.0027 227.353 38.448C227.086 37.8933 226.942 37.2373 226.921 36.48C226.91 36.32 226.905 36.1067 226.905 35.84C226.905 35.5733 226.91 35.36 226.921 35.2C226.942 34.432 227.086 33.776 227.353 33.232C227.63 32.6773 228.03 32.256 228.553 31.968C229.076 31.6693 229.71 31.52 230.457 31.52C231.022 31.52 231.508 31.6 231.913 31.76C232.329 31.9093 232.67 32.112 232.937 32.368C233.204 32.6133 233.406 32.8853 233.545 33.184C233.684 33.4827 233.758 33.776 233.769 34.064C233.78 34.1707 233.748 34.256 233.673 34.32C233.598 34.384 233.513 34.416 233.417 34.416H233.193C233.086 34.416 233.006 34.3947 232.953 34.352C232.91 34.2987 232.862 34.208 232.809 34.08C232.585 33.472 232.276 33.0507 231.881 32.816C231.497 32.5707 231.022 32.448 230.457 32.448C229.732 32.448 229.129 32.672 228.649 33.12C228.18 33.5573 227.929 34.2773 227.897 35.28C227.876 35.6533 227.876 36.0267 227.897 36.4C227.929 37.4027 228.18 38.128 228.649 38.576C229.129 39.0133 229.732 39.232 230.457 39.232C231.022 39.232 231.497 39.1147 231.881 38.88C232.276 38.6347 232.585 38.208 232.809 37.6C232.862 37.472 232.91 37.3867 232.953 37.344C233.006 37.2907 233.086 37.264 233.193 37.264H233.417C233.513 37.264 233.598 37.296 233.673 37.36C233.748 37.424 233.78 37.5093 233.769 37.616C233.758 37.8507 233.71 38.0853 233.625 38.32C233.54 38.5547 233.406 38.784 233.225 39.008C233.054 39.232 232.841 39.4293 232.585 39.6C232.329 39.7707 232.02 39.904 231.657 40C231.305 40.1067 230.905 40.16 230.457 40.16ZM235.883 40C235.777 40 235.691 39.968 235.627 39.904C235.563 39.84 235.531 39.7547 235.531 39.648V28.992C235.531 28.8853 235.563 28.8 235.627 28.736C235.691 28.672 235.777 28.64 235.883 28.64H236.155C236.262 28.64 236.347 28.672 236.411 28.736C236.475 28.8 236.507 28.8853 236.507 28.992V32.784C236.795 32.4107 237.142 32.1067 237.547 31.872C237.963 31.6373 238.513 31.52 239.195 31.52C239.921 31.52 240.523 31.68 241.003 32C241.494 32.3093 241.857 32.736 242.091 33.28C242.337 33.8133 242.459 34.4213 242.459 35.104V39.648C242.459 39.7547 242.427 39.84 242.363 39.904C242.299 39.968 242.214 40 242.107 40H241.835C241.729 40 241.643 39.968 241.579 39.904C241.515 39.84 241.483 39.7547 241.483 39.648V35.184C241.483 34.3307 241.275 33.664 240.859 33.184C240.443 32.6933 239.835 32.448 239.035 32.448C238.278 32.448 237.665 32.6933 237.195 33.184C236.737 33.664 236.507 34.3307 236.507 35.184V39.648C236.507 39.7547 236.475 39.84 236.411 39.904C236.347 39.968 236.262 40 236.155 40H235.883Z" fill="black"/>
<path d="M104.856 144C104.749 144 104.664 143.968 104.6 143.904C104.536 143.84 104.504 143.755 104.504 143.648V133.168C104.504 133.051 104.536 132.96 104.6 132.896C104.664 132.832 104.749 132.8 104.856 132.8H108.744C109.491 132.8 110.136 132.928 110.68 133.184C111.235 133.429 111.661 133.797 111.96 134.288C112.269 134.779 112.424 135.387 112.424 136.112C112.424 136.837 112.269 137.445 111.96 137.936C111.661 138.427 111.235 138.8 110.68 139.056C110.136 139.301 109.491 139.424 108.744 139.424H105.512V143.648C105.512 143.755 105.48 143.84 105.416 143.904C105.352 143.968 105.261 144 105.144 144H104.856ZM105.512 138.464H108.664C109.592 138.464 110.28 138.261 110.728 137.856C111.187 137.451 111.416 136.869 111.416 136.112C111.416 135.355 111.187 134.773 110.728 134.368C110.28 133.963 109.592 133.76 108.664 133.76H105.512V138.464ZM116.074 144.16C115.562 144.16 115.088 144.053 114.65 143.84C114.224 143.627 113.877 143.344 113.61 142.992C113.344 142.629 113.21 142.224 113.21 141.776C113.21 141.051 113.504 140.469 114.09 140.032C114.677 139.595 115.44 139.312 116.378 139.184L118.906 138.832V138.272C118.906 137.707 118.73 137.264 118.378 136.944C118.037 136.613 117.488 136.448 116.73 136.448C116.176 136.448 115.728 136.56 115.386 136.784C115.045 136.997 114.81 137.28 114.682 137.632C114.629 137.792 114.528 137.872 114.378 137.872H114.122C113.994 137.872 113.904 137.84 113.85 137.776C113.797 137.701 113.77 137.616 113.77 137.52C113.77 137.371 113.824 137.184 113.93 136.96C114.048 136.736 114.224 136.517 114.458 136.304C114.693 136.08 114.997 135.893 115.37 135.744C115.744 135.595 116.197 135.52 116.73 135.52C117.36 135.52 117.877 135.605 118.282 135.776C118.698 135.947 119.018 136.171 119.242 136.448C119.477 136.715 119.642 137.013 119.738 137.344C119.834 137.675 119.882 138 119.882 138.32V143.648C119.882 143.755 119.85 143.84 119.786 143.904C119.722 143.968 119.637 144 119.53 144H119.258C119.152 144 119.066 143.968 119.002 143.904C118.938 143.84 118.906 143.755 118.906 143.648V142.896C118.778 143.088 118.597 143.28 118.362 143.472C118.128 143.664 117.824 143.829 117.45 143.968C117.088 144.096 116.629 144.16 116.074 144.16ZM116.234 143.232C116.725 143.232 117.173 143.125 117.578 142.912C117.984 142.699 118.304 142.373 118.538 141.936C118.784 141.488 118.906 140.928 118.906 140.256V139.712L116.842 140C115.968 140.117 115.306 140.32 114.858 140.608C114.41 140.896 114.186 141.259 114.186 141.696C114.186 142.048 114.288 142.336 114.49 142.56C114.693 142.784 114.949 142.955 115.258 143.072C115.578 143.179 115.904 143.232 116.234 143.232ZM122.396 144C122.29 144 122.204 143.968 122.14 143.904C122.076 143.84 122.044 143.755 122.044 143.648V136.032C122.044 135.925 122.076 135.84 122.14 135.776C122.204 135.712 122.29 135.68 122.396 135.68H122.668C122.775 135.68 122.86 135.712 122.924 135.776C122.988 135.84 123.02 135.925 123.02 136.032V143.648C123.02 143.755 122.988 143.84 122.924 143.904C122.86 143.968 122.775 144 122.668 144H122.396ZM122.22 133.968C122.114 133.968 122.028 133.936 121.964 133.872C121.9 133.808 121.868 133.723 121.868 133.616V133.008C121.868 132.901 121.9 132.816 121.964 132.752C122.028 132.677 122.114 132.64 122.22 132.64H122.828C122.935 132.64 123.02 132.677 123.084 132.752C123.159 132.816 123.196 132.901 123.196 133.008V133.616C123.196 133.723 123.159 133.808 123.084 133.872C123.02 133.936 122.935 133.968 122.828 133.968H122.22ZM128.247 144.16C127.628 144.16 127.1 144.048 126.663 143.824C126.236 143.6 125.89 143.301 125.623 142.928C125.356 142.555 125.159 142.139 125.031 141.68C124.914 141.221 124.844 140.757 124.823 140.288C124.812 140.128 124.807 139.979 124.807 139.84C124.807 139.701 124.812 139.552 124.823 139.392C124.844 138.923 124.914 138.459 125.031 138C125.159 137.541 125.356 137.125 125.623 136.752C125.89 136.379 126.236 136.08 126.663 135.856C127.1 135.632 127.628 135.52 128.247 135.52C128.908 135.52 129.452 135.643 129.879 135.888C130.316 136.133 130.668 136.432 130.935 136.784V132.992C130.935 132.885 130.967 132.8 131.031 132.736C131.095 132.672 131.18 132.64 131.287 132.64H131.559C131.666 132.64 131.751 132.672 131.815 132.736C131.879 132.8 131.911 132.885 131.911 132.992V143.648C131.911 143.755 131.879 143.84 131.815 143.904C131.751 143.968 131.666 144 131.559 144H131.287C131.18 144 131.095 143.968 131.031 143.904C130.967 143.84 130.935 143.755 130.935 143.648V142.896C130.668 143.259 130.316 143.563 129.879 143.808C129.452 144.043 128.908 144.16 128.247 144.16ZM128.343 143.232C128.951 143.232 129.442 143.088 129.815 142.8C130.188 142.512 130.466 142.155 130.647 141.728C130.828 141.291 130.924 140.853 130.935 140.416C130.946 140.256 130.951 140.048 130.951 139.792C130.951 139.536 130.946 139.328 130.935 139.168C130.924 138.741 130.823 138.32 130.631 137.904C130.45 137.488 130.172 137.141 129.799 136.864C129.426 136.587 128.94 136.448 128.343 136.448C127.724 136.448 127.228 136.587 126.855 136.864C126.492 137.141 126.231 137.504 126.071 137.952C125.911 138.4 125.82 138.88 125.799 139.392C125.788 139.691 125.788 139.989 125.799 140.288C125.82 140.8 125.911 141.28 126.071 141.728C126.231 142.176 126.492 142.539 126.855 142.816C127.228 143.093 127.724 143.232 128.343 143.232ZM141.029 144.16C140.304 144.16 139.701 144.005 139.221 143.696C138.752 143.376 138.4 142.944 138.165 142.4C137.941 141.856 137.829 141.248 137.829 140.576V136.032C137.829 135.925 137.861 135.84 137.925 135.776C137.989 135.712 138.074 135.68 138.181 135.68H138.453C138.56 135.68 138.645 135.712 138.709 135.776C138.773 135.84 138.805 135.925 138.805 136.032V140.496C138.805 142.32 139.6 143.232 141.189 143.232C141.946 143.232 142.554 142.992 143.013 142.512C143.472 142.021 143.701 141.349 143.701 140.496V136.032C143.701 135.925 143.733 135.84 143.797 135.776C143.861 135.712 143.946 135.68 144.053 135.68H144.325C144.432 135.68 144.517 135.712 144.581 135.776C144.645 135.84 144.677 135.925 144.677 136.032V143.648C144.677 143.755 144.645 143.84 144.581 143.904C144.517 143.968 144.432 144 144.325 144H144.053C143.946 144 143.861 143.968 143.797 143.904C143.733 143.84 143.701 143.755 143.701 143.648V142.896C143.413 143.269 143.066 143.573 142.661 143.808C142.266 144.043 141.722 144.16 141.029 144.16ZM149.54 144.16C148.986 144.16 148.506 144.085 148.1 143.936C147.706 143.787 147.38 143.611 147.124 143.408C146.868 143.195 146.676 142.987 146.548 142.784C146.431 142.581 146.367 142.427 146.356 142.32C146.346 142.203 146.383 142.117 146.468 142.064C146.554 142 146.634 141.968 146.708 141.968H146.948C147.012 141.968 147.066 141.979 147.108 142C147.162 142.021 147.226 142.08 147.3 142.176C147.439 142.357 147.599 142.533 147.78 142.704C147.962 142.864 148.191 142.992 148.468 143.088C148.757 143.184 149.114 143.232 149.54 143.232C150.181 143.232 150.709 143.109 151.125 142.864C151.541 142.619 151.748 142.256 151.748 141.776C151.748 141.477 151.663 141.237 151.493 141.056C151.333 140.875 151.055 140.715 150.661 140.576C150.266 140.437 149.732 140.293 149.06 140.144C148.388 139.984 147.871 139.792 147.508 139.568C147.156 139.344 146.916 139.088 146.788 138.8C146.66 138.501 146.596 138.181 146.596 137.84C146.596 137.467 146.703 137.104 146.916 136.752C147.13 136.389 147.444 136.096 147.86 135.872C148.287 135.637 148.82 135.52 149.461 135.52C149.983 135.52 150.426 135.589 150.788 135.728C151.162 135.867 151.466 136.037 151.701 136.24C151.935 136.432 152.106 136.624 152.213 136.816C152.33 137.008 152.394 137.163 152.405 137.28C152.415 137.387 152.383 137.472 152.309 137.536C152.234 137.6 152.149 137.632 152.053 137.632H151.812C151.727 137.632 151.658 137.616 151.605 137.584C151.551 137.541 151.503 137.488 151.461 137.424C151.354 137.253 151.226 137.093 151.076 136.944C150.927 136.795 150.725 136.677 150.469 136.592C150.223 136.496 149.887 136.448 149.461 136.448C148.82 136.448 148.346 136.581 148.036 136.848C147.727 137.104 147.572 137.435 147.572 137.84C147.572 138.075 147.636 138.283 147.764 138.464C147.892 138.635 148.132 138.795 148.484 138.944C148.837 139.083 149.349 139.232 150.021 139.392C150.703 139.541 151.242 139.728 151.636 139.952C152.031 140.165 152.309 140.421 152.469 140.72C152.639 141.019 152.725 141.371 152.725 141.776C152.725 142.203 152.602 142.597 152.357 142.96C152.122 143.323 151.764 143.616 151.285 143.84C150.815 144.053 150.234 144.16 149.54 144.16ZM157.496 144.16C156.461 144.16 155.639 143.824 155.031 143.152C154.423 142.469 154.077 141.579 153.991 140.48C153.981 140.32 153.975 140.107 153.975 139.84C153.975 139.573 153.981 139.36 153.991 139.2C154.045 138.475 154.215 137.835 154.503 137.28C154.791 136.725 155.186 136.293 155.688 135.984C156.199 135.675 156.802 135.52 157.496 135.52C158.242 135.52 158.877 135.685 159.399 136.016C159.922 136.347 160.322 136.821 160.6 137.44C160.888 138.059 161.032 138.795 161.032 139.648V139.888C161.032 139.995 160.994 140.08 160.92 140.144C160.856 140.208 160.77 140.24 160.664 140.24H154.967C154.967 140.24 154.967 140.261 154.967 140.304C154.967 140.347 154.967 140.379 154.967 140.4C154.989 140.88 155.101 141.339 155.303 141.776C155.506 142.203 155.794 142.555 156.168 142.832C156.541 143.099 156.984 143.232 157.496 143.232C157.954 143.232 158.333 143.163 158.632 143.024C158.941 142.885 159.186 142.736 159.368 142.576C159.549 142.405 159.666 142.277 159.72 142.192C159.816 142.053 159.89 141.973 159.944 141.952C159.997 141.92 160.082 141.904 160.2 141.904H160.456C160.552 141.904 160.632 141.936 160.696 142C160.77 142.053 160.802 142.128 160.792 142.224C160.781 142.373 160.696 142.56 160.536 142.784C160.386 142.997 160.168 143.211 159.879 143.424C159.602 143.637 159.261 143.813 158.856 143.952C158.45 144.091 157.997 144.16 157.496 144.16ZM154.967 139.344H160.056V139.28C160.056 138.747 159.954 138.267 159.752 137.84C159.549 137.413 159.256 137.077 158.872 136.832C158.487 136.576 158.029 136.448 157.496 136.448C156.962 136.448 156.503 136.576 156.119 136.832C155.746 137.077 155.458 137.413 155.255 137.84C155.063 138.267 154.967 138.747 154.967 139.28V139.344ZM163.126 144C163.019 144 162.934 143.968 162.87 143.904C162.806 143.84 162.774 143.755 162.774 143.648V136.048C162.774 135.941 162.806 135.856 162.87 135.792C162.934 135.717 163.019 135.68 163.126 135.68H163.382C163.489 135.68 163.574 135.717 163.638 135.792C163.713 135.856 163.75 135.941 163.75 136.048V136.784C163.942 136.411 164.219 136.133 164.582 135.952C164.945 135.771 165.393 135.68 165.926 135.68H166.518C166.625 135.68 166.71 135.712 166.774 135.776C166.838 135.84 166.87 135.925 166.87 136.032V136.256C166.87 136.363 166.838 136.448 166.774 136.512C166.71 136.576 166.625 136.608 166.518 136.608H165.83C165.19 136.608 164.683 136.795 164.31 137.168C163.937 137.541 163.75 138.048 163.75 138.688V143.648C163.75 143.755 163.713 143.84 163.638 143.904C163.574 143.968 163.489 144 163.382 144H163.126Z" fill="black"/>
<path d="M132.704 88C132.619 88 132.544 87.968 132.48 87.904C132.416 87.84 132.384 87.7653 132.384 87.68C132.384 87.6267 132.395 87.568 132.416 87.504L136.464 77.12C136.507 77.0133 136.56 76.9333 136.624 76.88C136.699 76.8267 136.8 76.8 136.928 76.8H137.472C137.6 76.8 137.696 76.8267 137.76 76.88C137.835 76.9333 137.893 77.0133 137.936 77.12L141.984 87.504C142.005 87.568 142.016 87.6267 142.016 87.68C142.016 87.7653 141.984 87.84 141.92 87.904C141.856 87.968 141.781 88 141.696 88H141.376C141.269 88 141.189 87.9733 141.136 87.92C141.083 87.856 141.045 87.8027 141.024 87.76L140.032 85.2H134.368L133.376 87.76C133.365 87.8027 133.328 87.856 133.264 87.92C133.211 87.9733 133.131 88 133.024 88H132.704ZM134.752 84.24H139.648L137.2 77.936L134.752 84.24ZM143.702 91.04C143.596 91.04 143.51 91.008 143.446 90.944C143.382 90.88 143.35 90.7947 143.35 90.688V80.032C143.35 79.9253 143.382 79.84 143.446 79.776C143.51 79.712 143.596 79.68 143.702 79.68H143.974C144.081 79.68 144.166 79.712 144.23 79.776C144.294 79.84 144.326 79.9253 144.326 80.032V80.784C144.593 80.4213 144.94 80.1227 145.366 79.888C145.804 79.6427 146.353 79.52 147.014 79.52C147.644 79.52 148.172 79.632 148.598 79.856C149.025 80.0693 149.372 80.3573 149.638 80.72C149.905 81.0827 150.102 81.488 150.23 81.936C150.358 82.384 150.428 82.8427 150.438 83.312C150.449 83.472 150.454 83.648 150.454 83.84C150.454 84.032 150.449 84.208 150.438 84.368C150.428 84.8373 150.358 85.296 150.23 85.744C150.102 86.192 149.905 86.5973 149.638 86.96C149.372 87.3227 149.025 87.616 148.598 87.84C148.172 88.0533 147.644 88.16 147.014 88.16C146.353 88.16 145.804 88.0373 145.366 87.792C144.94 87.5467 144.593 87.248 144.326 86.896V90.688C144.326 90.7947 144.294 90.88 144.23 90.944C144.166 91.008 144.081 91.04 143.974 91.04H143.702ZM146.918 87.232C147.548 87.232 148.044 87.0933 148.406 86.816C148.769 86.5387 149.03 86.176 149.19 85.728C149.35 85.28 149.441 84.8 149.462 84.288C149.473 83.9893 149.473 83.6907 149.462 83.392C149.441 82.88 149.35 82.4 149.19 81.952C149.03 81.504 148.769 81.1413 148.406 80.864C148.044 80.5867 147.548 80.448 146.918 80.448C146.31 80.448 145.82 80.592 145.446 80.88C145.073 81.168 144.796 81.5307 144.614 81.968C144.444 82.3947 144.348 82.8267 144.326 83.264C144.316 83.424 144.31 83.632 144.31 83.888C144.31 84.144 144.316 84.352 144.326 84.512C144.337 84.9387 144.433 85.36 144.614 85.776C144.806 86.192 145.089 86.5387 145.462 86.816C145.846 87.0933 146.332 87.232 146.918 87.232ZM152.631 91.04C152.524 91.04 152.439 91.008 152.375 90.944C152.311 90.88 152.279 90.7947 152.279 90.688V80.032C152.279 79.9253 152.311 79.84 152.375 79.776C152.439 79.712 152.524 79.68 152.631 79.68H152.903C153.01 79.68 153.095 79.712 153.159 79.776C153.223 79.84 153.255 79.9253 153.255 80.032V80.784C153.522 80.4213 153.868 80.1227 154.295 79.888C154.732 79.6427 155.282 79.52 155.943 79.52C156.572 79.52 157.1 79.632 157.527 79.856C157.954 80.0693 158.3 80.3573 158.567 80.72C158.834 81.0827 159.031 81.488 159.159 81.936C159.287 82.384 159.356 82.8427 159.367 83.312C159.378 83.472 159.383 83.648 159.383 83.84C159.383 84.032 159.378 84.208 159.367 84.368C159.356 84.8373 159.287 85.296 159.159 85.744C159.031 86.192 158.834 86.5973 158.567 86.96C158.3 87.3227 157.954 87.616 157.527 87.84C157.1 88.0533 156.572 88.16 155.943 88.16C155.282 88.16 154.732 88.0373 154.295 87.792C153.868 87.5467 153.522 87.248 153.255 86.896V90.688C153.255 90.7947 153.223 90.88 153.159 90.944C153.095 91.008 153.01 91.04 152.903 91.04H152.631ZM155.847 87.232C156.476 87.232 156.972 87.0933 157.335 86.816C157.698 86.5387 157.959 86.176 158.119 85.728C158.279 85.28 158.37 84.8 158.391 84.288C158.402 83.9893 158.402 83.6907 158.391 83.392C158.37 82.88 158.279 82.4 158.119 81.952C157.959 81.504 157.698 81.1413 157.335 80.864C156.972 80.5867 156.476 80.448 155.847 80.448C155.239 80.448 154.748 80.592 154.375 80.88C154.002 81.168 153.724 81.5307 153.543 81.968C153.372 82.3947 153.276 82.8267 153.255 83.264C153.244 83.424 153.239 83.632 153.239 83.888C153.239 84.144 153.244 84.352 153.255 84.512C153.266 84.9387 153.362 85.36 153.543 85.776C153.735 86.192 154.018 86.5387 154.391 86.816C154.775 87.0933 155.26 87.232 155.847 87.232ZM165.773 88C165.666 88 165.58 87.968 165.516 87.904C165.453 87.84 165.421 87.7547 165.421 87.648V80.608H163.996C163.89 80.608 163.804 80.576 163.74 80.512C163.676 80.448 163.644 80.3627 163.644 80.256V80.032C163.644 79.9253 163.676 79.84 163.74 79.776C163.804 79.712 163.89 79.68 163.996 79.68H165.421V78.768C165.421 78.288 165.485 77.8507 165.612 77.456C165.751 77.0613 165.991 76.7467 166.332 76.512C166.685 76.2773 167.186 76.16 167.837 76.16H168.668C168.775 76.16 168.861 76.192 168.924 76.256C168.989 76.32 169.021 76.4053 169.021 76.512V76.736C169.021 76.8427 168.989 76.928 168.924 76.992C168.861 77.056 168.775 77.088 168.668 77.088H167.837C167.271 77.088 166.887 77.2427 166.684 77.552C166.493 77.8507 166.397 78.2827 166.397 78.848V79.68H168.509C168.615 79.68 168.701 79.712 168.765 79.776C168.829 79.84 168.861 79.9253 168.861 80.032V80.256C168.861 80.3627 168.829 80.448 168.765 80.512C168.701 80.576 168.615 80.608 168.509 80.608H166.397V87.648C166.397 87.7547 166.365 87.84 166.3 87.904C166.236 87.968 166.151 88 166.045 88H165.773ZM170.386 88C170.279 88 170.194 87.968 170.13 87.904C170.066 87.84 170.034 87.7547 170.034 87.648V80.048C170.034 79.9413 170.066 79.856 170.13 79.792C170.194 79.7173 170.279 79.68 170.386 79.68H170.642C170.749 79.68 170.834 79.7173 170.898 79.792C170.973 79.856 171.01 79.9413 171.01 80.048V80.784C171.202 80.4107 171.479 80.1333 171.842 79.952C172.205 79.7707 172.653 79.68 173.186 79.68H173.778C173.885 79.68 173.97 79.712 174.034 79.776C174.098 79.84 174.13 79.9253 174.13 80.032V80.256C174.13 80.3627 174.098 80.448 174.034 80.512C173.97 80.576 173.885 80.608 173.778 80.608H173.09C172.45 80.608 171.943 80.7947 171.57 81.168C171.197 81.5413 171.01 82.048 171.01 82.688V87.648C171.01 87.7547 170.973 87.84 170.898 87.904C170.834 87.968 170.749 88 170.642 88H170.386ZM178.129 88.16C177.094 88.16 176.273 87.824 175.665 87.152C175.057 86.4693 174.71 85.5787 174.625 84.48C174.614 84.32 174.609 84.1067 174.609 83.84C174.609 83.5733 174.614 83.36 174.625 83.2C174.678 82.4747 174.849 81.8347 175.137 81.28C175.425 80.7253 175.82 80.2933 176.321 79.984C176.833 79.6747 177.436 79.52 178.129 79.52C178.876 79.52 179.51 79.6853 180.033 80.016C180.556 80.3467 180.956 80.8213 181.233 81.44C181.521 82.0587 181.665 82.7947 181.665 83.648V83.888C181.665 83.9947 181.628 84.08 181.553 84.144C181.489 84.208 181.404 84.24 181.297 84.24H175.601C175.601 84.24 175.601 84.2613 175.601 84.304C175.601 84.3467 175.601 84.3787 175.601 84.4C175.622 84.88 175.734 85.3387 175.937 85.776C176.14 86.2027 176.428 86.5547 176.801 86.832C177.174 87.0987 177.617 87.232 178.129 87.232C178.588 87.232 178.966 87.1627 179.265 87.024C179.574 86.8853 179.82 86.736 180.001 86.576C180.182 86.4053 180.3 86.2773 180.353 86.192C180.449 86.0533 180.524 85.9733 180.577 85.952C180.63 85.92 180.716 85.904 180.833 85.904H181.089C181.185 85.904 181.265 85.936 181.329 86C181.404 86.0533 181.436 86.128 181.425 86.224C181.414 86.3733 181.329 86.56 181.169 86.784C181.02 86.9973 180.801 87.2107 180.513 87.424C180.236 87.6373 179.894 87.8133 179.489 87.952C179.084 88.0907 178.63 88.16 178.129 88.16ZM175.601 83.344H180.689V83.28C180.689 82.7467 180.588 82.2667 180.385 81.84C180.182 81.4133 179.889 81.0773 179.505 80.832C179.121 80.576 178.662 80.448 178.129 80.448C177.596 80.448 177.137 80.576 176.753 80.832C176.38 81.0773 176.092 81.4133 175.889 81.84C175.697 82.2667 175.601 82.7467 175.601 83.28V83.344ZM186.496 88.16C185.461 88.16 184.639 87.824 184.031 87.152C183.423 86.4693 183.077 85.5787 182.991 84.48C182.981 84.32 182.975 84.1067 182.975 83.84C182.975 83.5733 182.981 83.36 182.991 83.2C183.045 82.4747 183.215 81.8347 183.503 81.28C183.791 80.7253 184.186 80.2933 184.688 79.984C185.199 79.6747 185.802 79.52 186.496 79.52C187.242 79.52 187.877 79.6853 188.399 80.016C188.922 80.3467 189.322 80.8213 189.6 81.44C189.888 82.0587 190.032 82.7947 190.032 83.648V83.888C190.032 83.9947 189.994 84.08 189.92 84.144C189.856 84.208 189.77 84.24 189.664 84.24H183.967C183.967 84.24 183.967 84.2613 183.967 84.304C183.967 84.3467 183.967 84.3787 183.967 84.4C183.989 84.88 184.101 85.3387 184.303 85.776C184.506 86.2027 184.794 86.5547 185.168 86.832C185.541 87.0987 185.984 87.232 186.496 87.232C186.954 87.232 187.333 87.1627 187.632 87.024C187.941 86.8853 188.186 86.736 188.368 86.576C188.549 86.4053 188.666 86.2773 188.72 86.192C188.816 86.0533 188.89 85.9733 188.944 85.952C188.997 85.92 189.082 85.904 189.2 85.904H189.456C189.552 85.904 189.632 85.936 189.696 86C189.77 86.0533 189.802 86.128 189.792 86.224C189.781 86.3733 189.696 86.56 189.536 86.784C189.386 86.9973 189.168 87.2107 188.879 87.424C188.602 87.6373 188.261 87.8133 187.856 87.952C187.45 88.0907 186.997 88.16 186.496 88.16ZM183.967 83.344H189.056V83.28C189.056 82.7467 188.954 82.2667 188.752 81.84C188.549 81.4133 188.256 81.0773 187.872 80.832C187.487 80.576 187.029 80.448 186.496 80.448C185.962 80.448 185.503 80.576 185.119 80.832C184.746 81.0773 184.458 81.4133 184.255 81.84C184.063 82.2667 183.967 82.7467 183.967 83.28V83.344ZM198.651 88.16C197.926 88.16 197.323 88.0053 196.843 87.696C196.374 87.376 196.022 86.944 195.787 86.4C195.563 85.856 195.451 85.248 195.451 84.576V80.032C195.451 79.9253 195.483 79.84 195.547 79.776C195.611 79.712 195.696 79.68 195.803 79.68H196.075C196.182 79.68 196.267 79.712 196.331 79.776C196.395 79.84 196.427 79.9253 196.427 80.032V84.496C196.427 86.32 197.222 87.232 198.811 87.232C199.568 87.232 200.176 86.992 200.635 86.512C201.094 86.0213 201.323 85.3493 201.323 84.496V80.032C201.323 79.9253 201.355 79.84 201.419 79.776C201.483 79.712 201.568 79.68 201.675 79.68H201.947C202.054 79.68 202.139 79.712 202.203 79.776C202.267 79.84 202.299 79.9253 202.299 80.032V87.648C202.299 87.7547 202.267 87.84 202.203 87.904C202.139 87.968 202.054 88 201.947 88H201.675C201.568 88 201.483 87.968 201.419 87.904C201.355 87.84 201.323 87.7547 201.323 87.648V86.896C201.035 87.2693 200.688 87.5733 200.283 87.808C199.888 88.0427 199.344 88.16 198.651 88.16ZM207.162 88.16C206.608 88.16 206.128 88.0853 205.722 87.936C205.328 87.7867 205.002 87.6107 204.746 87.408C204.49 87.1947 204.298 86.9867 204.17 86.784C204.053 86.5813 203.989 86.4267 203.978 86.32C203.968 86.2027 204.005 86.1173 204.09 86.064C204.176 86 204.256 85.968 204.33 85.968H204.57C204.634 85.968 204.688 85.9787 204.73 86C204.784 86.0213 204.848 86.08 204.922 86.176C205.061 86.3573 205.221 86.5333 205.402 86.704C205.584 86.864 205.813 86.992 206.09 87.088C206.378 87.184 206.736 87.232 207.162 87.232C207.802 87.232 208.33 87.1093 208.746 86.864C209.162 86.6187 209.37 86.256 209.37 85.776C209.37 85.4773 209.285 85.2373 209.114 85.056C208.954 84.8747 208.677 84.7147 208.282 84.576C207.888 84.4373 207.354 84.2933 206.682 84.144C206.01 83.984 205.493 83.792 205.13 83.568C204.778 83.344 204.538 83.088 204.41 82.8C204.282 82.5013 204.218 82.1813 204.218 81.84C204.218 81.4667 204.325 81.104 204.538 80.752C204.752 80.3893 205.066 80.096 205.482 79.872C205.909 79.6373 206.442 79.52 207.082 79.52C207.605 79.52 208.048 79.5893 208.41 79.728C208.784 79.8667 209.088 80.0373 209.322 80.24C209.557 80.432 209.728 80.624 209.834 80.816C209.952 81.008 210.016 81.1627 210.026 81.28C210.037 81.3867 210.005 81.472 209.93 81.536C209.856 81.6 209.77 81.632 209.674 81.632H209.434C209.349 81.632 209.28 81.616 209.226 81.584C209.173 81.5413 209.125 81.488 209.082 81.424C208.976 81.2533 208.848 81.0933 208.698 80.944C208.549 80.7947 208.346 80.6773 208.09 80.592C207.845 80.496 207.509 80.448 207.082 80.448C206.442 80.448 205.968 80.5813 205.658 80.848C205.349 81.104 205.194 81.4347 205.194 81.84C205.194 82.0747 205.258 82.2827 205.386 82.464C205.514 82.6347 205.754 82.7947 206.106 82.944C206.458 83.0827 206.97 83.232 207.642 83.392C208.325 83.5413 208.864 83.728 209.258 83.952C209.653 84.1653 209.93 84.4213 210.09 84.72C210.261 85.0187 210.346 85.3707 210.346 85.776C210.346 86.2027 210.224 86.5973 209.978 86.96C209.744 87.3227 209.386 87.616 208.906 87.84C208.437 88.0533 207.856 88.16 207.162 88.16ZM215.117 88.16C214.083 88.16 213.261 87.824 212.653 87.152C212.045 86.4693 211.699 85.5787 211.613 84.48C211.603 84.32 211.597 84.1067 211.597 83.84C211.597 83.5733 211.603 83.36 211.613 83.2C211.667 82.4747 211.837 81.8347 212.125 81.28C212.413 80.7253 212.808 80.2933 213.309 79.984C213.821 79.6747 214.424 79.52 215.117 79.52C215.864 79.52 216.499 79.6853 217.021 80.016C217.544 80.3467 217.944 80.8213 218.221 81.44C218.509 82.0587 218.653 82.7947 218.653 83.648V83.888C218.653 83.9947 218.616 84.08 218.541 84.144C218.477 84.208 218.392 84.24 218.285 84.24H212.589C212.589 84.24 212.589 84.2613 212.589 84.304C212.589 84.3467 212.589 84.3787 212.589 84.4C212.611 84.88 212.723 85.3387 212.925 85.776C213.128 86.2027 213.416 86.5547 213.789 86.832C214.163 87.0987 214.605 87.232 215.117 87.232C215.576 87.232 215.955 87.1627 216.253 87.024C216.563 86.8853 216.808 86.736 216.989 86.576C217.171 86.4053 217.288 86.2773 217.341 86.192C217.437 86.0533 217.512 85.9733 217.565 85.952C217.619 85.92 217.704 85.904 217.821 85.904H218.077C218.173 85.904 218.253 85.936 218.317 86C218.392 86.0533 218.424 86.128 218.413 86.224C218.403 86.3733 218.317 86.56 218.157 86.784C218.008 86.9973 217.789 87.2107 217.501 87.424C217.224 87.6373 216.883 87.8133 216.477 87.952C216.072 88.0907 215.619 88.16 215.117 88.16ZM212.589 83.344H217.677V83.28C217.677 82.7467 217.576 82.2667 217.373 81.84C217.171 81.4133 216.877 81.0773 216.493 80.832C216.109 80.576 215.651 80.448 215.117 80.448C214.584 80.448 214.125 80.576 213.741 80.832C213.368 81.0773 213.08 81.4133 212.877 81.84C212.685 82.2667 212.589 82.7467 212.589 83.28V83.344ZM220.748 88C220.641 88 220.556 87.968 220.492 87.904C220.428 87.84 220.396 87.7547 220.396 87.648V80.048C220.396 79.9413 220.428 79.856 220.492 79.792C220.556 79.7173 220.641 79.68 220.748 79.68H221.004C221.11 79.68 221.196 79.7173 221.26 79.792C221.334 79.856 221.372 79.9413 221.372 80.048V80.784C221.564 80.4107 221.841 80.1333 222.204 79.952C222.566 79.7707 223.014 79.68 223.548 79.68H224.14C224.246 79.68 224.332 79.712 224.396 79.776C224.46 79.84 224.492 79.9253 224.492 80.032V80.256C224.492 80.3627 224.46 80.448 224.396 80.512C224.332 80.576 224.246 80.608 224.14 80.608H223.452C222.812 80.608 222.305 80.7947 221.932 81.168C221.558 81.5413 221.372 82.048 221.372 82.688V87.648C221.372 87.7547 221.334 87.84 221.26 87.904C221.196 87.968 221.11 88 221.004 88H220.748Z" fill="black"/>
</svg>
