<svg width="64" height="64" viewBox="0 0 64 64" fill="none" xmlns="http://www.w3.org/2000/svg">
<circle cx="32" cy="32" r="32" fill="white"/>
<path d="M42.0632 22.2772C42.0632 22.9438 41.9366 23.5505 41.6832 24.0972C41.4432 24.6305 41.1032 25.0905 40.6632 25.4772C40.2232 25.8638 39.7032 26.1638 39.1032 26.3772C38.5166 26.5905 37.8766 26.6972 37.1832 26.6972C36.4232 26.6972 35.7699 26.6038 35.2232 26.4172C34.6899 26.2305 34.2366 25.9972 33.8632 25.7172C33.5032 25.4238 33.2166 25.1038 33.0032 24.7572C32.7899 24.3972 32.6232 24.0505 32.5032 23.7172C32.3966 23.3838 32.3232 23.0772 32.2832 22.7972C32.2566 22.5172 32.2432 22.3038 32.2432 22.1572C32.4032 22.4238 32.5899 22.5972 32.8032 22.6772C33.0166 22.7438 33.1966 22.7772 33.3432 22.7772C33.7166 22.7772 33.9766 22.6772 34.1232 22.4772C34.2832 22.2772 34.3632 22.0638 34.3632 21.8372C34.3632 21.6905 34.3299 21.5372 34.2632 21.3772C34.2099 21.2172 34.1032 21.0705 33.9432 20.9372C33.7966 20.7905 33.5899 20.6705 33.3232 20.5772C33.0699 20.4838 32.7499 20.4372 32.3632 20.4372C32.0966 20.4372 31.8232 20.4905 31.5432 20.5972C31.2632 20.6905 31.0032 20.8438 30.7632 21.0572C30.5366 21.2572 30.3499 21.5105 30.2032 21.8172C30.0566 22.1238 29.9832 22.4838 29.9832 22.8972C29.9832 23.2972 30.0632 23.6972 30.2232 24.0972C30.3966 24.4838 30.6232 24.8505 30.9032 25.1972C31.1966 25.5438 31.5366 25.8572 31.9232 26.1372C32.3232 26.4172 32.7566 26.6505 33.2232 26.8372C33.9566 27.1438 34.7099 27.4438 35.4832 27.7372C36.2699 28.0305 37.0299 28.3505 37.7632 28.6972C38.4966 29.0438 39.1832 29.4438 39.8232 29.8972C40.4766 30.3372 41.0432 30.8638 41.5232 31.4772C42.0166 32.0905 42.4032 32.8105 42.6832 33.6372C42.9766 34.4505 43.1232 35.4038 43.1232 36.4972C43.1232 38.0572 42.8032 39.4838 42.1632 40.7772C41.5366 42.0572 40.6899 43.1572 39.6232 44.0772C38.5699 44.9838 37.3432 45.6838 35.9432 46.1772C34.5566 46.6838 33.1032 46.9372 31.5832 46.9372C30.2099 46.9372 28.9032 46.7305 27.6632 46.3172C26.4232 45.9172 25.3366 45.3638 24.4032 44.6572C23.4699 43.9505 22.7232 43.1238 22.1632 42.1772C21.6166 41.2172 21.3432 40.1838 21.3432 39.0772C21.3432 38.2638 21.4766 37.5505 21.7432 36.9372C22.0099 36.3238 22.3766 35.8172 22.8432 35.4172C23.3232 35.0038 23.8766 34.6972 24.5032 34.4972C25.1432 34.2972 25.8232 34.1972 26.5432 34.1972C27.1032 34.1972 27.6499 34.2572 28.1832 34.3772C28.7299 34.4972 29.2366 34.6772 29.7032 34.9172C30.1832 35.1438 30.6099 35.4238 30.9832 35.7572C31.3699 36.0905 31.6766 36.4705 31.9032 36.8972C31.6232 36.8172 31.3766 36.7772 31.1632 36.7772C30.8032 36.7772 30.5166 36.8838 30.3032 37.0972C30.0899 37.3105 29.9832 37.6305 29.9832 38.0572C29.9832 38.2838 30.0366 38.4972 30.1432 38.6972C30.2499 38.8838 30.3832 39.0505 30.5432 39.1972C30.7166 39.3438 30.9099 39.4572 31.1232 39.5372C31.3499 39.6172 31.5832 39.6572 31.8232 39.6572C32.0899 39.6572 32.3366 39.6038 32.5632 39.4972C32.7899 39.3772 32.9899 39.2238 33.1632 39.0372C33.3366 38.8505 33.4699 38.6438 33.5632 38.4172C33.6566 38.1905 33.7032 37.9572 33.7032 37.7172C33.7032 37.2505 33.5566 36.7772 33.2632 36.2972C32.9832 35.8172 32.5699 35.3905 32.0232 35.0172C30.9832 34.3772 30.0032 33.8238 29.0832 33.3572C28.1632 32.8905 27.3166 32.4505 26.5432 32.0372C25.7699 31.6105 25.0699 31.1838 24.4432 30.7572C23.8299 30.3305 23.3032 29.8372 22.8632 29.2772C22.4366 28.7172 22.1099 28.0638 21.8832 27.3172C21.6566 26.5572 21.5432 25.6438 21.5432 24.5772C21.5432 23.2972 21.7899 22.0972 22.2832 20.9772C22.7766 19.8572 23.4899 18.8838 24.4232 18.0572C25.3699 17.2172 26.5232 16.5572 27.8832 16.0772C29.2432 15.5972 30.7899 15.3572 32.5232 15.3572C34.2699 15.3572 35.7499 15.5705 36.9632 15.9972C38.1766 16.4105 39.1566 16.9505 39.9032 17.6172C40.6632 18.2838 41.2099 19.0305 41.5432 19.8572C41.8899 20.6705 42.0632 21.4772 42.0632 22.2772Z" fill="black"/>
</svg>
