<svg width="750" height="474" viewBox="0 0 750 474" fill="none" xmlns="http://www.w3.org/2000/svg">
<circle cx="204.082" cy="269.318" r="202.693" fill="#F7F4FF" stroke="black" stroke-width="2.77666"/>
<path d="M144.717 275.714C144.569 275.714 144.45 275.669 144.361 275.58C144.273 275.492 144.228 275.373 144.228 275.225V260.675C144.228 260.512 144.273 260.387 144.361 260.298C144.45 260.209 144.569 260.164 144.717 260.164H150.115C151.151 260.164 152.047 260.342 152.802 260.698C153.573 261.038 154.165 261.549 154.58 262.23C155.009 262.912 155.224 263.756 155.224 264.763C155.224 265.77 155.009 266.614 154.58 267.295C154.165 267.976 153.573 268.494 152.802 268.85C152.047 269.19 151.151 269.361 150.115 269.361H145.628V275.225C145.628 275.373 145.583 275.492 145.494 275.58C145.405 275.669 145.28 275.714 145.117 275.714H144.717ZM145.628 268.028H150.004C151.292 268.028 152.247 267.747 152.869 267.184C153.506 266.621 153.824 265.814 153.824 264.763C153.824 263.711 153.506 262.904 152.869 262.341C152.247 261.779 151.292 261.497 150.004 261.497H145.628V268.028ZM157.866 275.714C157.717 275.714 157.599 275.669 157.51 275.58C157.421 275.492 157.377 275.373 157.377 275.225V264.674C157.377 264.526 157.421 264.407 157.51 264.318C157.599 264.215 157.717 264.163 157.866 264.163H158.221C158.369 264.163 158.488 264.215 158.576 264.318C158.68 264.407 158.732 264.526 158.732 264.674V265.696C158.998 265.177 159.383 264.792 159.887 264.54C160.39 264.289 161.012 264.163 161.753 264.163H162.575C162.723 264.163 162.841 264.207 162.93 264.296C163.019 264.385 163.063 264.503 163.063 264.652V264.963C163.063 265.111 163.019 265.229 162.93 265.318C162.841 265.407 162.723 265.451 162.575 265.451H161.62C160.731 265.451 160.028 265.71 159.509 266.229C158.991 266.747 158.732 267.45 158.732 268.339V275.225C158.732 275.373 158.68 275.492 158.576 275.58C158.488 275.669 158.369 275.714 158.221 275.714H157.866ZM165.077 275.714C164.929 275.714 164.811 275.669 164.722 275.58C164.633 275.492 164.589 275.373 164.589 275.225V264.652C164.589 264.503 164.633 264.385 164.722 264.296C164.811 264.207 164.929 264.163 165.077 264.163H165.455C165.603 264.163 165.721 264.207 165.81 264.296C165.899 264.385 165.944 264.503 165.944 264.652V275.225C165.944 275.373 165.899 275.492 165.81 275.58C165.721 275.669 165.603 275.714 165.455 275.714H165.077ZM164.833 261.786C164.685 261.786 164.566 261.742 164.477 261.653C164.389 261.564 164.344 261.445 164.344 261.297V260.453C164.344 260.305 164.389 260.187 164.477 260.098C164.566 259.994 164.685 259.942 164.833 259.942H165.677C165.825 259.942 165.944 259.994 166.032 260.098C166.136 260.187 166.188 260.305 166.188 260.453V261.297C166.188 261.445 166.136 261.564 166.032 261.653C165.944 261.742 165.825 261.786 165.677 261.786H164.833ZM169.512 275.714C169.364 275.714 169.246 275.669 169.157 275.58C169.068 275.492 169.024 275.373 169.024 275.225V264.652C169.024 264.503 169.068 264.385 169.157 264.296C169.246 264.207 169.364 264.163 169.512 264.163H169.89C170.038 264.163 170.156 264.207 170.245 264.296C170.334 264.385 170.379 264.503 170.379 264.652V265.429C170.749 264.955 171.186 264.592 171.689 264.341C172.207 264.074 172.829 263.941 173.555 263.941C175.214 263.941 176.398 264.637 177.109 266.029C177.45 265.392 177.946 264.888 178.597 264.518C179.264 264.133 180.027 263.941 180.885 263.941C181.67 263.941 182.374 264.126 182.996 264.496C183.632 264.851 184.129 265.385 184.484 266.095C184.854 266.806 185.039 267.695 185.039 268.761V275.225C185.039 275.373 184.995 275.492 184.906 275.58C184.817 275.669 184.699 275.714 184.551 275.714H184.173C184.025 275.714 183.906 275.669 183.818 275.58C183.729 275.492 183.684 275.373 183.684 275.225V268.983C183.684 268.006 183.544 267.25 183.262 266.717C182.981 266.169 182.611 265.784 182.152 265.562C181.693 265.34 181.196 265.229 180.663 265.229C180.219 265.229 179.767 265.34 179.308 265.562C178.849 265.784 178.464 266.169 178.153 266.717C177.857 267.25 177.709 268.006 177.709 268.983V275.225C177.709 275.373 177.665 275.492 177.576 275.58C177.487 275.669 177.368 275.714 177.22 275.714H176.843C176.695 275.714 176.576 275.669 176.487 275.58C176.398 275.492 176.354 275.373 176.354 275.225V268.983C176.354 268.006 176.206 267.25 175.91 266.717C175.613 266.169 175.236 265.784 174.777 265.562C174.318 265.34 173.836 265.229 173.333 265.229C172.889 265.229 172.437 265.34 171.978 265.562C171.519 265.784 171.134 266.169 170.823 266.717C170.527 267.25 170.379 267.998 170.379 268.961V275.225C170.379 275.373 170.334 275.492 170.245 275.58C170.156 275.669 170.038 275.714 169.89 275.714H169.512ZM191.124 275.936C190.413 275.936 189.754 275.788 189.147 275.492C188.555 275.195 188.074 274.803 187.703 274.314C187.333 273.811 187.148 273.248 187.148 272.626C187.148 271.619 187.555 270.812 188.37 270.205C189.184 269.598 190.243 269.205 191.546 269.028L195.056 268.539V267.761C195.056 266.977 194.812 266.362 194.323 265.918C193.849 265.459 193.086 265.229 192.035 265.229C191.265 265.229 190.643 265.385 190.169 265.696C189.695 265.992 189.369 266.384 189.192 266.873C189.118 267.095 188.977 267.206 188.77 267.206H188.414C188.236 267.206 188.111 267.162 188.037 267.073C187.962 266.969 187.925 266.851 187.925 266.717C187.925 266.51 188 266.251 188.148 265.94C188.31 265.629 188.555 265.325 188.881 265.029C189.206 264.718 189.628 264.459 190.147 264.252C190.665 264.044 191.294 263.941 192.035 263.941C192.909 263.941 193.627 264.059 194.19 264.296C194.767 264.533 195.211 264.844 195.522 265.229C195.848 265.599 196.078 266.014 196.211 266.473C196.344 266.932 196.411 267.384 196.411 267.828V275.225C196.411 275.373 196.366 275.492 196.278 275.58C196.189 275.669 196.07 275.714 195.922 275.714H195.545C195.397 275.714 195.278 275.669 195.189 275.58C195.1 275.492 195.056 275.373 195.056 275.225V274.181C194.878 274.448 194.626 274.714 194.301 274.981C193.975 275.247 193.553 275.477 193.035 275.669C192.531 275.847 191.894 275.936 191.124 275.936ZM191.346 274.648C192.028 274.648 192.649 274.499 193.212 274.203C193.775 273.907 194.219 273.455 194.545 272.848C194.886 272.226 195.056 271.449 195.056 270.516V269.761L192.19 270.16C190.976 270.323 190.058 270.605 189.436 271.005C188.814 271.404 188.503 271.908 188.503 272.515C188.503 273.004 188.644 273.404 188.925 273.715C189.206 274.026 189.562 274.262 189.991 274.425C190.436 274.573 190.887 274.648 191.346 274.648ZM199.901 275.714C199.753 275.714 199.635 275.669 199.546 275.58C199.457 275.492 199.413 275.373 199.413 275.225V264.674C199.413 264.526 199.457 264.407 199.546 264.318C199.635 264.215 199.753 264.163 199.901 264.163H200.257C200.405 264.163 200.523 264.215 200.612 264.318C200.716 264.407 200.768 264.526 200.768 264.674V265.696C201.034 265.177 201.419 264.792 201.923 264.54C202.426 264.289 203.048 264.163 203.789 264.163H204.611C204.759 264.163 204.877 264.207 204.966 264.296C205.055 264.385 205.099 264.503 205.099 264.652V264.963C205.099 265.111 205.055 265.229 204.966 265.318C204.877 265.407 204.759 265.451 204.611 265.451H203.655C202.767 265.451 202.063 265.71 201.545 266.229C201.027 266.747 200.768 267.45 200.768 268.339V275.225C200.768 275.373 200.716 275.492 200.612 275.58C200.523 275.669 200.405 275.714 200.257 275.714H199.901ZM208.579 279.934C208.461 279.934 208.357 279.89 208.268 279.801C208.179 279.712 208.135 279.608 208.135 279.49C208.135 279.431 208.142 279.364 208.157 279.29C208.187 279.231 208.224 279.149 208.268 279.046L209.979 275.047L205.736 265.051C205.647 264.829 205.603 264.681 205.603 264.607C205.603 264.489 205.647 264.385 205.736 264.296C205.825 264.207 205.928 264.163 206.047 264.163H206.513C206.661 264.163 206.772 264.2 206.846 264.274C206.935 264.333 206.995 264.407 207.024 264.496L210.756 273.293L214.577 264.496C214.621 264.407 214.68 264.333 214.754 264.274C214.828 264.2 214.939 264.163 215.088 264.163H215.532C215.65 264.163 215.754 264.207 215.843 264.296C215.932 264.385 215.976 264.489 215.976 264.607C215.976 264.681 215.932 264.829 215.843 265.051L209.534 279.601C209.49 279.69 209.431 279.764 209.357 279.823C209.283 279.897 209.171 279.934 209.023 279.934H208.579ZM228.098 275.936C226.75 275.936 225.647 275.677 224.788 275.158C223.944 274.625 223.315 273.907 222.9 273.004C222.485 272.1 222.256 271.071 222.211 269.916C222.196 269.309 222.189 268.657 222.189 267.961C222.189 267.265 222.196 266.599 222.211 265.962C222.256 264.807 222.485 263.778 222.9 262.874C223.315 261.956 223.944 261.238 224.788 260.72C225.647 260.201 226.75 259.942 228.098 259.942C229.149 259.942 230.045 260.09 230.786 260.387C231.526 260.683 232.126 261.075 232.585 261.564C233.059 262.038 233.407 262.556 233.629 263.119C233.866 263.667 233.999 264.207 234.029 264.74C234.044 264.874 233.999 264.985 233.895 265.074C233.807 265.148 233.696 265.185 233.562 265.185H233.118C232.999 265.185 232.896 265.155 232.807 265.096C232.718 265.022 232.659 264.896 232.629 264.718C232.348 263.4 231.815 262.497 231.03 262.008C230.26 261.519 229.282 261.275 228.098 261.275C226.75 261.275 225.677 261.66 224.877 262.43C224.092 263.185 223.67 264.4 223.611 266.073C223.566 267.288 223.566 268.531 223.611 269.805C223.67 271.478 224.092 272.7 224.877 273.47C225.677 274.225 226.75 274.603 228.098 274.603C229.282 274.603 230.26 274.359 231.03 273.87C231.815 273.381 232.348 272.478 232.629 271.16C232.659 270.982 232.718 270.864 232.807 270.805C232.896 270.731 232.999 270.694 233.118 270.694H233.562C233.696 270.694 233.807 270.738 233.895 270.827C233.999 270.901 234.044 271.005 234.029 271.138C233.999 271.671 233.866 272.219 233.629 272.782C233.407 273.33 233.059 273.848 232.585 274.337C232.126 274.81 231.526 275.195 230.786 275.492C230.045 275.788 229.149 275.936 228.098 275.936ZM239.612 275.936C238.902 275.936 238.243 275.788 237.635 275.492C237.043 275.195 236.562 274.803 236.192 274.314C235.821 273.811 235.636 273.248 235.636 272.626C235.636 271.619 236.043 270.812 236.858 270.205C237.672 269.598 238.731 269.205 240.034 269.028L243.544 268.539V267.761C243.544 266.977 243.3 266.362 242.811 265.918C242.337 265.459 241.575 265.229 240.523 265.229C239.753 265.229 239.131 265.385 238.657 265.696C238.183 265.992 237.858 266.384 237.68 266.873C237.606 267.095 237.465 267.206 237.258 267.206H236.902C236.725 267.206 236.599 267.162 236.525 267.073C236.451 266.969 236.414 266.851 236.414 266.717C236.414 266.51 236.488 266.251 236.636 265.94C236.799 265.629 237.043 265.325 237.369 265.029C237.695 264.718 238.117 264.459 238.635 264.252C239.153 264.044 239.783 263.941 240.523 263.941C241.397 263.941 242.115 264.059 242.678 264.296C243.255 264.533 243.7 264.844 244.011 265.229C244.336 265.599 244.566 266.014 244.699 266.473C244.833 266.932 244.899 267.384 244.899 267.828V275.225C244.899 275.373 244.855 275.492 244.766 275.58C244.677 275.669 244.559 275.714 244.41 275.714H244.033C243.885 275.714 243.766 275.669 243.677 275.58C243.589 275.492 243.544 275.373 243.544 275.225V274.181C243.366 274.448 243.115 274.714 242.789 274.981C242.463 275.247 242.041 275.477 241.523 275.669C241.019 275.847 240.382 275.936 239.612 275.936ZM239.835 274.648C240.516 274.648 241.138 274.499 241.7 274.203C242.263 273.907 242.707 273.455 243.033 272.848C243.374 272.226 243.544 271.449 243.544 270.516V269.761L240.679 270.16C239.464 270.323 238.546 270.605 237.924 271.005C237.302 271.404 236.991 271.908 236.991 272.515C236.991 273.004 237.132 273.404 237.413 273.715C237.695 274.026 238.05 274.262 238.48 274.425C238.924 274.573 239.375 274.648 239.835 274.648ZM248.39 275.714C248.241 275.714 248.123 275.669 248.034 275.58C247.945 275.492 247.901 275.373 247.901 275.225V264.674C247.901 264.526 247.945 264.407 248.034 264.318C248.123 264.215 248.241 264.163 248.39 264.163H248.745C248.893 264.163 249.012 264.215 249.1 264.318C249.204 264.407 249.256 264.526 249.256 264.674V265.696C249.522 265.177 249.907 264.792 250.411 264.54C250.914 264.289 251.536 264.163 252.277 264.163H253.099C253.247 264.163 253.365 264.207 253.454 264.296C253.543 264.385 253.587 264.503 253.587 264.652V264.963C253.587 265.111 253.543 265.229 253.454 265.318C253.365 265.407 253.247 265.451 253.099 265.451H252.144C251.255 265.451 250.552 265.71 250.033 266.229C249.515 266.747 249.256 267.45 249.256 268.339V275.225C249.256 275.373 249.204 275.492 249.1 275.58C249.012 275.669 248.893 275.714 248.745 275.714H248.39ZM259.139 275.936C257.703 275.936 256.563 275.469 255.719 274.536C254.874 273.589 254.393 272.352 254.275 270.827C254.26 270.605 254.252 270.309 254.252 269.938C254.252 269.568 254.26 269.272 254.275 269.05C254.349 268.043 254.586 267.154 254.986 266.384C255.385 265.614 255.933 265.014 256.629 264.585C257.34 264.155 258.177 263.941 259.139 263.941C260.176 263.941 261.057 264.17 261.783 264.629C262.508 265.088 263.064 265.747 263.449 266.606C263.849 267.465 264.049 268.487 264.049 269.672V270.005C264.049 270.153 263.997 270.271 263.893 270.36C263.804 270.449 263.686 270.494 263.538 270.494H255.63C255.63 270.494 255.63 270.523 255.63 270.582C255.63 270.642 255.63 270.686 255.63 270.716C255.659 271.382 255.815 272.019 256.096 272.626C256.378 273.218 256.777 273.707 257.296 274.092C257.814 274.462 258.429 274.648 259.139 274.648C259.776 274.648 260.302 274.551 260.717 274.359C261.146 274.166 261.487 273.959 261.738 273.737C261.99 273.5 262.153 273.322 262.227 273.204C262.36 273.011 262.464 272.9 262.538 272.87C262.612 272.826 262.731 272.804 262.893 272.804H263.249C263.382 272.804 263.493 272.848 263.582 272.937C263.686 273.011 263.73 273.115 263.715 273.248C263.701 273.455 263.582 273.715 263.36 274.026C263.153 274.322 262.849 274.618 262.449 274.914C262.064 275.21 261.59 275.455 261.028 275.647C260.465 275.84 259.835 275.936 259.139 275.936ZM255.63 269.25H262.694V269.161C262.694 268.42 262.553 267.754 262.271 267.162C261.99 266.569 261.583 266.103 261.05 265.762C260.517 265.407 259.88 265.229 259.139 265.229C258.399 265.229 257.762 265.407 257.229 265.762C256.711 266.103 256.311 266.569 256.03 267.162C255.763 267.754 255.63 268.42 255.63 269.161V269.25ZM144.717 308.714C144.569 308.714 144.45 308.669 144.361 308.58C144.273 308.492 144.228 308.373 144.228 308.225V293.675C144.228 293.512 144.273 293.387 144.361 293.298C144.45 293.209 144.569 293.164 144.717 293.164H150.115C151.151 293.164 152.047 293.342 152.802 293.698C153.573 294.038 154.165 294.549 154.58 295.23C155.009 295.912 155.224 296.756 155.224 297.763C155.224 298.77 155.009 299.614 154.58 300.295C154.165 300.976 153.573 301.494 152.802 301.85C152.047 302.19 151.151 302.361 150.115 302.361H145.628V308.225C145.628 308.373 145.583 308.492 145.494 308.58C145.405 308.669 145.28 308.714 145.117 308.714H144.717ZM145.628 301.028H150.004C151.292 301.028 152.247 300.747 152.869 300.184C153.506 299.621 153.824 298.814 153.824 297.763C153.824 296.711 153.506 295.904 152.869 295.341C152.247 294.779 151.292 294.497 150.004 294.497H145.628V301.028ZM157.866 308.714C157.717 308.714 157.599 308.669 157.51 308.58C157.421 308.492 157.377 308.373 157.377 308.225V297.674C157.377 297.526 157.421 297.407 157.51 297.318C157.599 297.215 157.717 297.163 157.866 297.163H158.221C158.369 297.163 158.488 297.215 158.576 297.318C158.68 297.407 158.732 297.526 158.732 297.674V298.696C158.998 298.177 159.383 297.792 159.887 297.54C160.39 297.289 161.012 297.163 161.753 297.163H162.575C162.723 297.163 162.841 297.207 162.93 297.296C163.019 297.385 163.063 297.503 163.063 297.652V297.963C163.063 298.111 163.019 298.229 162.93 298.318C162.841 298.407 162.723 298.451 162.575 298.451H161.62C160.731 298.451 160.028 298.71 159.509 299.229C158.991 299.747 158.732 300.45 158.732 301.339V308.225C158.732 308.373 158.68 308.492 158.576 308.58C158.488 308.669 158.369 308.714 158.221 308.714H157.866ZM168.726 308.936C167.66 308.936 166.764 308.714 166.039 308.269C165.328 307.825 164.78 307.218 164.395 306.448C164.025 305.678 163.825 304.819 163.795 303.871C163.78 303.649 163.773 303.338 163.773 302.938C163.773 302.538 163.78 302.227 163.795 302.005C163.825 301.043 164.025 300.184 164.395 299.429C164.78 298.659 165.328 298.051 166.039 297.607C166.764 297.163 167.66 296.941 168.726 296.941C169.793 296.941 170.681 297.163 171.392 297.607C172.118 298.051 172.666 298.659 173.036 299.429C173.421 300.184 173.628 301.043 173.658 302.005C173.673 302.227 173.68 302.538 173.68 302.938C173.68 303.338 173.673 303.649 173.658 303.871C173.628 304.819 173.421 305.678 173.036 306.448C172.666 307.218 172.118 307.825 171.392 308.269C170.681 308.714 169.793 308.936 168.726 308.936ZM168.726 307.648C169.763 307.648 170.607 307.314 171.259 306.648C171.91 305.982 172.258 305.019 172.303 303.76C172.318 303.538 172.325 303.264 172.325 302.938C172.325 302.613 172.318 302.339 172.303 302.116C172.258 300.843 171.91 299.88 171.259 299.229C170.607 298.562 169.763 298.229 168.726 298.229C167.69 298.229 166.846 298.562 166.194 299.229C165.543 299.88 165.195 300.843 165.15 302.116C165.135 302.339 165.128 302.613 165.128 302.938C165.128 303.264 165.135 303.538 165.15 303.76C165.195 305.019 165.543 305.982 166.194 306.648C166.846 307.314 167.69 307.648 168.726 307.648ZM179.79 308.714C179.553 308.714 179.367 308.662 179.234 308.558C179.116 308.455 179.019 308.321 178.945 308.158L174.858 297.851C174.829 297.763 174.814 297.681 174.814 297.607C174.814 297.489 174.858 297.385 174.947 297.296C175.036 297.207 175.14 297.163 175.258 297.163H175.724C175.873 297.163 175.984 297.207 176.058 297.296C176.147 297.37 176.198 297.437 176.213 297.496L179.967 307.092L183.721 297.496C183.751 297.437 183.803 297.37 183.877 297.296C183.951 297.207 184.062 297.163 184.21 297.163H184.676C184.795 297.163 184.899 297.207 184.987 297.296C185.076 297.385 185.121 297.489 185.121 297.607C185.121 297.681 185.106 297.763 185.076 297.851L180.989 308.158C180.93 308.321 180.834 308.455 180.7 308.558C180.567 308.662 180.382 308.714 180.145 308.714H179.79ZM187.7 308.714C187.552 308.714 187.434 308.669 187.345 308.58C187.256 308.492 187.212 308.373 187.212 308.225V297.652C187.212 297.503 187.256 297.385 187.345 297.296C187.434 297.207 187.552 297.163 187.7 297.163H188.078C188.226 297.163 188.345 297.207 188.433 297.296C188.522 297.385 188.567 297.503 188.567 297.652V308.225C188.567 308.373 188.522 308.492 188.433 308.58C188.345 308.669 188.226 308.714 188.078 308.714H187.7ZM187.456 294.786C187.308 294.786 187.189 294.742 187.101 294.653C187.012 294.564 186.967 294.445 186.967 294.297V293.453C186.967 293.305 187.012 293.187 187.101 293.098C187.189 292.994 187.308 292.942 187.456 292.942H188.3C188.448 292.942 188.567 292.994 188.656 293.098C188.759 293.187 188.811 293.305 188.811 293.453V294.297C188.811 294.445 188.759 294.564 188.656 294.653C188.567 294.742 188.448 294.786 188.3 294.786H187.456ZM195.823 308.936C194.964 308.936 194.231 308.78 193.624 308.469C193.031 308.158 192.55 307.744 192.18 307.225C191.81 306.707 191.536 306.13 191.358 305.493C191.195 304.856 191.099 304.212 191.069 303.56C191.054 303.338 191.047 303.131 191.047 302.938C191.047 302.746 191.054 302.538 191.069 302.316C191.099 301.665 191.195 301.021 191.358 300.384C191.536 299.747 191.81 299.169 192.18 298.651C192.55 298.133 193.031 297.718 193.624 297.407C194.231 297.096 194.964 296.941 195.823 296.941C196.741 296.941 197.496 297.111 198.089 297.452C198.696 297.792 199.184 298.207 199.555 298.696V293.431C199.555 293.283 199.599 293.164 199.688 293.076C199.777 292.987 199.895 292.942 200.043 292.942H200.421C200.569 292.942 200.687 292.987 200.776 293.076C200.865 293.164 200.91 293.283 200.91 293.431V308.225C200.91 308.373 200.865 308.492 200.776 308.58C200.687 308.669 200.569 308.714 200.421 308.714H200.043C199.895 308.714 199.777 308.669 199.688 308.58C199.599 308.492 199.555 308.373 199.555 308.225V307.181C199.184 307.685 198.696 308.107 198.089 308.447C197.496 308.773 196.741 308.936 195.823 308.936ZM195.956 307.648C196.8 307.648 197.481 307.448 198 307.048C198.518 306.648 198.903 306.152 199.155 305.559C199.407 304.952 199.54 304.345 199.555 303.738C199.569 303.516 199.577 303.227 199.577 302.872C199.577 302.516 199.569 302.227 199.555 302.005C199.54 301.413 199.399 300.828 199.133 300.25C198.881 299.673 198.496 299.192 197.977 298.807C197.459 298.422 196.785 298.229 195.956 298.229C195.097 298.229 194.409 298.422 193.89 298.807C193.387 299.192 193.024 299.695 192.802 300.317C192.58 300.939 192.454 301.606 192.424 302.316C192.409 302.731 192.409 303.146 192.424 303.56C192.454 304.271 192.58 304.937 192.802 305.559C193.024 306.181 193.387 306.685 193.89 307.07C194.409 307.455 195.097 307.648 195.956 307.648ZM208.308 308.936C206.872 308.936 205.732 308.469 204.888 307.536C204.043 306.589 203.562 305.352 203.444 303.827C203.429 303.605 203.421 303.309 203.421 302.938C203.421 302.568 203.429 302.272 203.444 302.05C203.518 301.043 203.755 300.154 204.154 299.384C204.554 298.614 205.102 298.014 205.798 297.585C206.509 297.155 207.346 296.941 208.308 296.941C209.345 296.941 210.226 297.17 210.952 297.629C211.677 298.088 212.233 298.747 212.618 299.606C213.018 300.465 213.217 301.487 213.217 302.672V303.005C213.217 303.153 213.166 303.271 213.062 303.36C212.973 303.449 212.855 303.494 212.707 303.494H204.799C204.799 303.494 204.799 303.523 204.799 303.582C204.799 303.642 204.799 303.686 204.799 303.716C204.828 304.382 204.984 305.019 205.265 305.626C205.547 306.218 205.946 306.707 206.465 307.092C206.983 307.462 207.598 307.648 208.308 307.648C208.945 307.648 209.471 307.551 209.886 307.359C210.315 307.166 210.656 306.959 210.907 306.737C211.159 306.5 211.322 306.322 211.396 306.204C211.529 306.011 211.633 305.9 211.707 305.87C211.781 305.826 211.9 305.804 212.062 305.804H212.418C212.551 305.804 212.662 305.848 212.751 305.937C212.855 306.011 212.899 306.115 212.884 306.248C212.869 306.455 212.751 306.715 212.529 307.026C212.322 307.322 212.018 307.618 211.618 307.914C211.233 308.21 210.759 308.455 210.196 308.647C209.634 308.84 209.004 308.936 208.308 308.936ZM204.799 302.25H211.862V302.161C211.862 301.42 211.722 300.754 211.44 300.162C211.159 299.569 210.752 299.103 210.219 298.762C209.686 298.407 209.049 298.229 208.308 298.229C207.568 298.229 206.931 298.407 206.398 298.762C205.88 299.103 205.48 299.569 205.199 300.162C204.932 300.754 204.799 301.42 204.799 302.161V302.25ZM216.125 308.714C215.977 308.714 215.859 308.669 215.77 308.58C215.681 308.492 215.636 308.373 215.636 308.225V297.674C215.636 297.526 215.681 297.407 215.77 297.318C215.859 297.215 215.977 297.163 216.125 297.163H216.481C216.629 297.163 216.747 297.215 216.836 297.318C216.94 297.407 216.991 297.526 216.991 297.674V298.696C217.258 298.177 217.643 297.792 218.147 297.54C218.65 297.289 219.272 297.163 220.012 297.163H220.834C220.982 297.163 221.101 297.207 221.19 297.296C221.279 297.385 221.323 297.503 221.323 297.652V297.963C221.323 298.111 221.279 298.229 221.19 298.318C221.101 298.407 220.982 298.451 220.834 298.451H219.879C218.991 298.451 218.287 298.71 217.769 299.229C217.251 299.747 216.991 300.45 216.991 301.339V308.225C216.991 308.373 216.94 308.492 216.836 308.58C216.747 308.669 216.629 308.714 216.481 308.714H216.125ZM226.513 308.936C225.743 308.936 225.077 308.832 224.514 308.625C223.966 308.418 223.515 308.173 223.159 307.892C222.804 307.596 222.537 307.307 222.359 307.026C222.197 306.744 222.108 306.529 222.093 306.381C222.078 306.218 222.13 306.1 222.248 306.026C222.367 305.937 222.478 305.893 222.582 305.893H222.915C223.004 305.893 223.078 305.907 223.137 305.937C223.211 305.967 223.3 306.048 223.403 306.181C223.596 306.433 223.818 306.678 224.07 306.914C224.322 307.137 224.64 307.314 225.025 307.448C225.425 307.581 225.921 307.648 226.513 307.648C227.402 307.648 228.135 307.477 228.712 307.137C229.29 306.796 229.579 306.293 229.579 305.626C229.579 305.211 229.46 304.878 229.223 304.627C229.001 304.375 228.616 304.153 228.068 303.96C227.52 303.768 226.78 303.568 225.847 303.36C224.914 303.138 224.196 302.872 223.692 302.561C223.204 302.25 222.87 301.894 222.693 301.494C222.515 301.08 222.426 300.636 222.426 300.162C222.426 299.643 222.574 299.14 222.87 298.651C223.167 298.148 223.603 297.74 224.181 297.429C224.773 297.104 225.514 296.941 226.402 296.941C227.128 296.941 227.742 297.037 228.246 297.229C228.764 297.422 229.186 297.659 229.512 297.94C229.838 298.207 230.075 298.473 230.223 298.74C230.386 299.007 230.475 299.221 230.49 299.384C230.504 299.532 230.46 299.651 230.356 299.74C230.253 299.828 230.134 299.873 230.001 299.873H229.668C229.549 299.873 229.453 299.851 229.379 299.806C229.305 299.747 229.238 299.673 229.179 299.584C229.031 299.347 228.853 299.125 228.646 298.918C228.438 298.71 228.157 298.547 227.802 298.429C227.461 298.296 226.995 298.229 226.402 298.229C225.514 298.229 224.855 298.414 224.425 298.784C223.996 299.14 223.781 299.599 223.781 300.162C223.781 300.487 223.87 300.776 224.048 301.028C224.225 301.265 224.559 301.487 225.047 301.694C225.536 301.887 226.247 302.094 227.18 302.316C228.128 302.524 228.875 302.783 229.423 303.094C229.971 303.39 230.356 303.745 230.578 304.16C230.815 304.575 230.934 305.063 230.934 305.626C230.934 306.218 230.763 306.766 230.423 307.27C230.097 307.773 229.601 308.181 228.935 308.492C228.283 308.788 227.476 308.936 226.513 308.936Z" fill="black"/>
<path d="M528.385 28.4363C529.511 28.2047 530.613 28.9301 530.844 30.0566C531.076 31.1832 530.35 32.2843 529.224 32.5159L528.385 28.4363ZM404.186 191.264C403.22 191.888 401.931 191.609 401.308 190.643L391.151 174.891C390.527 173.925 390.806 172.636 391.772 172.012C392.739 171.389 394.028 171.667 394.651 172.634L403.679 186.636L417.681 177.607C418.648 176.984 419.936 177.262 420.56 178.229C421.183 179.195 420.905 180.484 419.938 181.107L404.186 191.264ZM529.224 32.5159C466.156 45.486 425.312 96.3212 405.093 189.954L401.022 189.075C421.406 94.6808 462.993 41.8845 528.385 28.4363L529.224 32.5159Z" fill="#7E41FF"/>
<g style="mix-blend-mode:multiply">
<circle cx="387.299" cy="202.16" r="66.4216" fill="#F7F4FF"/>
<circle cx="387.299" cy="202.16" r="66.4216" stroke="black" stroke-width="2.77666"/>
</g>
<path d="M474.198 159.877C472.85 159.877 471.747 159.617 470.888 159.099C470.044 158.566 469.415 157.848 469 156.944C468.585 156.041 468.356 155.012 468.311 153.857C468.296 153.25 468.289 152.598 468.289 151.902C468.289 151.206 468.296 150.54 468.311 149.903C468.356 148.748 468.585 147.719 469 146.815C469.415 145.897 470.044 145.179 470.888 144.66C471.747 144.142 472.85 143.883 474.198 143.883C475.249 143.883 476.145 144.031 476.886 144.327C477.626 144.623 478.226 145.016 478.685 145.505C479.159 145.978 479.507 146.497 479.729 147.06C479.966 147.607 480.099 148.148 480.129 148.681C480.144 148.814 480.099 148.925 479.995 149.014C479.907 149.088 479.796 149.125 479.662 149.125H479.218C479.1 149.125 478.996 149.096 478.907 149.036C478.818 148.962 478.759 148.837 478.729 148.659C478.448 147.341 477.915 146.438 477.13 145.949C476.36 145.46 475.383 145.216 474.198 145.216C472.85 145.216 471.777 145.601 470.977 146.371C470.192 147.126 469.77 148.34 469.711 150.014C469.666 151.228 469.666 152.472 469.711 153.746C469.77 155.419 470.192 156.641 470.977 157.411C471.777 158.166 472.85 158.544 474.198 158.544C475.383 158.544 476.36 158.299 477.13 157.811C477.915 157.322 478.448 156.419 478.729 155.101C478.759 154.923 478.818 154.805 478.907 154.745C478.996 154.671 479.1 154.634 479.218 154.634H479.662C479.796 154.634 479.907 154.679 479.995 154.768C480.099 154.842 480.144 154.945 480.129 155.078C480.099 155.612 479.966 156.16 479.729 156.722C479.507 157.27 479.159 157.789 478.685 158.277C478.226 158.751 477.626 159.136 476.886 159.432C476.145 159.728 475.249 159.877 474.198 159.877ZM483.113 159.654C482.965 159.654 482.847 159.61 482.758 159.521C482.669 159.432 482.625 159.314 482.625 159.166V144.372C482.625 144.224 482.669 144.105 482.758 144.016C482.847 143.927 482.965 143.883 483.113 143.883H483.491C483.639 143.883 483.758 143.927 483.847 144.016C483.935 144.105 483.98 144.224 483.98 144.372V149.636C484.38 149.118 484.861 148.696 485.424 148.37C486.001 148.044 486.764 147.881 487.712 147.881C488.719 147.881 489.555 148.104 490.222 148.548C490.903 148.977 491.406 149.57 491.732 150.325C492.073 151.065 492.243 151.909 492.243 152.857V159.166C492.243 159.314 492.199 159.432 492.11 159.521C492.021 159.61 491.903 159.654 491.754 159.654H491.377C491.229 159.654 491.11 159.61 491.021 159.521C490.933 159.432 490.888 159.314 490.888 159.166V152.968C490.888 151.784 490.599 150.858 490.022 150.192C489.444 149.51 488.6 149.17 487.489 149.17C486.438 149.17 485.587 149.51 484.935 150.192C484.298 150.858 483.98 151.784 483.98 152.968V159.166C483.98 159.314 483.935 159.432 483.847 159.521C483.758 159.61 483.639 159.654 483.491 159.654H483.113ZM495.704 159.654C495.556 159.654 495.438 159.61 495.349 159.521C495.26 159.432 495.216 159.314 495.216 159.166V148.592C495.216 148.444 495.26 148.326 495.349 148.237C495.438 148.148 495.556 148.104 495.704 148.104H496.082C496.23 148.104 496.349 148.148 496.437 148.237C496.526 148.326 496.571 148.444 496.571 148.592V159.166C496.571 159.314 496.526 159.432 496.437 159.521C496.349 159.61 496.23 159.654 496.082 159.654H495.704ZM495.46 145.727C495.312 145.727 495.193 145.682 495.105 145.593C495.016 145.505 494.971 145.386 494.971 145.238V144.394C494.971 144.246 495.016 144.127 495.105 144.039C495.193 143.935 495.312 143.883 495.46 143.883H496.304C496.452 143.883 496.571 143.935 496.66 144.039C496.763 144.127 496.815 144.246 496.815 144.394V145.238C496.815 145.386 496.763 145.505 496.66 145.593C496.571 145.682 496.452 145.727 496.304 145.727H495.46ZM503.938 159.877C502.501 159.877 501.361 159.41 500.517 158.477C499.673 157.529 499.192 156.293 499.073 154.768C499.058 154.545 499.051 154.249 499.051 153.879C499.051 153.509 499.058 153.213 499.073 152.99C499.147 151.983 499.384 151.095 499.784 150.325C500.184 149.555 500.732 148.955 501.428 148.526C502.139 148.096 502.975 147.881 503.938 147.881C504.974 147.881 505.856 148.111 506.581 148.57C507.307 149.029 507.862 149.688 508.247 150.547C508.647 151.406 508.847 152.428 508.847 153.612V153.946C508.847 154.094 508.795 154.212 508.692 154.301C508.603 154.39 508.484 154.434 508.336 154.434H500.428C500.428 154.434 500.428 154.464 500.428 154.523C500.428 154.582 500.428 154.627 500.428 154.656C500.458 155.323 500.613 155.96 500.895 156.567C501.176 157.159 501.576 157.648 502.094 158.033C502.612 158.403 503.227 158.588 503.938 158.588C504.575 158.588 505.1 158.492 505.515 158.299C505.944 158.107 506.285 157.9 506.537 157.677C506.789 157.44 506.951 157.263 507.026 157.144C507.159 156.952 507.262 156.841 507.336 156.811C507.411 156.767 507.529 156.744 507.692 156.744H508.047C508.181 156.744 508.292 156.789 508.381 156.878C508.484 156.952 508.529 157.055 508.514 157.189C508.499 157.396 508.381 157.655 508.158 157.966C507.951 158.262 507.647 158.559 507.248 158.855C506.863 159.151 506.389 159.395 505.826 159.588C505.263 159.78 504.634 159.877 503.938 159.877ZM500.428 153.19H507.492V153.102C507.492 152.361 507.351 151.695 507.07 151.102C506.789 150.51 506.381 150.043 505.848 149.703C505.315 149.347 504.678 149.17 503.938 149.17C503.197 149.17 502.561 149.347 502.028 149.703C501.509 150.043 501.109 150.51 500.828 151.102C500.561 151.695 500.428 152.361 500.428 153.102V153.19ZM512.735 159.654C512.587 159.654 512.468 159.61 512.379 159.521C512.29 159.432 512.246 159.314 512.246 159.166V149.392H510.269C510.121 149.392 510.002 149.347 509.914 149.259C509.825 149.17 509.78 149.051 509.78 148.903V148.592C509.78 148.444 509.825 148.326 509.914 148.237C510.002 148.148 510.121 148.104 510.269 148.104H512.246V146.837C512.246 146.171 512.335 145.564 512.513 145.016C512.705 144.468 513.038 144.031 513.512 143.705C514.001 143.38 514.697 143.217 515.6 143.217H516.755C516.903 143.217 517.022 143.261 517.111 143.35C517.2 143.439 517.244 143.557 517.244 143.705V144.016C517.244 144.164 517.2 144.283 517.111 144.372C517.022 144.461 516.903 144.505 516.755 144.505H515.6C514.815 144.505 514.282 144.72 514.001 145.149C513.734 145.564 513.601 146.164 513.601 146.948V148.104H516.533C516.681 148.104 516.8 148.148 516.889 148.237C516.977 148.326 517.022 148.444 517.022 148.592V148.903C517.022 149.051 516.977 149.17 516.889 149.259C516.8 149.347 516.681 149.392 516.533 149.392H513.601V159.166C513.601 159.314 513.557 159.432 513.468 159.521C513.379 159.61 513.26 159.654 513.112 159.654H512.735ZM524.146 159.654C523.998 159.654 523.872 159.61 523.769 159.521C523.68 159.432 523.635 159.314 523.635 159.166V144.616C523.635 144.453 523.68 144.327 523.769 144.238C523.872 144.15 523.998 144.105 524.146 144.105H524.702C524.85 144.105 524.961 144.142 525.035 144.216C525.109 144.29 525.153 144.349 525.168 144.394L530.21 154.212L535.275 144.394C535.305 144.349 535.349 144.29 535.408 144.216C535.482 144.142 535.593 144.105 535.742 144.105H536.275C536.438 144.105 536.563 144.15 536.652 144.238C536.741 144.327 536.786 144.453 536.786 144.616V159.166C536.786 159.314 536.741 159.432 536.652 159.521C536.563 159.61 536.438 159.654 536.275 159.654H535.875C535.727 159.654 535.608 159.61 535.519 159.521C535.431 159.432 535.386 159.314 535.386 159.166V147.126L531.143 155.478C531.084 155.626 530.995 155.737 530.877 155.812C530.773 155.886 530.632 155.923 530.455 155.923H529.966C529.788 155.923 529.648 155.886 529.544 155.812C529.44 155.737 529.351 155.626 529.277 155.478L525.035 147.126V159.166C525.035 159.314 524.99 159.432 524.901 159.521C524.813 159.61 524.694 159.654 524.546 159.654H524.146ZM544.455 159.877C543.019 159.877 541.878 159.41 541.034 158.477C540.19 157.529 539.709 156.293 539.59 154.768C539.576 154.545 539.568 154.249 539.568 153.879C539.568 153.509 539.576 153.213 539.59 152.99C539.665 151.983 539.901 151.095 540.301 150.325C540.701 149.555 541.249 148.955 541.945 148.526C542.656 148.096 543.493 147.881 544.455 147.881C545.492 147.881 546.373 148.111 547.099 148.57C547.824 149.029 548.38 149.688 548.765 150.547C549.164 151.406 549.364 152.428 549.364 153.612V153.946C549.364 154.094 549.312 154.212 549.209 154.301C549.12 154.39 549.001 154.434 548.853 154.434H540.945C540.945 154.434 540.945 154.464 540.945 154.523C540.945 154.582 540.945 154.627 540.945 154.656C540.975 155.323 541.131 155.96 541.412 156.567C541.693 157.159 542.093 157.648 542.611 158.033C543.13 158.403 543.744 158.588 544.455 158.588C545.092 158.588 545.618 158.492 546.032 158.299C546.462 158.107 546.802 157.9 547.054 157.677C547.306 157.44 547.469 157.263 547.543 157.144C547.676 156.952 547.78 156.841 547.854 156.811C547.928 156.767 548.046 156.744 548.209 156.744H548.565C548.698 156.744 548.809 156.789 548.898 156.878C549.001 156.952 549.046 157.055 549.031 157.189C549.016 157.396 548.898 157.655 548.676 157.966C548.468 158.262 548.165 158.559 547.765 158.855C547.38 159.151 546.906 159.395 546.343 159.588C545.781 159.78 545.151 159.877 544.455 159.877ZM540.945 153.19H548.009V153.102C548.009 152.361 547.869 151.695 547.587 151.102C547.306 150.51 546.899 150.043 546.366 149.703C545.832 149.347 545.196 149.17 544.455 149.17C543.715 149.17 543.078 149.347 542.545 149.703C542.027 150.043 541.627 150.51 541.345 151.102C541.079 151.695 540.945 152.361 540.945 153.102V153.19ZM555.959 159.877C555.1 159.877 554.367 159.721 553.76 159.41C553.168 159.099 552.687 158.684 552.316 158.166C551.946 157.648 551.672 157.07 551.495 156.433C551.332 155.797 551.235 155.153 551.206 154.501C551.191 154.279 551.184 154.071 551.184 153.879C551.184 153.686 551.191 153.479 551.206 153.257C551.235 152.605 551.332 151.961 551.495 151.324C551.672 150.688 551.946 150.11 552.316 149.592C552.687 149.074 553.168 148.659 553.76 148.348C554.367 148.037 555.1 147.881 555.959 147.881C556.878 147.881 557.633 148.052 558.225 148.392C558.832 148.733 559.321 149.148 559.691 149.636V144.372C559.691 144.224 559.736 144.105 559.824 144.016C559.913 143.927 560.032 143.883 560.18 143.883H560.558C560.706 143.883 560.824 143.927 560.913 144.016C561.002 144.105 561.046 144.224 561.046 144.372V159.166C561.046 159.314 561.002 159.432 560.913 159.521C560.824 159.61 560.706 159.654 560.558 159.654H560.18C560.032 159.654 559.913 159.61 559.824 159.521C559.736 159.432 559.691 159.314 559.691 159.166V158.122C559.321 158.625 558.832 159.047 558.225 159.388C557.633 159.714 556.878 159.877 555.959 159.877ZM556.093 158.588C556.937 158.588 557.618 158.388 558.136 157.988C558.655 157.589 559.04 157.092 559.291 156.5C559.543 155.893 559.676 155.286 559.691 154.679C559.706 154.457 559.713 154.168 559.713 153.812C559.713 153.457 559.706 153.168 559.691 152.946C559.676 152.354 559.536 151.769 559.269 151.191C559.017 150.614 558.632 150.132 558.114 149.747C557.596 149.362 556.922 149.17 556.093 149.17C555.234 149.17 554.545 149.362 554.027 149.747C553.523 150.132 553.161 150.636 552.938 151.258C552.716 151.88 552.59 152.546 552.561 153.257C552.546 153.672 552.546 154.086 552.561 154.501C552.59 155.212 552.716 155.878 552.938 156.5C553.161 157.122 553.523 157.626 554.027 158.011C554.545 158.396 555.234 158.588 556.093 158.588ZM564.647 159.654C564.498 159.654 564.38 159.61 564.291 159.521C564.202 159.432 564.158 159.314 564.158 159.166V148.592C564.158 148.444 564.202 148.326 564.291 148.237C564.38 148.148 564.498 148.104 564.647 148.104H565.024C565.172 148.104 565.291 148.148 565.38 148.237C565.468 148.326 565.513 148.444 565.513 148.592V159.166C565.513 159.314 565.468 159.432 565.38 159.521C565.291 159.61 565.172 159.654 565.024 159.654H564.647ZM564.402 145.727C564.254 145.727 564.136 145.682 564.047 145.593C563.958 145.505 563.913 145.386 563.913 145.238V144.394C563.913 144.246 563.958 144.127 564.047 144.039C564.136 143.935 564.254 143.883 564.402 143.883H565.246C565.394 143.883 565.513 143.935 565.602 144.039C565.705 144.127 565.757 144.246 565.757 144.394V145.238C565.757 145.386 565.705 145.505 565.602 145.593C565.513 145.682 565.394 145.727 565.246 145.727H564.402ZM572.969 159.877C571.932 159.877 571.051 159.677 570.325 159.277C569.6 158.862 569.044 158.27 568.659 157.5C568.289 156.73 568.089 155.819 568.06 154.768C568.045 154.545 568.037 154.249 568.037 153.879C568.037 153.509 568.045 153.213 568.06 152.99C568.089 151.924 568.289 151.013 568.659 150.258C569.044 149.488 569.6 148.903 570.325 148.503C571.051 148.089 571.932 147.881 572.969 147.881C573.754 147.881 574.428 147.992 574.99 148.215C575.568 148.422 576.042 148.703 576.412 149.059C576.782 149.399 577.063 149.777 577.256 150.192C577.449 150.606 577.552 151.013 577.567 151.413C577.582 151.561 577.537 151.68 577.434 151.769C577.33 151.858 577.212 151.902 577.078 151.902H576.767C576.619 151.902 576.508 151.872 576.434 151.813C576.375 151.739 576.308 151.613 576.234 151.436C575.923 150.591 575.494 150.006 574.946 149.681C574.413 149.34 573.754 149.17 572.969 149.17C571.962 149.17 571.125 149.481 570.459 150.103C569.807 150.71 569.459 151.709 569.415 153.102C569.385 153.62 569.385 154.138 569.415 154.656C569.459 156.048 569.807 157.055 570.459 157.677C571.125 158.285 571.962 158.588 572.969 158.588C573.754 158.588 574.413 158.425 574.946 158.099C575.494 157.759 575.923 157.167 576.234 156.322C576.308 156.145 576.375 156.026 576.434 155.967C576.508 155.893 576.619 155.856 576.767 155.856H577.078C577.212 155.856 577.33 155.9 577.434 155.989C577.537 156.078 577.582 156.197 577.567 156.345C577.552 156.67 577.486 156.996 577.367 157.322C577.249 157.648 577.063 157.966 576.812 158.277C576.575 158.588 576.279 158.862 575.923 159.099C575.568 159.336 575.138 159.521 574.635 159.654C574.146 159.803 573.591 159.877 572.969 159.877ZM583.101 159.877C582.39 159.877 581.731 159.728 581.124 159.432C580.532 159.136 580.05 158.744 579.68 158.255C579.31 157.751 579.125 157.189 579.125 156.567C579.125 155.56 579.532 154.753 580.347 154.146C581.161 153.538 582.22 153.146 583.523 152.968L587.033 152.48V151.702C587.033 150.917 586.788 150.303 586.3 149.858C585.826 149.399 585.063 149.17 584.012 149.17C583.242 149.17 582.62 149.325 582.146 149.636C581.672 149.932 581.346 150.325 581.168 150.814C581.094 151.036 580.954 151.147 580.746 151.147H580.391C580.213 151.147 580.087 151.102 580.013 151.013C579.939 150.91 579.902 150.791 579.902 150.658C579.902 150.451 579.976 150.192 580.124 149.881C580.287 149.57 580.532 149.266 580.857 148.97C581.183 148.659 581.605 148.4 582.124 148.192C582.642 147.985 583.271 147.881 584.012 147.881C584.885 147.881 585.604 148 586.166 148.237C586.744 148.474 587.188 148.785 587.499 149.17C587.825 149.54 588.055 149.955 588.188 150.414C588.321 150.873 588.388 151.324 588.388 151.769V159.166C588.388 159.314 588.343 159.432 588.254 159.521C588.166 159.61 588.047 159.654 587.899 159.654H587.521C587.373 159.654 587.255 159.61 587.166 159.521C587.077 159.432 587.033 159.314 587.033 159.166V158.122C586.855 158.388 586.603 158.655 586.278 158.921C585.952 159.188 585.53 159.417 585.011 159.61C584.508 159.788 583.871 159.877 583.101 159.877ZM583.323 158.588C584.004 158.588 584.626 158.44 585.189 158.144C585.752 157.848 586.196 157.396 586.522 156.789C586.862 156.167 587.033 155.389 587.033 154.457V153.701L584.167 154.101C582.953 154.264 582.035 154.545 581.413 154.945C580.791 155.345 580.48 155.849 580.48 156.456C580.48 156.944 580.621 157.344 580.902 157.655C581.183 157.966 581.539 158.203 581.968 158.366C582.412 158.514 582.864 158.588 583.323 158.588ZM591.9 159.654C591.752 159.654 591.634 159.61 591.545 159.521C591.456 159.432 591.412 159.314 591.412 159.166V144.372C591.412 144.224 591.456 144.105 591.545 144.016C591.634 143.927 591.752 143.883 591.9 143.883H592.278C592.426 143.883 592.545 143.927 592.633 144.016C592.722 144.105 592.767 144.224 592.767 144.372V159.166C592.767 159.314 592.722 159.432 592.633 159.521C592.545 159.61 592.426 159.654 592.278 159.654H591.9ZM474.198 192.877C472.969 192.877 471.925 192.662 471.066 192.232C470.207 191.788 469.548 191.114 469.089 190.211C468.63 189.293 468.378 188.138 468.334 186.746C468.319 186.079 468.311 185.457 468.311 184.88C468.311 184.302 468.319 183.68 468.334 183.014C468.378 181.637 468.644 180.496 469.133 179.593C469.622 178.675 470.296 177.994 471.155 177.549C472.028 177.105 473.043 176.883 474.198 176.883C475.353 176.883 476.36 177.105 477.219 177.549C478.093 177.994 478.774 178.675 479.262 179.593C479.766 180.496 480.032 181.637 480.062 183.014C480.092 183.68 480.107 184.302 480.107 184.88C480.107 185.457 480.092 186.079 480.062 186.746C480.032 188.138 479.781 189.293 479.307 190.211C478.848 191.114 478.189 191.788 477.33 192.232C476.471 192.662 475.427 192.877 474.198 192.877ZM474.198 191.544C475.471 191.544 476.515 191.159 477.33 190.389C478.159 189.619 478.603 188.367 478.663 186.635C478.692 185.968 478.707 185.383 478.707 184.88C478.707 184.376 478.692 183.791 478.663 183.125C478.633 181.97 478.418 181.029 478.018 180.304C477.633 179.578 477.108 179.053 476.441 178.727C475.79 178.386 475.042 178.216 474.198 178.216C473.369 178.216 472.621 178.386 471.954 178.727C471.303 179.053 470.777 179.578 470.377 180.304C469.992 181.029 469.777 181.97 469.733 183.125C469.718 183.791 469.711 184.376 469.711 184.88C469.711 185.383 469.718 185.968 469.733 186.635C469.792 188.367 470.236 189.619 471.066 190.389C471.895 191.159 472.939 191.544 474.198 191.544ZM484.418 192.654C484.27 192.654 484.152 192.61 484.063 192.521C483.974 192.432 483.93 192.314 483.93 192.166V182.392H481.953C481.805 182.392 481.686 182.347 481.597 182.259C481.508 182.17 481.464 182.051 481.464 181.903V181.592C481.464 181.444 481.508 181.326 481.597 181.237C481.686 181.148 481.805 181.104 481.953 181.104H483.93V179.837C483.93 179.171 484.018 178.564 484.196 178.016C484.389 177.468 484.722 177.031 485.196 176.705C485.684 176.38 486.38 176.217 487.284 176.217H488.439C488.587 176.217 488.705 176.261 488.794 176.35C488.883 176.439 488.928 176.557 488.928 176.705V177.016C488.928 177.164 488.883 177.283 488.794 177.372C488.705 177.461 488.587 177.505 488.439 177.505H487.284C486.499 177.505 485.966 177.72 485.684 178.149C485.418 178.564 485.285 179.164 485.285 179.948V181.104H490.194V179.837C490.194 179.171 490.283 178.564 490.46 178.016C490.653 177.468 490.986 177.031 491.46 176.705C491.949 176.38 492.645 176.217 493.548 176.217H496.014C496.162 176.217 496.28 176.261 496.369 176.35C496.458 176.439 496.502 176.557 496.502 176.705V177.016C496.502 177.164 496.458 177.283 496.369 177.372C496.28 177.461 496.162 177.505 496.014 177.505H493.548C492.763 177.505 492.23 177.72 491.949 178.149C491.682 178.564 491.549 179.164 491.549 179.948V181.104H496.014C496.162 181.104 496.28 181.148 496.369 181.237C496.458 181.326 496.502 181.444 496.502 181.592V192.166C496.502 192.314 496.458 192.432 496.369 192.521C496.28 192.61 496.162 192.654 496.014 192.654H495.636C495.488 192.654 495.369 192.61 495.281 192.521C495.192 192.432 495.147 192.314 495.147 192.166V182.392H491.549V192.166C491.549 192.314 491.504 192.432 491.415 192.521C491.327 192.61 491.208 192.654 491.06 192.654H490.682C490.534 192.654 490.416 192.61 490.327 192.521C490.238 192.432 490.194 192.314 490.194 192.166V182.392H485.285V192.166C485.285 192.314 485.24 192.432 485.151 192.521C485.063 192.61 484.944 192.654 484.796 192.654H484.418ZM503.974 192.877C502.937 192.877 502.056 192.677 501.33 192.277C500.605 191.862 500.049 191.27 499.664 190.5C499.294 189.73 499.094 188.819 499.064 187.768C499.05 187.545 499.042 187.249 499.042 186.879C499.042 186.509 499.05 186.213 499.064 185.99C499.094 184.924 499.294 184.013 499.664 183.258C500.049 182.488 500.605 181.903 501.33 181.503C502.056 181.089 502.937 180.881 503.974 180.881C504.758 180.881 505.432 180.992 505.995 181.215C506.573 181.422 507.046 181.703 507.417 182.059C507.787 182.399 508.068 182.777 508.261 183.192C508.453 183.606 508.557 184.013 508.572 184.413C508.587 184.561 508.542 184.68 508.438 184.769C508.335 184.858 508.216 184.902 508.083 184.902H507.772C507.624 184.902 507.513 184.872 507.439 184.813C507.38 184.739 507.313 184.613 507.239 184.436C506.928 183.591 506.499 183.006 505.951 182.681C505.417 182.34 504.758 182.17 503.974 182.17C502.967 182.17 502.13 182.481 501.464 183.103C500.812 183.71 500.464 184.709 500.419 186.102C500.39 186.62 500.39 187.138 500.419 187.656C500.464 189.048 500.812 190.055 501.464 190.677C502.13 191.285 502.967 191.588 503.974 191.588C504.758 191.588 505.417 191.425 505.951 191.099C506.499 190.759 506.928 190.167 507.239 189.322C507.313 189.145 507.38 189.026 507.439 188.967C507.513 188.893 507.624 188.856 507.772 188.856H508.083C508.216 188.856 508.335 188.9 508.438 188.989C508.542 189.078 508.587 189.197 508.572 189.345C508.557 189.67 508.49 189.996 508.372 190.322C508.253 190.648 508.068 190.966 507.817 191.277C507.58 191.588 507.283 191.862 506.928 192.099C506.573 192.336 506.143 192.521 505.64 192.654C505.151 192.803 504.596 192.877 503.974 192.877ZM515.283 192.877C513.847 192.877 512.706 192.41 511.862 191.477C511.018 190.529 510.537 189.293 510.418 187.768C510.404 187.545 510.396 187.249 510.396 186.879C510.396 186.509 510.404 186.213 510.418 185.99C510.492 184.983 510.729 184.095 511.129 183.325C511.529 182.555 512.077 181.955 512.773 181.526C513.484 181.096 514.321 180.881 515.283 180.881C516.32 180.881 517.201 181.111 517.926 181.57C518.652 182.029 519.207 182.688 519.592 183.547C519.992 184.406 520.192 185.428 520.192 186.612V186.946C520.192 187.094 520.14 187.212 520.037 187.301C519.948 187.39 519.829 187.434 519.681 187.434H511.773C511.773 187.434 511.773 187.464 511.773 187.523C511.773 187.582 511.773 187.627 511.773 187.656C511.803 188.323 511.959 188.96 512.24 189.567C512.521 190.159 512.921 190.648 513.439 191.033C513.958 191.403 514.572 191.588 515.283 191.588C515.92 191.588 516.446 191.492 516.86 191.299C517.29 191.107 517.63 190.9 517.882 190.677C518.134 190.44 518.297 190.263 518.371 190.144C518.504 189.952 518.608 189.841 518.682 189.811C518.756 189.767 518.874 189.744 519.037 189.744H519.393C519.526 189.744 519.637 189.789 519.726 189.878C519.829 189.952 519.874 190.055 519.859 190.189C519.844 190.396 519.726 190.655 519.504 190.966C519.296 191.262 518.993 191.559 518.593 191.855C518.208 192.151 517.734 192.395 517.171 192.588C516.608 192.78 515.979 192.877 515.283 192.877ZM511.773 186.19H518.837V186.102C518.837 185.361 518.697 184.695 518.415 184.102C518.134 183.51 517.727 183.043 517.193 182.703C516.66 182.347 516.024 182.17 515.283 182.17C514.543 182.17 513.906 182.347 513.373 182.703C512.854 183.043 512.455 183.51 512.173 184.102C511.907 184.695 511.773 185.361 511.773 186.102V186.19ZM523.1 192.654C522.952 192.654 522.833 192.61 522.745 192.521C522.656 192.432 522.611 192.314 522.611 192.166V181.614C522.611 181.466 522.656 181.348 522.745 181.259C522.833 181.155 522.952 181.104 523.1 181.104H523.455C523.603 181.104 523.722 181.155 523.811 181.259C523.914 181.348 523.966 181.466 523.966 181.614V182.636C524.233 182.118 524.618 181.733 525.121 181.481C525.625 181.229 526.247 181.104 526.987 181.104H527.809C527.957 181.104 528.076 181.148 528.165 181.237C528.253 181.326 528.298 181.444 528.298 181.592V181.903C528.298 182.051 528.253 182.17 528.165 182.259C528.076 182.347 527.957 182.392 527.809 182.392H526.854C525.965 182.392 525.262 182.651 524.744 183.169C524.225 183.688 523.966 184.391 523.966 185.28V192.166C523.966 192.314 523.914 192.432 523.811 192.521C523.722 192.61 523.603 192.654 523.455 192.654H523.1ZM533.488 192.877C532.718 192.877 532.052 192.773 531.489 192.566C530.941 192.358 530.489 192.114 530.134 191.833C529.778 191.536 529.512 191.248 529.334 190.966C529.171 190.685 529.082 190.47 529.068 190.322C529.053 190.159 529.105 190.041 529.223 189.967C529.342 189.878 529.453 189.833 529.556 189.833H529.89C529.978 189.833 530.052 189.848 530.112 189.878C530.186 189.907 530.275 189.989 530.378 190.122C530.571 190.374 530.793 190.618 531.045 190.855C531.296 191.077 531.615 191.255 532 191.388C532.4 191.522 532.896 191.588 533.488 191.588C534.377 191.588 535.11 191.418 535.687 191.077C536.265 190.737 536.554 190.233 536.554 189.567C536.554 189.152 536.435 188.819 536.198 188.567C535.976 188.315 535.591 188.093 535.043 187.901C534.495 187.708 533.755 187.508 532.822 187.301C531.889 187.079 531.17 186.812 530.667 186.501C530.178 186.19 529.845 185.835 529.667 185.435C529.49 185.02 529.401 184.576 529.401 184.102C529.401 183.584 529.549 183.081 529.845 182.592C530.141 182.088 530.578 181.681 531.156 181.37C531.748 181.044 532.488 180.881 533.377 180.881C534.103 180.881 534.717 180.978 535.221 181.17C535.739 181.363 536.161 181.6 536.487 181.881C536.813 182.148 537.05 182.414 537.198 182.681C537.361 182.947 537.449 183.162 537.464 183.325C537.479 183.473 537.435 183.591 537.331 183.68C537.227 183.769 537.109 183.814 536.976 183.814H536.642C536.524 183.814 536.428 183.791 536.354 183.747C536.28 183.688 536.213 183.614 536.154 183.525C536.006 183.288 535.828 183.066 535.621 182.858C535.413 182.651 535.132 182.488 534.776 182.37C534.436 182.236 533.969 182.17 533.377 182.17C532.488 182.17 531.829 182.355 531.4 182.725C530.971 183.081 530.756 183.54 530.756 184.102C530.756 184.428 530.845 184.717 531.022 184.969C531.2 185.206 531.533 185.428 532.022 185.635C532.511 185.828 533.222 186.035 534.154 186.257C535.102 186.464 535.85 186.723 536.398 187.034C536.946 187.331 537.331 187.686 537.553 188.101C537.79 188.515 537.909 189.004 537.909 189.567C537.909 190.159 537.738 190.707 537.398 191.211C537.072 191.714 536.576 192.121 535.909 192.432C535.258 192.728 534.451 192.877 533.488 192.877Z" fill="black"/>
<path d="M549.58 24C549.418 24 549.284 23.9482 549.181 23.8445C549.077 23.7408 549.025 23.6076 549.025 23.4447V9.00606C549.025 8.84316 549.077 8.70988 549.181 8.60622C549.284 8.50256 549.418 8.45073 549.58 8.45073H552.002C552.165 8.45073 552.298 8.50256 552.402 8.60622C552.505 8.70988 552.557 8.84316 552.557 9.00606V14.5594H558.577V9.00606C558.577 8.84316 558.629 8.70988 558.732 8.60622C558.836 8.50256 558.969 8.45073 559.132 8.45073H561.553C561.716 8.45073 561.85 8.50256 561.953 8.60622C562.057 8.70988 562.109 8.84316 562.109 9.00606V23.4447C562.109 23.6076 562.057 23.7408 561.953 23.8445C561.85 23.9482 561.716 24 561.553 24H559.132C558.969 24 558.836 23.9482 558.732 23.8445C558.629 23.7408 558.577 23.6076 558.577 23.4447V17.7137H552.557V23.4447C552.557 23.6076 552.505 23.7408 552.402 23.8445C552.298 23.9482 552.165 24 552.002 24H549.58ZM571.245 24.2221C569.942 24.2221 568.802 24.0074 567.824 23.5779C566.847 23.1337 566.092 22.4599 565.559 21.5565C565.025 20.6384 564.759 19.4759 564.759 18.0691V9.00606C564.759 8.84316 564.811 8.70988 564.914 8.60622C565.018 8.50256 565.151 8.45073 565.314 8.45073H567.735C567.898 8.45073 568.032 8.50256 568.135 8.60622C568.239 8.70988 568.291 8.84316 568.291 9.00606V18.0468C568.291 19.1427 568.55 19.9572 569.068 20.4903C569.587 21.0234 570.312 21.29 571.245 21.29C572.163 21.29 572.882 21.0234 573.4 20.4903C573.918 19.9572 574.177 19.1427 574.177 18.0468V9.00606C574.177 8.84316 574.229 8.70988 574.333 8.60622C574.451 8.50256 574.585 8.45073 574.733 8.45073H577.176C577.324 8.45073 577.45 8.50256 577.554 8.60622C577.657 8.70988 577.709 8.84316 577.709 9.00606V18.0691C577.709 19.4759 577.443 20.6384 576.91 21.5565C576.376 22.4599 575.629 23.1337 574.666 23.5779C573.703 24.0074 572.563 24.2221 571.245 24.2221ZM580.902 24C580.754 24 580.621 23.9482 580.503 23.8445C580.399 23.7408 580.347 23.6076 580.347 23.4447V9.00606C580.347 8.84316 580.399 8.70988 580.503 8.60622C580.621 8.50256 580.754 8.45073 580.902 8.45073H582.968C583.19 8.45073 583.353 8.50996 583.457 8.62843C583.575 8.7469 583.657 8.83576 583.701 8.89499L587.788 16.4253L591.92 8.89499C591.95 8.83576 592.016 8.7469 592.12 8.62843C592.239 8.50996 592.409 8.45073 592.631 8.45073H594.697C594.86 8.45073 594.993 8.50256 595.097 8.60622C595.2 8.70988 595.252 8.84316 595.252 9.00606V23.4447C595.252 23.6076 595.2 23.7408 595.097 23.8445C594.993 23.9482 594.86 24 594.697 24H592.431C592.283 24 592.157 23.9482 592.053 23.8445C591.95 23.7408 591.898 23.6076 591.898 23.4447V14.4705L589.077 19.7573C589.003 19.8905 588.907 20.009 588.788 20.1127C588.67 20.2163 588.514 20.2682 588.322 20.2682H587.278C587.085 20.2682 586.93 20.2163 586.811 20.1127C586.693 20.009 586.596 19.8905 586.522 19.7573L583.701 14.4705V23.4447C583.701 23.6076 583.649 23.7408 583.546 23.8445C583.442 23.9482 583.316 24 583.168 24H580.902ZM597.125 24C596.992 24 596.881 23.9556 596.792 23.8667C596.703 23.7631 596.659 23.652 596.659 23.5335C596.659 23.4595 596.666 23.3928 596.681 23.3336L601.968 9.05048C602.012 8.88759 602.101 8.7469 602.235 8.62843C602.368 8.50996 602.553 8.45073 602.79 8.45073H605.633C605.87 8.45073 606.055 8.50996 606.188 8.62843C606.322 8.7469 606.411 8.88759 606.455 9.05048L611.742 23.3336C611.757 23.3928 611.764 23.4595 611.764 23.5335C611.764 23.652 611.72 23.7631 611.631 23.8667C611.542 23.9556 611.431 24 611.298 24H608.987C608.765 24 608.602 23.9482 608.499 23.8445C608.395 23.7408 608.328 23.6446 608.299 23.5557L607.344 21.0679H601.079L600.124 23.5557C600.095 23.6446 600.028 23.7408 599.924 23.8445C599.821 23.9482 599.658 24 599.436 24H597.125ZM601.901 18.2023H606.499L604.212 11.8049L601.901 18.2023ZM613.721 24C613.558 24 613.425 23.9482 613.321 23.8445C613.218 23.7408 613.166 23.6076 613.166 23.4447V9.00606C613.166 8.84316 613.218 8.70988 613.321 8.60622C613.425 8.50256 613.558 8.45073 613.721 8.45073H615.742C615.965 8.45073 616.127 8.50256 616.231 8.60622C616.335 8.70988 616.401 8.79133 616.431 8.85056L622.362 18.1135V9.00606C622.362 8.84316 622.414 8.70988 622.517 8.60622C622.621 8.50256 622.747 8.45073 622.895 8.45073H625.161C625.324 8.45073 625.457 8.50256 625.561 8.60622C625.664 8.70988 625.716 8.84316 625.716 9.00606V23.4447C625.716 23.5928 625.664 23.726 625.561 23.8445C625.457 23.9482 625.324 24 625.161 24H623.117C622.895 24 622.732 23.9482 622.629 23.8445C622.54 23.726 622.473 23.6446 622.429 23.6002L616.52 14.626V23.4447C616.52 23.6076 616.468 23.7408 616.364 23.8445C616.261 23.9482 616.127 24 615.965 24H613.721ZM639.057 24.2221C637.665 24.2221 636.481 23.9926 635.503 23.5335C634.541 23.0596 633.793 22.3784 633.26 21.4899C632.727 20.5866 632.43 19.4907 632.371 18.2023C632.356 17.5952 632.349 16.9436 632.349 16.2476C632.349 15.5516 632.356 14.8852 632.371 14.2484C632.43 12.9748 632.727 11.8938 633.26 11.0052C633.808 10.1019 634.57 9.4133 635.548 8.93942C636.525 8.46553 637.695 8.22859 639.057 8.22859C640.05 8.22859 640.953 8.35447 641.767 8.60622C642.582 8.85797 643.285 9.22078 643.878 9.69467C644.47 10.1686 644.929 10.7239 645.255 11.3607C645.581 11.9974 645.758 12.7083 645.788 13.4931C645.788 13.6264 645.736 13.7375 645.632 13.8263C645.544 13.9152 645.433 13.9596 645.299 13.9596H642.767C642.589 13.9596 642.449 13.9152 642.345 13.8263C642.241 13.7375 642.16 13.5894 642.101 13.3821C641.878 12.5083 641.508 11.9086 640.99 11.5828C640.472 11.257 639.827 11.0941 639.057 11.0941C638.139 11.0941 637.414 11.3459 636.88 11.8494C636.347 12.3529 636.059 13.1896 636.014 14.3595C635.97 15.5738 635.97 16.8177 636.014 18.0913C636.059 19.2612 636.347 20.0979 636.88 20.6014C637.414 21.1049 638.139 21.3566 639.057 21.3566C639.827 21.3566 640.472 21.1937 640.99 20.8679C641.523 20.5273 641.893 19.9276 642.101 19.0687C642.16 18.8465 642.241 18.6984 642.345 18.6244C642.449 18.5355 642.589 18.4911 642.767 18.4911H645.299C645.433 18.4911 645.544 18.5355 645.632 18.6244C645.736 18.7132 645.788 18.8243 645.788 18.9576C645.758 19.7425 645.581 20.4533 645.255 21.0901C644.929 21.7268 644.47 22.2822 643.878 22.7561C643.285 23.2299 642.582 23.5928 641.767 23.8445C640.953 24.0963 640.05 24.2221 639.057 24.2221ZM648.328 24C648.165 24 648.032 23.9482 647.928 23.8445C647.825 23.7408 647.773 23.6076 647.773 23.4447V9.00606C647.773 8.84316 647.825 8.70988 647.928 8.60622C648.032 8.50256 648.165 8.45073 648.328 8.45073H658.391C658.554 8.45073 658.687 8.50256 658.791 8.60622C658.894 8.70988 658.946 8.84316 658.946 9.00606V10.7831C658.946 10.9312 658.894 11.0571 658.791 11.1607C658.687 11.2644 658.554 11.3162 658.391 11.3162H651.194V14.8037H657.902C658.065 14.8037 658.198 14.8555 658.302 14.9592C658.406 15.0629 658.457 15.1961 658.457 15.359V17.0028C658.457 17.1509 658.406 17.2768 658.302 17.3805C658.198 17.4841 658.065 17.5359 657.902 17.5359H651.194V21.1345H658.569C658.731 21.1345 658.865 21.1863 658.968 21.29C659.072 21.3936 659.124 21.5269 659.124 21.6898V23.4447C659.124 23.6076 659.072 23.7408 658.968 23.8445C658.865 23.9482 658.731 24 658.569 24H648.328ZM661.809 24C661.646 24 661.513 23.9482 661.409 23.8445C661.306 23.7408 661.254 23.6076 661.254 23.4447V9.00606C661.254 8.84316 661.306 8.70988 661.409 8.60622C661.513 8.50256 661.646 8.45073 661.809 8.45073H663.83C664.053 8.45073 664.216 8.50256 664.319 8.60622C664.423 8.70988 664.489 8.79133 664.519 8.85056L670.45 18.1135V9.00606C670.45 8.84316 670.502 8.70988 670.606 8.60622C670.709 8.50256 670.835 8.45073 670.983 8.45073H673.249C673.412 8.45073 673.545 8.50256 673.649 8.60622C673.752 8.70988 673.804 8.84316 673.804 9.00606V23.4447C673.804 23.5928 673.752 23.726 673.649 23.8445C673.545 23.9482 673.412 24 673.249 24H671.205C670.983 24 670.82 23.9482 670.717 23.8445C670.628 23.726 670.561 23.6446 670.517 23.6002L664.608 14.626V23.4447C664.608 23.6076 664.556 23.7408 664.452 23.8445C664.349 23.9482 664.216 24 664.053 24H661.809ZM680.555 24C680.392 24 680.258 23.9482 680.155 23.8445C680.051 23.7408 679.999 23.6076 679.999 23.4447V11.5384H675.956C675.808 11.5384 675.683 11.4865 675.579 11.3829C675.475 11.2792 675.423 11.1533 675.423 11.0052V9.00606C675.423 8.84316 675.475 8.70988 675.579 8.60622C675.683 8.50256 675.808 8.45073 675.956 8.45073H687.596C687.759 8.45073 687.892 8.50256 687.996 8.60622C688.1 8.70988 688.152 8.84316 688.152 9.00606V11.0052C688.152 11.1533 688.1 11.2792 687.996 11.3829C687.892 11.4865 687.759 11.5384 687.596 11.5384H683.576V23.4447C683.576 23.6076 683.524 23.7408 683.42 23.8445C683.316 23.9482 683.183 24 683.02 24H680.555ZM690.333 24C690.17 24 690.036 23.9482 689.933 23.8445C689.829 23.7408 689.777 23.6076 689.777 23.4447V9.00606C689.777 8.84316 689.829 8.70988 689.933 8.60622C690.036 8.50256 690.17 8.45073 690.333 8.45073H700.395C700.558 8.45073 700.691 8.50256 700.795 8.60622C700.899 8.70988 700.951 8.84316 700.951 9.00606V10.7831C700.951 10.9312 700.899 11.0571 700.795 11.1607C700.691 11.2644 700.558 11.3162 700.395 11.3162H693.198V14.8037H699.907C700.069 14.8037 700.203 14.8555 700.306 14.9592C700.41 15.0629 700.462 15.1961 700.462 15.359V17.0028C700.462 17.1509 700.41 17.2768 700.306 17.3805C700.203 17.4841 700.069 17.5359 699.907 17.5359H693.198V21.1345H700.573C700.736 21.1345 700.869 21.1863 700.973 21.29C701.076 21.3936 701.128 21.5269 701.128 21.6898V23.4447C701.128 23.6076 701.076 23.7408 700.973 23.8445C700.869 23.9482 700.736 24 700.573 24H690.333ZM703.813 24C703.651 24 703.517 23.9482 703.414 23.8445C703.31 23.7408 703.258 23.6076 703.258 23.4447V9.00606C703.258 8.84316 703.31 8.70988 703.414 8.60622C703.517 8.50256 703.651 8.45073 703.813 8.45073H709.7C711.551 8.45073 713.01 8.88018 714.076 9.73909C715.142 10.5832 715.675 11.8049 715.675 13.4043C715.675 14.4853 715.416 15.3887 714.898 16.1143C714.38 16.8399 713.684 17.3805 712.81 17.7359L715.942 23.2892C715.986 23.378 716.009 23.4595 716.009 23.5335C716.009 23.652 715.964 23.7631 715.875 23.8667C715.786 23.9556 715.675 24 715.542 24H713.076C712.81 24 712.61 23.9334 712.477 23.8001C712.343 23.652 712.247 23.5187 712.188 23.4002L709.478 18.3134H706.79V23.4447C706.79 23.6076 706.738 23.7408 706.635 23.8445C706.531 23.9482 706.398 24 706.235 24H703.813ZM706.79 15.4923H709.633C710.448 15.4923 711.048 15.3072 711.433 14.937C711.832 14.5668 712.032 14.0485 712.032 13.3821C712.032 12.7157 711.84 12.19 711.455 11.8049C711.07 11.4199 710.463 11.2274 709.633 11.2274H706.79V15.4923ZM718.444 24C718.281 24 718.148 23.9482 718.044 23.8445C717.94 23.7408 717.889 23.6076 717.889 23.4447V9.00606C717.889 8.84316 717.94 8.70988 718.044 8.60622C718.148 8.50256 718.281 8.45073 718.444 8.45073H728.507C728.669 8.45073 728.803 8.50256 728.906 8.60622C729.01 8.70988 729.062 8.84316 729.062 9.00606V10.7831C729.062 10.9312 729.01 11.0571 728.906 11.1607C728.803 11.2644 728.669 11.3162 728.507 11.3162H721.31V14.8037H728.018C728.181 14.8037 728.314 14.8555 728.418 14.9592C728.521 15.0629 728.573 15.1961 728.573 15.359V17.0028C728.573 17.1509 728.521 17.2768 728.418 17.3805C728.314 17.4841 728.181 17.5359 728.018 17.5359H721.31V21.1345H728.684C728.847 21.1345 728.98 21.1863 729.084 21.29C729.188 21.3936 729.24 21.5269 729.24 21.6898V23.4447C729.24 23.6076 729.188 23.7408 729.084 23.8445C728.98 23.9482 728.847 24 728.684 24H718.444ZM731.925 24C731.762 24 731.629 23.9482 731.525 23.8445C731.421 23.7408 731.37 23.6076 731.37 23.4447V9.00606C731.37 8.84316 731.421 8.70988 731.525 8.60622C731.629 8.50256 731.762 8.45073 731.925 8.45073H737.5C738.981 8.45073 740.218 8.68767 741.21 9.16155C742.202 9.62062 742.957 10.3018 743.476 11.2052C744.009 12.0937 744.29 13.197 744.32 14.5149C744.335 15.1665 744.342 15.7367 744.342 16.2254C744.342 16.7141 744.335 17.2768 744.32 17.9136C744.275 19.2908 744.001 20.4311 743.498 21.3344C742.994 22.2377 742.254 22.9116 741.277 23.3558C740.299 23.7853 739.078 24 737.611 24H731.925ZM734.901 21.1345H737.5C738.241 21.1345 738.848 21.0234 739.322 20.8013C739.796 20.5792 740.144 20.2312 740.366 19.7573C740.603 19.2686 740.729 18.6392 740.744 17.8691C740.758 17.4397 740.766 17.0547 740.766 16.7141C740.781 16.3735 740.781 16.0328 740.766 15.6922C740.766 15.3516 740.758 14.974 740.744 14.5594C740.714 13.4487 740.425 12.6342 739.877 12.1159C739.344 11.5828 738.515 11.3162 737.389 11.3162H734.901V21.1345ZM549.58 57C549.418 57 549.284 56.9482 549.181 56.8445C549.077 56.7408 549.025 56.6076 549.025 56.4447V42.0061C549.025 41.8432 549.077 41.7099 549.181 41.6062C549.284 41.5026 549.418 41.4507 549.58 41.4507H555.156C556.637 41.4507 557.873 41.6877 558.866 42.1615C559.858 42.6206 560.613 43.3018 561.131 44.2052C561.664 45.0937 561.946 46.197 561.975 47.5149C561.99 48.1665 561.998 48.7367 561.998 49.2254C561.998 49.7141 561.99 50.2768 561.975 50.9136C561.931 52.2908 561.657 53.4311 561.154 54.3344C560.65 55.2377 559.91 55.9116 558.932 56.3558C557.955 56.7853 556.733 57 555.267 57H549.58ZM552.557 54.1345H555.156C555.896 54.1345 556.504 54.0234 556.977 53.8013C557.451 53.5792 557.799 53.2312 558.021 52.7573C558.258 52.2686 558.384 51.6392 558.399 50.8691C558.414 50.4397 558.421 50.0547 558.421 49.7141C558.436 49.3735 558.436 49.0328 558.421 48.6922C558.421 48.3516 558.414 47.974 558.399 47.5594C558.37 46.4487 558.081 45.6342 557.533 45.1159C557 44.5828 556.17 44.3162 555.045 44.3162H552.557V54.1345ZM564.818 57C564.656 57 564.522 56.9482 564.419 56.8445C564.315 56.7408 564.263 56.6076 564.263 56.4447V42.0061C564.263 41.8432 564.315 41.7099 564.419 41.6062C564.522 41.5026 564.656 41.4507 564.818 41.4507H574.881C575.044 41.4507 575.177 41.5026 575.281 41.6062C575.385 41.7099 575.436 41.8432 575.436 42.0061V43.7831C575.436 43.9312 575.385 44.0571 575.281 44.1607C575.177 44.2644 575.044 44.3162 574.881 44.3162H567.684V47.8037H574.392C574.555 47.8037 574.688 47.8555 574.792 47.9592C574.896 48.0629 574.948 48.1961 574.948 48.359V50.0028C574.948 50.1509 574.896 50.2768 574.792 50.3805C574.688 50.4841 574.555 50.5359 574.392 50.5359H567.684V54.1345H575.059C575.222 54.1345 575.355 54.1863 575.459 54.29C575.562 54.3936 575.614 54.5269 575.614 54.6898V56.4447C575.614 56.6076 575.562 56.7408 575.459 56.8445C575.355 56.9482 575.222 57 575.059 57H564.818ZM583.342 57.2221C581.92 57.2221 580.728 57.0148 579.765 56.6002C578.818 56.1855 578.099 55.645 577.611 54.9786C577.122 54.3122 576.863 53.6014 576.833 52.8461C576.833 52.7277 576.878 52.624 576.966 52.5351C577.055 52.4315 577.166 52.3796 577.3 52.3796H579.676C579.869 52.3796 580.017 52.4241 580.121 52.5129C580.224 52.587 580.321 52.6832 580.409 52.8017C580.513 53.0534 580.676 53.2978 580.898 53.5347C581.135 53.7717 581.454 53.9716 581.853 54.1345C582.253 54.2826 582.749 54.3566 583.342 54.3566C584.304 54.3566 585.022 54.2011 585.496 53.8901C585.985 53.5792 586.229 53.1571 586.229 52.624C586.229 52.239 586.096 51.928 585.83 51.691C585.578 51.4541 585.171 51.2394 584.608 51.0468C584.06 50.8543 583.327 50.647 582.409 50.4249C581.298 50.1879 580.35 49.8844 579.565 49.5141C578.795 49.1291 578.21 48.6404 577.811 48.0481C577.426 47.4409 577.233 46.6931 577.233 45.8045C577.233 44.916 577.477 44.1311 577.966 43.4499C578.455 42.7539 579.143 42.2134 580.032 41.8284C580.92 41.4285 581.979 41.2286 583.208 41.2286C584.201 41.2286 585.074 41.3619 585.83 41.6284C586.6 41.895 587.236 42.243 587.74 42.6725C588.258 43.1019 588.651 43.561 588.917 44.0497C589.184 44.5384 589.324 45.0123 589.339 45.4713C589.339 45.5898 589.295 45.7009 589.206 45.8045C589.117 45.8934 589.006 45.9378 588.873 45.9378H586.385C586.237 45.9378 586.103 45.9082 585.985 45.8489C585.867 45.7897 585.77 45.6861 585.696 45.538C585.607 45.1529 585.341 44.8197 584.897 44.5384C584.467 44.2422 583.904 44.0941 583.208 44.0941C582.483 44.0941 581.905 44.2274 581.476 44.4939C581.061 44.7605 580.854 45.1677 580.854 45.7157C580.854 46.0711 580.957 46.3747 581.165 46.6264C581.387 46.8634 581.75 47.0781 582.253 47.2706C582.772 47.4483 583.453 47.6482 584.297 47.8704C585.6 48.1369 586.659 48.4553 587.473 48.8255C588.288 49.1957 588.888 49.677 589.273 50.2694C589.658 50.8469 589.85 51.58 589.85 52.4685C589.85 53.4607 589.569 54.3122 589.006 55.023C588.458 55.7338 587.695 56.2818 586.718 56.6668C585.755 57.037 584.63 57.2221 583.342 57.2221ZM592.279 57C592.116 57 591.983 56.9482 591.879 56.8445C591.776 56.7408 591.724 56.6076 591.724 56.4447V42.0061C591.724 41.8432 591.776 41.7099 591.879 41.6062C591.983 41.5026 592.116 41.4507 592.279 41.4507H594.789C594.952 41.4507 595.085 41.5026 595.189 41.6062C595.293 41.7099 595.344 41.8432 595.344 42.0061V56.4447C595.344 56.6076 595.293 56.7408 595.189 56.8445C595.085 56.9482 594.952 57 594.789 57H592.279ZM604.353 57.2221C602.961 57.2221 601.769 56.9926 600.777 56.5335C599.799 56.0596 599.037 55.3784 598.489 54.4899C597.956 53.5866 597.667 52.4981 597.622 51.2246C597.608 50.5878 597.6 49.9066 597.6 49.1809C597.6 48.4553 597.608 47.7667 597.622 47.1151C597.667 45.8712 597.956 44.8123 598.489 43.9386C599.037 43.0649 599.807 42.3985 600.799 41.9394C601.806 41.4655 602.991 41.2286 604.353 41.2286C605.449 41.2286 606.411 41.3693 607.241 41.6506C608.07 41.932 608.766 42.3022 609.329 42.7613C609.891 43.2056 610.321 43.6943 610.617 44.2274C610.913 44.7605 611.069 45.2714 611.084 45.7601C611.084 45.8934 611.039 46.0118 610.95 46.1155C610.861 46.2044 610.743 46.2488 610.595 46.2488H607.84C607.692 46.2488 607.574 46.2192 607.485 46.1599C607.411 46.1007 607.344 46.0118 607.285 45.8934C607.181 45.6268 607.011 45.3603 606.774 45.0937C606.552 44.8123 606.248 44.5754 605.863 44.3829C605.478 44.1904 604.975 44.0941 604.353 44.0941C603.42 44.0941 602.68 44.3384 602.132 44.8271C601.599 45.3158 601.31 46.1155 601.265 47.2262C601.221 48.4997 601.221 49.7955 601.265 51.1135C601.31 52.2686 601.606 53.0979 602.154 53.6014C602.717 54.1049 603.464 54.3566 604.397 54.3566C605.005 54.3566 605.545 54.253 606.019 54.0456C606.508 53.8235 606.893 53.4829 607.174 53.0238C607.455 52.5648 607.596 51.9798 607.596 51.269V50.7137H605.175C605.027 50.7137 604.901 50.6618 604.797 50.5582C604.694 50.4397 604.642 50.3064 604.642 50.1583V48.7367C604.642 48.5738 604.694 48.4405 604.797 48.3368C604.901 48.2332 605.027 48.1813 605.175 48.1813H610.617C610.78 48.1813 610.913 48.2332 611.017 48.3368C611.121 48.4405 611.172 48.5738 611.172 48.7367V51.1579C611.172 52.4315 610.891 53.5199 610.328 54.4233C609.78 55.3266 608.988 56.0226 607.951 56.5113C606.93 56.9852 605.73 57.2221 604.353 57.2221ZM613.926 57C613.763 57 613.63 56.9482 613.526 56.8445C613.422 56.7408 613.371 56.6076 613.371 56.4447V42.0061C613.371 41.8432 613.422 41.7099 613.526 41.6062C613.63 41.5026 613.763 41.4507 613.926 41.4507H615.947C616.17 41.4507 616.332 41.5026 616.436 41.6062C616.54 41.7099 616.606 41.7913 616.636 41.8506L622.567 51.1135V42.0061C622.567 41.8432 622.619 41.7099 622.722 41.6062C622.826 41.5026 622.952 41.4507 623.1 41.4507H625.366C625.529 41.4507 625.662 41.5026 625.766 41.6062C625.869 41.7099 625.921 41.8432 625.921 42.0061V56.4447C625.921 56.5928 625.869 56.726 625.766 56.8445C625.662 56.9482 625.529 57 625.366 57H623.322C623.1 57 622.937 56.9482 622.833 56.8445C622.745 56.726 622.678 56.6446 622.634 56.6002L616.725 47.626V56.4447C616.725 56.6076 616.673 56.7408 616.569 56.8445C616.466 56.9482 616.332 57 616.17 57H613.926Z" fill="#7E41FF"/>
<g style="mix-blend-mode:multiply">
<circle cx="444.677" cy="314.307" r="114.671" fill="#F7F4FF"/>
<circle cx="444.677" cy="314.307" r="114.671" stroke="black" stroke-width="2.77666"/>
</g>
<path d="M420.877 348.74C420.759 348.74 420.655 348.695 420.566 348.606C420.477 348.518 420.433 348.414 420.433 348.295C420.433 348.221 420.448 348.14 420.477 348.051L426.097 333.635C426.157 333.487 426.231 333.376 426.32 333.302C426.423 333.227 426.564 333.19 426.742 333.19H427.497C427.675 333.19 427.808 333.227 427.897 333.302C428 333.376 428.082 333.487 428.141 333.635L433.761 348.051C433.791 348.14 433.805 348.221 433.805 348.295C433.805 348.414 433.761 348.518 433.672 348.606C433.583 348.695 433.48 348.74 433.361 348.74H432.917C432.769 348.74 432.658 348.703 432.584 348.629C432.51 348.54 432.458 348.466 432.428 348.407L431.051 344.852H423.187L421.81 348.407C421.795 348.466 421.744 348.54 421.655 348.629C421.581 348.703 421.47 348.74 421.322 348.74H420.877ZM423.721 343.52H430.518L427.119 334.768L423.721 343.52ZM439.881 348.962C438.845 348.962 437.964 348.762 437.238 348.362C436.512 347.947 435.957 347.355 435.572 346.585C435.202 345.815 435.002 344.904 434.972 343.853C434.957 343.631 434.95 343.335 434.95 342.964C434.95 342.594 434.957 342.298 434.972 342.076C435.002 341.01 435.202 340.099 435.572 339.344C435.957 338.573 436.512 337.989 437.238 337.589C437.964 337.174 438.845 336.967 439.881 336.967C440.666 336.967 441.34 337.078 441.903 337.3C442.48 337.507 442.954 337.789 443.324 338.144C443.695 338.485 443.976 338.862 444.169 339.277C444.361 339.692 444.465 340.099 444.48 340.499C444.494 340.647 444.45 340.765 444.346 340.854C444.243 340.943 444.124 340.987 443.991 340.987H443.68C443.532 340.987 443.421 340.958 443.347 340.898C443.287 340.824 443.221 340.699 443.147 340.521C442.836 339.677 442.406 339.092 441.858 338.766C441.325 338.425 440.666 338.255 439.881 338.255C438.874 338.255 438.038 338.566 437.371 339.188C436.72 339.795 436.372 340.795 436.327 342.187C436.298 342.705 436.298 343.223 436.327 343.742C436.372 345.134 436.72 346.141 437.371 346.763C438.038 347.37 438.874 347.674 439.881 347.674C440.666 347.674 441.325 347.511 441.858 347.185C442.406 346.844 442.836 346.252 443.147 345.408C443.221 345.23 443.287 345.112 443.347 345.052C443.421 344.978 443.532 344.941 443.68 344.941H443.991C444.124 344.941 444.243 344.986 444.346 345.075C444.45 345.163 444.494 345.282 444.48 345.43C444.465 345.756 444.398 346.082 444.28 346.407C444.161 346.733 443.976 347.052 443.724 347.363C443.487 347.674 443.191 347.947 442.836 348.184C442.48 348.421 442.051 348.606 441.547 348.74C441.059 348.888 440.503 348.962 439.881 348.962ZM450.014 348.962C449.303 348.962 448.644 348.814 448.037 348.518C447.444 348.221 446.963 347.829 446.593 347.34C446.223 346.837 446.037 346.274 446.037 345.652C446.037 344.645 446.445 343.838 447.259 343.231C448.074 342.624 449.132 342.231 450.436 342.054L453.945 341.565V340.787C453.945 340.003 453.701 339.388 453.212 338.944C452.738 338.485 451.976 338.255 450.924 338.255C450.154 338.255 449.532 338.411 449.058 338.722C448.585 339.018 448.259 339.41 448.081 339.899C448.007 340.121 447.866 340.232 447.659 340.232H447.304C447.126 340.232 447 340.188 446.926 340.099C446.852 339.995 446.815 339.877 446.815 339.743C446.815 339.536 446.889 339.277 447.037 338.966C447.2 338.655 447.444 338.351 447.77 338.055C448.096 337.744 448.518 337.485 449.036 337.278C449.555 337.07 450.184 336.967 450.924 336.967C451.798 336.967 452.516 337.085 453.079 337.322C453.657 337.559 454.101 337.87 454.412 338.255C454.738 338.625 454.967 339.04 455.1 339.499C455.234 339.958 455.3 340.41 455.3 340.854V348.251C455.3 348.399 455.256 348.518 455.167 348.606C455.078 348.695 454.96 348.74 454.812 348.74H454.434C454.286 348.74 454.167 348.695 454.079 348.606C453.99 348.518 453.945 348.399 453.945 348.251V347.207C453.768 347.474 453.516 347.74 453.19 348.007C452.864 348.273 452.442 348.503 451.924 348.695C451.42 348.873 450.784 348.962 450.014 348.962ZM450.236 347.674C450.917 347.674 451.539 347.525 452.102 347.229C452.664 346.933 453.109 346.481 453.434 345.874C453.775 345.252 453.945 344.475 453.945 343.542V342.787L451.08 343.186C449.866 343.349 448.947 343.631 448.325 344.031C447.703 344.43 447.392 344.934 447.392 345.541C447.392 346.03 447.533 346.43 447.814 346.741C448.096 347.052 448.451 347.288 448.881 347.451C449.325 347.599 449.777 347.674 450.236 347.674ZM462.478 348.962C461.619 348.962 460.886 348.806 460.279 348.495C459.687 348.184 459.205 347.77 458.835 347.251C458.465 346.733 458.191 346.156 458.013 345.519C457.85 344.882 457.754 344.238 457.725 343.586C457.71 343.364 457.702 343.157 457.702 342.964C457.702 342.772 457.71 342.564 457.725 342.342C457.754 341.691 457.85 341.047 458.013 340.41C458.191 339.773 458.465 339.195 458.835 338.677C459.205 338.159 459.687 337.744 460.279 337.433C460.886 337.122 461.619 336.967 462.478 336.967C463.396 336.967 464.152 337.137 464.744 337.478C465.351 337.818 465.84 338.233 466.21 338.722V333.457C466.21 333.309 466.254 333.19 466.343 333.102C466.432 333.013 466.551 332.968 466.699 332.968H467.076C467.224 332.968 467.343 333.013 467.432 333.102C467.521 333.19 467.565 333.309 467.565 333.457V348.251C467.565 348.399 467.521 348.518 467.432 348.606C467.343 348.695 467.224 348.74 467.076 348.74H466.699C466.551 348.74 466.432 348.695 466.343 348.606C466.254 348.518 466.21 348.399 466.21 348.251V347.207C465.84 347.711 465.351 348.133 464.744 348.473C464.152 348.799 463.396 348.962 462.478 348.962ZM462.611 347.674C463.456 347.674 464.137 347.474 464.655 347.074C465.173 346.674 465.558 346.178 465.81 345.585C466.062 344.978 466.195 344.371 466.21 343.764C466.225 343.542 466.232 343.253 466.232 342.898C466.232 342.542 466.225 342.253 466.21 342.031C466.195 341.439 466.055 340.854 465.788 340.276C465.536 339.699 465.151 339.218 464.633 338.833C464.115 338.448 463.441 338.255 462.611 338.255C461.753 338.255 461.064 338.448 460.546 338.833C460.042 339.218 459.679 339.721 459.457 340.343C459.235 340.965 459.109 341.632 459.08 342.342C459.065 342.757 459.065 343.172 459.08 343.586C459.109 344.297 459.235 344.963 459.457 345.585C459.679 346.207 460.042 346.711 460.546 347.096C461.064 347.481 461.753 347.674 462.611 347.674ZM474.964 348.962C473.527 348.962 472.387 348.495 471.543 347.562C470.699 346.615 470.218 345.378 470.099 343.853C470.084 343.631 470.077 343.335 470.077 342.964C470.077 342.594 470.084 342.298 470.099 342.076C470.173 341.069 470.41 340.18 470.81 339.41C471.21 338.64 471.758 338.04 472.454 337.611C473.164 337.181 474.001 336.967 474.964 336.967C476 336.967 476.882 337.196 477.607 337.655C478.333 338.114 478.888 338.773 479.273 339.632C479.673 340.491 479.873 341.513 479.873 342.698V343.031C479.873 343.179 479.821 343.298 479.717 343.386C479.629 343.475 479.51 343.52 479.362 343.52H471.454C471.454 343.52 471.454 343.549 471.454 343.608C471.454 343.668 471.454 343.712 471.454 343.742C471.484 344.408 471.639 345.045 471.921 345.652C472.202 346.244 472.602 346.733 473.12 347.118C473.638 347.488 474.253 347.674 474.964 347.674C475.601 347.674 476.126 347.577 476.541 347.385C476.97 347.192 477.311 346.985 477.563 346.763C477.814 346.526 477.977 346.348 478.051 346.23C478.185 346.037 478.288 345.926 478.362 345.896C478.436 345.852 478.555 345.83 478.718 345.83H479.073C479.206 345.83 479.318 345.874 479.406 345.963C479.51 346.037 479.555 346.141 479.54 346.274C479.525 346.481 479.406 346.741 479.184 347.052C478.977 347.348 478.673 347.644 478.274 347.94C477.889 348.236 477.415 348.481 476.852 348.673C476.289 348.866 475.66 348.962 474.964 348.962ZM471.454 342.276H478.518V342.187C478.518 341.446 478.377 340.78 478.096 340.188C477.814 339.595 477.407 339.129 476.874 338.788C476.341 338.433 475.704 338.255 474.964 338.255C474.223 338.255 473.587 338.433 473.053 338.788C472.535 339.129 472.135 339.595 471.854 340.188C471.587 340.78 471.454 341.446 471.454 342.187V342.276ZM482.781 348.74C482.632 348.74 482.514 348.695 482.425 348.606C482.336 348.518 482.292 348.399 482.292 348.251V337.678C482.292 337.529 482.336 337.411 482.425 337.322C482.514 337.233 482.632 337.189 482.781 337.189H483.158C483.306 337.189 483.425 337.233 483.514 337.322C483.602 337.411 483.647 337.529 483.647 337.678V338.455C484.017 337.981 484.454 337.618 484.957 337.367C485.476 337.1 486.098 336.967 486.823 336.967C488.482 336.967 489.667 337.663 490.378 339.055C490.718 338.418 491.214 337.914 491.866 337.544C492.532 337.159 493.295 336.967 494.154 336.967C494.939 336.967 495.642 337.152 496.264 337.522C496.901 337.877 497.397 338.411 497.752 339.121C498.123 339.832 498.308 340.721 498.308 341.787V348.251C498.308 348.399 498.263 348.518 498.174 348.606C498.086 348.695 497.967 348.74 497.819 348.74H497.441C497.293 348.74 497.175 348.695 497.086 348.606C496.997 348.518 496.953 348.399 496.953 348.251V342.009C496.953 341.032 496.812 340.276 496.531 339.743C496.249 339.195 495.879 338.81 495.42 338.588C494.961 338.366 494.465 338.255 493.932 338.255C493.487 338.255 493.036 338.366 492.577 338.588C492.118 338.81 491.733 339.195 491.422 339.743C491.125 340.276 490.977 341.032 490.977 342.009V348.251C490.977 348.399 490.933 348.518 490.844 348.606C490.755 348.695 490.637 348.74 490.489 348.74H490.111C489.963 348.74 489.844 348.695 489.756 348.606C489.667 348.518 489.622 348.399 489.622 348.251V342.009C489.622 341.032 489.474 340.276 489.178 339.743C488.882 339.195 488.504 338.81 488.045 338.588C487.586 338.366 487.105 338.255 486.601 338.255C486.157 338.255 485.705 338.366 485.246 338.588C484.787 338.81 484.402 339.195 484.091 339.743C483.795 340.276 483.647 341.024 483.647 341.987V348.251C483.647 348.399 483.602 348.518 483.514 348.606C483.425 348.695 483.306 348.74 483.158 348.74H482.781ZM501.771 348.74C501.623 348.74 501.505 348.695 501.416 348.606C501.327 348.518 501.283 348.399 501.283 348.251V337.678C501.283 337.529 501.327 337.411 501.416 337.322C501.505 337.233 501.623 337.189 501.771 337.189H502.149C502.297 337.189 502.416 337.233 502.504 337.322C502.593 337.411 502.638 337.529 502.638 337.678V348.251C502.638 348.399 502.593 348.518 502.504 348.606C502.416 348.695 502.297 348.74 502.149 348.74H501.771ZM501.527 334.812C501.379 334.812 501.26 334.768 501.172 334.679C501.083 334.59 501.038 334.471 501.038 334.323V333.479C501.038 333.331 501.083 333.213 501.172 333.124C501.26 333.02 501.379 332.968 501.527 332.968H502.371C502.519 332.968 502.638 333.02 502.727 333.124C502.83 333.213 502.882 333.331 502.882 333.479V334.323C502.882 334.471 502.83 334.59 502.727 334.679C502.638 334.768 502.519 334.812 502.371 334.812H501.527ZM510.094 348.962C509.057 348.962 508.176 348.762 507.45 348.362C506.725 347.947 506.169 347.355 505.784 346.585C505.414 345.815 505.214 344.904 505.185 343.853C505.17 343.631 505.162 343.335 505.162 342.964C505.162 342.594 505.17 342.298 505.185 342.076C505.214 341.01 505.414 340.099 505.784 339.344C506.169 338.573 506.725 337.989 507.45 337.589C508.176 337.174 509.057 336.967 510.094 336.967C510.879 336.967 511.552 337.078 512.115 337.3C512.693 337.507 513.167 337.789 513.537 338.144C513.907 338.485 514.188 338.862 514.381 339.277C514.573 339.692 514.677 340.099 514.692 340.499C514.707 340.647 514.662 340.765 514.559 340.854C514.455 340.943 514.336 340.987 514.203 340.987H513.892C513.744 340.987 513.633 340.958 513.559 340.898C513.5 340.824 513.433 340.699 513.359 340.521C513.048 339.677 512.619 339.092 512.071 338.766C511.538 338.425 510.879 338.255 510.094 338.255C509.087 338.255 508.25 338.566 507.584 339.188C506.932 339.795 506.584 340.795 506.54 342.187C506.51 342.705 506.51 343.223 506.54 343.742C506.584 345.134 506.932 346.141 507.584 346.763C508.25 347.37 509.087 347.674 510.094 347.674C510.879 347.674 511.538 347.511 512.071 347.185C512.619 346.844 513.048 346.252 513.359 345.408C513.433 345.23 513.5 345.112 513.559 345.052C513.633 344.978 513.744 344.941 513.892 344.941H514.203C514.336 344.941 514.455 344.986 514.559 345.075C514.662 345.163 514.707 345.282 514.692 345.43C514.677 345.756 514.61 346.082 514.492 346.407C514.373 346.733 514.188 347.052 513.937 347.363C513.7 347.674 513.403 347.947 513.048 348.184C512.693 348.421 512.263 348.606 511.76 348.74C511.271 348.888 510.716 348.962 510.094 348.962ZM422.477 381.74C422.329 381.74 422.21 381.695 422.121 381.606C422.032 381.518 421.988 381.399 421.988 381.251V366.701C421.988 366.538 422.032 366.413 422.121 366.324C422.21 366.235 422.329 366.19 422.477 366.19H431.14C431.303 366.19 431.429 366.235 431.517 366.324C431.606 366.413 431.651 366.538 431.651 366.701V367.035C431.651 367.183 431.606 367.301 431.517 367.39C431.429 367.479 431.303 367.523 431.14 367.523H423.387V373.188H430.651C430.814 373.188 430.94 373.232 431.029 373.321C431.118 373.41 431.162 373.536 431.162 373.699V374.032C431.162 374.18 431.118 374.298 431.029 374.387C430.94 374.476 430.814 374.52 430.651 374.52H423.387V380.407H431.318C431.48 380.407 431.606 380.451 431.695 380.54C431.784 380.629 431.828 380.755 431.828 380.918V381.251C431.828 381.399 431.784 381.518 431.695 381.606C431.606 381.695 431.48 381.74 431.318 381.74H422.477ZM433.756 381.74C433.638 381.74 433.534 381.695 433.445 381.606C433.357 381.518 433.312 381.414 433.312 381.295C433.312 381.236 433.32 381.177 433.334 381.118C433.364 381.044 433.416 380.955 433.49 380.851L437.399 375.831L433.69 371.077C433.616 370.974 433.564 370.892 433.534 370.833C433.52 370.759 433.512 370.692 433.512 370.633C433.512 370.515 433.557 370.411 433.645 370.322C433.734 370.233 433.838 370.189 433.956 370.189H434.423C434.571 370.189 434.682 370.226 434.756 370.3C434.845 370.374 434.919 370.448 434.978 370.522L438.31 374.809L441.642 370.544C441.716 370.47 441.79 370.396 441.864 370.322C441.938 370.233 442.049 370.189 442.197 370.189H442.642C442.76 370.189 442.864 370.233 442.953 370.322C443.042 370.411 443.086 370.515 443.086 370.633C443.086 370.692 443.071 370.759 443.042 370.833C443.027 370.892 442.982 370.974 442.908 371.077L439.154 375.898L443.064 380.851C443.138 380.955 443.182 381.044 443.197 381.118C443.227 381.177 443.242 381.236 443.242 381.295C443.242 381.414 443.197 381.518 443.108 381.606C443.019 381.695 442.916 381.74 442.797 381.74H442.331C442.183 381.74 442.064 381.703 441.975 381.629C441.901 381.555 441.835 381.481 441.775 381.407L438.266 376.919L434.756 381.407C434.697 381.481 434.623 381.555 434.534 381.629C434.46 381.703 434.349 381.74 434.201 381.74H433.756ZM445.831 385.96C445.683 385.96 445.565 385.916 445.476 385.827C445.387 385.738 445.342 385.62 445.342 385.472V370.678C445.342 370.529 445.387 370.411 445.476 370.322C445.565 370.233 445.683 370.189 445.831 370.189H446.209C446.357 370.189 446.475 370.233 446.564 370.322C446.653 370.411 446.697 370.529 446.697 370.678V371.722C447.068 371.218 447.549 370.803 448.141 370.478C448.748 370.137 449.511 369.967 450.429 369.967C451.303 369.967 452.036 370.122 452.628 370.433C453.221 370.729 453.702 371.129 454.072 371.633C454.442 372.136 454.716 372.699 454.894 373.321C455.072 373.943 455.168 374.58 455.183 375.231C455.198 375.453 455.205 375.698 455.205 375.964C455.205 376.231 455.198 376.475 455.183 376.697C455.168 377.349 455.072 377.986 454.894 378.608C454.716 379.23 454.442 379.792 454.072 380.296C453.702 380.799 453.221 381.207 452.628 381.518C452.036 381.814 451.303 381.962 450.429 381.962C449.511 381.962 448.748 381.792 448.141 381.451C447.549 381.11 447.068 380.696 446.697 380.207V385.472C446.697 385.62 446.653 385.738 446.564 385.827C446.475 385.916 446.357 385.96 446.209 385.96H445.831ZM450.296 380.674C451.17 380.674 451.858 380.481 452.362 380.096C452.865 379.711 453.228 379.207 453.45 378.585C453.672 377.963 453.798 377.297 453.828 376.586C453.843 376.172 453.843 375.757 453.828 375.342C453.798 374.632 453.672 373.965 453.45 373.343C453.228 372.721 452.865 372.218 452.362 371.833C451.858 371.448 451.17 371.255 450.296 371.255C449.452 371.255 448.771 371.455 448.252 371.855C447.734 372.255 447.349 372.758 447.097 373.365C446.86 373.958 446.727 374.557 446.697 375.165C446.683 375.387 446.675 375.676 446.675 376.031C446.675 376.386 446.683 376.675 446.697 376.897C446.712 377.49 446.845 378.075 447.097 378.652C447.364 379.23 447.756 379.711 448.275 380.096C448.808 380.481 449.481 380.674 450.296 380.674ZM462.004 381.962C460.567 381.962 459.427 381.495 458.583 380.562C457.739 379.615 457.257 378.378 457.139 376.853C457.124 376.631 457.117 376.335 457.117 375.964C457.117 375.594 457.124 375.298 457.139 375.076C457.213 374.069 457.45 373.18 457.85 372.41C458.25 371.64 458.797 371.04 459.493 370.611C460.204 370.181 461.041 369.967 462.004 369.967C463.04 369.967 463.921 370.196 464.647 370.655C465.373 371.114 465.928 371.773 466.313 372.632C466.713 373.491 466.913 374.513 466.913 375.698V376.031C466.913 376.179 466.861 376.298 466.757 376.386C466.668 376.475 466.55 376.52 466.402 376.52H458.494C458.494 376.52 458.494 376.549 458.494 376.608C458.494 376.668 458.494 376.712 458.494 376.742C458.523 377.408 458.679 378.045 458.96 378.652C459.242 379.244 459.642 379.733 460.16 380.118C460.678 380.488 461.293 380.674 462.004 380.674C462.64 380.674 463.166 380.577 463.581 380.385C464.01 380.192 464.351 379.985 464.603 379.763C464.854 379.526 465.017 379.348 465.091 379.23C465.224 379.037 465.328 378.926 465.402 378.896C465.476 378.852 465.595 378.83 465.758 378.83H466.113C466.246 378.83 466.357 378.874 466.446 378.963C466.55 379.037 466.594 379.141 466.579 379.274C466.565 379.481 466.446 379.741 466.224 380.052C466.017 380.348 465.713 380.644 465.313 380.94C464.928 381.236 464.454 381.481 463.892 381.673C463.329 381.866 462.7 381.962 462.004 381.962ZM458.494 375.276H465.558V375.187C465.558 374.446 465.417 373.78 465.136 373.188C464.854 372.595 464.447 372.129 463.914 371.788C463.381 371.433 462.744 371.255 462.004 371.255C461.263 371.255 460.626 371.433 460.093 371.788C459.575 372.129 459.175 372.595 458.894 373.188C458.627 373.78 458.494 374.446 458.494 375.187V375.276ZM469.82 381.74C469.672 381.74 469.554 381.695 469.465 381.606C469.376 381.518 469.332 381.399 469.332 381.251V370.7C469.332 370.552 469.376 370.433 469.465 370.344C469.554 370.241 469.672 370.189 469.82 370.189H470.176C470.324 370.189 470.442 370.241 470.531 370.344C470.635 370.433 470.687 370.552 470.687 370.7V371.722C470.953 371.203 471.338 370.818 471.842 370.566C472.345 370.315 472.967 370.189 473.708 370.189H474.53C474.678 370.189 474.796 370.233 474.885 370.322C474.974 370.411 475.018 370.529 475.018 370.678V370.989C475.018 371.137 474.974 371.255 474.885 371.344C474.796 371.433 474.678 371.477 474.53 371.477H473.574C472.686 371.477 471.982 371.736 471.464 372.255C470.946 372.773 470.687 373.476 470.687 374.365V381.251C470.687 381.399 470.635 381.518 470.531 381.606C470.442 381.695 470.324 381.74 470.176 381.74H469.82ZM480.431 381.74C479.661 381.74 479.053 381.577 478.609 381.251C478.165 380.925 477.854 380.481 477.676 379.918C477.499 379.356 477.41 378.726 477.41 378.03V371.477H475.677C475.529 371.477 475.41 371.433 475.322 371.344C475.233 371.255 475.188 371.137 475.188 370.989V370.678C475.188 370.529 475.233 370.411 475.322 370.322C475.41 370.233 475.529 370.189 475.677 370.189H477.41V366.457C477.41 366.309 477.454 366.19 477.543 366.102C477.632 366.013 477.75 365.968 477.898 365.968H478.276C478.424 365.968 478.543 366.013 478.631 366.102C478.72 366.19 478.765 366.309 478.765 366.457V370.189H481.519C481.667 370.189 481.786 370.233 481.875 370.322C481.963 370.411 482.008 370.529 482.008 370.678V370.989C482.008 371.137 481.963 371.255 481.875 371.344C481.786 371.433 481.667 371.477 481.519 371.477H478.765V377.941C478.765 378.726 478.891 379.341 479.142 379.785C479.409 380.229 479.875 380.451 480.542 380.451H481.741C481.889 380.451 482.008 380.496 482.097 380.585C482.186 380.674 482.23 380.792 482.23 380.94V381.251C482.23 381.399 482.186 381.518 482.097 381.606C482.008 381.695 481.889 381.74 481.741 381.74H480.431ZM487.681 381.962C486.91 381.962 486.244 381.858 485.681 381.651C485.133 381.444 484.682 381.199 484.326 380.918C483.971 380.622 483.704 380.333 483.527 380.052C483.364 379.77 483.275 379.555 483.26 379.407C483.245 379.244 483.297 379.126 483.416 379.052C483.534 378.963 483.645 378.919 483.749 378.919H484.082C484.171 378.919 484.245 378.933 484.304 378.963C484.378 378.993 484.467 379.074 484.571 379.207C484.763 379.459 484.985 379.704 485.237 379.94C485.489 380.163 485.807 380.34 486.192 380.474C486.592 380.607 487.088 380.674 487.681 380.674C488.569 380.674 489.302 380.503 489.88 380.163C490.457 379.822 490.746 379.319 490.746 378.652C490.746 378.237 490.627 377.904 490.391 377.653C490.168 377.401 489.783 377.179 489.235 376.986C488.688 376.794 487.947 376.594 487.014 376.386C486.081 376.164 485.363 375.898 484.859 375.587C484.371 375.276 484.038 374.92 483.86 374.52C483.682 374.106 483.593 373.662 483.593 373.188C483.593 372.669 483.741 372.166 484.038 371.677C484.334 371.174 484.771 370.766 485.348 370.455C485.94 370.13 486.681 369.967 487.569 369.967C488.295 369.967 488.91 370.063 489.413 370.255C489.931 370.448 490.353 370.685 490.679 370.966C491.005 371.233 491.242 371.499 491.39 371.766C491.553 372.033 491.642 372.247 491.657 372.41C491.671 372.558 491.627 372.677 491.523 372.766C491.42 372.854 491.301 372.899 491.168 372.899H490.835C490.716 372.899 490.62 372.877 490.546 372.832C490.472 372.773 490.405 372.699 490.346 372.61C490.198 372.373 490.02 372.151 489.813 371.944C489.606 371.736 489.324 371.573 488.969 371.455C488.628 371.322 488.162 371.255 487.569 371.255C486.681 371.255 486.022 371.44 485.592 371.81C485.163 372.166 484.948 372.625 484.948 373.188C484.948 373.513 485.037 373.802 485.215 374.054C485.393 374.291 485.726 374.513 486.214 374.72C486.703 374.913 487.414 375.12 488.347 375.342C489.295 375.55 490.043 375.809 490.59 376.12C491.138 376.416 491.523 376.771 491.746 377.186C491.982 377.601 492.101 378.089 492.101 378.652C492.101 379.244 491.931 379.792 491.59 380.296C491.264 380.799 490.768 381.207 490.102 381.518C489.45 381.814 488.643 381.962 487.681 381.962Z" fill="black"/>
</svg>
