<svg width="730" height="202" viewBox="0 0 730 202" fill="none" xmlns="http://www.w3.org/2000/svg">
<path d="M502.64 44C502.373 44 502.16 43.92 502 43.76C501.84 43.6 501.76 43.3867 501.76 43.12V16.92C501.76 16.6267 501.84 16.4 502 16.24C502.16 16.08 502.373 16 502.64 16H511.16C513.987 16 516.2 16.4133 517.8 17.24C519.4 18.0667 520.533 19.2933 521.2 20.92C521.893 22.52 522.253 24.48 522.28 26.8C522.307 28 522.32 29.0667 522.32 30C522.32 30.9067 522.307 31.96 522.28 33.16C522.227 35.6133 521.867 37.64 521.2 39.24C520.533 40.84 519.413 42.04 517.84 42.84C516.267 43.6133 514.107 44 511.36 44H502.64ZM504.28 41.6H511.16C513.293 41.6 514.973 41.32 516.2 40.76C517.453 40.1733 518.347 39.2533 518.88 38C519.44 36.72 519.733 35.04 519.76 32.96C519.787 32.16 519.8 31.4667 519.8 30.88C519.8 30.2667 519.8 29.6667 519.8 29.08C519.8 28.4933 519.787 27.8 519.76 27C519.707 24.0667 519.027 21.9067 517.72 20.52C516.413 19.1067 514.16 18.4 510.96 18.4H504.28V41.6ZM528.27 44C528.004 44 527.79 43.92 527.63 43.76C527.47 43.6 527.39 43.3867 527.39 43.12V24.08C527.39 23.8133 527.47 23.6 527.63 23.44C527.79 23.28 528.004 23.2 528.27 23.2H528.95C529.217 23.2 529.43 23.28 529.59 23.44C529.75 23.6 529.83 23.8133 529.83 24.08V43.12C529.83 43.3867 529.75 43.6 529.59 43.76C529.43 43.92 529.217 44 528.95 44H528.27ZM527.83 18.92C527.564 18.92 527.35 18.84 527.19 18.68C527.03 18.52 526.95 18.3067 526.95 18.04V16.52C526.95 16.2533 527.03 16.04 527.19 15.88C527.35 15.6933 527.564 15.6 527.83 15.6H529.35C529.617 15.6 529.83 15.6933 529.99 15.88C530.177 16.04 530.27 16.2533 530.27 16.52V18.04C530.27 18.3067 530.177 18.52 529.99 18.68C529.83 18.84 529.617 18.92 529.35 18.92H527.83ZM541.977 44.4C540.59 44.4 539.39 44.2133 538.377 43.84C537.39 43.4667 536.577 43.0267 535.937 42.52C535.297 41.9867 534.817 41.4667 534.497 40.96C534.203 40.4533 534.043 40.0667 534.017 39.8C533.99 39.5067 534.083 39.2933 534.297 39.16C534.51 39 534.71 38.92 534.897 38.92H535.497C535.657 38.92 535.79 38.9467 535.897 39C536.03 39.0533 536.19 39.2 536.377 39.44C536.723 39.8933 537.123 40.3333 537.577 40.76C538.03 41.16 538.603 41.48 539.297 41.72C540.017 41.96 540.91 42.08 541.977 42.08C543.577 42.08 544.897 41.7733 545.937 41.16C546.977 40.5467 547.497 39.64 547.497 38.44C547.497 37.6933 547.283 37.0933 546.857 36.64C546.457 36.1867 545.763 35.7867 544.777 35.44C543.79 35.0933 542.457 34.7333 540.777 34.36C539.097 33.96 537.803 33.48 536.897 32.92C536.017 32.36 535.417 31.72 535.097 31C534.777 30.2533 534.617 29.4533 534.617 28.6C534.617 27.6667 534.883 26.76 535.417 25.88C535.95 24.9733 536.737 24.24 537.777 23.68C538.843 23.0933 540.177 22.8 541.777 22.8C543.083 22.8 544.19 22.9733 545.097 23.32C546.03 23.6667 546.79 24.0933 547.377 24.6C547.963 25.08 548.39 25.56 548.657 26.04C548.95 26.52 549.11 26.9067 549.137 27.2C549.163 27.4667 549.083 27.68 548.897 27.84C548.71 28 548.497 28.08 548.257 28.08H547.657C547.443 28.08 547.27 28.04 547.137 27.96C547.003 27.8533 546.883 27.72 546.777 27.56C546.51 27.1333 546.19 26.7333 545.817 26.36C545.443 25.9867 544.937 25.6933 544.297 25.48C543.683 25.24 542.843 25.12 541.777 25.12C540.177 25.12 538.99 25.4533 538.217 26.12C537.443 26.76 537.057 27.5867 537.057 28.6C537.057 29.1867 537.217 29.7067 537.537 30.16C537.857 30.5867 538.457 30.9867 539.337 31.36C540.217 31.7067 541.497 32.08 543.177 32.48C544.883 32.8533 546.23 33.32 547.217 33.88C548.203 34.4133 548.897 35.0533 549.297 35.8C549.723 36.5467 549.937 37.4267 549.937 38.44C549.937 39.5067 549.63 40.4933 549.017 41.4C548.43 42.3067 547.537 43.04 546.337 43.6C545.163 44.1333 543.71 44.4 541.977 44.4ZM562.024 44.4C560.157 44.4 558.571 44.04 557.264 43.32C555.957 42.5733 554.957 41.5067 554.264 40.12C553.597 38.7333 553.237 37.0933 553.184 35.2C553.157 34.8 553.144 34.2667 553.144 33.6C553.144 32.9333 553.157 32.4 553.184 32C553.237 30.08 553.597 28.44 554.264 27.08C554.957 25.6933 555.957 24.64 557.264 23.92C558.571 23.1733 560.157 22.8 562.024 22.8C563.437 22.8 564.651 23 565.664 23.4C566.704 23.7733 567.557 24.28 568.224 24.92C568.891 25.5333 569.397 26.2133 569.744 26.96C570.091 27.7067 570.277 28.44 570.304 29.16C570.331 29.4267 570.251 29.64 570.064 29.8C569.877 29.96 569.664 30.04 569.424 30.04H568.864C568.597 30.04 568.397 29.9867 568.264 29.88C568.157 29.7467 568.037 29.52 567.904 29.2C567.344 27.68 566.571 26.6267 565.584 26.04C564.624 25.4267 563.437 25.12 562.024 25.12C560.211 25.12 558.704 25.68 557.504 26.8C556.331 27.8933 555.704 29.6933 555.624 32.2C555.571 33.1333 555.571 34.0667 555.624 35C555.704 37.5067 556.331 39.32 557.504 40.44C558.704 41.5333 560.211 42.08 562.024 42.08C563.437 42.08 564.624 41.7867 565.584 41.2C566.571 40.5867 567.344 39.52 567.904 38C568.037 37.68 568.157 37.4667 568.264 37.36C568.397 37.2267 568.597 37.16 568.864 37.16H569.424C569.664 37.16 569.877 37.24 570.064 37.4C570.251 37.56 570.331 37.7733 570.304 38.04C570.277 38.6267 570.157 39.2133 569.944 39.8C569.731 40.3867 569.397 40.96 568.944 41.52C568.517 42.08 567.984 42.5733 567.344 43C566.704 43.4267 565.931 43.76 565.024 44C564.144 44.2667 563.144 44.4 562.024 44.4ZM582.589 44.4C580.669 44.4 579.056 44 577.749 43.2C576.469 42.4 575.483 41.3067 574.789 39.92C574.123 38.5333 573.763 36.9867 573.709 35.28C573.683 34.88 573.669 34.32 573.669 33.6C573.669 32.88 573.683 32.32 573.709 31.92C573.763 30.1867 574.123 28.64 574.789 27.28C575.483 25.8933 576.469 24.8 577.749 24C579.056 23.2 580.669 22.8 582.589 22.8C584.509 22.8 586.109 23.2 587.389 24C588.696 24.8 589.683 25.8933 590.349 27.28C591.043 28.64 591.416 30.1867 591.469 31.92C591.496 32.32 591.509 32.88 591.509 33.6C591.509 34.32 591.496 34.88 591.469 35.28C591.416 36.9867 591.043 38.5333 590.349 39.92C589.683 41.3067 588.696 42.4 587.389 43.2C586.109 44 584.509 44.4 582.589 44.4ZM582.589 42.08C584.456 42.08 585.976 41.48 587.149 40.28C588.323 39.08 588.949 37.3467 589.029 35.08C589.056 34.68 589.069 34.1867 589.069 33.6C589.069 33.0133 589.056 32.52 589.029 32.12C588.949 29.8267 588.323 28.0933 587.149 26.92C585.976 25.72 584.456 25.12 582.589 25.12C580.723 25.12 579.203 25.72 578.029 26.92C576.856 28.0933 576.229 29.8267 576.149 32.12C576.123 32.52 576.109 33.0133 576.109 33.6C576.109 34.1867 576.123 34.68 576.149 35.08C576.229 37.3467 576.856 39.08 578.029 40.28C579.203 41.48 580.723 42.08 582.589 42.08ZM602.511 44C602.084 44 601.751 43.9067 601.511 43.72C601.298 43.5333 601.124 43.2933 600.991 43L593.631 24.44C593.578 24.28 593.551 24.1333 593.551 24C593.551 23.7867 593.631 23.6 593.791 23.44C593.951 23.28 594.138 23.2 594.351 23.2H595.191C595.458 23.2 595.658 23.28 595.791 23.44C595.951 23.5733 596.044 23.6933 596.071 23.8L602.831 41.08L609.591 23.8C609.644 23.6933 609.738 23.5733 609.871 23.44C610.004 23.28 610.204 23.2 610.471 23.2H611.311C611.524 23.2 611.711 23.28 611.871 23.44C612.031 23.6 612.111 23.7867 612.111 24C612.111 24.1333 612.084 24.28 612.031 24.44L604.671 43C604.564 43.2933 604.391 43.5333 604.151 43.72C603.911 43.9067 603.578 44 603.151 44H602.511ZM622.893 44.4C620.306 44.4 618.253 43.56 616.733 41.88C615.213 40.1733 614.346 37.9467 614.133 35.2C614.106 34.8 614.093 34.2667 614.093 33.6C614.093 32.9333 614.106 32.4 614.133 32C614.266 30.1867 614.693 28.5867 615.413 27.2C616.133 25.8133 617.12 24.7333 618.373 23.96C619.653 23.1867 621.16 22.8 622.893 22.8C624.76 22.8 626.346 23.2133 627.653 24.04C628.96 24.8667 629.96 26.0533 630.653 27.6C631.373 29.1467 631.733 30.9867 631.733 33.12V33.72C631.733 33.9867 631.64 34.2 631.453 34.36C631.293 34.52 631.08 34.6 630.813 34.6H616.573C616.573 34.6 616.573 34.6533 616.573 34.76C616.573 34.8667 616.573 34.9467 616.573 35C616.626 36.2 616.906 37.3467 617.413 38.44C617.92 39.5067 618.64 40.3867 619.573 41.08C620.506 41.7467 621.613 42.08 622.893 42.08C624.04 42.08 624.986 41.9067 625.733 41.56C626.506 41.2133 627.12 40.84 627.573 40.44C628.026 40.0133 628.32 39.6933 628.453 39.48C628.693 39.1333 628.88 38.9333 629.013 38.88C629.146 38.8 629.36 38.76 629.653 38.76H630.293C630.533 38.76 630.733 38.84 630.893 39C631.08 39.1333 631.16 39.32 631.133 39.56C631.106 39.9333 630.893 40.4 630.493 40.96C630.12 41.4933 629.573 42.0267 628.853 42.56C628.16 43.0933 627.306 43.5333 626.293 43.88C625.28 44.2267 624.146 44.4 622.893 44.4ZM616.573 32.36H629.293V32.2C629.293 30.8667 629.04 29.6667 628.533 28.6C628.026 27.5333 627.293 26.6933 626.333 26.08C625.373 25.44 624.226 25.12 622.893 25.12C621.56 25.12 620.413 25.44 619.453 26.08C618.52 26.6933 617.8 27.5333 617.293 28.6C616.813 29.6667 616.573 30.8667 616.573 32.2V32.36ZM636.969 44C636.702 44 636.489 43.92 636.329 43.76C636.169 43.6 636.089 43.3867 636.089 43.12V24.12C636.089 23.8533 636.169 23.64 636.329 23.48C636.489 23.2933 636.702 23.2 636.969 23.2H637.609C637.876 23.2 638.089 23.2933 638.249 23.48C638.436 23.64 638.529 23.8533 638.529 24.12V25.96C639.009 25.0267 639.702 24.3333 640.609 23.88C641.516 23.4267 642.636 23.2 643.969 23.2H645.449C645.716 23.2 645.929 23.28 646.089 23.44C646.249 23.6 646.329 23.8133 646.329 24.08V24.64C646.329 24.9067 646.249 25.12 646.089 25.28C645.929 25.44 645.716 25.52 645.449 25.52H643.729C642.129 25.52 640.862 25.9867 639.929 26.92C638.996 27.8533 638.529 29.12 638.529 30.72V43.12C638.529 43.3867 638.436 43.6 638.249 43.76C638.089 43.92 637.876 44 637.609 44H636.969ZM652.595 51.6C652.382 51.6 652.195 51.52 652.035 51.36C651.875 51.2 651.795 51.0133 651.795 50.8C651.795 50.6933 651.809 50.5733 651.835 50.44C651.889 50.3333 651.955 50.1867 652.035 50L655.115 42.8L647.475 24.8C647.315 24.4 647.235 24.1333 647.235 24C647.235 23.7867 647.315 23.6 647.475 23.44C647.635 23.28 647.822 23.2 648.035 23.2H648.875C649.142 23.2 649.342 23.2667 649.475 23.4C649.635 23.5067 649.742 23.64 649.795 23.8L656.515 39.64L663.395 23.8C663.475 23.64 663.582 23.5067 663.715 23.4C663.849 23.2667 664.049 23.2 664.315 23.2H665.115C665.329 23.2 665.515 23.28 665.675 23.44C665.835 23.6 665.915 23.7867 665.915 24C665.915 24.1333 665.835 24.4 665.675 24.8L654.315 51C654.235 51.16 654.129 51.2933 653.995 51.4C653.862 51.5333 653.662 51.6 653.395 51.6H652.595Z" fill="#FEE171"/>
<path d="M511.24 120.4C509.027 120.4 507.147 120.013 505.6 119.24C504.053 118.44 502.867 117.227 502.04 115.6C501.213 113.947 500.76 111.867 500.68 109.36C500.653 108.16 500.64 107.04 500.64 106C500.64 104.96 500.653 103.84 500.68 102.64C500.76 100.16 501.24 98.1067 502.12 96.48C503 94.8267 504.213 93.6 505.76 92.8C507.333 92 509.16 91.6 511.24 91.6C513.32 91.6 515.133 92 516.68 92.8C518.253 93.6 519.48 94.8267 520.36 96.48C521.267 98.1067 521.747 100.16 521.8 102.64C521.853 103.84 521.88 104.96 521.88 106C521.88 107.04 521.853 108.16 521.8 109.36C521.747 111.867 521.293 113.947 520.44 115.6C519.613 117.227 518.427 118.44 516.88 119.24C515.333 120.013 513.453 120.4 511.24 120.4ZM511.24 118C513.533 118 515.413 117.307 516.88 115.92C518.373 114.533 519.173 112.28 519.28 109.16C519.333 107.96 519.36 106.907 519.36 106C519.36 105.093 519.333 104.04 519.28 102.84C519.227 100.76 518.84 99.0667 518.12 97.76C517.427 96.4533 516.48 95.5067 515.28 94.92C514.107 94.3067 512.76 94 511.24 94C509.747 94 508.4 94.3067 507.2 94.92C506.027 95.5067 505.08 96.4533 504.36 97.76C503.667 99.0667 503.28 100.76 503.2 102.84C503.173 104.04 503.16 105.093 503.16 106C503.16 106.907 503.173 107.96 503.2 109.16C503.307 112.28 504.107 114.533 505.6 115.92C507.093 117.307 508.973 118 511.24 118ZM527.684 120C527.418 120 527.204 119.92 527.044 119.76C526.884 119.6 526.804 119.387 526.804 119.12V100.08C526.804 99.8133 526.884 99.6 527.044 99.44C527.204 99.28 527.418 99.2 527.684 99.2H528.364C528.631 99.2 528.844 99.28 529.004 99.44C529.164 99.6 529.244 99.8133 529.244 100.08V101.96C529.964 101.027 530.831 100.267 531.844 99.68C532.884 99.0933 534.258 98.8 535.964 98.8C537.778 98.8 539.284 99.2 540.484 100C541.711 100.773 542.618 101.84 543.204 103.2C543.818 104.533 544.124 106.053 544.124 107.76V119.12C544.124 119.387 544.044 119.6 543.884 119.76C543.724 119.92 543.511 120 543.244 120H542.564C542.298 120 542.084 119.92 541.924 119.76C541.764 119.6 541.684 119.387 541.684 119.12V107.96C541.684 105.827 541.164 104.16 540.124 102.96C539.084 101.733 537.564 101.12 535.564 101.12C533.671 101.12 532.138 101.733 530.964 102.96C529.818 104.16 529.244 105.827 529.244 107.96V119.12C529.244 119.387 529.164 119.6 529.004 119.76C528.844 119.92 528.631 120 528.364 120H527.684ZM558.678 120.4C557.025 120.4 555.651 120.107 554.558 119.52C553.491 118.907 552.625 118.147 551.958 117.24V119.12C551.958 119.387 551.878 119.6 551.718 119.76C551.558 119.92 551.345 120 551.078 120H550.398C550.131 120 549.918 119.92 549.758 119.76C549.598 119.6 549.518 119.387 549.518 119.12V92.48C549.518 92.2133 549.598 92 549.758 91.84C549.918 91.68 550.131 91.6 550.398 91.6H551.078C551.345 91.6 551.558 91.68 551.718 91.84C551.878 92 551.958 92.2133 551.958 92.48V101.96C552.625 101.08 553.491 100.333 554.558 99.72C555.651 99.1067 557.025 98.8 558.678 98.8C560.251 98.8 561.571 99.08 562.638 99.64C563.705 100.2 564.571 100.947 565.238 101.88C565.905 102.813 566.398 103.853 566.718 105C567.038 106.147 567.211 107.307 567.238 108.48C567.265 108.88 567.278 109.253 567.278 109.6C567.278 109.947 567.265 110.32 567.238 110.72C567.211 111.893 567.038 113.053 566.718 114.2C566.398 115.347 565.905 116.387 565.238 117.32C564.571 118.253 563.705 119 562.638 119.56C561.571 120.12 560.251 120.4 558.678 120.4ZM558.438 118.08C560.011 118.08 561.251 117.733 562.158 117.04C563.065 116.347 563.718 115.44 564.118 114.32C564.518 113.2 564.745 112 564.798 110.72C564.825 109.973 564.825 109.227 564.798 108.48C564.745 107.2 564.518 106 564.118 104.88C563.718 103.76 563.065 102.853 562.158 102.16C561.251 101.467 560.011 101.12 558.438 101.12C556.971 101.12 555.758 101.467 554.798 102.16C553.865 102.853 553.158 103.72 552.678 104.76C552.225 105.8 551.985 106.853 551.958 107.92C551.931 108.32 551.918 108.84 551.918 109.48C551.918 110.12 551.931 110.64 551.958 111.04C552.011 112.133 552.251 113.227 552.678 114.32C553.131 115.387 553.825 116.28 554.758 117C555.691 117.72 556.918 118.08 558.438 118.08ZM579.681 120.4C577.761 120.4 576.148 120 574.841 119.2C573.561 118.4 572.575 117.307 571.881 115.92C571.215 114.533 570.855 112.987 570.801 111.28C570.775 110.88 570.761 110.32 570.761 109.6C570.761 108.88 570.775 108.32 570.801 107.92C570.855 106.187 571.215 104.64 571.881 103.28C572.575 101.893 573.561 100.8 574.841 100C576.148 99.2 577.761 98.8 579.681 98.8C581.601 98.8 583.201 99.2 584.481 100C585.788 100.8 586.775 101.893 587.441 103.28C588.135 104.64 588.508 106.187 588.561 107.92C588.588 108.32 588.601 108.88 588.601 109.6C588.601 110.32 588.588 110.88 588.561 111.28C588.508 112.987 588.135 114.533 587.441 115.92C586.775 117.307 585.788 118.4 584.481 119.2C583.201 120 581.601 120.4 579.681 120.4ZM579.681 118.08C581.548 118.08 583.068 117.48 584.241 116.28C585.415 115.08 586.041 113.347 586.121 111.08C586.148 110.68 586.161 110.187 586.161 109.6C586.161 109.013 586.148 108.52 586.121 108.12C586.041 105.827 585.415 104.093 584.241 102.92C583.068 101.72 581.548 101.12 579.681 101.12C577.815 101.12 576.295 101.72 575.121 102.92C573.948 104.093 573.321 105.827 573.241 108.12C573.215 108.52 573.201 109.013 573.201 109.6C573.201 110.187 573.215 110.68 573.241 111.08C573.321 113.347 573.948 115.08 575.121 116.28C576.295 117.48 577.815 118.08 579.681 118.08ZM598.746 120.4C597.466 120.4 596.279 120.133 595.186 119.6C594.119 119.067 593.253 118.36 592.586 117.48C591.919 116.573 591.586 115.56 591.586 114.44C591.586 112.627 592.319 111.173 593.786 110.08C595.253 108.987 597.159 108.28 599.506 107.96L605.826 107.08V105.68C605.826 104.267 605.386 103.16 604.506 102.36C603.653 101.533 602.279 101.12 600.386 101.12C598.999 101.12 597.879 101.4 597.026 101.96C596.173 102.493 595.586 103.2 595.266 104.08C595.133 104.48 594.879 104.68 594.506 104.68H593.866C593.546 104.68 593.319 104.6 593.186 104.44C593.053 104.253 592.986 104.04 592.986 103.8C592.986 103.427 593.119 102.96 593.386 102.4C593.679 101.84 594.119 101.293 594.706 100.76C595.293 100.2 596.053 99.7333 596.986 99.36C597.919 98.9867 599.053 98.8 600.386 98.8C601.959 98.8 603.253 99.0133 604.266 99.44C605.306 99.8667 606.106 100.427 606.666 101.12C607.253 101.787 607.666 102.533 607.906 103.36C608.146 104.187 608.266 105 608.266 105.8V119.12C608.266 119.387 608.186 119.6 608.026 119.76C607.866 119.92 607.653 120 607.386 120H606.706C606.439 120 606.226 119.92 606.066 119.76C605.906 119.6 605.826 119.387 605.826 119.12V117.24C605.506 117.72 605.053 118.2 604.466 118.68C603.879 119.16 603.119 119.573 602.186 119.92C601.279 120.24 600.133 120.4 598.746 120.4ZM599.146 118.08C600.373 118.08 601.493 117.813 602.506 117.28C603.519 116.747 604.319 115.933 604.906 114.84C605.519 113.72 605.826 112.32 605.826 110.64V109.28L600.666 110C598.479 110.293 596.826 110.8 595.706 111.52C594.586 112.24 594.026 113.147 594.026 114.24C594.026 115.12 594.279 115.84 594.786 116.4C595.293 116.96 595.933 117.387 596.706 117.68C597.506 117.947 598.319 118.08 599.146 118.08ZM614.551 120C614.285 120 614.071 119.92 613.911 119.76C613.751 119.6 613.671 119.387 613.671 119.12V100.12C613.671 99.8533 613.751 99.64 613.911 99.48C614.071 99.2933 614.285 99.2 614.551 99.2H615.191C615.458 99.2 615.671 99.2933 615.831 99.48C616.018 99.64 616.111 99.8533 616.111 100.12V101.96C616.591 101.027 617.285 100.333 618.191 99.88C619.098 99.4267 620.218 99.2 621.551 99.2H623.031C623.298 99.2 623.511 99.28 623.671 99.44C623.831 99.6 623.911 99.8133 623.911 100.08V100.64C623.911 100.907 623.831 101.12 623.671 101.28C623.511 101.44 623.298 101.52 623.031 101.52H621.311C619.711 101.52 618.445 101.987 617.511 102.92C616.578 103.853 616.111 105.12 616.111 106.72V119.12C616.111 119.387 616.018 119.6 615.831 119.76C615.671 119.92 615.458 120 615.191 120H614.551ZM633.67 120.4C632.123 120.4 630.803 120.12 629.71 119.56C628.643 119 627.776 118.253 627.11 117.32C626.443 116.387 625.95 115.347 625.63 114.2C625.336 113.053 625.163 111.893 625.11 110.72C625.083 110.32 625.07 109.947 625.07 109.6C625.07 109.253 625.083 108.88 625.11 108.48C625.163 107.307 625.336 106.147 625.63 105C625.95 103.853 626.443 102.813 627.11 101.88C627.776 100.947 628.643 100.2 629.71 99.64C630.803 99.08 632.123 98.8 633.67 98.8C635.323 98.8 636.683 99.1067 637.75 99.72C638.843 100.333 639.723 101.08 640.39 101.96V92.48C640.39 92.2133 640.47 92 640.63 91.84C640.79 91.68 641.003 91.6 641.27 91.6H641.95C642.216 91.6 642.43 91.68 642.59 91.84C642.75 92 642.83 92.2133 642.83 92.48V119.12C642.83 119.387 642.75 119.6 642.59 119.76C642.43 119.92 642.216 120 641.95 120H641.27C641.003 120 640.79 119.92 640.63 119.76C640.47 119.6 640.39 119.387 640.39 119.12V117.24C639.723 118.147 638.843 118.907 637.75 119.52C636.683 120.107 635.323 120.4 633.67 120.4ZM633.91 118.08C635.43 118.08 636.656 117.72 637.59 117C638.523 116.28 639.216 115.387 639.67 114.32C640.123 113.227 640.363 112.133 640.39 111.04C640.416 110.64 640.43 110.12 640.43 109.48C640.43 108.84 640.416 108.32 640.39 107.92C640.363 106.853 640.11 105.8 639.63 104.76C639.176 103.72 638.483 102.853 637.55 102.16C636.616 101.467 635.403 101.12 633.91 101.12C632.363 101.12 631.123 101.467 630.19 102.16C629.283 102.853 628.63 103.76 628.23 104.88C627.83 106 627.603 107.2 627.55 108.48C627.523 109.227 627.523 109.973 627.55 110.72C627.603 112 627.83 113.2 628.23 114.32C628.63 115.44 629.283 116.347 630.19 117.04C631.123 117.733 632.363 118.08 633.91 118.08ZM649.313 120C649.046 120 648.833 119.92 648.673 119.76C648.513 119.6 648.433 119.387 648.433 119.12V100.08C648.433 99.8133 648.513 99.6 648.673 99.44C648.833 99.28 649.046 99.2 649.313 99.2H649.993C650.259 99.2 650.473 99.28 650.633 99.44C650.793 99.6 650.873 99.8133 650.873 100.08V119.12C650.873 119.387 650.793 119.6 650.633 119.76C650.473 119.92 650.259 120 649.993 120H649.313ZM648.873 94.92C648.606 94.92 648.393 94.84 648.233 94.68C648.073 94.52 647.993 94.3067 647.993 94.04V92.52C647.993 92.2533 648.073 92.04 648.233 91.88C648.393 91.6933 648.606 91.6 648.873 91.6H650.393C650.659 91.6 650.873 91.6933 651.033 91.88C651.219 92.04 651.313 92.2533 651.313 92.52V94.04C651.313 94.3067 651.219 94.52 651.033 94.68C650.873 94.84 650.659 94.92 650.393 94.92H648.873ZM657.299 120C657.032 120 656.819 119.92 656.659 119.76C656.499 119.6 656.419 119.387 656.419 119.12V100.08C656.419 99.8133 656.499 99.6 656.659 99.44C656.819 99.28 657.032 99.2 657.299 99.2H657.979C658.246 99.2 658.459 99.28 658.619 99.44C658.779 99.6 658.859 99.8133 658.859 100.08V101.96C659.579 101.027 660.446 100.267 661.459 99.68C662.499 99.0933 663.872 98.8 665.579 98.8C667.392 98.8 668.899 99.2 670.099 100C671.326 100.773 672.232 101.84 672.819 103.2C673.432 104.533 673.739 106.053 673.739 107.76V119.12C673.739 119.387 673.659 119.6 673.499 119.76C673.339 119.92 673.126 120 672.859 120H672.179C671.912 120 671.699 119.92 671.539 119.76C671.379 119.6 671.299 119.387 671.299 119.12V107.96C671.299 105.827 670.779 104.16 669.739 102.96C668.699 101.733 667.179 101.12 665.179 101.12C663.286 101.12 661.752 101.733 660.579 102.96C659.432 104.16 658.859 105.827 658.859 107.96V119.12C658.859 119.387 658.779 119.6 658.619 119.76C658.459 119.92 658.246 120 657.979 120H657.299ZM686.853 128.8C685.146 128.8 683.746 128.573 682.653 128.12C681.586 127.667 680.746 127.107 680.133 126.44C679.546 125.8 679.133 125.147 678.893 124.48C678.653 123.84 678.519 123.32 678.493 122.92C678.466 122.653 678.546 122.427 678.733 122.24C678.919 122.08 679.133 122 679.373 122H679.933C680.146 122 680.333 122.04 680.493 122.12C680.653 122.227 680.786 122.467 680.893 122.84C681.053 123.267 681.306 123.76 681.653 124.32C682.026 124.907 682.599 125.413 683.373 125.84C684.173 126.267 685.266 126.48 686.653 126.48C688.119 126.48 689.346 126.293 690.333 125.92C691.319 125.547 692.066 124.88 692.573 123.92C693.106 122.987 693.373 121.68 693.373 120V117.24C692.706 118.147 691.826 118.907 690.733 119.52C689.666 120.107 688.306 120.4 686.653 120.4C685.106 120.4 683.786 120.12 682.693 119.56C681.626 119 680.759 118.253 680.093 117.32C679.426 116.387 678.933 115.347 678.613 114.2C678.293 113.053 678.119 111.893 678.093 110.72C678.066 109.973 678.066 109.227 678.093 108.48C678.119 107.307 678.293 106.147 678.613 105C678.933 103.853 679.426 102.813 680.093 101.88C680.759 100.947 681.626 100.2 682.693 99.64C683.786 99.08 685.106 98.8 686.653 98.8C688.306 98.8 689.666 99.1067 690.733 99.72C691.826 100.333 692.706 101.08 693.373 101.96V100.12C693.373 99.8533 693.453 99.64 693.613 99.48C693.773 99.2933 693.986 99.2 694.253 99.2H694.893C695.159 99.2 695.373 99.2933 695.533 99.48C695.719 99.64 695.813 99.8533 695.813 100.12V119.6C695.813 121.307 695.559 122.853 695.053 124.24C694.546 125.627 693.639 126.733 692.333 127.56C691.053 128.387 689.226 128.8 686.853 128.8ZM686.893 118.08C688.413 118.08 689.639 117.72 690.573 117C691.506 116.28 692.186 115.387 692.613 114.32C693.066 113.227 693.319 112.133 693.373 111.04C693.399 110.64 693.413 110.16 693.413 109.6C693.413 109.04 693.399 108.56 693.373 108.16C693.319 107.067 693.066 105.987 692.613 104.92C692.186 103.827 691.506 102.92 690.573 102.2C689.639 101.48 688.413 101.12 686.893 101.12C685.346 101.12 684.106 101.467 683.173 102.16C682.266 102.853 681.613 103.76 681.213 104.88C680.813 106 680.586 107.2 680.533 108.48C680.506 109.227 680.506 109.973 680.533 110.72C680.586 112 680.813 113.2 681.213 114.32C681.613 115.44 682.266 116.347 683.173 117.04C684.106 117.733 685.346 118.08 686.893 118.08Z" fill="#FEE171"/>
<path d="M511.24 193.4C509.027 193.4 507.147 193.013 505.6 192.24C504.053 191.44 502.867 190.227 502.04 188.6C501.213 186.947 500.76 184.867 500.68 182.36C500.653 181.16 500.64 180.04 500.64 179C500.64 177.96 500.653 176.84 500.68 175.64C500.76 173.16 501.24 171.107 502.12 169.48C503 167.827 504.213 166.6 505.76 165.8C507.333 165 509.16 164.6 511.24 164.6C513.32 164.6 515.133 165 516.68 165.8C518.253 166.6 519.48 167.827 520.36 169.48C521.267 171.107 521.747 173.16 521.8 175.64C521.853 176.84 521.88 177.96 521.88 179C521.88 180.04 521.853 181.16 521.8 182.36C521.747 184.867 521.293 186.947 520.44 188.6C519.613 190.227 518.427 191.44 516.88 192.24C515.333 193.013 513.453 193.4 511.24 193.4ZM511.24 191C513.533 191 515.413 190.307 516.88 188.92C518.373 187.533 519.173 185.28 519.28 182.16C519.333 180.96 519.36 179.907 519.36 179C519.36 178.093 519.333 177.04 519.28 175.84C519.227 173.76 518.84 172.067 518.12 170.76C517.427 169.453 516.48 168.507 515.28 167.92C514.107 167.307 512.76 167 511.24 167C509.747 167 508.4 167.307 507.2 167.92C506.027 168.507 505.08 169.453 504.36 170.76C503.667 172.067 503.28 173.76 503.2 175.84C503.173 177.04 503.16 178.093 503.16 179C503.16 179.907 503.173 180.96 503.2 182.16C503.307 185.28 504.107 187.533 505.6 188.92C507.093 190.307 508.973 191 511.24 191ZM527.684 193C527.418 193 527.204 192.92 527.044 192.76C526.884 192.6 526.804 192.387 526.804 192.12V173.08C526.804 172.813 526.884 172.6 527.044 172.44C527.204 172.28 527.418 172.2 527.684 172.2H528.364C528.631 172.2 528.844 172.28 529.004 172.44C529.164 172.6 529.244 172.813 529.244 173.08V174.96C529.964 174.027 530.831 173.267 531.844 172.68C532.884 172.093 534.258 171.8 535.964 171.8C537.778 171.8 539.284 172.2 540.484 173C541.711 173.773 542.618 174.84 543.204 176.2C543.818 177.533 544.124 179.053 544.124 180.76V192.12C544.124 192.387 544.044 192.6 543.884 192.76C543.724 192.92 543.511 193 543.244 193H542.564C542.298 193 542.084 192.92 541.924 192.76C541.764 192.6 541.684 192.387 541.684 192.12V180.96C541.684 178.827 541.164 177.16 540.124 175.96C539.084 174.733 537.564 174.12 535.564 174.12C533.671 174.12 532.138 174.733 530.964 175.96C529.818 177.16 529.244 178.827 529.244 180.96V192.12C529.244 192.387 529.164 192.6 529.004 192.76C528.844 192.92 528.631 193 528.364 193H527.684ZM550.078 182.16C549.811 182.16 549.598 182.08 549.438 181.92C549.278 181.76 549.198 181.547 549.198 181.28V180.72C549.198 180.453 549.278 180.24 549.438 180.08C549.598 179.92 549.811 179.84 550.078 179.84H561.878C562.145 179.84 562.358 179.92 562.518 180.08C562.678 180.24 562.758 180.453 562.758 180.72V181.28C562.758 181.547 562.678 181.76 562.518 181.92C562.358 182.08 562.145 182.16 561.878 182.16H550.078ZM575.81 201.8C574.104 201.8 572.704 201.573 571.61 201.12C570.544 200.667 569.704 200.107 569.09 199.44C568.504 198.8 568.09 198.147 567.85 197.48C567.61 196.84 567.477 196.32 567.45 195.92C567.424 195.653 567.504 195.427 567.69 195.24C567.877 195.08 568.09 195 568.33 195H568.89C569.104 195 569.29 195.04 569.45 195.12C569.61 195.227 569.744 195.467 569.85 195.84C570.01 196.267 570.264 196.76 570.61 197.32C570.984 197.907 571.557 198.413 572.33 198.84C573.13 199.267 574.224 199.48 575.61 199.48C577.077 199.48 578.304 199.293 579.29 198.92C580.277 198.547 581.024 197.88 581.53 196.92C582.064 195.987 582.33 194.68 582.33 193V190.24C581.664 191.147 580.784 191.907 579.69 192.52C578.624 193.107 577.264 193.4 575.61 193.4C574.064 193.4 572.744 193.12 571.65 192.56C570.584 192 569.717 191.253 569.05 190.32C568.384 189.387 567.89 188.347 567.57 187.2C567.25 186.053 567.077 184.893 567.05 183.72C567.024 182.973 567.024 182.227 567.05 181.48C567.077 180.307 567.25 179.147 567.57 178C567.89 176.853 568.384 175.813 569.05 174.88C569.717 173.947 570.584 173.2 571.65 172.64C572.744 172.08 574.064 171.8 575.61 171.8C577.264 171.8 578.624 172.107 579.69 172.72C580.784 173.333 581.664 174.08 582.33 174.96V173.12C582.33 172.853 582.41 172.64 582.57 172.48C582.73 172.293 582.944 172.2 583.21 172.2H583.85C584.117 172.2 584.33 172.293 584.49 172.48C584.677 172.64 584.77 172.853 584.77 173.12V192.6C584.77 194.307 584.517 195.853 584.01 197.24C583.504 198.627 582.597 199.733 581.29 200.56C580.01 201.387 578.184 201.8 575.81 201.8ZM575.85 191.08C577.37 191.08 578.597 190.72 579.53 190C580.464 189.28 581.144 188.387 581.57 187.32C582.024 186.227 582.277 185.133 582.33 184.04C582.357 183.64 582.37 183.16 582.37 182.6C582.37 182.04 582.357 181.56 582.33 181.16C582.277 180.067 582.024 178.987 581.57 177.92C581.144 176.827 580.464 175.92 579.53 175.2C578.597 174.48 577.37 174.12 575.85 174.12C574.304 174.12 573.064 174.467 572.13 175.16C571.224 175.853 570.57 176.76 570.17 177.88C569.77 179 569.544 180.2 569.49 181.48C569.464 182.227 569.464 182.973 569.49 183.72C569.544 185 569.77 186.2 570.17 187.32C570.57 188.44 571.224 189.347 572.13 190.04C573.064 190.733 574.304 191.08 575.85 191.08ZM598.293 193.4C596.373 193.4 594.759 193 593.452 192.2C592.172 191.4 591.186 190.307 590.492 188.92C589.826 187.533 589.466 185.987 589.412 184.28C589.386 183.88 589.372 183.32 589.372 182.6C589.372 181.88 589.386 181.32 589.412 180.92C589.466 179.187 589.826 177.64 590.492 176.28C591.186 174.893 592.172 173.8 593.452 173C594.759 172.2 596.373 171.8 598.293 171.8C600.213 171.8 601.813 172.2 603.093 173C604.399 173.8 605.386 174.893 606.053 176.28C606.746 177.64 607.119 179.187 607.173 180.92C607.199 181.32 607.213 181.88 607.213 182.6C607.213 183.32 607.199 183.88 607.173 184.28C607.119 185.987 606.746 187.533 606.053 188.92C605.386 190.307 604.399 191.4 603.093 192.2C601.813 193 600.213 193.4 598.293 193.4ZM598.293 191.08C600.159 191.08 601.679 190.48 602.852 189.28C604.026 188.08 604.653 186.347 604.733 184.08C604.759 183.68 604.773 183.187 604.773 182.6C604.773 182.013 604.759 181.52 604.733 181.12C604.653 178.827 604.026 177.093 602.852 175.92C601.679 174.72 600.159 174.12 598.293 174.12C596.426 174.12 594.906 174.72 593.732 175.92C592.559 177.093 591.932 178.827 591.853 181.12C591.826 181.52 591.812 182.013 591.812 182.6C591.812 183.187 591.826 183.68 591.853 184.08C591.932 186.347 592.559 188.08 593.732 189.28C594.906 190.48 596.426 191.08 598.293 191.08ZM612.637 193C612.371 193 612.157 192.92 611.997 192.76C611.837 192.6 611.757 192.387 611.757 192.12V173.08C611.757 172.813 611.837 172.6 611.997 172.44C612.157 172.28 612.371 172.2 612.637 172.2H613.317C613.584 172.2 613.797 172.28 613.957 172.44C614.117 172.6 614.197 172.813 614.197 173.08V192.12C614.197 192.387 614.117 192.6 613.957 192.76C613.797 192.92 613.584 193 613.317 193H612.637ZM612.197 167.92C611.931 167.92 611.717 167.84 611.557 167.68C611.397 167.52 611.317 167.307 611.317 167.04V165.52C611.317 165.253 611.397 165.04 611.557 164.88C611.717 164.693 611.931 164.6 612.197 164.6H613.717C613.984 164.6 614.197 164.693 614.357 164.88C614.544 165.04 614.637 165.253 614.637 165.52V167.04C614.637 167.307 614.544 167.52 614.357 167.68C614.197 167.84 613.984 167.92 613.717 167.92H612.197ZM620.623 193C620.357 193 620.143 192.92 619.983 192.76C619.823 192.6 619.743 192.387 619.743 192.12V173.08C619.743 172.813 619.823 172.6 619.983 172.44C620.143 172.28 620.357 172.2 620.623 172.2H621.303C621.57 172.2 621.783 172.28 621.943 172.44C622.103 172.6 622.183 172.813 622.183 173.08V174.96C622.903 174.027 623.77 173.267 624.783 172.68C625.823 172.093 627.197 171.8 628.903 171.8C630.717 171.8 632.223 172.2 633.423 173C634.65 173.773 635.557 174.84 636.143 176.2C636.757 177.533 637.063 179.053 637.063 180.76V192.12C637.063 192.387 636.983 192.6 636.823 192.76C636.663 192.92 636.45 193 636.183 193H635.503C635.237 193 635.023 192.92 634.863 192.76C634.703 192.6 634.623 192.387 634.623 192.12V180.96C634.623 178.827 634.103 177.16 633.063 175.96C632.023 174.733 630.503 174.12 628.503 174.12C626.61 174.12 625.077 174.733 623.903 175.96C622.757 177.16 622.183 178.827 622.183 180.96V192.12C622.183 192.387 622.103 192.6 621.943 192.76C621.783 192.92 621.57 193 621.303 193H620.623ZM650.177 201.8C648.471 201.8 647.071 201.573 645.977 201.12C644.911 200.667 644.071 200.107 643.457 199.44C642.871 198.8 642.457 198.147 642.217 197.48C641.977 196.84 641.844 196.32 641.817 195.92C641.791 195.653 641.871 195.427 642.057 195.24C642.244 195.08 642.457 195 642.697 195H643.257C643.471 195 643.657 195.04 643.817 195.12C643.977 195.227 644.111 195.467 644.217 195.84C644.377 196.267 644.631 196.76 644.977 197.32C645.351 197.907 645.924 198.413 646.697 198.84C647.497 199.267 648.591 199.48 649.977 199.48C651.444 199.48 652.671 199.293 653.657 198.92C654.644 198.547 655.391 197.88 655.897 196.92C656.431 195.987 656.697 194.68 656.697 193V190.24C656.031 191.147 655.151 191.907 654.057 192.52C652.991 193.107 651.631 193.4 649.977 193.4C648.431 193.4 647.111 193.12 646.017 192.56C644.951 192 644.084 191.253 643.417 190.32C642.751 189.387 642.257 188.347 641.937 187.2C641.617 186.053 641.444 184.893 641.417 183.72C641.391 182.973 641.391 182.227 641.417 181.48C641.444 180.307 641.617 179.147 641.937 178C642.257 176.853 642.751 175.813 643.417 174.88C644.084 173.947 644.951 173.2 646.017 172.64C647.111 172.08 648.431 171.8 649.977 171.8C651.631 171.8 652.991 172.107 654.057 172.72C655.151 173.333 656.031 174.08 656.697 174.96V173.12C656.697 172.853 656.777 172.64 656.937 172.48C657.097 172.293 657.311 172.2 657.577 172.2H658.217C658.484 172.2 658.697 172.293 658.857 172.48C659.044 172.64 659.137 172.853 659.137 173.12V192.6C659.137 194.307 658.884 195.853 658.377 197.24C657.871 198.627 656.964 199.733 655.657 200.56C654.377 201.387 652.551 201.8 650.177 201.8ZM650.217 191.08C651.737 191.08 652.964 190.72 653.897 190C654.831 189.28 655.511 188.387 655.937 187.32C656.391 186.227 656.644 185.133 656.697 184.04C656.724 183.64 656.737 183.16 656.737 182.6C656.737 182.04 656.724 181.56 656.697 181.16C656.644 180.067 656.391 178.987 655.937 177.92C655.511 176.827 654.831 175.92 653.897 175.2C652.964 174.48 651.737 174.12 650.217 174.12C648.671 174.12 647.431 174.467 646.497 175.16C645.591 175.853 644.937 176.76 644.537 177.88C644.137 179 643.911 180.2 643.857 181.48C643.831 182.227 643.831 182.973 643.857 183.72C643.911 185 644.137 186.2 644.537 187.32C644.937 188.44 645.591 189.347 646.497 190.04C647.431 190.733 648.671 191.08 650.217 191.08Z" fill="#FEE171"/>
<path d="M4.64 86C4.37333 86 4.16 85.92 4 85.76C3.84 85.6 3.76 85.3867 3.76 85.12V58.92C3.76 58.6267 3.84 58.4 4 58.24C4.16 58.08 4.37333 58 4.64 58H13.16C15.9867 58 18.2 58.4133 19.8 59.24C21.4 60.0667 22.5333 61.2933 23.2 62.92C23.8933 64.52 24.2533 66.48 24.28 68.8C24.3067 70 24.32 71.0667 24.32 72C24.32 72.9067 24.3067 73.96 24.28 75.16C24.2267 77.6133 23.8667 79.64 23.2 81.24C22.5333 82.84 21.4133 84.04 19.84 84.84C18.2667 85.6133 16.1067 86 13.36 86H4.64ZM6.28 83.6H13.16C15.2933 83.6 16.9733 83.32 18.2 82.76C19.4533 82.1733 20.3467 81.2533 20.88 80C21.44 78.72 21.7333 77.04 21.76 74.96C21.7867 74.16 21.8 73.4667 21.8 72.88C21.8 72.2667 21.8 71.6667 21.8 71.08C21.8 70.4933 21.7867 69.8 21.76 69C21.7067 66.0667 21.0267 63.9067 19.72 62.52C18.4133 61.1067 16.16 60.4 12.96 60.4H6.28V83.6ZM30.2703 86C30.0036 86 29.7903 85.92 29.6303 85.76C29.4703 85.6 29.3903 85.3867 29.3903 85.12V66.08C29.3903 65.8133 29.4703 65.6 29.6303 65.44C29.7903 65.28 30.0036 65.2 30.2703 65.2H30.9503C31.217 65.2 31.4303 65.28 31.5903 65.44C31.7503 65.6 31.8303 65.8133 31.8303 66.08V85.12C31.8303 85.3867 31.7503 85.6 31.5903 85.76C31.4303 85.92 31.217 86 30.9503 86H30.2703ZM29.8303 60.92C29.5636 60.92 29.3503 60.84 29.1903 60.68C29.0303 60.52 28.9503 60.3067 28.9503 60.04V58.52C28.9503 58.2533 29.0303 58.04 29.1903 57.88C29.3503 57.6933 29.5636 57.6 29.8303 57.6H31.3503C31.617 57.6 31.8303 57.6933 31.9903 57.88C32.177 58.04 32.2703 58.2533 32.2703 58.52V60.04C32.2703 60.3067 32.177 60.52 31.9903 60.68C31.8303 60.84 31.617 60.92 31.3503 60.92H29.8303ZM42.9766 86.4C41.6966 86.4 40.5099 86.1333 39.4166 85.6C38.3499 85.0667 37.4832 84.36 36.8166 83.48C36.1499 82.5733 35.8166 81.56 35.8166 80.44C35.8166 78.6267 36.5499 77.1733 38.0166 76.08C39.4832 74.9867 41.3899 74.28 43.7366 73.96L50.0566 73.08V71.68C50.0566 70.2667 49.6166 69.16 48.7366 68.36C47.8832 67.5333 46.5099 67.12 44.6166 67.12C43.2299 67.12 42.1099 67.4 41.2566 67.96C40.4032 68.4933 39.8166 69.2 39.4966 70.08C39.3632 70.48 39.1099 70.68 38.7366 70.68H38.0966C37.7766 70.68 37.5499 70.6 37.4166 70.44C37.2832 70.2533 37.2166 70.04 37.2166 69.8C37.2166 69.4267 37.3499 68.96 37.6166 68.4C37.9099 67.84 38.3499 67.2933 38.9366 66.76C39.5232 66.2 40.2832 65.7333 41.2166 65.36C42.1499 64.9867 43.2832 64.8 44.6166 64.8C46.1899 64.8 47.4832 65.0133 48.4966 65.44C49.5366 65.8667 50.3366 66.4267 50.8966 67.12C51.4832 67.7867 51.8966 68.5333 52.1366 69.36C52.3766 70.1867 52.4966 71 52.4966 71.8V85.12C52.4966 85.3867 52.4166 85.6 52.2566 85.76C52.0966 85.92 51.8832 86 51.6166 86H50.9366C50.6699 86 50.4566 85.92 50.2966 85.76C50.1366 85.6 50.0566 85.3867 50.0566 85.12V83.24C49.7366 83.72 49.2832 84.2 48.6966 84.68C48.1099 85.16 47.3499 85.5733 46.4166 85.92C45.5099 86.24 44.3632 86.4 42.9766 86.4ZM43.3766 84.08C44.6032 84.08 45.7232 83.8133 46.7366 83.28C47.7499 82.7467 48.5499 81.9333 49.1366 80.84C49.7499 79.72 50.0566 78.32 50.0566 76.64V75.28L44.8966 76C42.7099 76.2933 41.0566 76.8 39.9366 77.52C38.8166 78.24 38.2566 79.1467 38.2566 80.24C38.2566 81.12 38.5099 81.84 39.0166 82.4C39.5232 82.96 40.1632 83.3867 40.9366 83.68C41.7366 83.9467 42.5499 84.08 43.3766 84.08ZM67.1019 86.4C65.4485 86.4 64.0752 86.1067 62.9819 85.52C61.9152 84.9067 61.0485 84.1467 60.3819 83.24V85.12C60.3819 85.3867 60.3019 85.6 60.1419 85.76C59.9819 85.92 59.7685 86 59.5019 86H58.8219C58.5552 86 58.3419 85.92 58.1819 85.76C58.0219 85.6 57.9419 85.3867 57.9419 85.12V58.48C57.9419 58.2133 58.0219 58 58.1819 57.84C58.3419 57.68 58.5552 57.6 58.8219 57.6H59.5019C59.7685 57.6 59.9819 57.68 60.1419 57.84C60.3019 58 60.3819 58.2133 60.3819 58.48V67.96C61.0485 67.08 61.9152 66.3333 62.9819 65.72C64.0752 65.1067 65.4485 64.8 67.1019 64.8C68.6752 64.8 69.9952 65.08 71.0619 65.64C72.1285 66.2 72.9952 66.9467 73.6619 67.88C74.3285 68.8133 74.8219 69.8533 75.1419 71C75.4619 72.1467 75.6352 73.3067 75.6619 74.48C75.6885 74.88 75.7019 75.2533 75.7019 75.6C75.7019 75.9467 75.6885 76.32 75.6619 76.72C75.6352 77.8933 75.4619 79.0533 75.1419 80.2C74.8219 81.3467 74.3285 82.3867 73.6619 83.32C72.9952 84.2533 72.1285 85 71.0619 85.56C69.9952 86.12 68.6752 86.4 67.1019 86.4ZM66.8619 84.08C68.4352 84.08 69.6752 83.7333 70.5819 83.04C71.4885 82.3467 72.1419 81.44 72.5419 80.32C72.9419 79.2 73.1685 78 73.2219 76.72C73.2485 75.9733 73.2485 75.2267 73.2219 74.48C73.1685 73.2 72.9419 72 72.5419 70.88C72.1419 69.76 71.4885 68.8533 70.5819 68.16C69.6752 67.4667 68.4352 67.12 66.8619 67.12C65.3952 67.12 64.1819 67.4667 63.2219 68.16C62.2885 68.8533 61.5819 69.72 61.1019 70.76C60.6485 71.8 60.4085 72.8533 60.3819 73.92C60.3552 74.32 60.3419 74.84 60.3419 75.48C60.3419 76.12 60.3552 76.64 60.3819 77.04C60.4352 78.1333 60.6752 79.2267 61.1019 80.32C61.5552 81.3867 62.2485 82.28 63.1819 83C64.1152 83.72 65.3419 84.08 66.8619 84.08ZM87.905 86.4C85.3183 86.4 83.265 85.56 81.745 83.88C80.225 82.1733 79.3583 79.9467 79.145 77.2C79.1183 76.8 79.105 76.2667 79.105 75.6C79.105 74.9333 79.1183 74.4 79.145 74C79.2783 72.1867 79.705 70.5867 80.425 69.2C81.145 67.8133 82.1317 66.7333 83.385 65.96C84.665 65.1867 86.1717 64.8 87.905 64.8C89.7717 64.8 91.3583 65.2133 92.665 66.04C93.9717 66.8667 94.9717 68.0533 95.665 69.6C96.385 71.1467 96.745 72.9867 96.745 75.12V75.72C96.745 75.9867 96.6517 76.2 96.465 76.36C96.305 76.52 96.0917 76.6 95.825 76.6H81.585C81.585 76.6 81.585 76.6533 81.585 76.76C81.585 76.8667 81.585 76.9467 81.585 77C81.6383 78.2 81.9183 79.3467 82.425 80.44C82.9317 81.5067 83.6517 82.3867 84.585 83.08C85.5183 83.7467 86.625 84.08 87.905 84.08C89.0517 84.08 89.9983 83.9067 90.745 83.56C91.5183 83.2133 92.1317 82.84 92.585 82.44C93.0383 82.0133 93.3317 81.6933 93.465 81.48C93.705 81.1333 93.8917 80.9333 94.025 80.88C94.1583 80.8 94.3717 80.76 94.665 80.76H95.305C95.545 80.76 95.745 80.84 95.905 81C96.0917 81.1333 96.1717 81.32 96.145 81.56C96.1183 81.9333 95.905 82.4 95.505 82.96C95.1317 83.4933 94.585 84.0267 93.865 84.56C93.1717 85.0933 92.3183 85.5333 91.305 85.88C90.2917 86.2267 89.1583 86.4 87.905 86.4ZM81.585 74.36H94.305V74.2C94.305 72.8667 94.0517 71.6667 93.545 70.6C93.0383 69.5333 92.305 68.6933 91.345 68.08C90.385 67.44 89.2383 67.12 87.905 67.12C86.5717 67.12 85.425 67.44 84.465 68.08C83.5317 68.6933 82.8117 69.5333 82.305 70.6C81.825 71.6667 81.585 72.8667 81.585 74.2V74.36ZM107.945 86C106.558 86 105.465 85.7067 104.665 85.12C103.865 84.5333 103.305 83.7333 102.985 82.72C102.665 81.7067 102.505 80.5733 102.505 79.32V67.52H99.3847C99.118 67.52 98.9047 67.44 98.7447 67.28C98.5847 67.12 98.5047 66.9067 98.5047 66.64V66.08C98.5047 65.8133 98.5847 65.6 98.7447 65.44C98.9047 65.28 99.118 65.2 99.3847 65.2H102.505V58.48C102.505 58.2133 102.585 58 102.745 57.84C102.905 57.68 103.118 57.6 103.385 57.6H104.065C104.331 57.6 104.545 57.68 104.705 57.84C104.865 58 104.945 58.2133 104.945 58.48V65.2H109.905C110.171 65.2 110.385 65.28 110.545 65.44C110.705 65.6 110.785 65.8133 110.785 66.08V66.64C110.785 66.9067 110.705 67.12 110.545 67.28C110.385 67.44 110.171 67.52 109.905 67.52H104.945V79.16C104.945 80.5733 105.171 81.68 105.625 82.48C106.105 83.28 106.945 83.68 108.145 83.68H110.305C110.571 83.68 110.785 83.76 110.945 83.92C111.105 84.08 111.185 84.2933 111.185 84.56V85.12C111.185 85.3867 111.105 85.6 110.945 85.76C110.785 85.92 110.571 86 110.305 86H107.945ZM115.28 86C115.013 86 114.8 85.92 114.64 85.76C114.48 85.6 114.4 85.3867 114.4 85.12V66.08C114.4 65.8133 114.48 65.6 114.64 65.44C114.8 65.28 115.013 65.2 115.28 65.2H115.96C116.226 65.2 116.44 65.28 116.6 65.44C116.76 65.6 116.84 65.8133 116.84 66.08V85.12C116.84 85.3867 116.76 85.6 116.6 85.76C116.44 85.92 116.226 86 115.96 86H115.28ZM114.84 60.92C114.573 60.92 114.36 60.84 114.2 60.68C114.04 60.52 113.96 60.3067 113.96 60.04V58.52C113.96 58.2533 114.04 58.04 114.2 57.88C114.36 57.6933 114.573 57.6 114.84 57.6H116.36C116.626 57.6 116.84 57.6933 117 57.88C117.186 58.04 117.28 58.2533 117.28 58.52V60.04C117.28 60.3067 117.186 60.52 117 60.68C116.84 60.84 116.626 60.92 116.36 60.92H114.84ZM130.266 86.4C128.399 86.4 126.813 86.04 125.506 85.32C124.199 84.5733 123.199 83.5067 122.506 82.12C121.839 80.7333 121.479 79.0933 121.426 77.2C121.399 76.8 121.386 76.2667 121.386 75.6C121.386 74.9333 121.399 74.4 121.426 74C121.479 72.08 121.839 70.44 122.506 69.08C123.199 67.6933 124.199 66.64 125.506 65.92C126.813 65.1733 128.399 64.8 130.266 64.8C131.679 64.8 132.893 65 133.906 65.4C134.946 65.7733 135.799 66.28 136.466 66.92C137.133 67.5333 137.639 68.2133 137.986 68.96C138.333 69.7067 138.519 70.44 138.546 71.16C138.573 71.4267 138.493 71.64 138.306 71.8C138.119 71.96 137.906 72.04 137.666 72.04H137.106C136.839 72.04 136.639 71.9867 136.506 71.88C136.399 71.7467 136.279 71.52 136.146 71.2C135.586 69.68 134.813 68.6267 133.826 68.04C132.866 67.4267 131.679 67.12 130.266 67.12C128.453 67.12 126.946 67.68 125.746 68.8C124.573 69.8933 123.946 71.6933 123.866 74.2C123.813 75.1333 123.813 76.0667 123.866 77C123.946 79.5067 124.573 81.32 125.746 82.44C126.946 83.5333 128.453 84.08 130.266 84.08C131.679 84.08 132.866 83.7867 133.826 83.2C134.813 82.5867 135.586 81.52 136.146 80C136.279 79.68 136.399 79.4667 136.506 79.36C136.639 79.2267 136.839 79.16 137.106 79.16H137.666C137.906 79.16 138.119 79.24 138.306 79.4C138.493 79.56 138.573 79.7733 138.546 80.04C138.519 80.6267 138.399 81.2133 138.186 81.8C137.973 82.3867 137.639 82.96 137.186 83.52C136.759 84.08 136.226 84.5733 135.586 85C134.946 85.4267 134.173 85.76 133.266 86C132.386 86.2667 131.386 86.4 130.266 86.4ZM153.704 86C153.437 86 153.224 85.92 153.064 85.76C152.904 85.6 152.824 85.3867 152.824 85.12V58.92C152.824 58.6267 152.904 58.4 153.064 58.24C153.224 58.08 153.437 58 153.704 58H163.424C165.29 58 166.904 58.32 168.264 58.96C169.65 59.5733 170.717 60.4933 171.464 61.72C172.237 62.9467 172.624 64.4667 172.624 66.28C172.624 68.0933 172.237 69.6133 171.464 70.84C170.717 72.0667 169.65 73 168.264 73.64C166.904 74.2533 165.29 74.56 163.424 74.56H155.344V85.12C155.344 85.3867 155.264 85.6 155.104 85.76C154.944 85.92 154.717 86 154.424 86H153.704ZM155.344 72.16H163.224C165.544 72.16 167.264 71.6533 168.384 70.64C169.53 69.6267 170.104 68.1733 170.104 66.28C170.104 64.3867 169.53 62.9333 168.384 61.92C167.264 60.9067 165.544 60.4 163.224 60.4H155.344V72.16ZM181.749 86.4C180.469 86.4 179.283 86.1333 178.189 85.6C177.123 85.0667 176.256 84.36 175.589 83.48C174.923 82.5733 174.589 81.56 174.589 80.44C174.589 78.6267 175.323 77.1733 176.789 76.08C178.256 74.9867 180.163 74.28 182.509 73.96L188.829 73.08V71.68C188.829 70.2667 188.389 69.16 187.509 68.36C186.656 67.5333 185.283 67.12 183.389 67.12C182.003 67.12 180.883 67.4 180.029 67.96C179.176 68.4933 178.589 69.2 178.269 70.08C178.136 70.48 177.883 70.68 177.509 70.68H176.869C176.549 70.68 176.323 70.6 176.189 70.44C176.056 70.2533 175.989 70.04 175.989 69.8C175.989 69.4267 176.123 68.96 176.389 68.4C176.683 67.84 177.123 67.2933 177.709 66.76C178.296 66.2 179.056 65.7333 179.989 65.36C180.923 64.9867 182.056 64.8 183.389 64.8C184.963 64.8 186.256 65.0133 187.269 65.44C188.309 65.8667 189.109 66.4267 189.669 67.12C190.256 67.7867 190.669 68.5333 190.909 69.36C191.149 70.1867 191.269 71 191.269 71.8V85.12C191.269 85.3867 191.189 85.6 191.029 85.76C190.869 85.92 190.656 86 190.389 86H189.709C189.443 86 189.229 85.92 189.069 85.76C188.909 85.6 188.829 85.3867 188.829 85.12V83.24C188.509 83.72 188.056 84.2 187.469 84.68C186.883 85.16 186.123 85.5733 185.189 85.92C184.283 86.24 183.136 86.4 181.749 86.4ZM182.149 84.08C183.376 84.08 184.496 83.8133 185.509 83.28C186.523 82.7467 187.323 81.9333 187.909 80.84C188.523 79.72 188.829 78.32 188.829 76.64V75.28L183.669 76C181.483 76.2933 179.829 76.8 178.709 77.52C177.589 78.24 177.029 79.1467 177.029 80.24C177.029 81.12 177.283 81.84 177.789 82.4C178.296 82.96 178.936 83.3867 179.709 83.68C180.509 83.9467 181.323 84.08 182.149 84.08ZM203.479 86C202.093 86 200.999 85.7067 200.199 85.12C199.399 84.5333 198.839 83.7333 198.519 82.72C198.199 81.7067 198.039 80.5733 198.039 79.32V67.52H194.919C194.653 67.52 194.439 67.44 194.279 67.28C194.119 67.12 194.039 66.9067 194.039 66.64V66.08C194.039 65.8133 194.119 65.6 194.279 65.44C194.439 65.28 194.653 65.2 194.919 65.2H198.039V58.48C198.039 58.2133 198.119 58 198.279 57.84C198.439 57.68 198.653 57.6 198.919 57.6H199.599C199.866 57.6 200.079 57.68 200.239 57.84C200.399 58 200.479 58.2133 200.479 58.48V65.2H205.439C205.706 65.2 205.919 65.28 206.079 65.44C206.239 65.6 206.319 65.8133 206.319 66.08V66.64C206.319 66.9067 206.239 67.12 206.079 67.28C205.919 67.44 205.706 67.52 205.439 67.52H200.479V79.16C200.479 80.5733 200.706 81.68 201.159 82.48C201.639 83.28 202.479 83.68 203.679 83.68H205.839C206.106 83.68 206.319 83.76 206.479 83.92C206.639 84.08 206.719 84.2933 206.719 84.56V85.12C206.719 85.3867 206.639 85.6 206.479 85.76C206.319 85.92 206.106 86 205.839 86H203.479ZM210.814 86C210.548 86 210.334 85.92 210.174 85.76C210.014 85.6 209.934 85.3867 209.934 85.12V66.08C209.934 65.8133 210.014 65.6 210.174 65.44C210.334 65.28 210.548 65.2 210.814 65.2H211.494C211.761 65.2 211.974 65.28 212.134 65.44C212.294 65.6 212.374 65.8133 212.374 66.08V85.12C212.374 85.3867 212.294 85.6 212.134 85.76C211.974 85.92 211.761 86 211.494 86H210.814ZM210.374 60.92C210.108 60.92 209.894 60.84 209.734 60.68C209.574 60.52 209.494 60.3067 209.494 60.04V58.52C209.494 58.2533 209.574 58.04 209.734 57.88C209.894 57.6933 210.108 57.6 210.374 57.6H211.894C212.161 57.6 212.374 57.6933 212.534 57.88C212.721 58.04 212.814 58.2533 212.814 58.52V60.04C212.814 60.3067 212.721 60.52 212.534 60.68C212.374 60.84 212.161 60.92 211.894 60.92H210.374ZM225.641 86.4C223.054 86.4 221.001 85.56 219.481 83.88C217.961 82.1733 217.094 79.9467 216.881 77.2C216.854 76.8 216.841 76.2667 216.841 75.6C216.841 74.9333 216.854 74.4 216.881 74C217.014 72.1867 217.441 70.5867 218.161 69.2C218.881 67.8133 219.867 66.7333 221.121 65.96C222.401 65.1867 223.907 64.8 225.641 64.8C227.507 64.8 229.094 65.2133 230.401 66.04C231.707 66.8667 232.707 68.0533 233.401 69.6C234.121 71.1467 234.481 72.9867 234.481 75.12V75.72C234.481 75.9867 234.387 76.2 234.201 76.36C234.041 76.52 233.827 76.6 233.561 76.6H219.321C219.321 76.6 219.321 76.6533 219.321 76.76C219.321 76.8667 219.321 76.9467 219.321 77C219.374 78.2 219.654 79.3467 220.161 80.44C220.667 81.5067 221.387 82.3867 222.321 83.08C223.254 83.7467 224.361 84.08 225.641 84.08C226.787 84.08 227.734 83.9067 228.481 83.56C229.254 83.2133 229.867 82.84 230.321 82.44C230.774 82.0133 231.067 81.6933 231.201 81.48C231.441 81.1333 231.627 80.9333 231.761 80.88C231.894 80.8 232.107 80.76 232.401 80.76H233.041C233.281 80.76 233.481 80.84 233.641 81C233.827 81.1333 233.907 81.32 233.881 81.56C233.854 81.9333 233.641 82.4 233.241 82.96C232.867 83.4933 232.321 84.0267 231.601 84.56C230.907 85.0933 230.054 85.5333 229.041 85.88C228.027 86.2267 226.894 86.4 225.641 86.4ZM219.321 74.36H232.041V74.2C232.041 72.8667 231.787 71.6667 231.281 70.6C230.774 69.5333 230.041 68.6933 229.081 68.08C228.121 67.44 226.974 67.12 225.641 67.12C224.307 67.12 223.161 67.44 222.201 68.08C221.267 68.6933 220.547 69.5333 220.041 70.6C219.561 71.6667 219.321 72.8667 219.321 74.2V74.36ZM239.717 86C239.45 86 239.237 85.92 239.077 85.76C238.917 85.6 238.837 85.3867 238.837 85.12V66.08C238.837 65.8133 238.917 65.6 239.077 65.44C239.237 65.28 239.45 65.2 239.717 65.2H240.397C240.663 65.2 240.877 65.28 241.037 65.44C241.197 65.6 241.277 65.8133 241.277 66.08V67.96C241.997 67.0267 242.863 66.2667 243.877 65.68C244.917 65.0933 246.29 64.8 247.997 64.8C249.81 64.8 251.317 65.2 252.517 66C253.743 66.7733 254.65 67.84 255.237 69.2C255.85 70.5333 256.157 72.0533 256.157 73.76V85.12C256.157 85.3867 256.077 85.6 255.917 85.76C255.757 85.92 255.543 86 255.277 86H254.597C254.33 86 254.117 85.92 253.957 85.76C253.797 85.6 253.717 85.3867 253.717 85.12V73.96C253.717 71.8267 253.197 70.16 252.157 68.96C251.117 67.7333 249.597 67.12 247.597 67.12C245.703 67.12 244.17 67.7333 242.997 68.96C241.85 70.16 241.277 71.8267 241.277 73.96V85.12C241.277 85.3867 241.197 85.6 241.037 85.76C240.877 85.92 240.663 86 240.397 86H239.717ZM268.198 86C266.811 86 265.718 85.7067 264.918 85.12C264.118 84.5333 263.558 83.7333 263.238 82.72C262.918 81.7067 262.758 80.5733 262.758 79.32V67.52H259.638C259.371 67.52 259.158 67.44 258.998 67.28C258.838 67.12 258.758 66.9067 258.758 66.64V66.08C258.758 65.8133 258.838 65.6 258.998 65.44C259.158 65.28 259.371 65.2 259.638 65.2H262.758V58.48C262.758 58.2133 262.838 58 262.998 57.84C263.158 57.68 263.371 57.6 263.638 57.6H264.318C264.584 57.6 264.798 57.68 264.958 57.84C265.118 58 265.198 58.2133 265.198 58.48V65.2H270.158C270.424 65.2 270.638 65.28 270.798 65.44C270.958 65.6 271.038 65.8133 271.038 66.08V66.64C271.038 66.9067 270.958 67.12 270.798 67.28C270.638 67.44 270.424 67.52 270.158 67.52H265.198V79.16C265.198 80.5733 265.424 81.68 265.878 82.48C266.358 83.28 267.198 83.68 268.398 83.68H270.558C270.824 83.68 271.038 83.76 271.198 83.92C271.358 84.08 271.438 84.2933 271.438 84.56V85.12C271.438 85.3867 271.358 85.6 271.198 85.76C271.038 85.92 270.824 86 270.558 86H268.198ZM4.64 146C4.37333 146 4.16 145.92 4 145.76C3.84 145.6 3.76 145.387 3.76 145.12V118.92C3.76 118.627 3.84 118.4 4 118.24C4.16 118.08 4.37333 118 4.64 118H20.24C20.5333 118 20.76 118.08 20.92 118.24C21.08 118.4 21.16 118.627 21.16 118.92V119.52C21.16 119.787 21.08 120 20.92 120.16C20.76 120.32 20.5333 120.4 20.24 120.4H6.28V130.6H19.36C19.6533 130.6 19.88 130.68 20.04 130.84C20.2 131 20.28 131.227 20.28 131.52V132.12C20.28 132.387 20.2 132.6 20.04 132.76C19.88 132.92 19.6533 133 19.36 133H6.28V143.6H20.56C20.8533 143.6 21.08 143.68 21.24 143.84C21.4 144 21.48 144.227 21.48 144.52V145.12C21.48 145.387 21.4 145.6 21.24 145.76C21.08 145.92 20.8533 146 20.56 146H4.64ZM24.9519 146C24.7385 146 24.5519 145.92 24.3919 145.76C24.2319 145.6 24.1519 145.413 24.1519 145.2C24.1519 145.093 24.1652 144.987 24.1919 144.88C24.2452 144.747 24.3385 144.587 24.4719 144.4L31.5119 135.36L24.8319 126.8C24.6985 126.613 24.6052 126.467 24.5519 126.36C24.5252 126.227 24.5119 126.107 24.5119 126C24.5119 125.787 24.5919 125.6 24.7519 125.44C24.9119 125.28 25.0985 125.2 25.3119 125.2H26.1519C26.4185 125.2 26.6185 125.267 26.7519 125.4C26.9119 125.533 27.0452 125.667 27.1519 125.8L33.1519 133.52L39.1519 125.84C39.2852 125.707 39.4185 125.573 39.5519 125.44C39.6852 125.28 39.8852 125.2 40.1519 125.2H40.9519C41.1652 125.2 41.3519 125.28 41.5119 125.44C41.6719 125.6 41.7519 125.787 41.7519 126C41.7519 126.107 41.7252 126.227 41.6719 126.36C41.6452 126.467 41.5652 126.613 41.4319 126.8L34.6719 135.48L41.7119 144.4C41.8452 144.587 41.9252 144.747 41.9519 144.88C42.0052 144.987 42.0319 145.093 42.0319 145.2C42.0319 145.413 41.9519 145.6 41.7919 145.76C41.6319 145.92 41.4452 146 41.2319 146H40.3919C40.1252 146 39.9119 145.933 39.7519 145.8C39.6185 145.667 39.4985 145.533 39.3919 145.4L33.0719 137.32L26.7519 145.4C26.6452 145.533 26.5119 145.667 26.3519 145.8C26.2185 145.933 26.0185 146 25.7519 146H24.9519ZM53.0263 146.4C50.4396 146.4 48.3862 145.56 46.8663 143.88C45.3462 142.173 44.4796 139.947 44.2662 137.2C44.2396 136.8 44.2262 136.267 44.2262 135.6C44.2262 134.933 44.2396 134.4 44.2662 134C44.3996 132.187 44.8262 130.587 45.5463 129.2C46.2663 127.813 47.2529 126.733 48.5063 125.96C49.7863 125.187 51.2929 124.8 53.0263 124.8C54.8929 124.8 56.4796 125.213 57.7863 126.04C59.0929 126.867 60.0929 128.053 60.7863 129.6C61.5063 131.147 61.8663 132.987 61.8663 135.12V135.72C61.8663 135.987 61.7729 136.2 61.5863 136.36C61.4263 136.52 61.2129 136.6 60.9463 136.6H46.7063C46.7063 136.6 46.7063 136.653 46.7063 136.76C46.7063 136.867 46.7063 136.947 46.7063 137C46.7596 138.2 47.0396 139.347 47.5463 140.44C48.0529 141.507 48.7729 142.387 49.7063 143.08C50.6396 143.747 51.7463 144.08 53.0263 144.08C54.1729 144.08 55.1196 143.907 55.8663 143.56C56.6396 143.213 57.2529 142.84 57.7063 142.44C58.1596 142.013 58.4529 141.693 58.5863 141.48C58.8263 141.133 59.0129 140.933 59.1463 140.88C59.2796 140.8 59.4929 140.76 59.7863 140.76H60.4263C60.6663 140.76 60.8663 140.84 61.0263 141C61.2129 141.133 61.2929 141.32 61.2663 141.56C61.2396 141.933 61.0263 142.4 60.6263 142.96C60.2529 143.493 59.7063 144.027 58.9863 144.56C58.2929 145.093 57.4396 145.533 56.4263 145.88C55.4129 146.227 54.2796 146.4 53.0263 146.4ZM46.7063 134.36H59.4263V134.2C59.4263 132.867 59.1729 131.667 58.6663 130.6C58.1596 129.533 57.4263 128.693 56.4663 128.08C55.5063 127.44 54.3596 127.12 53.0263 127.12C51.6929 127.12 50.5463 127.44 49.5863 128.08C48.6529 128.693 47.9329 129.533 47.4262 130.6C46.9463 131.667 46.7063 132.867 46.7063 134.2V134.36ZM67.1422 153.6C66.8755 153.6 66.6622 153.52 66.5022 153.36C66.3422 153.2 66.2622 152.987 66.2622 152.72V126.08C66.2622 125.813 66.3422 125.6 66.5022 125.44C66.6622 125.28 66.8755 125.2 67.1422 125.2H67.8222C68.0889 125.2 68.3022 125.28 68.4622 125.44C68.6222 125.6 68.7022 125.813 68.7022 126.08V127.96C69.3689 127.053 70.2355 126.307 71.3022 125.72C72.3955 125.107 73.7689 124.8 75.4222 124.8C76.9955 124.8 78.3155 125.08 79.3822 125.64C80.4489 126.173 81.3155 126.893 81.9822 127.8C82.6489 128.707 83.1422 129.72 83.4622 130.84C83.7822 131.96 83.9555 133.107 83.9822 134.28C84.0089 134.68 84.0222 135.12 84.0222 135.6C84.0222 136.08 84.0089 136.52 83.9822 136.92C83.9555 138.093 83.7822 139.24 83.4622 140.36C83.1422 141.48 82.6489 142.493 81.9822 143.4C81.3155 144.307 80.4489 145.04 79.3822 145.6C78.3155 146.133 76.9955 146.4 75.4222 146.4C73.7689 146.4 72.3955 146.093 71.3022 145.48C70.2355 144.867 69.3689 144.12 68.7022 143.24V152.72C68.7022 152.987 68.6222 153.2 68.4622 153.36C68.3022 153.52 68.0889 153.6 67.8222 153.6H67.1422ZM75.1822 144.08C76.7555 144.08 77.9955 143.733 78.9022 143.04C79.8089 142.347 80.4622 141.44 80.8622 140.32C81.2622 139.2 81.4889 138 81.5422 136.72C81.5689 135.973 81.5689 135.227 81.5422 134.48C81.4889 133.2 81.2622 132 80.8622 130.88C80.4622 129.76 79.8089 128.853 78.9022 128.16C77.9955 127.467 76.7555 127.12 75.1822 127.12C73.6622 127.12 72.4355 127.48 71.5022 128.2C70.5689 128.92 69.8755 129.827 69.4222 130.92C68.9955 131.987 68.7555 133.067 68.7022 134.16C68.6755 134.56 68.6622 135.08 68.6622 135.72C68.6622 136.36 68.6755 136.88 68.7022 137.28C68.7289 138.347 68.9689 139.4 69.4222 140.44C69.9022 141.48 70.6089 142.347 71.5422 143.04C72.5022 143.733 73.7155 144.08 75.1822 144.08ZM89.4244 146C89.1577 146 88.9444 145.92 88.7844 145.76C88.6244 145.6 88.5444 145.387 88.5444 145.12V126.12C88.5444 125.853 88.6244 125.64 88.7844 125.48C88.9444 125.293 89.1577 125.2 89.4244 125.2H90.0644C90.331 125.2 90.5444 125.293 90.7044 125.48C90.891 125.64 90.9844 125.853 90.9844 126.12V127.96C91.4644 127.027 92.1577 126.333 93.0644 125.88C93.971 125.427 95.091 125.2 96.4244 125.2H97.9044C98.171 125.2 98.3844 125.28 98.5444 125.44C98.7044 125.6 98.7844 125.813 98.7844 126.08V126.64C98.7844 126.907 98.7044 127.12 98.5444 127.28C98.3844 127.44 98.171 127.52 97.9044 127.52H96.1844C94.5844 127.52 93.3177 127.987 92.3844 128.92C91.451 129.853 90.9844 131.12 90.9844 132.72V145.12C90.9844 145.387 90.891 145.6 90.7044 145.76C90.5444 145.92 90.331 146 90.0644 146H89.4244ZM102.411 146C102.144 146 101.931 145.92 101.771 145.76C101.611 145.6 101.531 145.387 101.531 145.12V126.08C101.531 125.813 101.611 125.6 101.771 125.44C101.931 125.28 102.144 125.2 102.411 125.2H103.091C103.357 125.2 103.571 125.28 103.731 125.44C103.891 125.6 103.971 125.813 103.971 126.08V145.12C103.971 145.387 103.891 145.6 103.731 145.76C103.571 145.92 103.357 146 103.091 146H102.411ZM101.971 120.92C101.704 120.92 101.491 120.84 101.331 120.68C101.171 120.52 101.091 120.307 101.091 120.04V118.52C101.091 118.253 101.171 118.04 101.331 117.88C101.491 117.693 101.704 117.6 101.971 117.6H103.491C103.757 117.6 103.971 117.693 104.131 117.88C104.317 118.04 104.411 118.253 104.411 118.52V120.04C104.411 120.307 104.317 120.52 104.131 120.68C103.971 120.84 103.757 120.92 103.491 120.92H101.971ZM117.237 146.4C114.65 146.4 112.597 145.56 111.077 143.88C109.557 142.173 108.69 139.947 108.477 137.2C108.45 136.8 108.437 136.267 108.437 135.6C108.437 134.933 108.45 134.4 108.477 134C108.61 132.187 109.037 130.587 109.757 129.2C110.477 127.813 111.464 126.733 112.717 125.96C113.997 125.187 115.504 124.8 117.237 124.8C119.104 124.8 120.69 125.213 121.997 126.04C123.304 126.867 124.304 128.053 124.997 129.6C125.717 131.147 126.077 132.987 126.077 135.12V135.72C126.077 135.987 125.984 136.2 125.797 136.36C125.637 136.52 125.424 136.6 125.157 136.6H110.917C110.917 136.6 110.917 136.653 110.917 136.76C110.917 136.867 110.917 136.947 110.917 137C110.97 138.2 111.25 139.347 111.757 140.44C112.264 141.507 112.984 142.387 113.917 143.08C114.85 143.747 115.957 144.08 117.237 144.08C118.384 144.08 119.33 143.907 120.077 143.56C120.85 143.213 121.464 142.84 121.917 142.44C122.37 142.013 122.664 141.693 122.797 141.48C123.037 141.133 123.224 140.933 123.357 140.88C123.49 140.8 123.704 140.76 123.997 140.76H124.637C124.877 140.76 125.077 140.84 125.237 141C125.424 141.133 125.504 141.32 125.477 141.56C125.45 141.933 125.237 142.4 124.837 142.96C124.464 143.493 123.917 144.027 123.197 144.56C122.504 145.093 121.65 145.533 120.637 145.88C119.624 146.227 118.49 146.4 117.237 146.4ZM110.917 134.36H123.637V134.2C123.637 132.867 123.384 131.667 122.877 130.6C122.37 129.533 121.637 128.693 120.677 128.08C119.717 127.44 118.57 127.12 117.237 127.12C115.904 127.12 114.757 127.44 113.797 128.08C112.864 128.693 112.144 129.533 111.637 130.6C111.157 131.667 110.917 132.867 110.917 134.2V134.36ZM131.313 146C131.046 146 130.833 145.92 130.673 145.76C130.513 145.6 130.433 145.387 130.433 145.12V126.08C130.433 125.813 130.513 125.6 130.673 125.44C130.833 125.28 131.046 125.2 131.313 125.2H131.993C132.259 125.2 132.473 125.28 132.633 125.44C132.793 125.6 132.873 125.813 132.873 126.08V127.96C133.593 127.027 134.459 126.267 135.473 125.68C136.513 125.093 137.886 124.8 139.593 124.8C141.406 124.8 142.913 125.2 144.113 126C145.339 126.773 146.246 127.84 146.833 129.2C147.446 130.533 147.753 132.053 147.753 133.76V145.12C147.753 145.387 147.673 145.6 147.513 145.76C147.353 145.92 147.139 146 146.873 146H146.193C145.926 146 145.713 145.92 145.553 145.76C145.393 145.6 145.313 145.387 145.313 145.12V133.96C145.313 131.827 144.793 130.16 143.753 128.96C142.713 127.733 141.193 127.12 139.193 127.12C137.299 127.12 135.766 127.733 134.593 128.96C133.446 130.16 132.873 131.827 132.873 133.96V145.12C132.873 145.387 132.793 145.6 132.633 145.76C132.473 145.92 132.259 146 131.993 146H131.313ZM160.987 146.4C159.12 146.4 157.533 146.04 156.227 145.32C154.92 144.573 153.92 143.507 153.227 142.12C152.56 140.733 152.2 139.093 152.147 137.2C152.12 136.8 152.107 136.267 152.107 135.6C152.107 134.933 152.12 134.4 152.147 134C152.2 132.08 152.56 130.44 153.227 129.08C153.92 127.693 154.92 126.64 156.227 125.92C157.533 125.173 159.12 124.8 160.987 124.8C162.4 124.8 163.613 125 164.627 125.4C165.667 125.773 166.52 126.28 167.187 126.92C167.853 127.533 168.36 128.213 168.707 128.96C169.053 129.707 169.24 130.44 169.267 131.16C169.293 131.427 169.213 131.64 169.027 131.8C168.84 131.96 168.627 132.04 168.387 132.04H167.827C167.56 132.04 167.36 131.987 167.227 131.88C167.12 131.747 167 131.52 166.867 131.2C166.307 129.68 165.533 128.627 164.547 128.04C163.587 127.427 162.4 127.12 160.987 127.12C159.173 127.12 157.667 127.68 156.467 128.8C155.293 129.893 154.667 131.693 154.587 134.2C154.533 135.133 154.533 136.067 154.587 137C154.667 139.507 155.293 141.32 156.467 142.44C157.667 143.533 159.173 144.08 160.987 144.08C162.4 144.08 163.587 143.787 164.547 143.2C165.533 142.587 166.307 141.52 166.867 140C167 139.68 167.12 139.467 167.227 139.36C167.36 139.227 167.56 139.16 167.827 139.16H168.387C168.627 139.16 168.84 139.24 169.027 139.4C169.213 139.56 169.293 139.773 169.267 140.04C169.24 140.627 169.12 141.213 168.907 141.8C168.693 142.387 168.36 142.96 167.907 143.52C167.48 144.08 166.947 144.573 166.307 145C165.667 145.427 164.893 145.76 163.987 146C163.107 146.267 162.107 146.4 160.987 146.4ZM181.352 146.4C178.765 146.4 176.712 145.56 175.192 143.88C173.672 142.173 172.805 139.947 172.592 137.2C172.565 136.8 172.552 136.267 172.552 135.6C172.552 134.933 172.565 134.4 172.592 134C172.725 132.187 173.152 130.587 173.872 129.2C174.592 127.813 175.579 126.733 176.832 125.96C178.112 125.187 179.619 124.8 181.352 124.8C183.219 124.8 184.805 125.213 186.112 126.04C187.419 126.867 188.419 128.053 189.112 129.6C189.832 131.147 190.192 132.987 190.192 135.12V135.72C190.192 135.987 190.099 136.2 189.912 136.36C189.752 136.52 189.539 136.6 189.272 136.6H175.032C175.032 136.6 175.032 136.653 175.032 136.76C175.032 136.867 175.032 136.947 175.032 137C175.085 138.2 175.365 139.347 175.872 140.44C176.379 141.507 177.099 142.387 178.032 143.08C178.965 143.747 180.072 144.08 181.352 144.08C182.499 144.08 183.445 143.907 184.192 143.56C184.965 143.213 185.579 142.84 186.032 142.44C186.485 142.013 186.779 141.693 186.912 141.48C187.152 141.133 187.339 140.933 187.472 140.88C187.605 140.8 187.819 140.76 188.112 140.76H188.752C188.992 140.76 189.192 140.84 189.352 141C189.539 141.133 189.619 141.32 189.592 141.56C189.565 141.933 189.352 142.4 188.952 142.96C188.579 143.493 188.032 144.027 187.312 144.56C186.619 145.093 185.765 145.533 184.752 145.88C183.739 146.227 182.605 146.4 181.352 146.4ZM175.032 134.36H187.752V134.2C187.752 132.867 187.499 131.667 186.992 130.6C186.485 129.533 185.752 128.693 184.792 128.08C183.832 127.44 182.685 127.12 181.352 127.12C180.019 127.12 178.872 127.44 177.912 128.08C176.979 128.693 176.259 129.533 175.752 130.6C175.272 131.667 175.032 132.867 175.032 134.2V134.36Z" fill="#FEE171"/>
<path d="M471.343 35.3814C471.554 35.1708 471.554 34.8292 471.343 34.6185L467.91 31.1856C467.699 30.9749 467.358 30.9749 467.147 31.1856C466.936 31.3962 466.936 31.7378 467.147 31.9484L470.199 35L467.147 38.0515C466.936 38.2622 466.936 38.6038 467.147 38.8144C467.358 39.0251 467.699 39.0251 467.91 38.8144L471.343 35.3814ZM424.961 97.4919L425.501 97.4919L424.961 97.4919ZM307 109.539L413.453 109.539L413.453 108.461L307 108.461L307 109.539ZM425.501 97.4919L425.501 46.5081L424.422 46.5081L424.422 97.4919L425.501 97.4919ZM436.47 35.5394L470.961 35.5394L470.961 34.4606L436.47 34.4606L436.47 35.5394ZM425.501 46.5081C425.501 40.4503 430.412 35.5394 436.47 35.5394L436.47 34.4606C429.816 34.4606 424.422 39.8544 424.422 46.5081L425.501 46.5081ZM413.453 109.539C420.107 109.539 425.501 104.146 425.501 97.4919L424.422 97.4919C424.422 103.55 419.511 108.461 413.453 108.461L413.453 109.539Z" fill="white"/>
<path d="M471.843 109.381C472.054 109.171 472.054 108.829 471.843 108.619L468.41 105.186C468.199 104.975 467.858 104.975 467.647 105.186C467.436 105.396 467.436 105.738 467.647 105.948L470.699 109L467.647 112.052C467.436 112.262 467.436 112.604 467.647 112.814C467.858 113.025 468.199 113.025 468.41 112.814L471.843 109.381ZM307.5 109.539L471.461 109.539L471.461 108.461L307.5 108.461L307.5 109.539Z" fill="white"/>
<path d="M471.343 182.619C471.554 182.829 471.554 183.171 471.343 183.381L467.91 186.814C467.699 187.025 467.358 187.025 467.147 186.814C466.936 186.604 466.936 186.262 467.147 186.052L470.199 183L467.147 179.948C466.936 179.738 466.936 179.396 467.147 179.186C467.358 178.975 467.699 178.975 467.91 179.186L471.343 182.619ZM413.453 109L413.453 108.461L413.453 109ZM424.961 120.508L425.501 120.508L424.961 120.508ZM304.5 108.461L413.453 108.461L413.453 109.539L304.5 109.539L304.5 108.461ZM425.501 120.508L425.501 171.492L424.422 171.492L424.422 120.508L425.501 120.508ZM436.47 182.461L470.961 182.461L470.961 183.539L436.47 183.539L436.47 182.461ZM425.501 171.492C425.501 177.55 430.412 182.461 436.47 182.461L436.47 183.539C429.816 183.539 424.422 178.146 424.422 171.492L425.501 171.492ZM413.453 108.461C420.107 108.461 425.501 113.854 425.501 120.508L424.422 120.508C424.422 114.45 419.511 109.539 413.453 109.539L413.453 108.461Z" fill="white"/>
</svg>
