<svg width="32" height="45" viewBox="0 0 32 45" fill="none" xmlns="http://www.w3.org/2000/svg">
<mask id="path-1-outside-1_6_17" maskUnits="userSpaceOnUse" x="0" y="0" width="32" height="45" fill="black">
<rect fill="white" width="32" height="45"/>
<path fill-rule="evenodd" clip-rule="evenodd" d="M19.6245 3.9287C20.0174 4.73273 20.4526 7.34798 18.8463 13.084C16.8492 20.2159 16.7755 34.0579 16.7755 40.6154C16.7755 40.833 16.7713 41.0381 16.7633 41.2307C19.653 39.7202 23.1769 32.7668 24.4604 29.1558C25.5858 25.9897 26.637 24.9261 27.0795 24.6835C27.9327 24.0985 29.0212 24.0323 29.8322 24.6046C30.6054 25.1503 30.9162 26.128 30.7136 27.0845C30.6889 27.8258 29.8206 29.5131 27.4005 31.2307C24.9451 32.9734 18.8877 40.2976 16.5 43.5C16.1452 43.9759 15.6975 43.9092 15.3676 43.6084C15.1479 43.5713 14.8856 43.3916 14.6057 43.0163C12.2181 39.8139 6.82891 32.9734 4.37351 31.2307C1.95349 29.5132 1.08512 27.826 1.06038 27.0846C0.857737 26.1281 1.16854 25.1503 1.94177 24.6046C2.75277 24.0323 3.84119 24.0985 4.69445 24.6835C5.13683 24.926 6.18813 25.9895 7.31361 29.1559C8.71272 33.0921 11.2426 38.0338 15 41C15.0984 41.0776 15.1885 41.1581 15.2709 41.2404C15.2564 41.0442 15.2461 40.8358 15.2403 40.6154C15.0554 33.5359 14.2417 18.1183 12.4665 13.084C10.7168 8.12215 11.1837 4.79045 11.9057 3.69137C12.59 2.09864 14.0398 1 15.7177 1C17.4777 1 18.9867 2.20882 19.6245 3.9287Z"/>
</mask>
<path fill-rule="evenodd" clip-rule="evenodd" d="M19.6245 3.9287C20.0174 4.73273 20.4526 7.34798 18.8463 13.084C16.8492 20.2159 16.7755 34.0579 16.7755 40.6154C16.7755 40.833 16.7713 41.0381 16.7633 41.2307C19.653 39.7202 23.1769 32.7668 24.4604 29.1558C25.5858 25.9897 26.637 24.9261 27.0795 24.6835C27.9327 24.0985 29.0212 24.0323 29.8322 24.6046C30.6054 25.1503 30.9162 26.128 30.7136 27.0845C30.6889 27.8258 29.8206 29.5131 27.4005 31.2307C24.9451 32.9734 18.8877 40.2976 16.5 43.5C16.1452 43.9759 15.6975 43.9092 15.3676 43.6084C15.1479 43.5713 14.8856 43.3916 14.6057 43.0163C12.2181 39.8139 6.82891 32.9734 4.37351 31.2307C1.95349 29.5132 1.08512 27.826 1.06038 27.0846C0.857737 26.1281 1.16854 25.1503 1.94177 24.6046C2.75277 24.0323 3.84119 24.0985 4.69445 24.6835C5.13683 24.926 6.18813 25.9895 7.31361 29.1559C8.71272 33.0921 11.2426 38.0338 15 41C15.0984 41.0776 15.1885 41.1581 15.2709 41.2404C15.2564 41.0442 15.2461 40.8358 15.2403 40.6154C15.0554 33.5359 14.2417 18.1183 12.4665 13.084C10.7168 8.12215 11.1837 4.79045 11.9057 3.69137C12.59 2.09864 14.0398 1 15.7177 1C17.4777 1 18.9867 2.20882 19.6245 3.9287Z" fill="black"/>
<path d="M18.8463 13.084L19.8093 13.3536H19.8093L18.8463 13.084ZM19.6245 3.9287L18.6869 4.27642L18.7042 4.32303L18.726 4.36771L19.6245 3.9287ZM16.7633 41.2307L15.7642 41.1893L15.6926 42.9188L17.2266 42.117L16.7633 41.2307ZM24.4604 29.1558L23.5181 28.8209L24.4604 29.1558ZM27.0795 24.6835L27.5602 25.5604L27.6039 25.5364L27.645 25.5083L27.0795 24.6835ZM29.8322 24.6046L29.2556 25.4216L29.8322 24.6046ZM30.7136 27.0845L29.7353 26.8773L29.7171 26.9634L29.7142 27.0513L30.7136 27.0845ZM27.4005 31.2307L26.8217 30.4153L27.4005 31.2307ZM16.5 43.5L15.6983 42.9023L16.5 43.5ZM15.3676 43.6084L16.0413 42.8694L15.8239 42.6712L15.5339 42.6223L15.3676 43.6084ZM14.6057 43.0163L15.4074 42.4185H15.4074L14.6057 43.0163ZM4.37351 31.2307L4.95228 30.4153H4.95228L4.37351 31.2307ZM1.06038 27.0846L2.05982 27.0513L2.05689 26.9634L2.03867 26.8774L1.06038 27.0846ZM1.94177 24.6046L1.36518 23.7876H1.36518L1.94177 24.6046ZM4.69445 24.6835L4.12898 25.5083L4.17007 25.5364L4.21376 25.5604L4.69445 24.6835ZM7.31361 29.1559L8.25585 28.8209L7.31361 29.1559ZM15 41L14.3804 41.7849L14.3804 41.7849L15 41ZM15.2709 41.2404L14.5637 41.9475L16.4652 43.8491L16.2682 41.1671L15.2709 41.2404ZM15.2403 40.6154L14.2407 40.6416L15.2403 40.6154ZM12.4665 13.084L13.4096 12.7514L12.4665 13.084ZM11.9057 3.69137L12.7415 4.24042L12.7898 4.16692L12.8245 4.08611L11.9057 3.69137ZM19.8093 13.3536C20.6284 10.4285 20.9389 8.25813 20.9847 6.68598C21.0298 5.13757 20.8202 4.09807 20.523 3.4897L18.726 4.36771C18.8216 4.56336 19.0261 5.2335 18.9855 6.62773C18.9456 7.99821 18.6705 10.0034 17.8834 12.8143L19.8093 13.3536ZM17.7755 40.6154C17.7755 37.3388 17.794 32.2609 18.0606 27.1169C18.3285 21.9497 18.8432 16.8036 19.8093 13.3536L17.8834 12.8143C16.8523 16.4964 16.3316 21.8371 16.0633 27.0133C15.7938 32.2126 15.7755 37.3345 15.7755 40.6154H17.7755ZM17.7625 41.2721C17.7711 41.0648 17.7755 40.8459 17.7755 40.6154H15.7755C15.7755 40.8202 15.7716 41.0114 15.7642 41.1893L17.7625 41.2721ZM23.5181 28.8209C22.8987 30.5637 21.7244 33.147 20.3528 35.473C19.6678 36.6346 18.9455 37.7116 18.2321 38.5796C17.5052 39.4639 16.8452 40.0596 16.3001 40.3445L17.2266 42.117C18.1263 41.6466 18.9904 40.8067 19.7771 39.8496C20.5772 38.8761 21.3579 37.7059 22.0756 36.4889C23.5091 34.0579 24.7386 31.359 25.4026 29.4908L23.5181 28.8209ZM26.5987 23.8067C26.176 24.0385 25.694 24.5145 25.1926 25.2708C24.678 26.0468 24.1007 27.182 23.5181 28.8209L25.4026 29.4908C25.9455 27.9636 26.4565 26.9838 26.8595 26.3759C27.0607 26.0724 27.2306 25.8683 27.3585 25.7368C27.4911 25.6006 27.5621 25.5594 27.5602 25.5604L26.5987 23.8067ZM30.4088 23.7876C29.1989 22.9338 27.6506 23.0795 26.514 23.8588L27.645 25.5083C28.2149 25.1175 28.8434 25.1307 29.2556 25.4216L30.4088 23.7876ZM31.6919 27.2918C31.9631 26.0114 31.5612 24.6009 30.4088 23.7876L29.2556 25.4216C29.6496 25.6997 29.8693 26.2446 29.7353 26.8773L31.6919 27.2918ZM27.9793 32.0462C29.2676 31.1319 30.1728 30.2047 30.7681 29.3741C31.339 28.5776 31.6912 27.7759 31.7131 27.1178L29.7142 27.0513C29.7114 27.1345 29.617 27.5471 29.1426 28.2089C28.6926 28.8367 27.9535 29.612 26.8217 30.4153L27.9793 32.0462ZM17.3017 44.0977C18.4786 42.5193 20.5742 39.9067 22.681 37.4724C24.8198 35.0012 26.8685 32.8345 27.9793 32.0462L26.8217 30.4153C25.477 31.3696 23.2694 33.7364 21.1687 36.1635C19.0361 38.6276 16.9091 41.2783 15.6983 42.9023L17.3017 44.0977ZM14.6938 44.3473C14.9858 44.6135 15.4198 44.8591 15.9508 44.8451C16.5183 44.8302 16.9828 44.5254 17.3017 44.0977L15.6983 42.9023C15.6761 42.9321 15.6794 42.9173 15.7201 42.8938C15.7644 42.8682 15.8272 42.8477 15.8981 42.8458C16.0341 42.8422 16.0793 42.904 16.0413 42.8694L14.6938 44.3473ZM13.804 43.614C14.1443 44.0704 14.6069 44.4941 15.2012 44.5944L15.5339 42.6223C15.6203 42.6369 15.646 42.6669 15.6111 42.6405C15.577 42.6149 15.506 42.5507 15.4074 42.4185L13.804 43.614ZM3.79473 32.0462C4.89861 32.8297 6.77815 34.869 8.74883 37.2187C10.6867 39.5293 12.619 42.0245 13.8041 43.614L15.4074 42.4185C14.2049 40.8056 12.2487 38.2794 10.2812 35.9335C8.34655 33.6267 6.30381 31.3745 4.95228 30.4153L3.79473 32.0462ZM0.060938 27.118C0.0829014 27.7761 0.435013 28.5777 1.00596 29.3742C1.60131 30.2047 2.50646 31.1319 3.79473 32.0462L4.95228 30.4153C3.82054 29.612 3.0815 28.8368 2.63147 28.209C2.15705 27.5472 2.0626 27.1346 2.05982 27.0513L0.060938 27.118ZM1.36518 23.7876C0.212698 24.6009 -0.189152 26.0115 0.0820938 27.2919L2.03867 26.8774C1.90463 26.2447 2.12439 25.6997 2.51837 25.4216L1.36518 23.7876ZM5.25991 23.8587C4.12335 23.0795 2.575 22.9338 1.36518 23.7876L2.51837 25.4216C2.93054 25.1308 3.55903 25.1175 4.12898 25.5083L5.25991 23.8587ZM8.25585 28.8209C7.67325 27.1819 7.09588 26.0467 6.58131 25.2706C6.0799 24.5144 5.59787 24.0383 5.17513 23.8066L4.21376 25.5604C4.21188 25.5594 4.2828 25.6005 4.41539 25.7368C4.54327 25.8682 4.71321 26.0724 4.91443 26.3758C5.31747 26.9837 5.82849 27.9635 6.37136 29.4908L8.25585 28.8209ZM15.6196 40.2151C12.0812 37.4217 9.63145 32.691 8.25585 28.8209L6.37136 29.4908C7.79399 33.4932 10.404 38.6458 14.3804 41.7849L15.6196 40.2151ZM15.978 40.5333C15.8677 40.4231 15.7483 40.3167 15.6196 40.2151L14.3804 41.7849C14.4484 41.8386 14.5093 41.8931 14.5637 41.9475L15.978 40.5333ZM14.2407 40.6416C14.2468 40.8768 14.2579 41.1009 14.2736 41.3137L16.2682 41.1671C16.255 40.9875 16.2454 40.7949 16.24 40.5893L14.2407 40.6416ZM11.5234 13.4165C12.3605 15.7905 13.0025 20.7695 13.4532 26.166C13.8998 31.5117 14.1486 37.1164 14.2407 40.6416L16.24 40.5893C16.1471 37.035 15.8967 31.3911 15.4463 25.9995C15.0002 20.6588 14.3477 15.4118 13.4096 12.7514L11.5234 13.4165ZM11.07 3.14232C10.5511 3.93221 10.2469 5.27314 10.2592 6.94651C10.2719 8.66177 10.6166 10.8451 11.5234 13.4165L13.4096 12.7514C12.5666 10.361 12.27 8.3976 12.2592 6.93178C12.2481 5.42407 12.5384 4.54961 12.7415 4.24042L11.07 3.14232ZM15.7177 0C13.5756 0 11.8019 1.39978 10.987 3.29662L12.8245 4.08611C13.3782 2.79751 14.504 2 15.7177 2V0ZM20.5621 3.58098C19.8048 1.53901 17.9658 0 15.7177 0V2C16.9895 2 18.1685 2.87862 18.6869 4.27642L20.5621 3.58098Z" fill="black" mask="url(#path-1-outside-1_6_17)"/>
</svg>
