<svg width="47" height="67" viewBox="0 0 47 67" fill="none" xmlns="http://www.w3.org/2000/svg">
<g id="Group 88">
<path id="Vector 156" d="M42.1961 15.6972C43.5664 15.7134 46.0384 18.3418 45.9995 22.511C45.951 27.7225 44.203 27.6739 44.3002 30.1825C44.3973 32.6912 45.8539 34.1154 45.9024 36.6079C45.951 39.1003 42.5846 40.9616 43.4424 43.5187C44.3002 46.0759 47.1487 47.6297 45.4493 52.7926" stroke="black" stroke-width="0.9375" stroke-linecap="round"/>
<path id="Vector 155" d="M17.8705 63.0419C17.2928 63.2434 15.9502 63.3076 15.188 62.6943C13.8919 61.6516 14.2235 59.6115 15.625 59.3546C16.9802 59.1062 17.6143 60.9111 16.6196 61.6516" stroke="black" stroke-width="0.9375" stroke-linecap="round"/>
<path id="Vector 154" d="M38.0852 18.4326C38.7272 18.3085 40.241 17.8208 41.1603 16.8626C42.3094 15.665 42.8759 14.9367 43.0701 13.48C43.2643 12.0234 43.3452 10.4373 42.5522 8.54369C41.7591 6.65008 40.2216 4.24466 38.0852 2.99233C36.5373 2.08496 33.8124 0.257113 25.2507 1.32531C18.4013 2.17986 12.6105 6.06204 10.5712 7.89631C8.95271 8.98068 5.49241 11.6026 4.59901 13.4153C3.48227 15.6812 5.34351 17.2187 4.97126 18.8857C4.59901 20.5528 1.29733 21.9285 1.02219 25.5053C0.74705 29.0821 3.11002 31.4451 3.70886 33.3387C4.30769 35.2323 2.68922 37.8866 2.13894 40.201C1.58866 42.5154 2.41408 43.616 3.70886 45.6553C5.00363 47.6945 6.75296 49.7952 6.96198 51.4008C7.31805 54.136 6.74312 54.6285 6.96198 57.4054C7.22094 60.6908 12.1849 63.2026 14.3422 60.3024C16.7861 57.0169 13.97 54.8805 12.0116 55.01C10.0737 55.1382 8.76862 57.3505 10.2475 58.3117C11.2186 58.9429 12.1357 58.1715 12.0116 57.2435" stroke="black" stroke-width="0.9375" stroke-linecap="round"/>
<path id="Vector 153" d="M40.0274 13.6095C40.7017 12.6384 41.5034 10.0715 39.3152 7.57263C36.58 4.44898 31.6113 4.25476 29.5558 4.25476C27.7147 4.25477 23.438 4.36806 18.0647 8.6732C13.766 12.1173 12.6158 13.3991 12.5781 13.6095" stroke="black" stroke-width="0.625" stroke-linecap="round"/>
<path id="Vector 151" d="M14.8601 19.5008C13.1931 20.6931 10.9779 21.7634 9.43824 24.2429C8.19201 26.2498 8.2082 27.6093 8.79085 29.2764C9.3735 30.9434 10.1989 31.8983 9.43824 33.2416C8.67756 34.585 7.56081 37.0774 9.17928 38.6959C10.7978 40.3143 13.1445 42.2565 12.2544 45.3802C11.5423 47.8791 9.64864 47.932 8.79085 47.646C8.28373 47.3979 7.59318 46.594 8.03017 45.7362C8.36979 45.0696 8.79085 44.9917 9.17928 44.9917" stroke="black" stroke-width="0.625" stroke-linecap="round"/>
<path id="Vector 150" d="M14.2613 33.1284C14.4501 33.7219 14.6012 35.022 14.0347 36.0417C13.3631 37.2506 14.0833 39.5699 15.3295 40.7191C16.5757 41.8682 16.9156 43.697 16.2358 44.7329C15.692 45.5615 14.5418 45.8334 14.0347 45.8658" stroke="black" stroke-width="0.625" stroke-linecap="round"/>
<path id="Vector 149" d="M22.467 58.2793C22.591 56.7525 22.645 53.4594 21.8681 52.5013C20.897 51.3036 19.9745 51.3522 19.1815 51.4655C18.547 51.5561 17.9892 52.1938 17.7896 52.5013" stroke="black" stroke-width="0.9375" stroke-linecap="round"/>
<path id="Vector 148" d="M22.7583 63.2803C22.9956 64.1058 22.6773 66.0156 21.1074 66.2907C18.7642 66.7014 17.8543 65.093 17.7248 64.1867C17.5953 63.2803 18.1942 61.9694 19.845 60.8526C21.4958 59.7359 21.7386 58.5059 21.075 57.5348C20.2235 56.2885 17.1098 55.6735 16.5757 55.3498C16.0416 55.0261 13.9376 53.7152 14.0347 51.4331C14.1318 49.1511 14.9655 47.5517 14.7792 46.3673" stroke="black" stroke-width="0.9375" stroke-linecap="round"/>
<path id="Vector 147" d="M24.5224 56.7093C25.2285 56.0927 27.5356 56.1089 28.6657 57.6156C30.064 59.4801 29.784 61.5971 29.1674 62.6815C28.6981 63.5069 27.4664 64.8017 25.7848 64.8017C23.3247 64.8017 23.1359 62.9242 21.9328 62.9242C21.0751 62.9242 20.719 63.426 20.4438 64.2028" stroke="black" stroke-width="0.9375" stroke-linecap="round"/>
<path id="Vector 146" d="M19.6207 46C23.5 48.3276 24.5386 50.7227 24.8785 52.9384C25.2184 55.1541 24.2473 56.3032 24.2473 58.3441C24.2473 59.7639 25.0343 60.6731 25.6655 60.8851C26.0863 61.0264 27.3613 61.2072 27.8181 60.2701C28.2363 59.4123 27.8878 58.4182 27.2253 58.2308C26.3615 57.9864 25.7201 58.7811 25.9305 59.4123" stroke="black" stroke-width="0.9375" stroke-linecap="round"/>
<path id="Vector 144" d="M41.2089 26.9457C41.4031 26.6867 41.8627 26.1203 42.1476 25.9261C42.5036 25.6833 42.714 25.5053 43.0216 25.6671C43.2676 25.7966 43.3183 26.5411 43.3129 26.8971C43.3075 27.1453 43.2334 27.7272 43.1672 28.111C43.0863 28.5804 42.8273 29.4867 42.6979 29.8266" stroke="black" stroke-width="0.375" stroke-linecap="round"/>
<path id="Vector 143" d="M40.254 31.3805C40.3511 31.6826 40.6586 32.2609 41.1118 32.1573C41.6782 32.0278 41.9048 31.5747 41.921 31.1701C41.9372 30.7654 41.6504 29.9336 41.7106 29.6325C41.8077 29.1469 42.3967 28.7747 42.2932 28.4348C42.2489 28.2892 42.1476 28.2244 42.0505 28.2083" stroke="black" stroke-width="0.375" stroke-linecap="round"/>
<path id="Vector 142" d="M41.6297 27.7713C41.3977 27.6849 40.9175 27.4508 40.8528 27.2048C40.7719 26.8973 40.7233 26.4603 40.9661 25.9909C41.2089 25.5216 41.8239 24.3077 43.3938 24.5505C44.6497 24.7447 44.5753 26.5412 44.3811 27.4152C44.1815 28.3809 43.7046 30.3997 43.3938 30.7492C43.0054 31.1862 42.8431 31.6524 42.7626 32.1088C42.6655 32.659 42.1314 34.0024 41.6297 34.4232C41.33 34.6745 40.9499 34.7631 40.3996 34.6174C39.7491 34.4452 39.585 33.8729 39.5904 33.5816" stroke="black" stroke-width="0.375" stroke-linecap="round"/>
<path id="Vector 140" d="M39.4124 27.3665L40.869 27.0752" stroke="black" stroke-width="0.375" stroke-linecap="round"/>
<path id="Vector 141" d="M39.6713 28.4995L41.0632 27.496" stroke="black" stroke-width="0.375" stroke-linecap="round"/>
<path id="Vector 139" d="M28.0992 43.5674C27.6946 43.5782 26.7883 43.6937 26.3998 44.0692" stroke="black" stroke-width="0.264351" stroke-linecap="round"/>
<path id="Vector 138" d="M32.0159 40.4923C31.8055 40.5409 31.2002 40.9002 30.4622 41.5605C29.5397 42.3859 29.5073 42.483 28.6819 42.7744C28.0216 43.0074 26.9609 43.0333 26.416 43.0171C26.0168 43.0171 25.0241 42.8391 24.1178 42.2564C22.9849 41.5281 23.0496 41.0102 21.8843 40.5247" stroke="black" stroke-width="0.375" stroke-linecap="round"/>
<path id="Vector 136" d="M32.6795 40.1686C32.3828 40.2064 31.8055 40.2107 31.2229 39.9258C30.4946 39.5698 29.2484 38.8253 28.601 38.9871C27.9536 39.149 27.6461 39.7802 27.1443 39.7802C26.6426 39.7802 25.9081 39.1328 25.4288 39.1328C24.4253 39.1328 23.519 40.4276 21.6092 40.3466" stroke="black" stroke-width="0.375" stroke-linecap="round"/>
<path id="Vector 137" d="M32.6957 40.1363C32.6418 40.2388 32.2814 40.5183 31.5304 40.5571C30.5917 40.6056 30.6564 40.3143 29.3778 40.5571C28.0992 40.7999 28.3744 41.075 27.1929 41.1236C26.0114 41.1721 25.3964 40.816 24.7166 40.6866C24.0369 40.5571 23.1144 40.6866 22.5641 40.6866C22.1238 40.6866 21.6361 40.406 21.4959 40.2981" stroke="black" stroke-width="0.375" stroke-linecap="round"/>
<path id="Vector 133" d="M28.0992 26.4116C27.9158 26.9942 27.604 28.5156 27.8241 29.9398C28.0442 31.3641 28.0992 31.9575 28.0992 32.0762" stroke="black" stroke-width="0.375" stroke-linecap="round"/>
<path id="Vector 134" d="M25.1536 27.4636C25.1968 28.0084 25.2831 29.3216 25.2831 30.215C25.2831 32.8531 24.8299 33.1876 24.6033 34.1155" stroke="black" stroke-width="0.375" stroke-linecap="round"/>
<path id="Vector 132" d="M28.5362 28.2729C28.3852 28.1272 28.0183 27.8067 27.7594 27.6902C27.4357 27.5445 26.0923 27.5931 25.4449 27.8359C24.927 28.0301 24.571 28.4023 24.4577 28.5642" stroke="black" stroke-width="0.625" stroke-linecap="round"/>
<path id="Vector 131" d="M28.9732 25.7157C30.2572 25.2301 32.9482 24.2591 33.4402 24.2591C34.0552 24.2591 34.12 24.1943 34.8807 24.0972C35.6413 24.0001 36.4182 23.7573 37.3084 24.2591C38.0205 24.6604 38.8243 25.3974 39.1372 25.7157" stroke="black" stroke-width="0.377644" stroke-linecap="round"/>
<path id="Vector 130" d="M30.4136 27.6416C30.5809 27.1777 31.1873 26.2012 32.2749 26.007C33.6344 25.7642 34.1361 25.7804 35.5604 26.2174C36.7543 26.5837 36.8875 26.6544 37.4216 26.6382" stroke="black" stroke-width="0.264351"/>
<path id="Vector 123" d="M35.9974 14.9204C36.4559 15.352 37.4864 16.581 37.9395 18.0441C38.506 19.8729 38.328 21.2325 38.8459 22.5434C39.3638 23.8544 40.254 24.5665 40.432 25.0359C40.5744 25.4113 40.5669 26.8432 40.5453 27.5121C40.61 28.2944 40.678 30.0272 40.432 30.7005C40.1245 31.5421 39.8132 32.1753 39.6066 33.1606C39.3962 34.164 39.38 35.2484 39.1696 36.1386C38.9592 37.0287 38.1823 38.9547 35.4633 43.2437C33.38 46.5298 31.4387 47.975 30.8345 48.358C30.1763 48.822 28.6301 49.7079 27.3224 49.669C26.0146 49.6302 24.2527 48.7141 23.5837 48.2124L22.0623 47.1118L21.2693 46.5292L20.5086 45.9303C19.8612 45.3477 19.4566 44.9431 19.1491 44.5223" stroke="black" stroke-width="0.625" stroke-linecap="round"/>
<path id="Vector 121" d="M24.6034 26.3791C24.5926 25.872 24.0045 24.9322 21.7387 25.23C20.3014 25.4189 19.4307 25.3833 18.9489 25.2894" stroke="black" stroke-width="0.377644" stroke-linecap="round"/>
<path id="Vector 120" d="M23.2276 29.0172C23.0604 28.5533 22.4667 27.6306 21.5282 27.3178C20.9456 27.1236 20.5646 27.0665 19.6508 27.1236C19.1329 27.156 17.7572 27.6254 17.2716 27.771C16.6751 27.95 16.3761 27.949 16.1711 27.949" stroke="black" stroke-width="0.264351" stroke-linecap="round"/>
<g id="Group 90">
<path id="Vector 119" d="M19.9319 29.7876C20.8893 29.6561 20.7537 28.9162 20.5655 28.5788C20.2737 28.5404 19.6203 28.4836 19.3412 28.5636C19.0727 28.8129 19.1067 29.2686 19.3033 29.536C19.4606 29.7498 19.7879 29.7929 19.9319 29.7876Z" fill="black" stroke="black" stroke-width="0.188822" stroke-linecap="round"/>
<path id="Vector 118" d="M20.8343 28.5613C21.0398 29.1092 21.128 30.3706 19.8264 30.3199C18.7914 30.2796 18.7011 29.2719 19.0509 28.6052" stroke="black" stroke-width="0.188822" stroke-linecap="round"/>
<path id="Vector 117" d="M22.8292 29.7405C22.7907 29.7002 22.7461 29.6547 22.6966 29.6058M22.6966 29.6058C22.327 29.24 21.688 28.6795 21.3027 28.5959C20.8658 28.5011 19.8269 28.5061 19.362 28.5203L16.5627 28.8649C16.565 28.8056 16.9018 28.7599 17.8643 29.5472C18.6335 30.1765 18.9972 30.4012 19.6927 30.4283C20.663 30.466 22.0009 29.935 22.6966 29.6058Z" stroke="black" stroke-width="0.264351" stroke-linecap="round"/>
<path id="Vector 116" d="M16.4178 28.8429C16.8045 28.7554 17.7976 28.5144 18.676 28.2506C19.774 27.9208 21.1275 28.103 21.607 28.2675C21.9486 28.3846 22.5648 29.1452 22.9195 29.6317C22.9842 29.7205 22.957 29.8445 22.86 29.8961C22.4588 30.1096 21.7322 30.4391 21.0312 30.5774C20.0029 30.7804 19.9531 30.8108 19.5649 30.7957C19.1768 30.7806 18.7408 30.7474 17.9647 30.2961C17.3438 29.935 16.5707 29.0756 16.2617 28.6911" stroke="black" stroke-width="0.264351" stroke-linecap="round"/>
<path id="Ellipse 41" d="M20.2696 28.9429C20.2796 29.009 20.2449 29.0787 20.1741 29.1379C20.1035 29.1968 19.9995 29.243 19.8786 29.2613C19.7577 29.2796 19.6446 29.2663 19.5598 29.2309C19.4746 29.1953 19.4208 29.1391 19.4108 29.073C19.4008 29.0069 19.4355 28.9373 19.5064 28.8781C19.5769 28.8191 19.681 28.7729 19.8018 28.7546C19.9227 28.7363 20.0358 28.7496 20.1206 28.7851C20.2059 28.8206 20.2596 28.8769 20.2696 28.9429Z" fill="white" stroke="black" stroke-width="0.0377644"/>
</g>
<path id="Vector 122" d="M37.1789 14.6615C36.2455 13.3127 33.6506 11.2627 31.4009 12.2499C29.7824 12.9602 28.7671 14.3392 28.0345 15.2441C26.6588 16.9435 25.542 18.8209 22.0461 19.2256C21.2073 19.3226 20.8256 20.6123 20.6219 21.4429C20.2711 22.8733 20.3187 24.2769 18.2913 25.8127C17.9352 26.0447 16.7376 26.6544 15.7988 27.9329C14.6068 29.5566 13.9538 29.4219 13.2093 30.0046C12.4648 30.5872 10.5874 32.756 11.785 34.4068" stroke="black" stroke-width="0.9375" stroke-linecap="round"/>
<path id="Ellipse 42" d="M13.3711 29.9561C13.3711 33.0756 15.9 35.6045 19.0196 35.6045C22.1392 35.6045 24.6681 33.0756 24.6681 29.9561C24.6681 27.126 22.5868 24.7821 19.8714 24.3714" stroke="black" stroke-width="0.75" stroke-linecap="round"/>
<path id="Ellipse 43" d="M39.3449 29.1793C39.3449 32.0917 36.9838 34.4528 34.0714 34.4528C31.1589 34.4528 28.7979 32.0917 28.7979 29.1793C28.7979 26.2668 31.1589 23.9058 34.0714 23.9058C36.9838 23.9058 39.3449 26.2668 39.3449 29.1793Z" stroke="black" stroke-width="0.75"/>
<g id="Group 89">
<path id="Vector 129" d="M34.1782 28.2286C34.2211 27.9422 34.0213 27.6937 33.9003 27.6219C33.6046 27.4853 33.4515 27.5243 33.3791 27.5247C32.7153 27.5291 32.7486 28.0787 32.7885 28.3203C32.8284 28.562 33.1438 28.8113 33.4668 28.785C33.7899 28.7588 34.1246 28.5865 34.1782 28.2286Z" fill="black" stroke="black" stroke-width="0.0377644" stroke-linecap="round"/>
<path id="Vector 128" d="M34.4198 28.7069C34.5662 28.4173 34.4226 27.7568 34.3512 27.5432C33.9013 27.4816 33.091 27.4236 32.9231 27.4418C32.7133 27.4645 32.4154 28.2996 32.5908 28.7313C32.7902 29.2225 33.1912 29.2956 33.5153 29.3017C33.8393 29.3079 34.2367 29.0688 34.4198 28.7069Z" stroke="black" stroke-width="0.188822" stroke-linecap="round"/>
<path id="Vector 127" d="M30.7371 28.4812C30.9627 28.2745 31.5096 27.8095 31.8918 27.6033C32.2741 27.3971 33.288 27.371 33.7482 27.4161C34.2525 27.4922 35.2169 27.6781 35.6868 27.793C36.1567 27.908 36.7605 27.954 36.9218 27.9328" stroke="black" stroke-width="0.264351" stroke-linecap="round"/>
<path id="Vector 126" d="M36.9213 27.9167C36.684 27.924 36.0385 28.0639 35.3545 28.5645C34.4996 29.1901 33.81 29.4059 33.583 29.3967C33.356 29.3876 32.5295 29.3647 31.7399 28.9682C31.1083 28.651 30.6902 28.5367 30.5601 28.5191" stroke="black" stroke-width="0.264351" stroke-linecap="round"/>
<path id="Vector 125" d="M37.2691 27.6467C36.9079 28.0088 36.1472 28.7503 35.994 28.8198C35.8023 28.9068 35.1309 29.7049 33.9348 29.7744C32.7387 29.8439 30.5216 28.8441 30.4853 28.7157" stroke="black" stroke-width="0.264351" stroke-linecap="round"/>
<path id="Vector 124" d="M30.3093 28.7859C30.5681 28.427 31.1712 27.6265 31.6593 27.4162C32.3884 27.1021 33.4886 27.0717 34.2204 27.1731L35.6772 27.4857L36.9845 27.8661" stroke="black" stroke-width="0.264351" stroke-linecap="round"/>
<path id="Ellipse 44" d="M33.8236 27.9458C33.8331 28.0072 33.8 28.0726 33.7317 28.1288C33.6637 28.1847 33.5635 28.2288 33.447 28.2468C33.3305 28.2648 33.2216 28.2529 33.1399 28.2201C33.0578 28.1871 33.0066 28.1347 32.9972 28.0732C32.9877 28.0118 33.0207 27.9464 33.0891 27.8902C33.157 27.8344 33.2573 27.7902 33.3738 27.7723C33.4903 27.7543 33.5992 27.7662 33.6808 27.799C33.7629 27.832 33.8141 27.8844 33.8236 27.9458Z" fill="white" stroke="black" stroke-width="0.0377644"/>
</g>
<path id="Vector 135" d="M28.5362 33.4519C28.9732 33.2307 29.9896 32.9502 30.5593 33.5976C31.2714 34.4068 30.7212 35.1837 30.3165 35.3779C29.9119 35.5721 29.3454 35.4103 28.9408 35.734C28.5362 36.0577 27.9536 36.8345 27.1281 36.8345C26.3027 36.8345 26.1732 36.6565 25.8819 36.4623C25.5906 36.2681 25.3478 35.734 24.2149 35.734C23.3085 35.734 23.0604 34.9895 23.0496 34.6172C23.0928 34.2666 23.4089 33.5814 24.3282 33.6462" stroke="black" stroke-width="0.375" stroke-linecap="round"/>
<path id="Vector 145" d="M15.8312 34.682C16.101 35.0057 16.5595 35.9574 16.2358 37.1745C15.8312 38.6958 15.459 39.0519 17.1745 40.9131C18.8901 42.7744 19.1167 44.231 19.0682 45.1859C19.0196 46.1408 18.7606 47.9049 17.3849 49.2159" stroke="black" stroke-width="0.625" stroke-linecap="round"/>
<path id="Vector 152" d="M37.8424 13.658C38.3819 13.1185 39.2084 11.541 38.1985 9.54705C37.1886 7.5531 35.2529 7.2704 34.4113 7.3783C33.9257 7.35672 32.1454 7.68258 28.9085 9.15863C25.6715 10.6347 23.6754 11.7158 23.082 12.0719C21.1182 12.9027 17.0515 14.8718 16.43 15.9077C15.8086 16.9435 15.7017 17.4128 15.637 17.5747" stroke="black" stroke-width="0.625" stroke-linecap="round"/>
<path id="Vector 157" d="M36.2078 42.0785C35.4903 43.8912 34.4857 48.9699 36.2078 52.7119" stroke="black" stroke-width="0.625" stroke-linecap="round"/>
<path id="Vector 158" d="M41.8179 34.75C42.1038 35.7103 42.3099 37.9934 40.8468 39.4436C39.0179 41.2563 38.8723 44.9787 40.3451 46.4516" stroke="black" stroke-width="0.625" stroke-linecap="round"/>
<path id="Vector 159" d="M41.7648 23.9434C41.787 22.7156 41.4663 20.0503 40.0052 19.2124" stroke="black" stroke-width="0.625" stroke-linecap="round"/>
<path id="Vector 160" d="M43.4545 22.1689C43.5511 21.4791 43.5062 19.958 42.5546 19.3914" stroke="black" stroke-width="0.625" stroke-linecap="round"/>
</g>
</svg>
