<svg width="230" height="466" viewBox="0 0 230 466" fill="none" xmlns="http://www.w3.org/2000/svg">
<mask id="path-1-outside-1_335_518" maskUnits="userSpaceOnUse" x="-1.51895" y="0.517339" width="231.442" height="464.713" fill="black">
<rect fill="white" x="-1.51895" y="0.517339" width="231.442" height="464.713"/>
<path fill-rule="evenodd" clip-rule="evenodd" d="M226.876 24.9395C226.915 12.3939 216.776 2.19201 204.231 2.15298L26.1323 1.59888C13.5867 1.55985 3.38485 11.6984 3.34582 24.2441L3.02733 126.611L1.82716 126.607C1.5354 126.606 1.29814 126.842 1.29723 127.134L1.12653 181.999C1.12562 182.291 1.36141 182.528 1.65317 182.529L2.85335 182.533L2.05163 440.221C2.0126 452.766 12.1512 462.968 24.6968 463.007L202.795 463.561C215.341 463.6 225.543 453.462 225.582 440.916L226.365 189.217L227.81 189.221C228.102 189.222 228.339 188.987 228.34 188.695L228.438 157.423C228.438 157.132 228.203 156.894 227.911 156.894L226.465 156.889L226.491 148.641L227.937 148.645C228.228 148.646 228.466 148.41 228.467 148.119L228.564 116.847C228.565 116.555 228.329 116.318 228.037 116.317L226.591 116.313L226.63 103.992L228.076 103.996C228.367 103.997 228.605 103.762 228.605 103.47L228.658 86.6277C228.659 86.336 228.423 86.0987 228.131 86.0978L226.686 86.0933L226.876 24.9395Z"/>
</mask>
<path d="M226.876 24.9395L227.725 24.9422L226.876 24.9395ZM3.34582 24.2441L2.49652 24.2414L3.34582 24.2441ZM3.02733 126.611L3.87663 126.613L3.87399 127.463L3.02469 127.46L3.02733 126.611ZM1.82716 126.607L1.8298 125.758L1.82716 126.607ZM1.65317 182.529L1.65582 181.68L1.65317 182.529ZM2.85335 182.533L2.85599 181.684L3.70529 181.686L3.70265 182.536L2.85335 182.533ZM226.365 189.217L225.515 189.214L225.518 188.365L226.367 188.368L226.365 189.217ZM228.34 188.695L229.19 188.697L228.34 188.695ZM228.438 157.423L227.588 157.421L228.438 157.423ZM227.911 156.894L227.908 157.743L227.911 156.894ZM226.465 156.889L226.463 157.738L225.613 157.736L225.616 156.886L226.465 156.889ZM226.491 148.641L225.642 148.638L225.644 147.789L226.494 147.791L226.491 148.641ZM226.591 116.313L226.589 117.162L225.74 117.159L225.742 116.31L226.591 116.313ZM226.63 103.992L225.781 103.989L225.783 103.14L226.632 103.143L226.63 103.992ZM228.076 103.996L228.073 104.846L228.076 103.996ZM228.131 86.0978L228.129 86.9471L228.131 86.0978ZM226.686 86.0933L226.683 86.9426L225.834 86.94L225.836 86.0907L226.686 86.0933ZM204.233 1.30368C217.248 1.34417 227.766 11.9275 227.725 24.9422L226.026 24.9369C226.064 12.8603 216.305 3.03986 204.228 3.00229L204.233 1.30368ZM26.135 0.749578L204.233 1.30368L204.228 3.00229L26.1297 2.44818L26.135 0.749578ZM2.49652 24.2414C2.53701 11.2267 13.1203 0.709087 26.135 0.749578L26.1297 2.44818C14.0531 2.41061 4.23269 12.1701 4.19512 24.2467L2.49652 24.2414ZM2.17803 126.608L2.49652 24.2414L4.19512 24.2467L3.87663 126.613L2.17803 126.608ZM3.02469 127.46L1.82452 127.456L1.8298 125.758L3.02998 125.761L3.02469 127.46ZM1.82452 127.456C2.00179 127.457 2.14598 127.313 2.14653 127.136L0.44793 127.131C0.450297 126.37 1.069 125.755 1.8298 125.758L1.82452 127.456ZM2.14653 127.136L1.97583 182.002L0.277231 181.997L0.44793 127.131L2.14653 127.136ZM1.97583 182.002C1.97638 181.825 1.83308 181.681 1.65582 181.68L1.65053 183.379C0.889748 183.376 0.274864 182.758 0.277231 181.997L1.97583 182.002ZM1.65582 181.68L2.85599 181.684L2.85071 183.382L1.65053 183.379L1.65582 181.68ZM1.20233 440.218L2.00405 182.53L3.70265 182.536L2.90093 440.223L1.20233 440.218ZM24.6942 463.857C11.6795 463.816 1.16184 453.233 1.20233 440.218L2.90093 440.223C2.86336 452.3 12.6229 462.12 24.6995 462.158L24.6942 463.857ZM202.792 464.411L24.6942 463.857L24.6995 462.158L202.798 462.712L202.792 464.411ZM226.431 440.919C226.39 453.933 215.807 464.451 202.792 464.411L202.798 462.712C214.874 462.75 224.695 452.99 224.732 440.913L226.431 440.919ZM227.214 189.22L226.431 440.919L224.732 440.913L225.515 189.214L227.214 189.22ZM227.808 190.071L226.362 190.066L226.367 188.368L227.813 188.372L227.808 190.071ZM229.19 188.697C229.187 189.458 228.569 190.073 227.808 190.071L227.813 188.372C227.636 188.372 227.492 188.515 227.491 188.692L229.19 188.697ZM229.287 157.426L229.19 188.697L227.491 188.692L227.588 157.421L229.287 157.426ZM227.914 156.044C228.674 156.047 229.289 156.665 229.287 157.426L227.588 157.421C227.588 157.598 227.731 157.742 227.908 157.743L227.914 156.044ZM226.468 156.04L227.914 156.044L227.908 157.743L226.463 157.738L226.468 156.04ZM227.34 148.643L227.315 156.892L225.616 156.886L225.642 148.638L227.34 148.643ZM227.934 149.494L226.488 149.49L226.494 147.791L227.939 147.796L227.934 149.494ZM229.316 148.121C229.313 148.882 228.695 149.497 227.934 149.494L227.939 147.796C227.762 147.795 227.618 147.939 227.617 148.116L229.316 148.121ZM229.413 116.85L229.316 148.121L227.617 148.116L227.715 116.844L229.413 116.85ZM228.04 115.468C228.801 115.47 229.415 116.089 229.413 116.85L227.715 116.844C227.714 117.022 227.857 117.166 228.035 117.167L228.04 115.468ZM226.594 115.463L228.04 115.468L228.035 117.167L226.589 117.162L226.594 115.463ZM227.479 103.995L227.441 116.315L225.742 116.31L225.781 103.989L227.479 103.995ZM228.073 104.846L226.627 104.841L226.632 103.143L228.078 103.147L228.073 104.846ZM229.455 103.472C229.452 104.233 228.834 104.848 228.073 104.846L228.078 103.147C227.901 103.147 227.757 103.29 227.756 103.467L229.455 103.472ZM229.507 86.6304L229.455 103.472L227.756 103.467L227.809 86.6251L229.507 86.6304ZM228.134 85.2485C228.895 85.2509 229.509 85.8696 229.507 86.6304L227.809 86.6251C227.808 86.8024 227.951 86.9466 228.129 86.9471L228.134 85.2485ZM226.688 85.244L228.134 85.2485L228.129 86.9471L226.683 86.9426L226.688 85.244ZM227.725 24.9422L227.535 86.096L225.836 86.0907L226.026 24.9369L227.725 24.9422Z" fill="#0B0921" mask="url(#path-1-outside-1_335_518)"/>
<rect x="-0.425973" y="0.42333" width="217.512" height="454.203" rx="20.4197" transform="matrix(-0.999995 -0.00311119 -0.00311119 0.999995 223.096 5.22841)" stroke="#0B0921" stroke-width="0.849307"/>
<path d="M155.568 12.0219L192.251 12.1361C206.083 12.1791 217.261 23.4268 217.217 37.2584L216.001 428.321C215.958 442.153 204.71 453.33 190.878 453.287L35.8702 452.805C22.0385 452.762 10.8606 441.514 10.9036 427.683L12.1203 36.6204C12.1633 22.7887 23.411 11.6108 37.2427 11.6538L75.3451 11.7724C76.2544 12.0996 76.9033 12.9712 76.9001 13.9929L76.8916 16.7359C76.8729 22.775 81.7534 27.6859 87.7925 27.7047L143.022 27.8765C149.061 27.8953 153.972 23.0147 153.991 16.9755L153.999 14.2328C154.002 13.2111 154.657 12.3436 155.568 12.0219Z" fill="#F5F5F5"/>
</svg>
